<?xml version="1.0" encoding="UTF-8" standalone="no"?>
<svg
   xmlns:dc="http://purl.org/dc/elements/1.1/"
   xmlns:cc="http://creativecommons.org/ns#"
   xmlns:rdf="http://www.w3.org/1999/02/22-rdf-syntax-ns#"
   xmlns:svg="http://www.w3.org/2000/svg"
   xmlns="http://www.w3.org/2000/svg"
   xmlns:sodipodi="http://sodipodi.sourceforge.net/DTD/sodipodi-0.dtd"
   xmlns:inkscape="http://www.inkscape.org/namespaces/inkscape"
   width="100.80000000000001mm"
   height="90.8mm"
   viewBox="0 0 100800.00000000001 90800"
   version="1.1"
   id="svg125"
   sodipodi:docname="C_1000_64.svg"
   inkscape:version="0.92.1 r15371">
  <metadata
     id="metadata129">
    <rdf:RDF>
      <cc:Work
         rdf:about="">
        <dc:format>image/svg+xml</dc:format>
        <dc:type
           rdf:resource="http://purl.org/dc/dcmitype/StillImage" />
        <dc:title></dc:title>
      </cc:Work>
    </rdf:RDF>
  </metadata>
  <sodipodi:namedview
     pagecolor="#ffffff"
     bordercolor="#666666"
     borderopacity="1"
     objecttolerance="10"
     gridtolerance="10"
     guidetolerance="10"
     inkscape:pageopacity="0"
     inkscape:pageshadow="2"
     inkscape:window-width="1536"
     inkscape:window-height="801"
     id="namedview127"
     showgrid="false"
     inkscape:zoom="1.3753671"
     inkscape:cx="190.48819"
     inkscape:cy="171.59056"
     inkscape:window-x="-8"
     inkscape:window-y="-8"
     inkscape:window-maximized="1"
     inkscape:current-layer="svg125" />
  <defs
     id="defs57">
    <radialGradient
       cx="41800"
       cy="30000"
       r="750"
       gradientUnits="userSpaceOnUse"
       id="color-1"
       gradientTransform="matrix(-1,0,0,1,100000,0)">
      <stop
         offset="0.8"
         stop-color="#f44336"
         id="stop2" />
      <stop
         offset="0.8"
         stop-color="#b71c1c"
         id="stop4" />
    </radialGradient>
    <radialGradient
       cx="37400"
       cy="30000"
       r="750"
       gradientUnits="userSpaceOnUse"
       id="color-2"
       gradientTransform="matrix(-1,0,0,1,100000,0)">
      <stop
         offset="0.8"
         stop-color="#f44336"
         id="stop7" />
      <stop
         offset="0.8"
         stop-color="#b71c1c"
         id="stop9" />
    </radialGradient>
    <radialGradient
       cx="61750"
       cy="50460"
       r="750"
       gradientUnits="userSpaceOnUse"
       id="color-3"
       gradientTransform="matrix(-1,0,0,1,100000,0)">
      <stop
         offset="0.8"
         stop-color="#f44336"
         id="stop12" />
      <stop
         offset="0.8"
         stop-color="#b71c1c"
         id="stop14" />
    </radialGradient>
    <radialGradient
       cx="67700"
       cy="50000"
       r="750"
       gradientUnits="userSpaceOnUse"
       id="color-4"
       gradientTransform="matrix(-1,0,0,1,100000,0)">
      <stop
         offset="0.8"
         stop-color="#f44336"
         id="stop17" />
      <stop
         offset="0.8"
         stop-color="#b71c1c"
         id="stop19" />
    </radialGradient>
    <radialGradient
       cx="35000"
       cy="38000"
       r="750"
       gradientUnits="userSpaceOnUse"
       id="color-5"
       gradientTransform="matrix(-1,0,0,1,100000,0)">
      <stop
         offset="0.8"
         stop-color="#f44336"
         id="stop22" />
      <stop
         offset="0.8"
         stop-color="#b71c1c"
         id="stop24" />
    </radialGradient>
    <radialGradient
       cx="43000"
       cy="38000"
       r="750"
       gradientUnits="userSpaceOnUse"
       id="color-6"
       gradientTransform="matrix(-1,0,0,1,100000,0)">
      <stop
         offset="0.8"
         stop-color="#f44336"
         id="stop27" />
      <stop
         offset="0.8"
         stop-color="#b71c1c"
         id="stop29" />
    </radialGradient>
    <radialGradient
       cx="44000"
       cy="23000"
       r="750"
       gradientUnits="userSpaceOnUse"
       id="color-7"
       gradientTransform="matrix(-1,0,0,1,100000,0)">
      <stop
         offset="0.8"
         stop-color="#f44336"
         id="stop32" />
      <stop
         offset="0.8"
         stop-color="#b71c1c"
         id="stop34" />
    </radialGradient>
    <radialGradient
       cx="36000"
       cy="23000"
       r="750"
       gradientUnits="userSpaceOnUse"
       id="color-8"
       gradientTransform="matrix(-1,0,0,1,100000,0)">
      <stop
         offset="0.8"
         stop-color="#f44336"
         id="stop37" />
      <stop
         offset="0.8"
         stop-color="#b71c1c"
         id="stop39" />
    </radialGradient>
    <radialGradient
       cx="70000"
       cy="20000"
       r="2020"
       gradientUnits="userSpaceOnUse"
       id="color-9"
       gradientTransform="matrix(-1,0,0,1,100000,0)">
      <stop
         offset="1"
         stop-color="#ef5350"
         id="stop42" />
      <stop
         offset="1"
         stop-color="#b71c1c"
         id="stop44" />
    </radialGradient>
    <radialGradient
       cx="26000"
       cy="60000"
       r="2020"
       gradientUnits="userSpaceOnUse"
       id="color-10"
       gradientTransform="matrix(-1,0,0,1,100000,0)">
      <stop
         offset="1"
         stop-color="#ef5350"
         id="stop47" />
      <stop
         offset="1"
         stop-color="#b71c1c"
         id="stop49" />
    </radialGradient>
    <radialGradient
       cx="70000"
       cy="40000"
       r="2020"
       gradientUnits="userSpaceOnUse"
       id="color-11"
       gradientTransform="matrix(-1,0,0,1,100000,0)">
      <stop
         offset="1"
         stop-color="#ef5350"
         id="stop52" />
      <stop
         offset="1"
         stop-color="#b71c1c"
         id="stop54" />
    </radialGradient>
  </defs>
  <path
     inkscape:connector-curvature="0"
     style="font-family:none;mix-blend-mode:normal;fill:url(#color-1);fill-rule:nonzero;stroke:none;stroke-width:1;stroke-linecap:butt;stroke-linejoin:miter;stroke-miterlimit:10;stroke-dasharray:none;stroke-dashoffset:0"
     id="path101"
     d="m 58950,30000 c 0,-414.214 -335.786,-750 -750,-750 -414.214,0 -750,335.786 -750,750 0,414.214 335.786,750 750,750 414.214,0 750,-335.786 750,-750 z" />
  <path
     inkscape:connector-curvature="0"
     style="font-family:none;mix-blend-mode:normal;fill:url(#color-2);fill-rule:nonzero;stroke:none;stroke-width:1;stroke-linecap:butt;stroke-linejoin:miter;stroke-miterlimit:10;stroke-dasharray:none;stroke-dashoffset:0"
     id="path103"
     d="m 63350,30000 c 0,-414.214 -335.786,-750 -750,-750 -414.214,0 -750,335.786 -750,750 0,414.214 335.786,750 750,750 414.214,0 750,-335.786 750,-750 z" />
  <path
     inkscape:connector-curvature="0"
     style="font-family:none;mix-blend-mode:normal;fill:url(#color-3);fill-rule:nonzero;stroke:none;stroke-width:1;stroke-linecap:butt;stroke-linejoin:miter;stroke-miterlimit:10;stroke-dasharray:none;stroke-dashoffset:0"
     id="path105"
     d="m 39000,50460 c 0,-414.214 -335.786,-750 -750,-750 -414.214,0 -750,335.786 -750,750 0,414.214 335.786,750 750,750 414.214,0 750,-335.786 750,-750 z" />
  <path
     inkscape:connector-curvature="0"
     style="font-family:none;mix-blend-mode:normal;fill:url(#color-4);fill-rule:nonzero;stroke:none;stroke-width:1;stroke-linecap:butt;stroke-linejoin:miter;stroke-miterlimit:10;stroke-dasharray:none;stroke-dashoffset:0"
     id="path107"
     d="m 33050,50000 c 0,-414.214 -335.786,-750 -750,-750 -414.214,0 -750,335.786 -750,750 0,414.214 335.786,750 750,750 414.214,0 750,-335.786 750,-750 z" />
  <path
     inkscape:connector-curvature="0"
     style="font-family:none;mix-blend-mode:normal;fill:url(#color-5);fill-rule:nonzero;stroke:none;stroke-width:1;stroke-linecap:butt;stroke-linejoin:miter;stroke-miterlimit:10;stroke-dasharray:none;stroke-dashoffset:0"
     id="path109"
     d="m 65750,38000 c 0,-414.214 -335.786,-750 -750,-750 -414.214,0 -750,335.786 -750,750 0,414.214 335.786,750 750,750 414.214,0 750,-335.786 750,-750 z" />
  <path
     inkscape:connector-curvature="0"
     style="font-family:none;mix-blend-mode:normal;fill:url(#color-6);fill-rule:nonzero;stroke:none;stroke-width:1;stroke-linecap:butt;stroke-linejoin:miter;stroke-miterlimit:10;stroke-dasharray:none;stroke-dashoffset:0"
     id="path111"
     d="m 57750,38000 c 0,-414.214 -335.786,-750 -750,-750 -414.214,0 -750,335.786 -750,750 0,414.214 335.786,750 750,750 414.214,0 750,-335.786 750,-750 z" />
  <path
     inkscape:connector-curvature="0"
     style="font-family:none;mix-blend-mode:normal;fill:url(#color-7);fill-rule:nonzero;stroke:none;stroke-width:1;stroke-linecap:butt;stroke-linejoin:miter;stroke-miterlimit:10;stroke-dasharray:none;stroke-dashoffset:0"
     id="path113"
     d="m 56750,23000 c 0,-414.214 -335.786,-750 -750,-750 -414.214,0 -750,335.786 -750,750 0,414.214 335.786,750 750,750 414.214,0 750,-335.786 750,-750 z" />
  <path
     inkscape:connector-curvature="0"
     style="font-family:none;mix-blend-mode:normal;fill:url(#color-8);fill-rule:nonzero;stroke:none;stroke-width:1;stroke-linecap:butt;stroke-linejoin:miter;stroke-miterlimit:10;stroke-dasharray:none;stroke-dashoffset:0"
     id="path115"
     d="m 64750,23000 c 0,-414.214 -335.786,-750 -750,-750 -414.214,0 -750,335.786 -750,750 0,414.214 335.786,750 750,750 414.214,0 750,-335.786 750,-750 z" />
</svg>
