<?xml version="1.0" encoding="UTF-8" standalone="no"?>
<svg
   xmlns:dc="http://purl.org/dc/elements/1.1/"
   xmlns:cc="http://creativecommons.org/ns#"
   xmlns:rdf="http://www.w3.org/1999/02/22-rdf-syntax-ns#"
   xmlns:svg="http://www.w3.org/2000/svg"
   xmlns="http://www.w3.org/2000/svg"
   xmlns:sodipodi="http://sodipodi.sourceforge.net/DTD/sodipodi-0.dtd"
   xmlns:inkscape="http://www.inkscape.org/namespaces/inkscape"
   width="100.80000000000001mm"
   height="90.8mm"
   viewBox="0 0 100800.00000000001 90800"
   version="1.1"
   id="svg131"
   sodipodi:docname="C_200_100.svg"
   inkscape:version="0.92.1 r15371">
  <metadata
     id="metadata135">
    <rdf:RDF>
      <cc:Work
         rdf:about="">
        <dc:format>image/svg+xml</dc:format>
        <dc:type
           rdf:resource="http://purl.org/dc/dcmitype/StillImage" />
        <dc:title></dc:title>
      </cc:Work>
    </rdf:RDF>
  </metadata>
  <sodipodi:namedview
     pagecolor="#ffffff"
     bordercolor="#666666"
     borderopacity="1"
     objecttolerance="10"
     gridtolerance="10"
     guidetolerance="10"
     inkscape:pageopacity="0"
     inkscape:pageshadow="2"
     inkscape:window-width="1536"
     inkscape:window-height="801"
     id="namedview133"
     showgrid="false"
     inkscape:zoom="1.9450627"
     inkscape:cx="190.48819"
     inkscape:cy="151.02567"
     inkscape:window-x="-8"
     inkscape:window-y="-8"
     inkscape:window-maximized="1"
     inkscape:current-layer="svg131" />
  <defs
     id="defs57">
    <radialGradient
       cx="41800"
       cy="30000"
       r="750"
       gradientUnits="userSpaceOnUse"
       id="color-1"
       gradientTransform="matrix(-1,0,0,1,100000,0)">
      <stop
         offset="0.8"
         stop-color="#f44336"
         id="stop2" />
      <stop
         offset="0.8"
         stop-color="#b71c1c"
         id="stop4" />
    </radialGradient>
    <radialGradient
       cx="37400"
       cy="30000"
       r="750"
       gradientUnits="userSpaceOnUse"
       id="color-2"
       gradientTransform="matrix(-1,0,0,1,100000,0)">
      <stop
         offset="0.8"
         stop-color="#f44336"
         id="stop7" />
      <stop
         offset="0.8"
         stop-color="#b71c1c"
         id="stop9" />
    </radialGradient>
    <radialGradient
       cx="61750"
       cy="50460"
       r="750"
       gradientUnits="userSpaceOnUse"
       id="color-3"
       gradientTransform="matrix(-1,0,0,1,100000,0)">
      <stop
         offset="0.8"
         stop-color="#f44336"
         id="stop12" />
      <stop
         offset="0.8"
         stop-color="#b71c1c"
         id="stop14" />
    </radialGradient>
    <radialGradient
       cx="67700"
       cy="50000"
       r="750"
       gradientUnits="userSpaceOnUse"
       id="color-4"
       gradientTransform="matrix(-1,0,0,1,100000,0)">
      <stop
         offset="0.8"
         stop-color="#f44336"
         id="stop17" />
      <stop
         offset="0.8"
         stop-color="#b71c1c"
         id="stop19" />
    </radialGradient>
    <radialGradient
       cx="35000"
       cy="38000"
       r="750"
       gradientUnits="userSpaceOnUse"
       id="color-5"
       gradientTransform="matrix(-1,0,0,1,100000,0)">
      <stop
         offset="0.8"
         stop-color="#f44336"
         id="stop22" />
      <stop
         offset="0.8"
         stop-color="#b71c1c"
         id="stop24" />
    </radialGradient>
    <radialGradient
       cx="43000"
       cy="38000"
       r="750"
       gradientUnits="userSpaceOnUse"
       id="color-6"
       gradientTransform="matrix(-1,0,0,1,100000,0)">
      <stop
         offset="0.8"
         stop-color="#f44336"
         id="stop27" />
      <stop
         offset="0.8"
         stop-color="#b71c1c"
         id="stop29" />
    </radialGradient>
    <radialGradient
       cx="44000"
       cy="23000"
       r="750"
       gradientUnits="userSpaceOnUse"
       id="color-7"
       gradientTransform="matrix(-1,0,0,1,100000,0)">
      <stop
         offset="0.8"
         stop-color="#f44336"
         id="stop32" />
      <stop
         offset="0.8"
         stop-color="#b71c1c"
         id="stop34" />
    </radialGradient>
    <radialGradient
       cx="36000"
       cy="23000"
       r="750"
       gradientUnits="userSpaceOnUse"
       id="color-8"
       gradientTransform="matrix(-1,0,0,1,100000,0)">
      <stop
         offset="0.8"
         stop-color="#f44336"
         id="stop37" />
      <stop
         offset="0.8"
         stop-color="#b71c1c"
         id="stop39" />
    </radialGradient>
    <radialGradient
       cx="78000"
       cy="40000"
       r="2020"
       gradientUnits="userSpaceOnUse"
       id="color-9"
       gradientTransform="matrix(-1,0,0,1,100000,0)">
      <stop
         offset="1"
         stop-color="#ef5350"
         id="stop42" />
      <stop
         offset="1"
         stop-color="#b71c1c"
         id="stop44" />
    </radialGradient>
    <radialGradient
       cx="70000"
       cy="20000"
       r="2020"
       gradientUnits="userSpaceOnUse"
       id="color-10"
       gradientTransform="matrix(-1,0,0,1,100000,0)">
      <stop
         offset="1"
         stop-color="#ef5350"
         id="stop47" />
      <stop
         offset="1"
         stop-color="#b71c1c"
         id="stop49" />
    </radialGradient>
    <radialGradient
       cx="26000"
       cy="60000"
       r="2020"
       gradientUnits="userSpaceOnUse"
       id="color-11"
       gradientTransform="matrix(-1,0,0,1,100000,0)">
      <stop
         offset="1"
         stop-color="#ef5350"
         id="stop52" />
      <stop
         offset="1"
         stop-color="#b71c1c"
         id="stop54" />
    </radialGradient>
  </defs>
  <path
     style="font-family:none;mix-blend-mode:normal;fill:#b71c1c;fill-rule:nonzero;stroke:none;stroke-width:0;stroke-linecap:butt;stroke-linejoin:miter;stroke-miterlimit:10;stroke-dasharray:none;stroke-dashoffset:0"
     d="M 113.38672 48.642578 C 113.11536 48.642578 112.89453 48.863407 112.89453 49.134766 L 112.89453 75.589844 C 112.89453 75.861202 113.11536 76.082031 113.38672 76.082031 C 113.65808 76.082031 113.87695 75.861202 113.87695 75.589844 L 113.87695 49.625 L 226.28125 49.625 L 226.28125 86.4375 L 211.6543 86.4375 C 211.38294 86.4375 211.16211 86.658329 211.16211 86.929688 C 211.16211 87.201046 211.38294 87.419922 211.6543 87.419922 L 241.89062 87.419922 C 242.16198 87.419922 242.38086 87.201046 242.38086 86.929688 C 242.38086 86.658329 242.16198 86.4375 241.89062 86.4375 L 227.26367 86.4375 L 227.26367 49.134766 C 227.26367 48.863407 227.04284 48.642578 226.77148 48.642578 L 113.38672 48.642578 z M 219.99219 112.89453 C 219.80093 112.88546 219.61346 112.99035 219.52539 113.17383 L 215.12305 122.34375 L 113.38672 122.34375 C 113.11536 122.34375 112.89453 122.56263 112.89453 122.83398 L 112.89453 150.68945 L 79.369141 150.68945 C 79.097782 150.68945 78.878906 150.91028 78.878906 151.18164 C 78.878906 151.453 79.097782 151.67188 79.369141 151.67188 L 113.38672 151.67188 L 166.01953 151.67188 L 188.48438 189.11133 L 188.48438 190.375 L 144.37891 190.375 C 144.10755 190.375 143.88672 190.59388 143.88672 190.86523 C 143.88672 191.13659 144.10755 191.35742 144.37891 191.35742 L 188.97656 191.35742 C 189.24792 191.35742 189.4668 191.13659 189.4668 190.86523 L 189.4668 188.97656 C 189.4668 188.9655 189.46166 188.95619 189.46094 188.94531 C 189.45884 188.91206 189.45045 188.88039 189.44141 188.84766 C 189.43252 188.81569 189.42499 188.78484 189.41016 188.75586 C 189.40476 188.74517 189.40469 188.73308 189.39844 188.72266 L 166.7207 150.92773 C 166.70973 150.90945 166.69255 150.89913 166.67969 150.88281 C 166.65968 150.85734 166.6398 150.83356 166.61523 150.8125 C 166.59138 150.79215 166.56594 150.77694 166.53906 150.76172 C 166.51069 150.74539 166.48275 150.73116 166.45117 150.7207 C 166.42155 150.71093 166.39228 150.7052 166.36133 150.70117 C 166.34002 150.69835 166.32091 150.68945 166.29883 150.68945 L 113.87695 150.68945 L 113.87695 123.32617 L 230.55078 123.32617 C 230.5694 123.32617 230.58543 123.31842 230.60352 123.31641 C 230.63733 123.31272 230.66883 123.30546 230.70117 123.29492 C 230.72883 123.28588 230.75404 123.27529 230.7793 123.26172 C 230.80951 123.2457 230.83665 123.22748 230.86328 123.20508 C 230.88734 123.18482 230.90795 123.16314 230.92773 123.13867 C 230.93928 123.12443 230.95473 123.11542 230.96484 123.09961 L 237.01172 113.65039 C 237.158 113.42183 237.09184 113.11893 236.86328 112.97266 C 236.63472 112.82638 236.33182 112.89253 236.18555 113.12109 L 230.28125 122.34375 L 216.21484 122.34375 L 220.41211 113.59766 C 220.52954 113.35302 220.42628 113.06079 220.18164 112.94336 C 220.12048 112.914 220.05594 112.89755 219.99219 112.89453 z M 215.43359 143.13086 C 215.16224 143.13086 214.94141 143.34974 214.94141 143.62109 C 214.94141 143.89245 215.16224 144.11328 215.43359 144.11328 L 230.06055 144.11328 L 230.06055 188.97656 C 230.06055 189.24792 230.27942 189.4668 230.55078 189.4668 L 264.07617 189.4668 L 264.07617 264.07617 L 122.19336 264.07617 L 122.57031 191.24609 C 122.57171 190.97474 122.35339 190.75335 122.08203 190.75195 C 121.81068 190.75055 121.58929 190.97083 121.58789 191.24219 L 121.20898 264.56445 C 121.20898 264.56445 121.20898 264.56641 121.20898 264.56641 C 121.2089 264.63352 121.22373 264.69753 121.24805 264.75586 C 121.24805 264.75586 121.24805 264.75781 121.24805 264.75781 C 121.26455 264.79683 121.29283 264.82823 121.31836 264.86133 C 121.3308 264.87747 121.33725 264.89764 121.35156 264.91211 C 121.35156 264.91211 121.35352 264.91211 121.35352 264.91211 C 121.35352 264.91211 121.35352 264.91406 121.35352 264.91406 C 121.36744 264.92799 121.38684 264.93509 121.40234 264.94727 C 121.43572 264.9735 121.46826 265.00256 121.50781 265.01953 C 121.50781 265.01953 121.50977 265.01953 121.50977 265.01953 C 121.56797 265.04415 121.63406 265.05833 121.70117 265.05859 L 264.56641 265.05859 C 264.83776 265.05859 265.05859 264.83776 265.05859 264.56641 L 265.05859 227.26367 L 279.68555 227.26367 C 279.95691 227.26367 280.17578 227.04284 280.17578 226.77148 C 280.17578 226.50013 279.95691 226.28125 279.68555 226.28125 L 265.05859 226.28125 L 265.05859 188.97656 C 265.05859 188.7052 264.83776 188.48438 264.56641 188.48438 L 231.04297 188.48438 L 231.04297 144.11328 L 245.66992 144.11328 C 245.94128 144.11328 246.16016 143.89245 246.16016 143.62109 C 246.16016 143.34974 245.94128 143.13086 245.66992 143.13086 L 215.43359 143.13086 z "
     transform="scale(264.58333)"
     id="path59" />
</svg>
