<?xml version="1.0" encoding="UTF-8" standalone="no"?>
<svg
   xmlns:dc="http://purl.org/dc/elements/1.1/"
   xmlns:cc="http://creativecommons.org/ns#"
   xmlns:rdf="http://www.w3.org/1999/02/22-rdf-syntax-ns#"
   xmlns:svg="http://www.w3.org/2000/svg"
   xmlns="http://www.w3.org/2000/svg"
   xmlns:sodipodi="http://sodipodi.sourceforge.net/DTD/sodipodi-0.dtd"
   xmlns:inkscape="http://www.inkscape.org/namespaces/inkscape"
   width="100.80000000000001mm"
   height="90.80000000000003mm"
   viewBox="0 0 100800.00000000001 90800.00000000003"
   version="1.1"
   id="svg169"
   sodipodi:docname="F.svg"
   inkscape:version="0.92.1 r15371">
  <metadata
     id="metadata173">
    <rdf:RDF>
      <cc:Work
         rdf:about="">
        <dc:format>image/svg+xml</dc:format>
        <dc:type
           rdf:resource="http://purl.org/dc/dcmitype/StillImage" />
        <dc:title></dc:title>
      </cc:Work>
    </rdf:RDF>
  </metadata>
  <sodipodi:namedview
     pagecolor="#ffffff"
     bordercolor="#666666"
     borderopacity="1"
     objecttolerance="10"
     gridtolerance="10"
     guidetolerance="10"
     inkscape:pageopacity="0"
     inkscape:pageshadow="2"
     inkscape:window-width="1536"
     inkscape:window-height="801"
     id="namedview171"
     showgrid="false"
     inkscape:zoom="1.3753671"
     inkscape:cx="224.7454"
     inkscape:cy="179.45785"
     inkscape:window-x="-8"
     inkscape:window-y="-8"
     inkscape:window-maximized="1"
     inkscape:current-layer="svg169" />
  <defs
     id="defs57">
    <radialGradient
       cx="44000"
       cy="19000"
       r="1100"
       gradientUnits="userSpaceOnUse"
       id="color-1">
      <stop
         offset="1"
         stop-color="#3f51b5"
         id="stop2" />
      <stop
         offset="1"
         stop-color="#1a237e"
         id="stop4" />
    </radialGradient>
    <radialGradient
       cx="36000"
       cy="19000"
       r="1100"
       gradientUnits="userSpaceOnUse"
       id="color-2">
      <stop
         offset="1"
         stop-color="#3f51b5"
         id="stop7" />
      <stop
         offset="1"
         stop-color="#1a237e"
         id="stop9" />
    </radialGradient>
    <radialGradient
       cx="29100"
       cy="30000"
       r="1100"
       gradientUnits="userSpaceOnUse"
       id="color-3">
      <stop
         offset="1"
         stop-color="#3f51b5"
         id="stop12" />
      <stop
         offset="1"
         stop-color="#1a237e"
         id="stop14" />
    </radialGradient>
    <radialGradient
       cx="40000"
       cy="60600"
       r="1100"
       gradientUnits="userSpaceOnUse"
       id="color-4">
      <stop
         offset="1"
         stop-color="#3f51b5"
         id="stop17" />
      <stop
         offset="1"
         stop-color="#1a237e"
         id="stop19" />
    </radialGradient>
    <radialGradient
       cx="73000"
       cy="50000"
       r="1010"
       gradientUnits="userSpaceOnUse"
       id="color-5">
      <stop
         offset="1"
         stop-color="#5c6bc0"
         id="stop22" />
      <stop
         offset="1"
         stop-color="#1a237e"
         id="stop24" />
    </radialGradient>
    <radialGradient
       cx="43000"
       cy="42000"
       r="1010"
       gradientUnits="userSpaceOnUse"
       id="color-6">
      <stop
         offset="1"
         stop-color="#5c6bc0"
         id="stop27" />
      <stop
         offset="1"
         stop-color="#1a237e"
         id="stop29" />
    </radialGradient>
    <radialGradient
       cx="35000"
       cy="42000"
       r="1010"
       gradientUnits="userSpaceOnUse"
       id="color-7">
      <stop
         offset="1"
         stop-color="#5c6bc0"
         id="stop32" />
      <stop
         offset="1"
         stop-color="#1a237e"
         id="stop34" />
    </radialGradient>
    <radialGradient
       cx="44000"
       cy="19000"
       r="800"
       gradientUnits="userSpaceOnUse"
       id="color-8">
      <stop
         offset="1"
         stop-color="#5c6bc0"
         id="stop37" />
      <stop
         offset="1"
         stop-color="#1a237e"
         id="stop39" />
    </radialGradient>
    <radialGradient
       cx="36000"
       cy="19000"
       r="800"
       gradientUnits="userSpaceOnUse"
       id="color-9">
      <stop
         offset="1"
         stop-color="#5c6bc0"
         id="stop42" />
      <stop
         offset="1"
         stop-color="#1a237e"
         id="stop44" />
    </radialGradient>
    <radialGradient
       cx="29100"
       cy="30000"
       r="800"
       gradientUnits="userSpaceOnUse"
       id="color-10">
      <stop
         offset="1"
         stop-color="#5c6bc0"
         id="stop47" />
      <stop
         offset="1"
         stop-color="#1a237e"
         id="stop49" />
    </radialGradient>
    <radialGradient
       cx="40000"
       cy="60600"
       r="800"
       gradientUnits="userSpaceOnUse"
       id="color-11">
      <stop
         offset="1"
         stop-color="#5c6bc0"
         id="stop52" />
      <stop
         offset="1"
         stop-color="#1a237e"
         id="stop54" />
    </radialGradient>
  </defs>
  <path
     style="font-family:none;mix-blend-mode:normal;fill:#1a237e;fill-rule:nonzero;stroke:none;stroke-width:0;stroke-linecap:butt;stroke-linejoin:miter;stroke-miterlimit:10;stroke-dasharray:none;stroke-dashoffset:0"
     inkscape:connector-curvature="0"
     id="path59"
     d="m 42750,38700 c 0,-138.071 111.929,-250 250,-250 v 0 c 138.071,0 250,111.929 250,250 v 2300 c 0,138.071 -111.929,250 -250,250 v 0 c -138.071,0 -250,-111.929 -250,-250 z" />
  <path
     style="font-family:none;mix-blend-mode:normal;fill:#1a237e;fill-rule:nonzero;stroke:none;stroke-width:0;stroke-linecap:butt;stroke-linejoin:miter;stroke-miterlimit:10;stroke-dasharray:none;stroke-dashoffset:0"
     inkscape:connector-curvature="0"
     id="path61"
     d="m 34750,38600 c 0,-138.071 111.929,-250 250,-250 v 0 c 138.071,0 250,111.929 250,250 v 2400 c 0,138.071 -111.929,250 -250,250 v 0 c -138.071,0 -250,-111.929 -250,-250 z" />
  <path
     style="font-family:none;mix-blend-mode:normal;fill:#1a237e;fill-rule:nonzero;stroke:none;stroke-width:0;stroke-linecap:butt;stroke-linejoin:miter;stroke-miterlimit:10;stroke-dasharray:none;stroke-dashoffset:0"
     inkscape:connector-curvature="0"
     id="path63"
     d="m 72000,49750 c 138.071,0 250,111.929 250,250 v 0 c 0,138.071 -111.929,250 -250,250 h -3800 c -138.071,0 -250,-111.929 -250,-250 v 0 c 0,-138.071 111.929,-250 250,-250 z" />
  <path
     style="font-family:none;mix-blend-mode:normal;fill:#1a237e;fill-rule:nonzero;stroke:none;stroke-width:0;stroke-linecap:butt;stroke-linejoin:miter;stroke-miterlimit:10;stroke-dasharray:none;stroke-dashoffset:0"
     inkscape:connector-curvature="0"
     id="path65"
     d="m 61800,50250 c -138.071,0 -250,-111.929 -250,-250 v 0 c 0,-138.071 111.929,-250 250,-250 h 5200 c 138.071,0 250,111.929 250,250 v 0 c 0,138.071 -111.929,250 -250,250 z" />
  <path
     style="font-family:none;mix-blend-mode:normal;fill:#1a237e;fill-rule:nonzero;stroke:none;stroke-width:0;stroke-linecap:butt;stroke-linejoin:miter;stroke-miterlimit:10;stroke-dasharray:none;stroke-dashoffset:0"
     inkscape:connector-curvature="0"
     id="path67"
     d="m 42750,36800 c 0,-138.071 111.929,-250 250,-250 v 0 c 138.071,0 250,111.929 250,250 v 600 c 0,138.071 -111.929,250 -250,250 v 0 c -138.071,0 -250,-111.929 -250,-250 z" />
  <path
     style="font-family:none;mix-blend-mode:normal;fill:#1a237e;fill-rule:nonzero;stroke:none;stroke-width:0;stroke-linecap:butt;stroke-linejoin:miter;stroke-miterlimit:10;stroke-dasharray:none;stroke-dashoffset:0"
     inkscape:connector-curvature="0"
     id="path69"
     d="m 34750,36900 c 0,-138.071 111.929,-250 250,-250 v 0 c 138.071,0 250,111.929 250,250 v 500 c 0,138.071 -111.929,250 -250,250 v 0 c -138.071,0 -250,-111.929 -250,-250 z" />
  <path
     style="font-family:none;mix-blend-mode:normal;fill:#1a237e;fill-rule:nonzero;stroke:none;stroke-width:0;stroke-linecap:butt;stroke-linejoin:miter;stroke-miterlimit:10;stroke-dasharray:none;stroke-dashoffset:0"
     inkscape:connector-curvature="0"
     id="path71"
     d="m 34750,36000 c 0,-138.071 111.929,-250 250,-250 v 0 c 138.071,0 250,111.929 250,250 v 1000 c 0,138.071 -111.929,250 -250,250 v 0 c -138.071,0 -250,-111.929 -250,-250 z" />
  <path
     style="font-family:none;mix-blend-mode:normal;fill:#1a237e;fill-rule:nonzero;stroke:none;stroke-width:0;stroke-linecap:butt;stroke-linejoin:miter;stroke-miterlimit:10;stroke-dasharray:none;stroke-dashoffset:0"
     inkscape:connector-curvature="0"
     id="path73"
     d="m 36718.75,33827.813 c 95.097,-100.102 253.336,-104.159 353.437,-9.063 v 0 c 100.102,95.097 104.159,253.336 9.063,353.437 l -1900,2000 c -95.097,100.102 -253.336,104.159 -353.437,9.063 v 0 c -100.102,-95.097 -104.159,-253.336 -9.063,-353.437 z" />
  <path
     style="font-family:none;mix-blend-mode:normal;fill:#1a237e;fill-rule:nonzero;stroke:none;stroke-width:0;stroke-linecap:butt;stroke-linejoin:miter;stroke-miterlimit:10;stroke-dasharray:none;stroke-dashoffset:0"
     inkscape:connector-curvature="0"
     id="path75"
     d="m 36650,30000 c 0,-138.071 111.929,-250 250,-250 v 0 c 138.071,0 250,111.929 250,250 v 4000 c 0,138.071 -111.929,250 -250,250 v 0 c -138.071,0 -250,-111.929 -250,-250 z" />
  <path
     style="font-family:none;mix-blend-mode:normal;fill:#1a237e;fill-rule:nonzero;stroke:none;stroke-width:0;stroke-linecap:butt;stroke-linejoin:miter;stroke-miterlimit:10;stroke-dasharray:none;stroke-dashoffset:0"
     inkscape:connector-curvature="0"
     id="path77"
     d="m 44250,22400 c 0,138.071 -111.929,250 -250,250 v 0 c -138.071,0 -250,-111.929 -250,-250 v -2400 c 0,-138.071 111.929,-250 250,-250 v 0 c 138.071,0 250,111.929 250,250 z" />
  <path
     style="font-family:none;mix-blend-mode:normal;fill:#1a237e;fill-rule:nonzero;stroke:none;stroke-width:0;stroke-linecap:butt;stroke-linejoin:miter;stroke-miterlimit:10;stroke-dasharray:none;stroke-dashoffset:0"
     inkscape:connector-curvature="0"
     id="path79"
     d="m 35750,20000 c 0,-138.071 111.929,-250 250,-250 v 0 c 138.071,0 250,111.929 250,250 v 2300 c 0,138.071 -111.929,250 -250,250 v 0 c -138.071,0 -250,-111.929 -250,-250 z" />
  <path
     style="font-family:none;mix-blend-mode:normal;fill:#1a237e;fill-rule:nonzero;stroke:none;stroke-width:0;stroke-linecap:butt;stroke-linejoin:miter;stroke-miterlimit:10;stroke-dasharray:none;stroke-dashoffset:0"
     inkscape:connector-curvature="0"
     id="path81"
     d="m 35858.829,25206.327 c -113.951,-77.967 -143.122,-233.547 -65.156,-347.498 v 0 c 77.967,-113.951 233.547,-143.122 347.498,-65.156 l 1900,1300 c 113.951,77.967 143.122,233.547 65.156,347.498 v 0 c -77.967,113.951 -233.547,143.122 -347.498,65.156 z" />
  <path
     style="font-family:none;mix-blend-mode:normal;fill:#1a237e;fill-rule:nonzero;stroke:none;stroke-width:0;stroke-linecap:butt;stroke-linejoin:miter;stroke-miterlimit:10;stroke-dasharray:none;stroke-dashoffset:0"
     inkscape:connector-curvature="0"
     id="path83"
     d="m 35750,23600 c 0,-138.071 111.929,-250 250,-250 v 0 c 138.071,0 250,111.929 250,250 v 1400 c 0,138.071 -111.929,250 -250,250 v 0 c -138.071,0 -250,-111.929 -250,-250 z" />
  <path
     style="font-family:none;mix-blend-mode:normal;fill:#1a237e;fill-rule:nonzero;stroke:none;stroke-width:0;stroke-linecap:butt;stroke-linejoin:miter;stroke-miterlimit:10;stroke-dasharray:none;stroke-dashoffset:0"
     inkscape:connector-curvature="0"
     id="path85"
     d="m 44250,25000 c 0,138.071 -111.929,250 -250,250 v 0 c -138.071,0 -250,-111.929 -250,-250 v -1400 c 0,-138.071 111.929,-250 250,-250 v 0 c 138.071,0 250,111.929 250,250 z" />
  <path
     style="font-family:none;mix-blend-mode:normal;fill:#1a237e;fill-rule:nonzero;stroke:none;stroke-width:0;stroke-linecap:butt;stroke-linejoin:miter;stroke-miterlimit:10;stroke-dasharray:none;stroke-dashoffset:0"
     inkscape:connector-curvature="0"
     id="path87"
     d="m 42750,36000 c 0,-138.071 111.929,-250 250,-250 v 0 c 138.071,0 250,111.929 250,250 v 1000 c 0,138.071 -111.929,250 -250,250 v 0 c -138.071,0 -250,-111.929 -250,-250 z" />
  <path
     style="font-family:none;mix-blend-mode:normal;fill:#1a237e;fill-rule:nonzero;stroke:none;stroke-width:0;stroke-linecap:butt;stroke-linejoin:miter;stroke-miterlimit:10;stroke-dasharray:none;stroke-dashoffset:0"
     inkscape:connector-curvature="0"
     id="path89"
     d="m 41109.515,34161.912 c -89.421,-105.202 -76.629,-262.975 28.573,-352.397 v 0 c 105.202,-89.421 262.975,-76.629 352.397,28.573 l 1700,2000 c 89.421,105.202 76.629,262.975 -28.573,352.397 v 0 c -105.202,89.421 -262.975,76.629 -352.397,-28.573 z" />
  <path
     style="font-family:none;mix-blend-mode:normal;fill:#1a237e;fill-rule:nonzero;stroke:none;stroke-width:0;stroke-linecap:butt;stroke-linejoin:miter;stroke-miterlimit:10;stroke-dasharray:none;stroke-dashoffset:0"
     inkscape:connector-curvature="0"
     id="path91"
     d="m 41050,30000 c 0,-138.071 111.929,-250 250,-250 v 0 c 138.071,0 250,111.929 250,250 v 4000 c 0,138.071 -111.929,250 -250,250 v 0 c -138.071,0 -250,-111.929 -250,-250 z" />
  <path
     style="font-family:none;mix-blend-mode:normal;fill:#1a237e;fill-rule:nonzero;stroke:none;stroke-width:0;stroke-linecap:butt;stroke-linejoin:miter;stroke-miterlimit:10;stroke-dasharray:none;stroke-dashoffset:0"
     inkscape:connector-curvature="0"
     id="path93"
     d="m 37650,26300 c 0,-138.071 111.929,-250 250,-250 v 0 c 138.071,0 250,111.929 250,250 v 3700 c 0,138.071 -111.929,250 -250,250 v 0 c -138.071,0 -250,-111.929 -250,-250 z" />
  <path
     style="font-family:none;mix-blend-mode:normal;fill:#1a237e;fill-rule:nonzero;stroke:none;stroke-width:0;stroke-linecap:butt;stroke-linejoin:miter;stroke-miterlimit:10;stroke-dasharray:none;stroke-dashoffset:0"
     inkscape:connector-curvature="0"
     id="path95"
     d="m 42451.863,26498.589 c -109.678,83.872 -266.581,62.951 -350.452,-46.726 v 0 c -83.872,-109.678 -62.951,-266.581 46.726,-350.452 l 1700,-1300 c 109.678,-83.872 266.581,-62.951 350.452,46.726 v 0 c 83.872,109.678 62.951,266.581 -46.726,350.452 z" />
  <path
     style="font-family:none;mix-blend-mode:normal;fill:#1a237e;fill-rule:nonzero;stroke:none;stroke-width:0;stroke-linecap:butt;stroke-linejoin:miter;stroke-miterlimit:10;stroke-dasharray:none;stroke-dashoffset:0"
     inkscape:connector-curvature="0"
     id="path97"
     d="m 42550,30000 c 0,138.071 -111.929,250 -250,250 v 0 c -138.071,0 -250,-111.929 -250,-250 v -3700 c 0,-138.071 111.929,-250 250,-250 v 0 c 138.071,0 250,111.929 250,250 z" />
  <path
     style="font-family:none;mix-blend-mode:normal;fill:#1a237e;fill-rule:nonzero;stroke:none;stroke-width:0;stroke-linecap:butt;stroke-linejoin:miter;stroke-miterlimit:10;stroke-dasharray:none;stroke-dashoffset:0"
     inkscape:connector-curvature="0"
     id="path99"
     d="m 44500,60350 v 500 h -3500 v -500 z" />
  <path
     style="font-family:none;mix-blend-mode:normal;fill:#1a237e;fill-rule:nonzero;stroke:none;stroke-width:0;stroke-linecap:butt;stroke-linejoin:miter;stroke-miterlimit:10;stroke-dasharray:none;stroke-dashoffset:0"
     inkscape:connector-curvature="0"
     id="path101"
     d="m 56500,61250 v -500 h 700 v 500 z" />
  <path
     style="font-family:none;mix-blend-mode:normal;fill:#1a237e;fill-rule:nonzero;stroke:none;stroke-width:1;stroke-linecap:butt;stroke-linejoin:miter;stroke-miterlimit:10;stroke-dasharray:none;stroke-dashoffset:0"
     inkscape:connector-curvature="0"
     id="path103"
     d="m 44000,61270 v -635 h 500 v 635 z m 1750,0 c 0,483.249 -391.751,875 -875,875 -483.249,0 -875,-391.751 -875,-875 z m -1250,0 c 0,207.107 167.893,375 375,375 207.107,0 375,-167.893 375,-375 z m 750,0 v -770 h 500 v 770 z m 0,-770 c 0,-483.249 391.751,-875 875,-875 483.249,0 875,391.751 875,875 z m 1250,0 c 0,-207.107 -167.893,-375 -375,-375 -207.107,0 -375,167.893 -375,375 z m 0,770 v -770 h 500 v 770 z m 1750,0 c 0,483.249 -391.751,875 -875,875 -483.249,0 -875,-391.751 -875,-875 z m -1250,0 c 0,207.107 167.893,375 375,375 207.107,0 375,-167.893 375,-375 z m 750,0 v -770 h 500 v 770 z m 0,-770 c 0,-483.249 391.751,-875 875,-875 483.249,0 875,391.751 875,875 z m 1250,0 c 0,-207.107 -167.893,-375 -375,-375 -207.107,0 -375,167.893 -375,375 z m 0,770 v -770 h 500 v 770 z m 1750,0 c 0,483.249 -391.751,875 -875,875 -483.249,0 -875,-391.751 -875,-875 z m -1250,0 c 0,207.107 167.893,375 375,375 207.107,0 375,-167.893 375,-375 z m 750,0 v -770 h 500 v 770 z m 0,-770 c 0,-483.249 391.751,-875 875,-875 483.249,0 875,391.751 875,875 z m 1250,0 c 0,-207.107 -167.893,-375 -375,-375 -207.107,0 -375,167.893 -375,375 z m 0,770 v -770 h 500 v 770 z m 1750,0 c 0,483.249 -391.751,875 -875,875 -483.249,0 -875,-391.751 -875,-875 z m -1250,0 c 0,207.107 167.893,375 375,375 207.107,0 375,-167.893 375,-375 z m 750,0 v -770 h 500 v 770 z m 0,-770 c 0,-483.249 391.751,-875 875,-875 483.249,0 875,391.751 875,875 z m 1250,0 c 0,-207.107 -167.893,-375 -375,-375 -207.107,0 -375,167.893 -375,375 z m 0,770 v -770 h 500 v 770 z m 1750,0 c 0,483.249 -391.751,875 -875,875 -483.249,0 -875,-391.751 -875,-875 z m -1250,0 c 0,207.107 167.893,375 375,375 207.107,0 375,-167.893 375,-375 z m 750,0 v -770 h 500 v 770 z m 0,-770 c 0,-483.249 391.751,-875 875,-875 483.249,0 875,391.751 875,875 z m 1250,0 c 0,-207.107 -167.893,-375 -375,-375 -207.107,0 -375,167.893 -375,375 z m 0,635 v -635 h 500 v 635 z" />
  <path
     style="font-family:none;mix-blend-mode:normal;fill:#1a237e;fill-rule:nonzero;stroke:none;stroke-width:0;stroke-linecap:butt;stroke-linejoin:miter;stroke-miterlimit:10;stroke-dasharray:none;stroke-dashoffset:0"
     inkscape:connector-curvature="0"
     id="path105"
     d="m 61000,60750 c 138.071,0 250,111.929 250,250 v 0 c 0,138.071 -111.929,250 -250,250 h -4000 c -138.071,0 -250,-111.929 -250,-250 v 0 c 0,-138.071 111.929,-250 250,-250 z" />
  <path
     style="font-family:none;mix-blend-mode:normal;fill:#1a237e;fill-rule:nonzero;stroke:none;stroke-width:0;stroke-linecap:butt;stroke-linejoin:miter;stroke-miterlimit:10;stroke-dasharray:none;stroke-dashoffset:0"
     inkscape:connector-curvature="0"
     id="path107"
     d="m 61750,60750 c 138.071,0 250,111.929 250,250 v 0 c 0,138.071 -111.929,250 -250,250 h -750 c -138.071,0 -250,-111.929 -250,-250 v 0 c 0,-138.071 111.929,-250 250,-250 z" />
  <path
     style="font-family:none;mix-blend-mode:normal;fill:#1a237e;fill-rule:nonzero;stroke:none;stroke-width:0;stroke-linecap:butt;stroke-linejoin:miter;stroke-miterlimit:10;stroke-dasharray:none;stroke-dashoffset:0"
     inkscape:connector-curvature="0"
     id="path109"
     d="m 61500,50660 h 500 v 10340 h -500 z" />
  <path
     style="font-family:none;mix-blend-mode:normal;fill:#1a237e;fill-rule:nonzero;stroke:none;stroke-width:0;stroke-linecap:butt;stroke-linejoin:miter;stroke-miterlimit:10;stroke-dasharray:none;stroke-dashoffset:0"
     inkscape:connector-curvature="0"
     id="path111"
     d="m 61500,30000 h 500 v 320 h -500 z" />
  <path
     style="font-family:none;mix-blend-mode:normal;fill:#1a237e;fill-rule:nonzero;stroke:none;stroke-width:0;stroke-linecap:butt;stroke-linejoin:miter;stroke-miterlimit:10;stroke-dasharray:none;stroke-dashoffset:0"
     inkscape:connector-curvature="0"
     id="path113"
     d="m 61500,30250 h 500 v 20000 h -500 z" />
  <path
     style="font-family:none;mix-blend-mode:normal;fill:#1a237e;fill-rule:nonzero;stroke:none;stroke-width:0;stroke-linecap:butt;stroke-linejoin:miter;stroke-miterlimit:10;stroke-dasharray:none;stroke-dashoffset:0"
     inkscape:connector-curvature="0"
     id="path115"
     d="m 42000,30250 v -500 h 20000 v 500 z" />
  <path
     style="font-family:none;mix-blend-mode:normal;fill:#1a237e;fill-rule:nonzero;stroke:none;stroke-width:0;stroke-linecap:butt;stroke-linejoin:miter;stroke-miterlimit:10;stroke-dasharray:none;stroke-dashoffset:0"
     inkscape:connector-curvature="0"
     id="path117"
     d="m 37200,29750 v 500 h -7200 v -500 z" />
  <path
     style="font-family:none;mix-blend-mode:normal;fill:#1a237e;fill-rule:nonzero;stroke:none;stroke-width:0;stroke-linecap:butt;stroke-linejoin:miter;stroke-miterlimit:10;stroke-dasharray:none;stroke-dashoffset:0"
     inkscape:connector-curvature="0"
     id="path119"
     d="m 41600,29750 v 500 h -4000 v -500 z" />
  <path
     style="font-family:none;mix-blend-mode:normal;fill:#1a237e;fill-rule:nonzero;stroke:none;stroke-width:0;stroke-linecap:butt;stroke-linejoin:miter;stroke-miterlimit:10;stroke-dasharray:none;stroke-dashoffset:0"
     inkscape:connector-curvature="0"
     id="path121"
     d="M 400,90000 H -400 V 0 h 800 z" />
  <path
     style="font-family:none;mix-blend-mode:normal;fill:#1a237e;fill-rule:nonzero;stroke:none;stroke-width:0;stroke-linecap:butt;stroke-linejoin:miter;stroke-miterlimit:10;stroke-dasharray:none;stroke-dashoffset:0"
     inkscape:connector-curvature="0"
     id="path123"
     d="m 100000,89600 v 800 H 0 v -800 z" />
  <path
     style="font-family:none;mix-blend-mode:normal;fill:#1a237e;fill-rule:nonzero;stroke:none;stroke-width:0;stroke-linecap:butt;stroke-linejoin:miter;stroke-miterlimit:10;stroke-dasharray:none;stroke-dashoffset:0"
     inkscape:connector-curvature="0"
     id="path125"
     d="m 99600,0 h 800 v 90000 h -800 z" />
  <path
     style="font-family:none;mix-blend-mode:normal;fill:#1a237e;fill-rule:nonzero;stroke:none;stroke-width:0;stroke-linecap:butt;stroke-linejoin:miter;stroke-miterlimit:10;stroke-dasharray:none;stroke-dashoffset:0"
     inkscape:connector-curvature="0"
     id="path127"
     d="M 0,400 V -400 H 100000 V 400 Z" />
  <path
     inkscape:connector-curvature="0"
     style="font-family:none;mix-blend-mode:normal;fill:url(#color-1);fill-rule:nonzero;stroke:none;stroke-width:1;stroke-linecap:butt;stroke-linejoin:miter;stroke-miterlimit:10;stroke-dasharray:none;stroke-dashoffset:0"
     id="path129"
     d="m 42900,19000 c 0,-607.513 492.487,-1100 1100,-1100 607.513,0 1100,492.487 1100,1100 0,607.513 -492.487,1100 -1100,1100 -607.513,0 -1100,-492.487 -1100,-1100 z" />
  <path
     inkscape:connector-curvature="0"
     style="font-family:none;mix-blend-mode:normal;fill:url(#color-2);fill-rule:nonzero;stroke:none;stroke-width:1;stroke-linecap:butt;stroke-linejoin:miter;stroke-miterlimit:10;stroke-dasharray:none;stroke-dashoffset:0"
     id="path131"
     d="m 34900,19000 c 0,-607.513 492.487,-1100 1100,-1100 607.513,0 1100,492.487 1100,1100 0,607.513 -492.487,1100 -1100,1100 -607.513,0 -1100,-492.487 -1100,-1100 z" />
  <path
     style="font-family:none;mix-blend-mode:normal;fill:#3f51b5;fill-rule:nonzero;stroke:none;stroke-width:1;stroke-linecap:butt;stroke-linejoin:miter;stroke-miterlimit:10;stroke-dasharray:none;stroke-dashoffset:0"
     inkscape:connector-curvature="0"
     id="path133"
     d="m 66950,50000 c 0,-344.953 232.881,-635.514 550,-723.038 v 1446.076 c -317.119,-87.524 -550,-378.085 -550,-723.038 z m 1500,0 c 0,344.953 -232.881,635.514 -550,723.038 v -1446.076 c 317.119,87.524 550,378.085 550,723.038 z" />
  <path
     style="font-family:none;mix-blend-mode:normal;fill:#3f51b5;fill-rule:nonzero;stroke:none;stroke-width:1;stroke-linecap:butt;stroke-linejoin:miter;stroke-miterlimit:10;stroke-dasharray:none;stroke-dashoffset:0"
     inkscape:connector-curvature="0"
     id="path135"
     d="m 43000,37250 c 344.953,0 635.514,232.881 723.038,550 h -1446.076 c 87.524,-317.119 378.085,-550 723.038,-550 z m 0,1500 c -344.953,0 -635.514,-232.881 -723.038,-550 h 1446.076 c -87.524,317.119 -378.085,550 -723.038,550 z" />
  <path
     style="font-family:none;mix-blend-mode:normal;fill:#3f51b5;fill-rule:nonzero;stroke:none;stroke-width:1;stroke-linecap:butt;stroke-linejoin:miter;stroke-miterlimit:10;stroke-dasharray:none;stroke-dashoffset:0"
     inkscape:connector-curvature="0"
     id="path137"
     d="m 35000,37250 c 344.953,0 635.514,232.881 723.038,550 h -1446.076 c 87.524,-317.119 378.085,-550 723.038,-550 z m 0,1500 c -344.953,0 -635.514,-232.881 -723.038,-550 h 1446.076 c -87.524,317.119 -378.085,550 -723.038,550 z" />
  <path
     style="font-family:none;mix-blend-mode:normal;fill:#3f51b5;fill-rule:nonzero;stroke:none;stroke-width:1;stroke-linecap:butt;stroke-linejoin:miter;stroke-miterlimit:10;stroke-dasharray:none;stroke-dashoffset:0"
     inkscape:connector-curvature="0"
     id="path139"
     d="m 36000,22250 c 344.953,0 635.514,232.881 723.038,550 h -1446.076 c 87.524,-317.119 378.085,-550 723.038,-550 z m 0,1500 c -344.953,0 -635.514,-232.881 -723.038,-550 h 1446.076 c -87.524,317.119 -378.085,550 -723.038,550 z" />
  <path
     style="font-family:none;mix-blend-mode:normal;fill:#3f51b5;fill-rule:nonzero;stroke:none;stroke-width:1;stroke-linecap:butt;stroke-linejoin:miter;stroke-miterlimit:10;stroke-dasharray:none;stroke-dashoffset:0"
     inkscape:connector-curvature="0"
     id="path141"
     d="m 44000,22250 c 344.953,0 635.514,232.881 723.038,550 h -1446.076 c 87.524,-317.119 378.085,-550 723.038,-550 z m 0,1500 c -344.953,0 -635.514,-232.881 -723.038,-550 h 1446.076 c -87.524,317.119 -378.085,550 -723.038,550 z" />
  <path
     style="font-family:none;mix-blend-mode:normal;fill:#3f51b5;fill-rule:nonzero;stroke:none;stroke-width:1;stroke-linecap:butt;stroke-linejoin:miter;stroke-miterlimit:10;stroke-dasharray:none;stroke-dashoffset:0"
     inkscape:connector-curvature="0"
     id="path143"
     d="m 61750,49710 c 344.953,0 635.514,232.881 723.038,550 h -1446.076 c 87.524,-317.119 378.085,-550 723.038,-550 z m 0,1500 c -344.953,0 -635.514,-232.881 -723.038,-550 h 1446.076 c -87.524,317.119 -378.085,550 -723.038,550 z" />
  <path
     style="font-family:none;mix-blend-mode:normal;fill:#3f51b5;fill-rule:nonzero;stroke:none;stroke-width:1;stroke-linecap:butt;stroke-linejoin:miter;stroke-miterlimit:10;stroke-dasharray:none;stroke-dashoffset:0"
     inkscape:connector-curvature="0"
     id="path145"
     d="m 41050,30000 c 0,-344.953 232.881,-635.514 550,-723.038 v 1446.076 c -317.119,-87.524 -550,-378.085 -550,-723.038 z m 1500,0 c 0,344.953 -232.881,635.514 -550,723.038 v -1446.076 c 317.119,87.524 550,378.085 550,723.038 z" />
  <path
     style="font-family:none;mix-blend-mode:normal;fill:#3f51b5;fill-rule:nonzero;stroke:none;stroke-width:1;stroke-linecap:butt;stroke-linejoin:miter;stroke-miterlimit:10;stroke-dasharray:none;stroke-dashoffset:0"
     inkscape:connector-curvature="0"
     id="path147"
     d="m 36650,30000 c 0,-344.953 232.881,-635.514 550,-723.038 v 1446.076 c -317.119,-87.524 -550,-378.085 -550,-723.038 z m 1500,0 c 0,344.953 -232.881,635.514 -550,723.038 v -1446.076 c 317.119,87.524 550,378.085 550,723.038 z" />
  <path
     inkscape:connector-curvature="0"
     style="font-family:none;mix-blend-mode:normal;fill:url(#color-3);fill-rule:nonzero;stroke:none;stroke-width:1;stroke-linecap:butt;stroke-linejoin:miter;stroke-miterlimit:10;stroke-dasharray:none;stroke-dashoffset:0"
     id="path149"
     d="m 28000,30000 c 0,-607.513 492.487,-1100 1100,-1100 607.513,0 1100,492.487 1100,1100 0,607.513 -492.487,1100 -1100,1100 -607.513,0 -1100,-492.487 -1100,-1100 z" />
  <path
     inkscape:connector-curvature="0"
     style="font-family:none;mix-blend-mode:normal;fill:url(#color-4);fill-rule:nonzero;stroke:none;stroke-width:1;stroke-linecap:butt;stroke-linejoin:miter;stroke-miterlimit:10;stroke-dasharray:none;stroke-dashoffset:0"
     id="path151"
     d="m 38900,60600 c 0,-607.513 492.487,-1100 1100,-1100 607.513,0 1100,492.487 1100,1100 0,607.513 -492.487,1100 -1100,1100 -607.513,0 -1100,-492.487 -1100,-1100 z" />
  <path
     inkscape:connector-curvature="0"
     style="font-family:none;mix-blend-mode:normal;fill:url(#color-5);fill-rule:nonzero;stroke:none;stroke-width:1;stroke-linecap:butt;stroke-linejoin:miter;stroke-miterlimit:10;stroke-dasharray:none;stroke-dashoffset:0"
     id="path153"
     d="m 71990,50000 c 0,-557.808 452.192,-1010 1010,-1010 557.808,0 1010,452.192 1010,1010 0,557.808 -452.192,1010 -1010,1010 -557.808,0 -1010,-452.192 -1010,-1010 z" />
  <path
     inkscape:connector-curvature="0"
     style="font-family:none;mix-blend-mode:normal;fill:url(#color-6);fill-rule:nonzero;stroke:none;stroke-width:1;stroke-linecap:butt;stroke-linejoin:miter;stroke-miterlimit:10;stroke-dasharray:none;stroke-dashoffset:0"
     id="path155"
     d="m 41990,42000 c 0,-557.808 452.192,-1010 1010,-1010 557.808,0 1010,452.192 1010,1010 0,557.808 -452.192,1010 -1010,1010 -557.808,0 -1010,-452.192 -1010,-1010 z" />
  <path
     inkscape:connector-curvature="0"
     style="font-family:none;mix-blend-mode:normal;fill:url(#color-7);fill-rule:nonzero;stroke:none;stroke-width:1;stroke-linecap:butt;stroke-linejoin:miter;stroke-miterlimit:10;stroke-dasharray:none;stroke-dashoffset:0"
     id="path157"
     d="m 33990,42000 c 0,-557.808 452.192,-1010 1010,-1010 557.808,0 1010,452.192 1010,1010 0,557.808 -452.192,1010 -1010,1010 -557.808,0 -1010,-452.192 -1010,-1010 z" />
  <path
     inkscape:connector-curvature="0"
     style="font-family:none;mix-blend-mode:normal;fill:url(#color-8);fill-rule:nonzero;stroke:none;stroke-width:1;stroke-linecap:butt;stroke-linejoin:miter;stroke-miterlimit:10;stroke-dasharray:none;stroke-dashoffset:0"
     id="path159"
     d="m 43200,19000 c 0,-441.828 358.172,-800 800,-800 441.828,0 800,358.172 800,800 0,441.828 -358.172,800 -800,800 -441.828,0 -800,-358.172 -800,-800 z" />
  <path
     inkscape:connector-curvature="0"
     style="font-family:none;mix-blend-mode:normal;fill:url(#color-9);fill-rule:nonzero;stroke:none;stroke-width:1;stroke-linecap:butt;stroke-linejoin:miter;stroke-miterlimit:10;stroke-dasharray:none;stroke-dashoffset:0"
     id="path161"
     d="m 35200,19000 c 0,-441.828 358.172,-800 800,-800 441.828,0 800,358.172 800,800 0,441.828 -358.172,800 -800,800 -441.828,0 -800,-358.172 -800,-800 z" />
  <path
     inkscape:connector-curvature="0"
     style="font-family:none;mix-blend-mode:normal;fill:url(#color-10);fill-rule:nonzero;stroke:none;stroke-width:1;stroke-linecap:butt;stroke-linejoin:miter;stroke-miterlimit:10;stroke-dasharray:none;stroke-dashoffset:0"
     id="path163"
     d="m 28300,30000 c 0,-441.828 358.172,-800 800,-800 441.828,0 800,358.172 800,800 0,441.828 -358.172,800 -800,800 -441.828,0 -800,-358.172 -800,-800 z" />
  <path
     inkscape:connector-curvature="0"
     style="font-family:none;mix-blend-mode:normal;fill:url(#color-11);fill-rule:nonzero;stroke:none;stroke-width:1;stroke-linecap:butt;stroke-linejoin:miter;stroke-miterlimit:10;stroke-dasharray:none;stroke-dashoffset:0"
     id="path165"
     d="m 39200,60600 c 0,-441.828 358.172,-800 800,-800 441.828,0 800,358.172 800,800 0,441.828 -358.172,800 -800,800 -441.828,0 -800,-358.172 -800,-800 z" />
</svg>
