<?xml version="1.0" encoding="UTF-8" standalone="no"?>
<svg
   xmlns:dc="http://purl.org/dc/elements/1.1/"
   xmlns:cc="http://creativecommons.org/ns#"
   xmlns:rdf="http://www.w3.org/1999/02/22-rdf-syntax-ns#"
   xmlns:svg="http://www.w3.org/2000/svg"
   xmlns="http://www.w3.org/2000/svg"
   xmlns:sodipodi="http://sodipodi.sourceforge.net/DTD/sodipodi-0.dtd"
   xmlns:inkscape="http://www.inkscape.org/namespaces/inkscape"
   width="100.80000000000001mm"
   height="90.80000000000003mm"
   viewBox="0 0 100800.00000000001 90800.00000000003"
   version="1.1"
   id="svg169"
   sodipodi:docname="F_500_64.svg"
   inkscape:version="0.92.1 r15371">
  <metadata
     id="metadata173">
    <rdf:RDF>
      <cc:Work
         rdf:about="">
        <dc:format>image/svg+xml</dc:format>
        <dc:type
           rdf:resource="http://purl.org/dc/dcmitype/StillImage" />
        <dc:title></dc:title>
      </cc:Work>
    </rdf:RDF>
  </metadata>
  <sodipodi:namedview
     pagecolor="#ffffff"
     bordercolor="#666666"
     borderopacity="1"
     objecttolerance="10"
     gridtolerance="10"
     guidetolerance="10"
     inkscape:pageopacity="0"
     inkscape:pageshadow="2"
     inkscape:window-width="1536"
     inkscape:window-height="801"
     id="namedview171"
     showgrid="false"
     inkscape:zoom="1.9450628"
     inkscape:cx="224.7454"
     inkscape:cy="158.89296"
     inkscape:window-x="-8"
     inkscape:window-y="-8"
     inkscape:window-maximized="1"
     inkscape:current-layer="svg169" />
  <defs
     id="defs57">
    <radialGradient
       cx="44000"
       cy="19000"
       r="1100"
       gradientUnits="userSpaceOnUse"
       id="color-1">
      <stop
         offset="1"
         stop-color="#3f51b5"
         id="stop2" />
      <stop
         offset="1"
         stop-color="#1a237e"
         id="stop4" />
    </radialGradient>
    <radialGradient
       cx="36000"
       cy="19000"
       r="1100"
       gradientUnits="userSpaceOnUse"
       id="color-2">
      <stop
         offset="1"
         stop-color="#3f51b5"
         id="stop7" />
      <stop
         offset="1"
         stop-color="#1a237e"
         id="stop9" />
    </radialGradient>
    <radialGradient
       cx="29100"
       cy="30000"
       r="1100"
       gradientUnits="userSpaceOnUse"
       id="color-3">
      <stop
         offset="1"
         stop-color="#3f51b5"
         id="stop12" />
      <stop
         offset="1"
         stop-color="#1a237e"
         id="stop14" />
    </radialGradient>
    <radialGradient
       cx="40000"
       cy="60600"
       r="1100"
       gradientUnits="userSpaceOnUse"
       id="color-4">
      <stop
         offset="1"
         stop-color="#3f51b5"
         id="stop17" />
      <stop
         offset="1"
         stop-color="#1a237e"
         id="stop19" />
    </radialGradient>
    <radialGradient
       cx="73000"
       cy="50000"
       r="1010"
       gradientUnits="userSpaceOnUse"
       id="color-5">
      <stop
         offset="1"
         stop-color="#5c6bc0"
         id="stop22" />
      <stop
         offset="1"
         stop-color="#1a237e"
         id="stop24" />
    </radialGradient>
    <radialGradient
       cx="43000"
       cy="42000"
       r="1010"
       gradientUnits="userSpaceOnUse"
       id="color-6">
      <stop
         offset="1"
         stop-color="#5c6bc0"
         id="stop27" />
      <stop
         offset="1"
         stop-color="#1a237e"
         id="stop29" />
    </radialGradient>
    <radialGradient
       cx="35000"
       cy="42000"
       r="1010"
       gradientUnits="userSpaceOnUse"
       id="color-7">
      <stop
         offset="1"
         stop-color="#5c6bc0"
         id="stop32" />
      <stop
         offset="1"
         stop-color="#1a237e"
         id="stop34" />
    </radialGradient>
    <radialGradient
       cx="44000"
       cy="19000"
       r="800"
       gradientUnits="userSpaceOnUse"
       id="color-8">
      <stop
         offset="1"
         stop-color="#5c6bc0"
         id="stop37" />
      <stop
         offset="1"
         stop-color="#1a237e"
         id="stop39" />
    </radialGradient>
    <radialGradient
       cx="36000"
       cy="19000"
       r="800"
       gradientUnits="userSpaceOnUse"
       id="color-9">
      <stop
         offset="1"
         stop-color="#5c6bc0"
         id="stop42" />
      <stop
         offset="1"
         stop-color="#1a237e"
         id="stop44" />
    </radialGradient>
    <radialGradient
       cx="29100"
       cy="30000"
       r="800"
       gradientUnits="userSpaceOnUse"
       id="color-10">
      <stop
         offset="1"
         stop-color="#5c6bc0"
         id="stop47" />
      <stop
         offset="1"
         stop-color="#1a237e"
         id="stop49" />
    </radialGradient>
    <radialGradient
       cx="40000"
       cy="60600"
       r="800"
       gradientUnits="userSpaceOnUse"
       id="color-11">
      <stop
         offset="1"
         stop-color="#5c6bc0"
         id="stop52" />
      <stop
         offset="1"
         stop-color="#1a237e"
         id="stop54" />
    </radialGradient>
  </defs>
  <path
     style="font-family:none;mix-blend-mode:normal;fill:#1a237e;fill-rule:nonzero;stroke:none;stroke-width:0;stroke-linecap:butt;stroke-linejoin:miter;stroke-miterlimit:10;stroke-dasharray:none;stroke-dashoffset:0"
     d="M 136.0625 74.646484 C 135.54066 74.646484 135.11719 75.068001 135.11719 75.589844 L 135.11719 84.257812 C 134.25079 84.564851 133.57661 85.280603 133.33008 86.173828 L 138.79492 86.173828 C 138.54816 85.279762 137.87539 84.562415 137.00781 84.255859 L 137.00781 75.589844 C 137.00781 75.068001 136.58434 74.646484 136.0625 74.646484 z M 166.29883 74.646484 C 165.77698 74.646484 165.35352 75.068001 165.35352 75.589844 L 165.35352 84.257812 C 164.48712 84.564851 163.81293 85.280603 163.56641 86.173828 L 169.03125 86.173828 C 168.78449 85.279762 168.11172 84.562415 167.24414 84.255859 L 167.24414 75.589844 C 167.24414 75.068001 166.82067 74.646484 166.29883 74.646484 z M 133.33008 87.685547 C 133.57661 88.578772 134.25079 89.292571 135.11719 89.599609 L 135.11719 94.488281 C 135.11719 94.520162 135.13168 94.547055 135.13477 94.578125 C 135.14066 94.63896 135.15442 94.695313 135.17188 94.753906 C 135.18985 94.813866 135.20937 94.869528 135.23828 94.923828 C 135.26585 94.976409 135.29826 95.023145 135.33594 95.070312 C 135.37674 95.121189 135.42038 95.165572 135.4707 95.207031 C 135.4929 95.225392 135.50506 95.250995 135.5293 95.267578 L 142.29883 99.900391 L 142.29883 110.72266 C 142.23532 110.70009 142.17487 110.67042 142.10938 110.65234 L 142.10938 112.44141 L 142.10938 114.33008 L 142.10938 116.11914 C 143.00344 115.87238 143.72079 115.19765 144.02734 114.33008 L 155.15039 114.33008 L 155.15039 128.50391 C 155.15039 128.54699 155.1702 128.58344 155.17578 128.625 C 155.18481 128.69444 155.19215 128.76142 155.2168 128.82812 C 155.2406 128.89247 155.27596 128.94703 155.3125 129.00391 C 155.33569 129.04034 155.34624 129.0814 155.375 129.11523 L 161.57422 136.41211 L 161.57422 139.8418 L 161.57422 140.95117 C 160.70782 141.25821 160.03364 141.97201 159.78711 142.86523 L 165.25195 142.86523 C 165.00543 141.97201 164.33124 141.25821 163.46484 140.95117 L 163.46484 139.08594 L 163.46484 136.0625 C 163.46484 136.01608 163.44592 135.97627 163.43945 135.93164 C 163.43016 135.86546 163.42194 135.80191 163.39844 135.73828 C 163.37571 135.67684 163.34102 135.62497 163.30664 135.57031 C 163.28227 135.53122 163.27096 135.48732 163.24023 135.45117 L 157.03906 128.15625 L 157.03906 116.04883 C 157.10257 116.0714 157.16302 116.10106 157.22852 116.11914 L 157.22852 110.65234 C 156.33445 110.8991 155.61906 111.57383 155.3125 112.44141 L 144.18945 112.44141 L 144.18945 99.402344 C 144.18945 99.370625 144.17493 99.343416 144.17188 99.3125 C 144.16601 99.250991 144.15244 99.193989 144.13477 99.134766 C 144.11662 99.074333 144.09762 99.017562 144.06836 98.962891 C 144.04117 98.911463 144.00759 98.866532 143.9707 98.820312 C 143.93073 98.770421 143.88898 98.726408 143.83984 98.685547 C 143.81642 98.665944 143.80307 98.638699 143.77734 98.621094 L 137.00781 93.990234 L 137.00781 89.601562 C 137.87539 89.295007 138.54816 88.579613 138.79492 87.685547 L 133.33008 87.685547 z M 163.56641 87.685547 C 163.81293 88.578772 164.48712 89.292571 165.35352 89.599609 L 165.35352 94.021484 L 159.30078 98.650391 C 159.28364 98.663502 159.27576 98.683242 159.25977 98.697266 C 159.20966 98.740851 159.17085 98.790616 159.13086 98.84375 C 159.09549 98.89099 159.06069 98.936215 159.03516 98.988281 C 159.01 99.039117 158.99624 99.092932 158.98047 99.148438 C 158.96205 99.213547 158.94562 99.276316 158.94141 99.34375 C 158.94009 99.364123 158.92969 99.38164 158.92969 99.402344 L 158.92969 110.72266 C 158.86618 110.70009 158.80573 110.67042 158.74023 110.65234 L 158.74023 116.11914 C 159.6343 115.87238 160.34969 115.19765 160.65625 114.33008 L 232.44141 114.33008 L 232.44141 114.5957 L 232.44141 188.04297 C 231.57383 188.34952 230.8991 189.06492 230.65234 189.95898 L 236.11914 189.95898 C 236.1156 189.94617 236.10918 189.93462 236.10547 189.92188 L 253.20312 189.92188 C 253.51016 190.78827 254.22396 191.46246 255.11719 191.70898 L 255.11719 186.24414 C 254.22314 186.4909 253.50774 187.1637 253.20117 188.03125 L 234.33008 188.03125 L 234.33008 114.5957 L 234.33008 113.38672 L 234.33008 112.44141 L 160.81836 112.44141 L 160.81836 99.869141 L 166.87305 95.238281 C 166.88985 95.225428 166.89836 95.20709 166.91406 95.193359 C 166.96176 95.151756 166.99858 95.103036 167.03711 95.052734 C 167.07562 95.002286 167.11347 94.954476 167.14062 94.898438 C 167.16463 94.84951 167.17606 94.797379 167.19141 94.744141 C 167.21023 94.678281 167.22816 94.615133 167.23242 94.546875 C 167.23375 94.5264 167.24414 94.509091 167.24414 94.488281 L 167.24414 89.601562 C 168.11172 89.295007 168.78449 88.579613 169.03125 87.685547 L 163.56641 87.685547 z M 140.59766 110.65234 C 139.70359 110.8991 138.9882 111.57383 138.68164 112.44141 L 113.38672 112.44141 L 113.38672 114.33008 L 138.51953 114.33008 L 138.51953 128.12695 L 131.59766 135.41211 C 131.56511 135.44637 131.5518 135.48982 131.52539 135.52734 C 131.48253 135.58782 131.43604 135.64501 131.4082 135.71484 C 131.38412 135.77533 131.38216 135.83903 131.37109 135.90234 C 131.36144 135.95653 131.33789 136.00554 131.33789 136.0625 L 131.33789 139.8418 L 131.33789 140.95117 C 130.4715 141.25821 129.79731 141.97201 129.55078 142.86523 L 135.01562 142.86523 C 134.76887 141.97117 134.09609 141.25577 133.22852 140.94922 L 133.22852 139.46484 L 133.22852 136.43945 L 140.15039 129.1543 C 140.18581 129.11701 140.20036 129.07042 140.22852 129.0293 C 140.26815 128.97192 140.31354 128.91912 140.33984 128.85352 C 140.36519 128.78986 140.36797 128.72296 140.37891 128.65625 C 140.38766 128.60458 140.41016 128.55807 140.41016 128.50391 L 140.41016 116.05078 C 140.4729 116.07302 140.53297 116.10129 140.59766 116.11914 L 140.59766 110.65234 z M 129.55078 144.37891 C 129.79731 145.27213 130.4715 145.98593 131.33789 146.29297 L 131.33789 154.96094 C 131.33789 155.48278 131.76136 155.90625 132.2832 155.90625 C 132.80505 155.90625 133.22852 155.48278 133.22852 154.96094 L 133.22852 146.29492 C 134.09609 145.98837 134.76887 145.27297 135.01562 144.37891 L 129.55078 144.37891 z M 159.78711 144.37891 C 160.03364 145.27213 160.70782 145.98593 161.57422 146.29297 L 161.57422 154.96094 C 161.57422 155.48278 161.99769 155.90625 162.51953 155.90625 C 163.04137 155.90625 163.46484 155.48278 163.46484 154.96094 L 163.46484 146.29297 C 164.33124 145.98593 165.00543 145.27213 165.25195 144.37891 L 159.78711 144.37891 z M 256.63086 186.24414 L 256.63086 191.70898 C 257.52408 191.46246 258.23788 190.78827 258.54492 189.92188 L 272.12695 189.92188 C 272.6488 189.92188 273.07031 189.49841 273.07031 188.97656 C 273.07031 188.45472 272.6488 188.03125 272.12695 188.03125 L 258.54688 188.03125 C 258.24031 187.1637 257.52491 186.4909 256.63086 186.24414 z M 230.65234 191.4707 C 230.8991 192.36477 231.57383 193.08016 232.44141 193.38672 L 232.44141 229.60547 L 230.55078 229.60547 L 216.18945 229.60547 L 215.43359 229.60547 L 215.43359 228.66211 C 215.43359 226.83566 213.95341 225.35352 212.12695 225.35352 C 210.3005 225.35352 208.81836 226.83566 208.81836 228.66211 L 208.81836 231.57227 C 208.81836 232.35503 208.18511 232.98828 207.40234 232.98828 C 206.61958 232.98828 205.98438 232.35503 205.98438 231.57227 L 205.98438 228.66211 C 205.98438 226.83566 204.50419 225.35352 202.67773 225.35352 C 200.85128 225.35352 199.36914 226.83566 199.36914 228.66211 L 199.36914 231.57227 C 199.36914 232.35503 198.73589 232.98828 197.95312 232.98828 C 197.17036 232.98828 196.53516 232.35503 196.53516 231.57227 L 196.53516 228.66211 C 196.53516 226.83566 195.05497 225.35352 193.22852 225.35352 C 191.40206 225.35352 189.92188 226.83566 189.92188 228.66211 L 189.92188 231.57227 C 189.92188 232.35503 189.28667 232.98828 188.50391 232.98828 C 187.72114 232.98828 187.08594 232.35503 187.08594 231.57227 L 187.08594 228.66211 C 187.08594 226.83566 185.60575 225.35352 183.7793 225.35352 C 181.95284 225.35352 180.47266 226.83566 180.47266 228.66211 L 180.47266 231.57227 C 180.47266 232.35503 179.83745 232.98828 179.05469 232.98828 C 178.27192 232.98828 177.63867 232.35503 177.63867 231.57227 L 177.63867 228.66211 C 177.63867 226.83566 176.15653 225.35352 174.33008 225.35352 C 172.50363 225.35352 171.02344 226.83566 171.02344 228.66211 L 171.02344 231.57227 C 171.02344 232.35503 170.38824 232.98828 169.60547 232.98828 C 168.8227 232.98828 168.18945 232.35503 168.18945 231.57227 L 168.18945 229.17188 L 168.18945 228.09375 L 154.96094 228.09375 L 154.96094 229.98438 L 166.29883 229.98438 L 166.29883 231.57227 C 166.29883 233.39872 167.77902 234.87891 169.60547 234.87891 C 171.43192 234.87891 172.91406 233.39872 172.91406 231.57227 L 172.91406 228.66211 C 172.91406 227.87934 173.54731 227.24414 174.33008 227.24414 C 175.11284 227.24414 175.74805 227.87934 175.74805 228.66211 L 175.74805 231.57227 C 175.74805 233.39872 177.22823 234.87891 179.05469 234.87891 C 180.88114 234.87891 182.36133 233.39872 182.36133 231.57227 L 182.36133 228.66211 C 182.36133 227.87934 182.99653 227.24414 183.7793 227.24414 C 184.56206 227.24414 185.19727 227.87934 185.19727 228.66211 L 185.19727 231.57227 C 185.19727 233.39872 186.67745 234.87891 188.50391 234.87891 C 190.33036 234.87891 191.81055 233.39872 191.81055 231.57227 L 191.81055 228.66211 C 191.81055 227.87934 192.44575 227.24414 193.22852 227.24414 C 194.01128 227.24414 194.64648 227.87934 194.64648 228.66211 L 194.64648 231.57227 C 194.64648 233.39872 196.12667 234.87891 197.95312 234.87891 C 199.77958 234.87891 201.25977 233.39872 201.25977 231.57227 L 201.25977 228.66211 C 201.25977 227.87934 201.89497 227.24414 202.67773 227.24414 C 203.4605 227.24414 204.09375 227.87934 204.09375 228.66211 L 204.09375 231.57227 C 204.09375 233.39872 205.57589 234.87891 207.40234 234.87891 C 209.2288 234.87891 210.70898 233.39872 210.70898 231.57227 L 210.70898 228.66211 C 210.70898 227.87934 211.34419 227.24414 212.12695 227.24414 C 212.90972 227.24414 213.54297 227.87934 213.54297 228.66211 L 213.54297 231.06055 L 213.54297 231.49609 L 216.18945 231.49609 L 230.55078 231.49609 L 233.38672 231.49609 C 233.90856 231.49609 234.33008 231.07262 234.33008 230.55078 L 234.33008 193.38672 C 235.19765 193.08016 235.87238 192.36477 236.11914 191.4707 L 230.65234 191.4707 z "
     transform="scale(264.58333)"
     id="path59" />
</svg>
