<?xml version="1.0" encoding="UTF-8" standalone="no"?>
<svg
   xmlns:dc="http://purl.org/dc/elements/1.1/"
   xmlns:cc="http://creativecommons.org/ns#"
   xmlns:rdf="http://www.w3.org/1999/02/22-rdf-syntax-ns#"
   xmlns:svg="http://www.w3.org/2000/svg"
   xmlns="http://www.w3.org/2000/svg"
   xmlns:sodipodi="http://sodipodi.sourceforge.net/DTD/sodipodi-0.dtd"
   xmlns:inkscape="http://www.inkscape.org/namespaces/inkscape"
   width="95mm"
   height="95mm"
   viewBox="0 0 95000 95000"
   version="1.1"
   id="svg219"
   sodipodi:docname="C_100_64.svg"
   inkscape:version="0.92.1 r15371">
  <metadata
     id="metadata223">
    <rdf:RDF>
      <cc:Work
         rdf:about="">
        <dc:format>image/svg+xml</dc:format>
        <dc:type
           rdf:resource="http://purl.org/dc/dcmitype/StillImage" />
        <dc:title></dc:title>
      </cc:Work>
    </rdf:RDF>
  </metadata>
  <sodipodi:namedview
     pagecolor="#ffffff"
     bordercolor="#666666"
     borderopacity="1"
     objecttolerance="10"
     gridtolerance="10"
     guidetolerance="10"
     inkscape:pageopacity="0"
     inkscape:pageshadow="2"
     inkscape:window-width="1536"
     inkscape:window-height="801"
     id="namedview221"
     showgrid="false"
     inkscape:zoom="1.8590706"
     inkscape:cx="179.52756"
     inkscape:cy="191.4984"
     inkscape:window-x="-8"
     inkscape:window-y="-8"
     inkscape:window-maximized="1"
     inkscape:current-layer="svg219" />
  <defs
     id="defs57">
    <radialGradient
       cx="32000"
       cy="16000"
       r="130"
       gradientUnits="userSpaceOnUse"
       id="color-1"
       gradientTransform="matrix(-1,0,0,1,89708.333,5291.6669)">
      <stop
         offset="1"
         stop-color="#ef5350"
         id="stop2" />
      <stop
         offset="1"
         stop-color="#b71c1c"
         id="stop4" />
    </radialGradient>
    <radialGradient
       cx="21700"
       cy="16000"
       r="1750"
       gradientUnits="userSpaceOnUse"
       id="color-2"
       gradientTransform="matrix(-1,0,0,1,89708.333,5291.6669)">
      <stop
         offset="1"
         stop-color="#ef5350"
         id="stop7" />
      <stop
         offset="1"
         stop-color="#b71c1c"
         id="stop9" />
    </radialGradient>
    <radialGradient
       cx="43000"
       cy="41000"
       r="130"
       gradientUnits="userSpaceOnUse"
       id="color-3"
       gradientTransform="matrix(-1,0,0,1,89708.333,5291.6669)">
      <stop
         offset="1"
         stop-color="#ef5350"
         id="stop12" />
      <stop
         offset="1"
         stop-color="#b71c1c"
         id="stop14" />
    </radialGradient>
    <radialGradient
       cx="31700"
       cy="41000"
       r="130"
       gradientUnits="userSpaceOnUse"
       id="color-4"
       gradientTransform="matrix(-1,0,0,1,89708.333,5291.6669)">
      <stop
         offset="1"
         stop-color="#ef5350"
         id="stop17" />
      <stop
         offset="1"
         stop-color="#b71c1c"
         id="stop19" />
    </radialGradient>
    <radialGradient
       cx="15000"
       cy="45000"
       r="130"
       gradientUnits="userSpaceOnUse"
       id="color-5"
       gradientTransform="matrix(-1,0,0,1,89708.333,5291.6669)">
      <stop
         offset="1"
         stop-color="#ef5350"
         id="stop22" />
      <stop
         offset="1"
         stop-color="#b71c1c"
         id="stop24" />
    </radialGradient>
    <radialGradient
       cx="44000"
       cy="20000"
       r="130"
       gradientUnits="userSpaceOnUse"
       id="color-6"
       gradientTransform="matrix(-1,0,0,1,89708.333,5291.6669)">
      <stop
         offset="1"
         stop-color="#ef5350"
         id="stop27" />
      <stop
         offset="1"
         stop-color="#b71c1c"
         id="stop29" />
    </radialGradient>
    <radialGradient
       cx="70000"
       cy="20000"
       r="1750"
       gradientUnits="userSpaceOnUse"
       id="color-7"
       gradientTransform="matrix(-1,0,0,1,89708.333,5291.6669)">
      <stop
         offset="1"
         stop-color="#ef5350"
         id="stop32" />
      <stop
         offset="1"
         stop-color="#b71c1c"
         id="stop34" />
    </radialGradient>
    <radialGradient
       cx="15000"
       cy="40000"
       r="1750"
       gradientUnits="userSpaceOnUse"
       id="color-8"
       gradientTransform="matrix(-1,0,0,1,89708.333,5291.6669)">
      <stop
         offset="1"
         stop-color="#ef5350"
         id="stop37" />
      <stop
         offset="1"
         stop-color="#b71c1c"
         id="stop39" />
    </radialGradient>
    <radialGradient
       cx="38000"
       cy="45000"
       r="130"
       gradientUnits="userSpaceOnUse"
       id="color-9"
       gradientTransform="matrix(-1,0,0,1,89708.333,5291.6669)">
      <stop
         offset="1"
         stop-color="#ef5350"
         id="stop42" />
      <stop
         offset="1"
         stop-color="#b71c1c"
         id="stop44" />
    </radialGradient>
    <radialGradient
       cx="33830"
       cy="28000"
       r="130"
       gradientUnits="userSpaceOnUse"
       id="color-10"
       gradientTransform="matrix(-1,0,0,1,89708.333,5291.6669)">
      <stop
         offset="1"
         stop-color="#ef5350"
         id="stop47" />
      <stop
         offset="1"
         stop-color="#b71c1c"
         id="stop49" />
    </radialGradient>
    <radialGradient
       cx="29530"
       cy="28000"
       r="130"
       gradientUnits="userSpaceOnUse"
       id="color-11"
       gradientTransform="matrix(-1,0,0,1,89708.333,5291.6669)">
      <stop
         offset="1"
         stop-color="#ef5350"
         id="stop52" />
      <stop
         offset="1"
         stop-color="#b71c1c"
         id="stop54" />
    </radialGradient>
  </defs>
  <path
     style="font-weight:normal;font-size:medium;font-family:sans-serif;text-anchor:start;mix-blend-mode:normal;fill:#b71c1c;stroke:none;stroke-width:0;stroke-linecap:butt;stroke-linejoin:miter;stroke-miterlimit:10;stroke-dasharray:none;stroke-dashoffset:0"
     d="M 244.56641 79.716797 L 244.56641 81.228516 L 259.68555 81.228516 L 259.68555 79.716797 L 244.56641 79.716797 z M 80.914062 94.833984 L 80.914062 96.345703 L 89.605469 96.345703 L 89.605469 94.833984 L 80.914062 94.833984 z M 207.15039 118.26562 C 207.15039 118.26562 207.14844 118.26758 207.14844 118.26758 L 207.14844 118.64648 L 207.14844 122.04688 L 207.14844 122.42578 C 207.14844 122.42578 207.15039 122.42773 207.15039 122.42773 L 210.17383 122.42773 C 210.17383 122.42773 210.17578 122.42578 210.17578 122.42578 L 210.17578 122.04688 L 210.17578 118.64648 L 210.17578 118.26758 C 210.17578 118.26758 210.17383 118.26562 210.17383 118.26562 L 207.15039 118.26562 z M 223.40234 118.26562 C 223.40234 118.26562 223.40039 118.26758 223.40039 118.26758 L 223.40039 122.42578 C 223.40039 122.42578 223.40234 122.42773 223.40234 122.42773 L 226.42578 122.42773 C 226.42578 122.42773 226.42773 122.42578 226.42773 122.42578 L 226.42773 118.26758 C 226.42773 118.26758 226.42578 118.26562 226.42578 118.26562 L 223.40234 118.26562 z M 146.29883 131.87305 C 146.29883 131.87305 146.29688 131.875 146.29688 131.875 L 146.29688 134.89844 C 146.29688 134.89844 146.29883 134.90039 146.29883 134.90039 L 150.45703 134.90039 C 150.45703 134.90039 150.45898 134.89844 150.45898 134.89844 L 150.45898 131.875 C 150.45898 131.875 150.45703 131.87305 150.45703 131.87305 L 146.29883 131.87305 z M 207.90625 131.87305 C 207.90625 131.87305 207.9043 131.875 207.9043 131.875 L 207.9043 134.89844 C 207.9043 134.89844 207.90625 134.90039 207.90625 134.90039 L 212.0625 134.90039 C 212.0625 134.90039 212.06445 134.89844 212.06445 134.89844 L 212.06445 131.875 C 212.06445 131.875 212.0625 131.87305 212.0625 131.87305 L 207.90625 131.87305 z M 224.1582 131.87305 C 224.1582 131.87305 224.15625 131.875 224.15625 131.875 L 224.15625 134.89844 C 224.15625 134.89844 224.1582 134.90039 224.1582 134.90039 L 228.31445 134.90039 C 228.31445 134.90039 228.31641 134.89844 228.31641 134.89844 L 228.31641 131.875 C 228.31641 131.875 228.31445 131.87305 228.31445 131.87305 L 224.1582 131.87305 z M 148.18945 144.34375 C 148.18945 144.34375 148.1875 144.3457 148.1875 144.3457 L 148.1875 144.72461 L 148.1875 148.12695 L 148.1875 148.50391 C 148.1875 148.50391 148.18945 148.50586 148.18945 148.50586 L 151.21289 148.50586 C 151.21289 148.50586 151.21484 148.50391 151.21484 148.50391 L 151.21484 148.12695 L 151.21484 144.72461 L 151.21484 144.3457 C 151.21484 144.3457 151.21289 144.34375 151.21289 144.34375 L 148.18945 144.34375 z M 209.79492 144.34375 C 209.79492 144.34375 209.79297 144.3457 209.79297 144.3457 L 209.79297 148.50391 C 209.79297 148.50391 209.79492 148.50586 209.79492 148.50586 L 212.81836 148.50586 C 212.81836 148.50586 212.82031 148.50391 212.82031 148.50391 L 212.82031 144.3457 C 212.82031 144.3457 212.81836 144.34375 212.81836 144.34375 L 209.79492 144.34375 z M 226.04688 144.34375 C 226.04688 144.34375 226.04492 144.3457 226.04492 144.3457 L 226.04492 148.50391 C 226.04492 148.50391 226.04688 148.50586 226.04688 148.50586 L 229.07031 148.50586 C 229.07031 148.50586 229.07227 148.50391 229.07227 148.50391 L 229.07227 144.3457 C 229.07227 144.3457 229.07031 144.34375 229.07031 144.34375 L 226.04688 144.34375 z M 281.60547 176.84961 L 281.60547 182.51953 L 283.11719 182.51953 L 283.11719 176.84961 L 281.60547 176.84961 z "
     transform="scale(264.58334)"
     id="polygon73" />
</svg>
