<?xml version="1.0" encoding="UTF-8" standalone="no"?>
<svg
   xmlns:dc="http://purl.org/dc/elements/1.1/"
   xmlns:cc="http://creativecommons.org/ns#"
   xmlns:rdf="http://www.w3.org/1999/02/22-rdf-syntax-ns#"
   xmlns:svg="http://www.w3.org/2000/svg"
   xmlns="http://www.w3.org/2000/svg"
   xmlns:sodipodi="http://sodipodi.sourceforge.net/DTD/sodipodi-0.dtd"
   xmlns:inkscape="http://www.inkscape.org/namespaces/inkscape"
   width="95mm"
   height="95mm"
   viewBox="0 0 95000 95000"
   version="1.1"
   id="svg306"
   sodipodi:docname="F_250_100.svg"
   inkscape:version="0.92.1 r15371">
  <metadata
     id="metadata310">
    <rdf:RDF>
      <cc:Work
         rdf:about="">
        <dc:format>image/svg+xml</dc:format>
        <dc:type
           rdf:resource="http://purl.org/dc/dcmitype/StillImage" />
        <dc:title></dc:title>
      </cc:Work>
    </rdf:RDF>
  </metadata>
  <sodipodi:namedview
     pagecolor="#ffffff"
     bordercolor="#666666"
     borderopacity="1"
     objecttolerance="10"
     gridtolerance="10"
     guidetolerance="10"
     inkscape:pageopacity="0"
     inkscape:pageshadow="2"
     inkscape:window-width="1536"
     inkscape:window-height="801"
     id="namedview308"
     showgrid="false"
     inkscape:zoom="7.4362824"
     inkscape:cx="141.21271"
     inkscape:cy="211.92412"
     inkscape:window-x="-8"
     inkscape:window-y="-8"
     inkscape:window-maximized="1"
     inkscape:current-layer="svg306" />
  <defs
     id="defs142">
    <radialGradient
       cx="49000"
       cy="37000"
       r="1010"
       gradientUnits="userSpaceOnUse"
       id="color-1"
       gradientTransform="translate(5291.6669,5291.6669)">
      <stop
         offset="0.29703"
         stop-color="#3f51b5"
         id="stop2" />
      <stop
         offset="0.29703"
         stop-color="#1a237e"
         id="stop4" />
    </radialGradient>
    <radialGradient
       cx="21000"
       cy="30000"
       r="1010"
       gradientUnits="userSpaceOnUse"
       id="color-2"
       gradientTransform="translate(5291.6669,5291.6669)">
      <stop
         offset="0.29703"
         stop-color="#3f51b5"
         id="stop7" />
      <stop
         offset="0.29703"
         stop-color="#1a237e"
         id="stop9" />
    </radialGradient>
    <radialGradient
       cx="35500"
       cy="22000"
       r="1010"
       gradientUnits="userSpaceOnUse"
       id="color-3"
       gradientTransform="translate(5291.6669,5291.6669)">
      <stop
         offset="0.29703"
         stop-color="#3f51b5"
         id="stop12" />
      <stop
         offset="0.29703"
         stop-color="#1a237e"
         id="stop14" />
    </radialGradient>
    <radialGradient
       cx="29000"
       cy="22000"
       r="1010"
       gradientUnits="userSpaceOnUse"
       id="color-4"
       gradientTransform="translate(5291.6669,5291.6669)">
      <stop
         offset="0.29703"
         stop-color="#3f51b5"
         id="stop17" />
      <stop
         offset="0.29703"
         stop-color="#1a237e"
         id="stop19" />
    </radialGradient>
    <radialGradient
       cx="30000"
       cy="64000"
       r="1200"
       gradientUnits="userSpaceOnUse"
       id="color-5"
       gradientTransform="translate(5291.6669,5291.6669)">
      <stop
         offset="1"
         stop-color="#3f51b5"
         id="stop22" />
      <stop
         offset="1"
         stop-color="#1a237e"
         id="stop24" />
    </radialGradient>
    <radialGradient
       cx="35000"
       cy="37000"
       r="1200"
       gradientUnits="userSpaceOnUse"
       id="color-6"
       gradientTransform="translate(5291.6669,5291.6669)">
      <stop
         offset="1"
         stop-color="#3f51b5"
         id="stop27" />
      <stop
         offset="1"
         stop-color="#1a237e"
         id="stop29" />
    </radialGradient>
    <radialGradient
       cx="28300"
       cy="37000"
       r="1200"
       gradientUnits="userSpaceOnUse"
       id="color-7"
       gradientTransform="translate(5291.6669,5291.6669)">
      <stop
         offset="1"
         stop-color="#3f51b5"
         id="stop32" />
      <stop
         offset="1"
         stop-color="#1a237e"
         id="stop34" />
    </radialGradient>
    <radialGradient
       cx="20000"
       cy="64000"
       r="250"
       gradientUnits="userSpaceOnUse"
       id="color-8"
       gradientTransform="translate(5291.6669,5291.6669)">
      <stop
         offset="1"
         stop-color="#5c6bc0"
         id="stop37" />
      <stop
         offset="1"
         stop-color="#1a237e"
         id="stop39" />
    </radialGradient>
    <radialGradient
       cx="30000"
       cy="64000"
       r="1010"
       gradientUnits="userSpaceOnUse"
       id="color-9"
       gradientTransform="translate(5291.6669,5291.6669)">
      <stop
         offset="1"
         stop-color="#5c6bc0"
         id="stop42" />
      <stop
         offset="1"
         stop-color="#1a237e"
         id="stop44" />
    </radialGradient>
    <radialGradient
       cx="49000"
       cy="37000"
       r="1200"
       gradientUnits="userSpaceOnUse"
       id="color-10"
       gradientTransform="translate(5291.6669,5291.6669)">
      <stop
         offset="1"
         stop-color="#5c6bc0"
         id="stop47" />
      <stop
         offset="1"
         stop-color="#1a237e"
         id="stop49" />
    </radialGradient>
    <radialGradient
       cx="49000"
       cy="35000"
       r="200"
       gradientUnits="userSpaceOnUse"
       id="color-11"
       gradientTransform="translate(5291.6669,5291.6669)">
      <stop
         offset="1"
         stop-color="#5c6bc0"
         id="stop52" />
      <stop
         offset="1"
         stop-color="#1a237e"
         id="stop54" />
    </radialGradient>
    <radialGradient
       cx="50100"
       cy="34000"
       r="200"
       gradientUnits="userSpaceOnUse"
       id="color-12"
       gradientTransform="translate(5291.6669,5291.6669)">
      <stop
         offset="1"
         stop-color="#5c6bc0"
         id="stop57" />
      <stop
         offset="1"
         stop-color="#1a237e"
         id="stop59" />
    </radialGradient>
    <radialGradient
       cx="35500"
       cy="22000"
       r="1200"
       gradientUnits="userSpaceOnUse"
       id="color-13"
       gradientTransform="translate(5291.6669,5291.6669)">
      <stop
         offset="1"
         stop-color="#5c6bc0"
         id="stop62" />
      <stop
         offset="1"
         stop-color="#1a237e"
         id="stop64" />
    </radialGradient>
    <radialGradient
       cx="29000"
       cy="22000"
       r="1200"
       gradientUnits="userSpaceOnUse"
       id="color-14"
       gradientTransform="translate(5291.6669,5291.6669)">
      <stop
         offset="1"
         stop-color="#5c6bc0"
         id="stop67" />
      <stop
         offset="1"
         stop-color="#1a237e"
         id="stop69" />
    </radialGradient>
    <radialGradient
       cx="21000"
       cy="30000"
       r="1200"
       gradientUnits="userSpaceOnUse"
       id="color-15"
       gradientTransform="translate(5291.6669,5291.6669)">
      <stop
         offset="1"
         stop-color="#5c6bc0"
         id="stop72" />
      <stop
         offset="1"
         stop-color="#1a237e"
         id="stop74" />
    </radialGradient>
    <radialGradient
       cx="35500"
       cy="22000"
       r="400"
       gradientUnits="userSpaceOnUse"
       id="color-16"
       gradientTransform="translate(5291.6669,5291.6669)">
      <stop
         offset="1"
         stop-color="#5c6bc0"
         id="stop77" />
      <stop
         offset="1"
         stop-color="#1a237e"
         id="stop79" />
    </radialGradient>
    <radialGradient
       cx="29000"
       cy="22000"
       r="400"
       gradientUnits="userSpaceOnUse"
       id="color-17"
       gradientTransform="translate(5291.6669,5291.6669)">
      <stop
         offset="1"
         stop-color="#5c6bc0"
         id="stop82" />
      <stop
         offset="1"
         stop-color="#1a237e"
         id="stop84" />
    </radialGradient>
    <radialGradient
       cx="21000"
       cy="30000"
       r="400"
       gradientUnits="userSpaceOnUse"
       id="color-18"
       gradientTransform="translate(5291.6669,5291.6669)">
      <stop
         offset="1"
         stop-color="#5c6bc0"
         id="stop87" />
      <stop
         offset="1"
         stop-color="#1a237e"
         id="stop89" />
    </radialGradient>
    <radialGradient
       cx="35500"
       cy="25000"
       r="200"
       gradientUnits="userSpaceOnUse"
       id="color-19"
       gradientTransform="translate(5291.6669,5291.6669)">
      <stop
         offset="1"
         stop-color="#5c6bc0"
         id="stop92" />
      <stop
         offset="1"
         stop-color="#1a237e"
         id="stop94" />
    </radialGradient>
    <radialGradient
       cx="29000"
       cy="25000"
       r="200"
       gradientUnits="userSpaceOnUse"
       id="color-20"
       gradientTransform="translate(5291.6669,5291.6669)">
      <stop
         offset="1"
         stop-color="#5c6bc0"
         id="stop97" />
      <stop
         offset="1"
         stop-color="#1a237e"
         id="stop99" />
    </radialGradient>
    <radialGradient
       cx="28300"
       cy="37000"
       r="1010"
       gradientUnits="userSpaceOnUse"
       id="color-21"
       gradientTransform="translate(5291.6669,5291.6669)">
      <stop
         offset="1"
         stop-color="#5c6bc0"
         id="stop102" />
      <stop
         offset="1"
         stop-color="#1a237e"
         id="stop104" />
    </radialGradient>
    <radialGradient
       cx="35000"
       cy="37000"
       r="1010"
       gradientUnits="userSpaceOnUse"
       id="color-22"
       gradientTransform="translate(5291.6669,5291.6669)">
      <stop
         offset="1"
         stop-color="#5c6bc0"
         id="stop107" />
      <stop
         offset="1"
         stop-color="#1a237e"
         id="stop109" />
    </radialGradient>
    <radialGradient
       cx="35000"
       cy="35000"
       r="200"
       gradientUnits="userSpaceOnUse"
       id="color-23"
       gradientTransform="translate(5291.6669,5291.6669)">
      <stop
         offset="1"
         stop-color="#5c6bc0"
         id="stop112" />
      <stop
         offset="1"
         stop-color="#1a237e"
         id="stop114" />
    </radialGradient>
    <radialGradient
       cx="28300"
       cy="35000"
       r="200"
       gradientUnits="userSpaceOnUse"
       id="color-24"
       gradientTransform="translate(5291.6669,5291.6669)">
      <stop
         offset="1"
         stop-color="#5c6bc0"
         id="stop117" />
      <stop
         offset="1"
         stop-color="#1a237e"
         id="stop119" />
    </radialGradient>
    <radialGradient
       cx="34500"
       cy="26000"
       r="200"
       gradientUnits="userSpaceOnUse"
       id="color-25"
       gradientTransform="translate(5291.6669,5291.6669)">
      <stop
         offset="1"
         stop-color="#5c6bc0"
         id="stop122" />
      <stop
         offset="1"
         stop-color="#1a237e"
         id="stop124" />
    </radialGradient>
    <radialGradient
       cx="30200"
       cy="26000"
       r="200"
       gradientUnits="userSpaceOnUse"
       id="color-26"
       gradientTransform="translate(5291.6669,5291.6669)">
      <stop
         offset="1"
         stop-color="#5c6bc0"
         id="stop127" />
      <stop
         offset="1"
         stop-color="#1a237e"
         id="stop129" />
    </radialGradient>
    <radialGradient
       cx="33800"
       cy="34000"
       r="200"
       gradientUnits="userSpaceOnUse"
       id="color-27"
       gradientTransform="translate(5291.6669,5291.6669)">
      <stop
         offset="1"
         stop-color="#5c6bc0"
         id="stop132" />
      <stop
         offset="1"
         stop-color="#1a237e"
         id="stop134" />
    </radialGradient>
    <radialGradient
       cx="29500"
       cy="34000"
       r="200"
       gradientUnits="userSpaceOnUse"
       id="color-28"
       gradientTransform="translate(5291.6669,5291.6669)">
      <stop
         offset="1"
         stop-color="#5c6bc0"
         id="stop137" />
      <stop
         offset="1"
         stop-color="#1a237e"
         id="stop139" />
    </radialGradient>
  </defs>
  <path
     style="font-weight:normal;font-size:medium;font-family:sans-serif;text-anchor:start;mix-blend-mode:normal;fill:#1a237e;stroke:none;stroke-width:0;stroke-linecap:butt;stroke-linejoin:miter;stroke-miterlimit:10;stroke-dasharray:none;stroke-dashoffset:0"
     inkscape:connector-curvature="0"
     id="path154"
     d="m 54991.67,39192.17 c -0.276,0 -0.5,-0.224 -0.5,-0.5 v -300 c 0,-0.276 0.224,-0.5 0.5,-0.5 h 800 c 0.276,0 0.5,0.224 0.5,0.5 v 300 c 0,0.276 -0.224,0.5 -0.5,0.5 z" />
  <path
     style="font-weight:normal;font-size:medium;font-family:sans-serif;text-anchor:start;mix-blend-mode:normal;fill:#1a237e;stroke:none;stroke-width:0;stroke-linecap:butt;stroke-linejoin:miter;stroke-miterlimit:10;stroke-dasharray:none;stroke-dashoffset:0"
     inkscape:connector-curvature="0"
     id="path156"
     d="m 54991.67,38592.17 c -0.276,0 -0.5,-0.224 -0.5,-0.5 v -300 c 0,-0.276 0.224,-0.5 0.5,-0.5 h 800 c 0.276,0 0.5,0.224 0.5,0.5 v 300 c 0,0.276 -0.224,0.5 -0.5,0.5 z" />
  <path
     style="font-weight:normal;font-size:medium;font-family:sans-serif;text-anchor:start;mix-blend-mode:normal;fill:#1a237e;stroke:none;stroke-width:0;stroke-linecap:butt;stroke-linejoin:miter;stroke-miterlimit:10;stroke-dasharray:none;stroke-dashoffset:0"
     inkscape:connector-curvature="0"
     id="path160"
     d="m 55891.67,35692.17 c -0.276,0 -0.5,-0.224 -0.5,-0.5 v -800 c 0,-0.276 0.224,-0.5 0.5,-0.5 h 300 c 0.276,0 0.5,0.224 0.5,0.5 v 800 c 0,0.276 -0.224,0.5 -0.5,0.5 z" />
  <path
     style="font-weight:normal;font-size:medium;font-family:sans-serif;text-anchor:start;mix-blend-mode:normal;fill:#1a237e;stroke:none;stroke-width:0;stroke-linecap:butt;stroke-linejoin:miter;stroke-miterlimit:10;stroke-dasharray:none;stroke-dashoffset:0"
     inkscape:connector-curvature="0"
     id="path162"
     d="m 55291.67,35692.17 c -0.276,0 -0.5,-0.224 -0.5,-0.5 v -800 c 0,-0.276 0.224,-0.5 0.5,-0.5 h 300 c 0.276,0 0.5,0.224 0.5,0.5 v 800 c 0,0.276 -0.224,0.5 -0.5,0.5 z" />
  <polygon
     style="font-weight:normal;font-size:medium;font-family:sans-serif;text-anchor:start;mix-blend-mode:normal;fill:#1a237e;stroke:none;stroke-width:0;stroke-linecap:butt;stroke-linejoin:miter;stroke-miterlimit:10;stroke-dasharray:none;stroke-dashoffset:0"
     id="polygon164"
     points="50300,29750 50300,30250 50000,30250 50000,29750 "
     transform="translate(5291.6669,5291.6669)" />
  <path
     style="font-weight:normal;font-size:medium;font-family:sans-serif;text-anchor:start;mix-blend-mode:normal;fill:#1a237e;stroke:none;stroke-width:0;stroke-linecap:butt;stroke-linejoin:miter;stroke-miterlimit:10;stroke-dasharray:none;stroke-dashoffset:0"
     inkscape:connector-curvature="0"
     id="path176"
     d="m 38691.67,39192.17 c -0.276,0 -0.5,-0.224 -0.5,-0.5 v -300 c 0,-0.276 0.224,-0.5 0.5,-0.5 h 800 c 0.276,0 0.5,0.224 0.5,0.5 v 300 c 0,0.276 -0.224,0.5 -0.5,0.5 z" />
  <path
     style="font-weight:normal;font-size:medium;font-family:sans-serif;text-anchor:start;mix-blend-mode:normal;fill:#1a237e;stroke:none;stroke-width:0;stroke-linecap:butt;stroke-linejoin:miter;stroke-miterlimit:10;stroke-dasharray:none;stroke-dashoffset:0"
     inkscape:connector-curvature="0"
     id="path178"
     d="m 38691.67,38592.17 c -0.276,0 -0.5,-0.224 -0.5,-0.5 v -300 c 0,-0.276 0.224,-0.5 0.5,-0.5 h 800 c 0.276,0 0.5,0.224 0.5,0.5 v 300 c 0,0.276 -0.224,0.5 -0.5,0.5 z" />
  <path
     style="font-weight:normal;font-size:medium;font-family:sans-serif;text-anchor:start;mix-blend-mode:normal;fill:#1a237e;stroke:none;stroke-width:0;stroke-linecap:butt;stroke-linejoin:miter;stroke-miterlimit:10;stroke-dasharray:none;stroke-dashoffset:0"
     inkscape:connector-curvature="0"
     id="path180"
     d="m 34391.67,39192.17 c -0.276,0 -0.5,-0.224 -0.5,-0.5 v -300 c 0,-0.276 0.224,-0.5 0.5,-0.5 h 800 c 0.276,0 0.5,0.224 0.5,0.5 v 300 c 0,0.276 -0.224,0.5 -0.5,0.5 z" />
  <path
     style="font-weight:normal;font-size:medium;font-family:sans-serif;text-anchor:start;mix-blend-mode:normal;fill:#1a237e;stroke:none;stroke-width:0;stroke-linecap:butt;stroke-linejoin:miter;stroke-miterlimit:10;stroke-dasharray:none;stroke-dashoffset:0"
     inkscape:connector-curvature="0"
     id="path182"
     d="m 34391.67,38592.17 c -0.276,0 -0.5,-0.224 -0.5,-0.5 v -300 c 0,-0.276 0.224,-0.5 0.5,-0.5 h 800 c 0.276,0 0.5,0.224 0.5,0.5 v 300 c 0,0.276 -0.224,0.5 -0.5,0.5 z" />
  <path
     style="font-weight:normal;font-size:medium;font-family:sans-serif;text-anchor:start;mix-blend-mode:normal;fill:#1a237e;stroke:none;stroke-width:0;stroke-linecap:butt;stroke-linejoin:miter;stroke-miterlimit:10;stroke-dasharray:none;stroke-dashoffset:0"
     inkscape:connector-curvature="0"
     id="path184"
     d="m 39391.67,31692.17 c -0.276,0 -0.5,-0.224 -0.5,-0.5 v -300 c 0,-0.276 0.224,-0.5 0.5,-0.5 h 800 c 0.276,0 0.5,0.224 0.5,0.5 v 300 c 0,0.276 -0.224,0.5 -0.5,0.5 z" />
  <path
     style="font-weight:normal;font-size:medium;font-family:sans-serif;text-anchor:start;mix-blend-mode:normal;fill:#1a237e;stroke:none;stroke-width:0;stroke-linecap:butt;stroke-linejoin:miter;stroke-miterlimit:10;stroke-dasharray:none;stroke-dashoffset:0"
     inkscape:connector-curvature="0"
     id="path186"
     d="m 39391.67,32292.17 c -0.276,0 -0.5,-0.224 -0.5,-0.5 v -300 c 0,-0.276 0.224,-0.5 0.5,-0.5 h 800 c 0.276,0 0.5,0.224 0.5,0.5 v 300 c 0,0.276 -0.224,0.5 -0.5,0.5 z" />
  <path
     style="font-weight:normal;font-size:medium;font-family:sans-serif;text-anchor:start;mix-blend-mode:normal;fill:#1a237e;stroke:none;stroke-width:0;stroke-linecap:butt;stroke-linejoin:miter;stroke-miterlimit:10;stroke-dasharray:none;stroke-dashoffset:0"
     inkscape:connector-curvature="0"
     id="path188"
     d="m 35091.67,31692.17 c -0.276,0 -0.5,-0.224 -0.5,-0.5 v -300 c 0,-0.276 0.224,-0.5 0.5,-0.5 h 800 c 0.276,0 0.5,0.224 0.5,0.5 v 300 c 0,0.276 -0.224,0.5 -0.5,0.5 z" />
  <path
     style="font-weight:normal;font-size:medium;font-family:sans-serif;text-anchor:start;mix-blend-mode:normal;fill:#1a237e;stroke:none;stroke-width:0;stroke-linecap:butt;stroke-linejoin:miter;stroke-miterlimit:10;stroke-dasharray:none;stroke-dashoffset:0"
     inkscape:connector-curvature="0"
     id="path190"
     d="m 35091.67,32292.17 c -0.276,0 -0.5,-0.224 -0.5,-0.5 v -300 c 0,-0.276 0.224,-0.5 0.5,-0.5 h 800 c 0.276,0 0.5,0.224 0.5,0.5 v 300 c 0,0.276 -0.224,0.5 -0.5,0.5 z" />
  <path
     style="font-weight:normal;font-size:medium;font-family:sans-serif;text-anchor:start;mix-blend-mode:normal;fill:#1a237e;stroke:none;stroke-width:0;stroke-linecap:butt;stroke-linejoin:miter;stroke-miterlimit:10;stroke-dasharray:none;stroke-dashoffset:0"
     inkscape:connector-curvature="0"
     id="path230"
     d="m 34691.67,35692.17 c -0.276,0 -0.5,-0.224 -0.5,-0.5 v -800 c 0,-0.276 0.224,-0.5 0.5,-0.5 h 300 c 0.276,0 0.5,0.224 0.5,0.5 v 800 c 0,0.276 -0.224,0.5 -0.5,0.5 z" />
  <path
     style="font-weight:normal;font-size:medium;font-family:sans-serif;text-anchor:start;mix-blend-mode:normal;fill:#1a237e;stroke:none;stroke-width:0;stroke-linecap:butt;stroke-linejoin:miter;stroke-miterlimit:10;stroke-dasharray:none;stroke-dashoffset:0"
     inkscape:connector-curvature="0"
     id="path232"
     d="m 35291.67,35692.17 c -0.276,0 -0.5,-0.224 -0.5,-0.5 v -800 c 0,-0.276 0.224,-0.5 0.5,-0.5 h 300 c 0.276,0 0.5,0.224 0.5,0.5 v 800 c 0,0.276 -0.224,0.5 -0.5,0.5 z" />
  <path
     style="font-weight:normal;font-size:medium;font-family:sans-serif;text-anchor:start;mix-blend-mode:normal;fill:#1a237e;stroke:none;stroke-width:0;stroke-linecap:butt;stroke-linejoin:miter;stroke-miterlimit:10;stroke-dasharray:none;stroke-dashoffset:0"
     inkscape:connector-curvature="0"
     id="path234"
     d="m 39591.67,35692.17 c -0.276,0 -0.5,-0.224 -0.5,-0.5 v -800 c 0,-0.276 0.224,-0.5 0.5,-0.5 h 300 c 0.276,0 0.5,0.224 0.5,0.5 v 800 c 0,0.276 -0.224,0.5 -0.5,0.5 z" />
  <path
     style="font-weight:normal;font-size:medium;font-family:sans-serif;text-anchor:start;mix-blend-mode:normal;fill:#1a237e;stroke:none;stroke-width:0;stroke-linecap:butt;stroke-linejoin:miter;stroke-miterlimit:10;stroke-dasharray:none;stroke-dashoffset:0"
     inkscape:connector-curvature="0"
     id="path236"
     d="m 38991.67,35692.17 c -0.276,0 -0.5,-0.224 -0.5,-0.5 v -800 c 0,-0.276 0.224,-0.5 0.5,-0.5 h 300 c 0.276,0 0.5,0.224 0.5,0.5 v 800 c 0,0.276 -0.224,0.5 -0.5,0.5 z" />
</svg>
