<?xml version="1.0" encoding="UTF-8" standalone="no"?>
<svg
   xmlns:dc="http://purl.org/dc/elements/1.1/"
   xmlns:cc="http://creativecommons.org/ns#"
   xmlns:rdf="http://www.w3.org/1999/02/22-rdf-syntax-ns#"
   xmlns:svg="http://www.w3.org/2000/svg"
   xmlns="http://www.w3.org/2000/svg"
   xmlns:sodipodi="http://sodipodi.sourceforge.net/DTD/sodipodi-0.dtd"
   xmlns:inkscape="http://www.inkscape.org/namespaces/inkscape"
   width="135mm"
   height="85mm"
   viewBox="0 0 135000 85000"
   version="1.1"
   id="svg114"
   sodipodi:docname="C.svg"
   inkscape:version="0.92.1 r15371">
  <metadata
     id="metadata118">
    <rdf:RDF>
      <cc:Work
         rdf:about="">
        <dc:format>image/svg+xml</dc:format>
        <dc:type
           rdf:resource="http://purl.org/dc/dcmitype/StillImage" />
        <dc:title></dc:title>
      </cc:Work>
    </rdf:RDF>
  </metadata>
  <sodipodi:namedview
     pagecolor="#ffffff"
     bordercolor="#666666"
     borderopacity="1"
     objecttolerance="10"
     gridtolerance="10"
     guidetolerance="10"
     inkscape:pageopacity="0"
     inkscape:pageshadow="2"
     inkscape:window-width="640"
     inkscape:window-height="480"
     id="namedview116"
     showgrid="false"
     inkscape:zoom="0.56248457"
     inkscape:cx="255.11811"
     inkscape:cy="160.62992"
     inkscape:window-x="0"
     inkscape:window-y="0"
     inkscape:window-maximized="0"
     inkscape:current-layer="svg114" />
  <defs
     id="defs52">
    <radialGradient
       cx="53500"
       cy="30000"
       r="750"
       gradientUnits="userSpaceOnUse"
       id="color-1">
      <stop
         offset="1"
         stop-color="#f44336"
         id="stop2" />
      <stop
         offset="1"
         stop-color="#b71c1c"
         id="stop4" />
    </radialGradient>
    <radialGradient
       cx="36500"
       cy="30000"
       r="750"
       gradientUnits="userSpaceOnUse"
       id="color-2">
      <stop
         offset="1"
         stop-color="#f44336"
         id="stop7" />
      <stop
         offset="1"
         stop-color="#b71c1c"
         id="stop9" />
    </radialGradient>
    <radialGradient
       cx="33500"
       cy="30000"
       r="750"
       gradientUnits="userSpaceOnUse"
       id="color-3">
      <stop
         offset="1"
         stop-color="#f44336"
         id="stop12" />
      <stop
         offset="1"
         stop-color="#b71c1c"
         id="stop14" />
    </radialGradient>
    <radialGradient
       cx="53000"
       cy="33700"
       r="750"
       gradientUnits="userSpaceOnUse"
       id="color-4">
      <stop
         offset="1"
         stop-color="#f44336"
         id="stop17" />
      <stop
         offset="1"
         stop-color="#b71c1c"
         id="stop19" />
    </radialGradient>
    <radialGradient
       cx="36000"
       cy="33700"
       r="750"
       gradientUnits="userSpaceOnUse"
       id="color-5">
      <stop
         offset="1"
         stop-color="#f44336"
         id="stop22" />
      <stop
         offset="1"
         stop-color="#b71c1c"
         id="stop24" />
    </radialGradient>
    <radialGradient
       cx="33000"
       cy="33700"
       r="750"
       gradientUnits="userSpaceOnUse"
       id="color-6">
      <stop
         offset="1"
         stop-color="#f44336"
         id="stop27" />
      <stop
         offset="1"
         stop-color="#b71c1c"
         id="stop29" />
    </radialGradient>
    <radialGradient
       cx="37000"
       cy="26300"
       r="750"
       gradientUnits="userSpaceOnUse"
       id="color-7">
      <stop
         offset="1"
         stop-color="#f44336"
         id="stop32" />
      <stop
         offset="1"
         stop-color="#b71c1c"
         id="stop34" />
    </radialGradient>
    <radialGradient
       cx="34000"
       cy="26300"
       r="750"
       gradientUnits="userSpaceOnUse"
       id="color-8">
      <stop
         offset="1"
         stop-color="#f44336"
         id="stop37" />
      <stop
         offset="1"
         stop-color="#b71c1c"
         id="stop39" />
    </radialGradient>
    <radialGradient
       cx="50000"
       cy="20000"
       r="789"
       gradientUnits="userSpaceOnUse"
       id="color-9">
      <stop
         offset="1"
         stop-color="#ef5350"
         id="stop42" />
      <stop
         offset="1"
         stop-color="#b71c1c"
         id="stop44" />
    </radialGradient>
    <radialGradient
       cx="21000"
       cy="42700"
       r="789"
       gradientUnits="userSpaceOnUse"
       id="color-10">
      <stop
         offset="1"
         stop-color="#ef5350"
         id="stop47" />
      <stop
         offset="1"
         stop-color="#b71c1c"
         id="stop49" />
    </radialGradient>
  </defs>
  <g
     stroke-miterlimit="10"
     font-weight="normal"
     font-size="12"
     mix-blend-mode="normal"
     id="g112"
     transform="matrix(-1,0,0,1,135000,0)"
     style="font-weight:normal;font-size:12px;font-family:sans-serif;text-anchor:start;mix-blend-mode:normal;fill:none;stroke:none;stroke-width:1;stroke-linecap:butt;stroke-linejoin:miter;stroke-miterlimit:10;stroke-dasharray:none;stroke-dashoffset:0">
    <path
       d="m 49858.579,19858.579 c 78.105,-78.105 204.737,-78.105 282.842,0 v 0 c 78.105,78.104 78.105,204.737 0,282.842 l -6000,6000 c -78.105,78.105 -204.737,78.105 -282.842,0 v 0 c -78.105,-78.105 -78.105,-204.738 0,-282.842 z"
       id="path54"
       inkscape:connector-curvature="0"
       style="fill:#b71c1c" />
    <path
       d="m 44200,32000 c 0,110.457 -89.543,200 -200,200 v 0 c -110.457,0 -200,-89.543 -200,-200 v -6000 c 0,-110.457 89.543,-200 200,-200 v 0 c 110.457,0 200,89.543 200,200 z"
       id="path56"
       inkscape:connector-curvature="0"
       style="fill:#b71c1c" />
    <path
       d="m 52000,31800 c 110.457,0 200,89.543 200,200 v 0 c 0,110.457 -89.543,200 -200,200 H 35000 c -110.457,0 -200,-89.543 -200,-200 v 0 c 0,-110.457 89.543,-200 200,-200 z"
       id="path58"
       inkscape:connector-curvature="0"
       style="fill:#b71c1c" />
    <path
       d="m 53340,29880 c 66.274,-88.366 191.634,-106.274 280,-40 v 0 c 88.366,66.274 106.274,191.634 40,280 l -1500,2000 c -66.274,88.366 -191.634,106.274 -280,40 v 0 c -88.366,-66.274 -106.274,-191.634 -40,-280 z"
       id="path60"
       inkscape:connector-curvature="0"
       style="fill:#b71c1c" />
    <path
       d="m 36340,30120 c -66.274,-88.366 -48.366,-213.726 40,-280 v 0 c 88.366,-66.274 213.726,-48.366 280,40 l 1500,2000 c 66.274,88.366 48.366,213.726 -40,280 v 0 c -88.366,66.274 -213.726,48.366 -280,-40 z"
       id="path62"
       inkscape:connector-curvature="0"
       style="fill:#b71c1c" />
    <path
       d="m 33340,30120 c -66.274,-88.366 -48.366,-213.726 40,-280 v 0 c 88.366,-66.274 213.726,-48.366 280,40 l 1500,2000 c 66.274,88.366 48.366,213.726 -40,280 v 0 c -88.366,66.274 -213.726,48.366 -280,-40 z"
       id="path64"
       inkscape:connector-curvature="0"
       style="fill:#b71c1c" />
    <path
       d="m 20800,40000 c 0,-110.457 89.543,-200 200,-200 v 0 c 110.457,0 200,89.543 200,200 v 2000 c 0,110.457 -89.543,200 -200,200 v 0 c -110.457,0 -200,-89.543 -200,-200 z"
       id="path66"
       inkscape:connector-curvature="0"
       style="fill:#b71c1c" />
    <path
       d="m 21000,40200 c -110.457,0 -200,-89.543 -200,-200 v 0 c 0,-110.457 89.543,-200 200,-200 h 23000 c 110.457,0 200,89.543 200,200 v 0 c 0,110.457 -89.543,200 -200,200 z"
       id="path68"
       inkscape:connector-curvature="0"
       style="fill:#b71c1c" />
    <path
       d="m 20800,22000 c 0,-110.457 89.543,-200 200,-200 v 0 c 110.457,0 200,89.543 200,200 v 18000 c 0,110.457 -89.543,200 -200,200 v 0 c -110.457,0 -200,-89.543 -200,-200 z"
       id="path70"
       inkscape:connector-curvature="0"
       style="fill:#b71c1c" />
    <path
       d="m 35000,21800 c 110.457,0 200,89.543 200,200 v 0 c 0,110.457 -89.543,200 -200,200 H 21000 c -110.457,0 -200,-89.543 -200,-200 v 0 c 0,-110.457 89.543,-200 200,-200 z"
       id="path72"
       inkscape:connector-curvature="0"
       style="fill:#b71c1c" />
    <path
       d="m 35300,22000 c 0,-110.457 89.543,-200 200,-200 v 0 c 110.457,0 200,89.543 200,200 v 4100 c 0,110.457 -89.543,200 -200,200 v 0 c -110.457,0 -200,-89.543 -200,-200 z"
       id="path74"
       inkscape:connector-curvature="0"
       style="fill:#b71c1c" />
    <path
       d="m 35500,21800 c 110.457,0 200,89.543 200,200 v 0 c 0,110.457 -89.543,200 -200,200 h -400 c -110.457,0 -200,-89.543 -200,-200 v 0 c 0,-110.457 89.543,-200 200,-200 z"
       id="path76"
       inkscape:connector-curvature="0"
       style="fill:#b71c1c" />
    <path
       d="m 43800,33800 c 0,-110.457 89.543,-200 200,-200 v 0 c 110.457,0 200,89.543 200,200 v 6200 c 0,110.457 -89.543,200 -200,200 v 0 c -110.457,0 -200,-89.543 -200,-200 z"
       id="path78"
       inkscape:connector-curvature="0"
       style="fill:#b71c1c" />
    <path
       d="m 52300,33500 c 110.457,0 200,89.543 200,200 v 0 c 0,110.457 -89.543,200 -200,200 H 33700 c -110.457,0 -200,-89.543 -200,-200 v 0 c 0,-110.457 89.543,-200 200,-200 z"
       id="path80"
       inkscape:connector-curvature="0"
       style="fill:#b71c1c" />
    <path
       d="m 34000,26500 c -110.457,0 -200,-89.543 -200,-200 v 0 c 0,-110.457 89.543,-200 200,-200 h 2900 c 110.457,0 200,89.543 200,200 v 0 c 0,110.457 -89.543,200 -200,200 z"
       id="path82"
       inkscape:connector-curvature="0"
       style="fill:#b71c1c" />
    <path
       d="m 135000,-400 c 220.91,0 400,179.0861 400,400 v 0 c 0,220.9139 -179.09,400 -400,400 H 0 C -220.9139,400 -400,220.9139 -400,0 v 0 c 0,-220.9139 179.0861,-400 400,-400 z"
       id="path84"
       inkscape:connector-curvature="0"
       style="fill:#b71c1c" />
    <path
       d="m 135400,85000 c 0,220.914 -179.09,400 -400,400 v 0 c -220.91,0 -400,-179.086 -400,-400 V 0 c 0,-220.9139 179.09,-400 400,-400 v 0 c 220.91,0 400,179.0861 400,400 z"
       id="path86"
       inkscape:connector-curvature="0"
       style="fill:#b71c1c" />
    <path
       d="m 0,85400 c -220.9139,0 -400,-179.086 -400,-400 v 0 c 0,-220.914 179.0861,-400 400,-400 h 135000 c 220.91,0 400,179.086 400,400 v 0 c 0,220.914 -179.09,400 -400,400 z"
       id="path88"
       inkscape:connector-curvature="0"
       style="fill:#b71c1c" />
    <path
       d="m -400,0 c 0,-220.9139 179.0861,-400 400,-400 v 0 c 220.9139,0 400,179.0861 400,400 v 85000 c 0,220.914 -179.0861,400 -400,400 v 0 c -220.9139,0 -400,-179.086 -400,-400 z"
       id="path90"
       inkscape:connector-curvature="0"
       style="fill:#b71c1c" />
    <path
       d="m 52750,30000 c 0,-414.214 335.786,-750 750,-750 414.214,0 750,335.786 750,750 0,414.214 -335.786,750 -750,750 -414.214,0 -750,-335.786 -750,-750 z"
       id="path92"
       style="fill:url(#color-1)"
       inkscape:connector-curvature="0" />
    <path
       d="m 35750,30000 c 0,-414.214 335.786,-750 750,-750 414.214,0 750,335.786 750,750 0,414.214 -335.786,750 -750,750 -414.214,0 -750,-335.786 -750,-750 z"
       id="path94"
       style="fill:url(#color-2)"
       inkscape:connector-curvature="0" />
    <path
       d="m 32750,30000 c 0,-414.214 335.786,-750 750,-750 414.214,0 750,335.786 750,750 0,414.214 -335.786,750 -750,750 -414.214,0 -750,-335.786 -750,-750 z"
       id="path96"
       style="fill:url(#color-3)"
       inkscape:connector-curvature="0" />
    <path
       d="m 52250,33700 c 0,-414.214 335.786,-750 750,-750 414.214,0 750,335.786 750,750 0,414.214 -335.786,750 -750,750 -414.214,0 -750,-335.786 -750,-750 z"
       id="path98"
       style="fill:url(#color-4)"
       inkscape:connector-curvature="0" />
    <path
       d="m 35250,33700 c 0,-414.214 335.786,-750 750,-750 414.214,0 750,335.786 750,750 0,414.214 -335.786,750 -750,750 -414.214,0 -750,-335.786 -750,-750 z"
       id="path100"
       style="fill:url(#color-5)"
       inkscape:connector-curvature="0" />
    <path
       d="m 32250,33700 c 0,-414.214 335.786,-750 750,-750 414.214,0 750,335.786 750,750 0,414.214 -335.786,750 -750,750 -414.214,0 -750,-335.786 -750,-750 z"
       id="path102"
       style="fill:url(#color-6)"
       inkscape:connector-curvature="0" />
    <path
       d="m 36250,26300 c 0,-414.214 335.786,-750 750,-750 414.214,0 750,335.786 750,750 0,414.214 -335.786,750 -750,750 -414.214,0 -750,-335.786 -750,-750 z"
       id="path104"
       style="fill:url(#color-7)"
       inkscape:connector-curvature="0" />
    <path
       d="m 33250,26300 c 0,-414.214 335.786,-750 750,-750 414.214,0 750,335.786 750,750 0,414.214 -335.786,750 -750,750 -414.214,0 -750,-335.786 -750,-750 z"
       id="path106"
       style="fill:url(#color-8)"
       inkscape:connector-curvature="0" />
    <path
       d="m 49211,20000 c 0,-435.753 353.247,-789 789,-789 435.753,0 789,353.247 789,789 0,435.753 -353.247,789 -789,789 -435.753,0 -789,-353.247 -789,-789 z"
       id="path108"
       style="fill:url(#color-9)"
       inkscape:connector-curvature="0" />
    <path
       d="m 20211,42700 c 0,-435.753 353.247,-789 789,-789 435.753,0 789,353.247 789,789 0,435.753 -353.247,789 -789,789 -435.753,0 -789,-353.247 -789,-789 z"
       id="path110"
       style="fill:url(#color-10)"
       inkscape:connector-curvature="0" />
  </g>
</svg>
