<?xml version="1.0" encoding="UTF-8" standalone="no"?>
<svg
   xmlns:dc="http://purl.org/dc/elements/1.1/"
   xmlns:cc="http://creativecommons.org/ns#"
   xmlns:rdf="http://www.w3.org/1999/02/22-rdf-syntax-ns#"
   xmlns:svg="http://www.w3.org/2000/svg"
   xmlns="http://www.w3.org/2000/svg"
   xmlns:sodipodi="http://sodipodi.sourceforge.net/DTD/sodipodi-0.dtd"
   xmlns:inkscape="http://www.inkscape.org/namespaces/inkscape"
   width="135mm"
   height="85mm"
   viewBox="0 0 135000 85000"
   version="1.1"
   id="svg116"
   sodipodi:docname="C.svg"
   inkscape:version="0.92.1 r15371">
  <metadata
     id="metadata120">
    <rdf:RDF>
      <cc:Work
         rdf:about="">
        <dc:format>image/svg+xml</dc:format>
        <dc:type
           rdf:resource="http://purl.org/dc/dcmitype/StillImage" />
        <dc:title />
      </cc:Work>
    </rdf:RDF>
  </metadata>
  <sodipodi:namedview
     pagecolor="#ffffff"
     bordercolor="#666666"
     borderopacity="1"
     objecttolerance="10"
     gridtolerance="10"
     guidetolerance="10"
     inkscape:pageopacity="0"
     inkscape:pageshadow="2"
     inkscape:window-width="1536"
     inkscape:window-height="801"
     id="namedview118"
     showgrid="false"
     inkscape:zoom="1.5909466"
     inkscape:cx="343.60134"
     inkscape:cy="210.18859"
     inkscape:window-x="-8"
     inkscape:window-y="-8"
     inkscape:window-maximized="1"
     inkscape:current-layer="svg116" />
  <defs
     id="defs52">
    <radialGradient
       cx="53500"
       cy="30000"
       r="750"
       gradientUnits="userSpaceOnUse"
       id="color-1"
       gradientTransform="matrix(-1,0,0,1,135000,0)">
      <stop
         offset="1"
         stop-color="#f44336"
         id="stop2" />
      <stop
         offset="1"
         stop-color="#b71c1c"
         id="stop4" />
    </radialGradient>
    <radialGradient
       cx="53000"
       cy="33700"
       r="750"
       gradientUnits="userSpaceOnUse"
       id="color-2"
       gradientTransform="matrix(-1,0,0,1,135000,0)">
      <stop
         offset="1"
         stop-color="#f44336"
         id="stop7" />
      <stop
         offset="1"
         stop-color="#b71c1c"
         id="stop9" />
    </radialGradient>
    <radialGradient
       cx="36000"
       cy="33700"
       r="750"
       gradientUnits="userSpaceOnUse"
       id="color-3"
       gradientTransform="matrix(-1,0,0,1,135000,0)">
      <stop
         offset="1"
         stop-color="#f44336"
         id="stop12" />
      <stop
         offset="1"
         stop-color="#b71c1c"
         id="stop14" />
    </radialGradient>
    <radialGradient
       cx="33000"
       cy="33700"
       r="750"
       gradientUnits="userSpaceOnUse"
       id="color-4"
       gradientTransform="matrix(-1,0,0,1,135000,0)">
      <stop
         offset="1"
         stop-color="#f44336"
         id="stop17" />
      <stop
         offset="1"
         stop-color="#b71c1c"
         id="stop19" />
    </radialGradient>
    <radialGradient
       cx="33500"
       cy="30000"
       r="750"
       gradientUnits="userSpaceOnUse"
       id="color-5"
       gradientTransform="matrix(-1,0,0,1,135000,0)">
      <stop
         offset="1"
         stop-color="#f44336"
         id="stop22" />
      <stop
         offset="1"
         stop-color="#b71c1c"
         id="stop24" />
    </radialGradient>
    <radialGradient
       cx="36500"
       cy="30000"
       r="750"
       gradientUnits="userSpaceOnUse"
       id="color-6"
       gradientTransform="matrix(-1,0,0,1,135000,0)">
      <stop
         offset="1"
         stop-color="#f44336"
         id="stop27" />
      <stop
         offset="1"
         stop-color="#b71c1c"
         id="stop29" />
    </radialGradient>
    <radialGradient
       cx="37000"
       cy="26300"
       r="750"
       gradientUnits="userSpaceOnUse"
       id="color-7"
       gradientTransform="matrix(-1,0,0,1,135000,0)">
      <stop
         offset="1"
         stop-color="#f44336"
         id="stop32" />
      <stop
         offset="1"
         stop-color="#b71c1c"
         id="stop34" />
    </radialGradient>
    <radialGradient
       cx="34000"
       cy="26300"
       r="750"
       gradientUnits="userSpaceOnUse"
       id="color-8"
       gradientTransform="matrix(-1,0,0,1,135000,0)">
      <stop
         offset="1"
         stop-color="#f44336"
         id="stop37" />
      <stop
         offset="1"
         stop-color="#b71c1c"
         id="stop39" />
    </radialGradient>
    <radialGradient
       cx="30000"
       cy="50000"
       r="798"
       gradientUnits="userSpaceOnUse"
       id="color-9"
       gradientTransform="matrix(-2.5313283,0,0,2.5313283,181103.49,-74730.924)">
      <stop
         offset="1"
         stop-color="#ef5350"
         id="stop42" />
      <stop
         offset="1"
         stop-color="#b71c1c"
         id="stop44" />
    </radialGradient>
    <radialGradient
       cx="50000"
       cy="20000"
       r="798"
       gradientUnits="userSpaceOnUse"
       id="color-10"
       gradientTransform="matrix(-2.5313283,0,0,2.5313283,211286.75,-30744.162)">
      <stop
         offset="1"
         stop-color="#ef5350"
         id="stop47" />
      <stop
         offset="1"
         stop-color="#b71c1c"
         id="stop49" />
    </radialGradient>
  </defs>
  <path
     style="font-weight:normal;font-size:medium;font-family:sans-serif;text-anchor:start;mix-blend-mode:normal;fill:#b71c1c;stroke:none;stroke-width:1;stroke-linecap:butt;stroke-linejoin:miter;stroke-miterlimit:10;stroke-dasharray:none;stroke-dashoffset:0"
     inkscape:connector-curvature="0"
     id="path54"
     d="m 105200,40000 c 0,-110.457 -89.54,-200 -200,-200 v 0 c -110.46,0 -200,89.543 -200,200 v 10000 c 0,110.457 89.54,200 200,200 v 0 c 110.46,0 200,-89.543 200,-200 z" />
  <path
     style="font-weight:normal;font-size:medium;font-family:sans-serif;text-anchor:start;mix-blend-mode:normal;fill:#b71c1c;stroke:none;stroke-width:1;stroke-linecap:butt;stroke-linejoin:miter;stroke-miterlimit:10;stroke-dasharray:none;stroke-dashoffset:0"
     inkscape:connector-curvature="0"
     id="path56"
     d="m 91000,20200 c 110.457,0 200,-89.543 200,-200 v 0 c 0,-110.457 -89.543,-200 -200,-200 h -6000 c -110.457,0 -200,89.543 -200,200 v 0 c 0,110.457 89.543,200 200,200 z" />
  <path
     style="font-weight:normal;font-size:medium;font-family:sans-serif;text-anchor:start;mix-blend-mode:normal;fill:#b71c1c;stroke:none;stroke-width:1;stroke-linecap:butt;stroke-linejoin:miter;stroke-miterlimit:10;stroke-dasharray:none;stroke-dashoffset:0"
     inkscape:connector-curvature="0"
     id="path58"
     d="m 90800,32000 c 0,110.457 89.543,200 200,200 v 0 c 110.457,0 200,-89.543 200,-200 V 20000 c 0,-110.457 -89.543,-200 -200,-200 v 0 c -110.457,0 -200,89.543 -200,200 z" />
  <path
     style="font-weight:normal;font-size:medium;font-family:sans-serif;text-anchor:start;mix-blend-mode:normal;fill:#b71c1c;stroke:none;stroke-width:1;stroke-linecap:butt;stroke-linejoin:miter;stroke-miterlimit:10;stroke-dasharray:none;stroke-dashoffset:0"
     inkscape:connector-curvature="0"
     id="path60"
     d="m 99500,20800 c -110.457,0 -200,89.543 -200,200 v 0 c 0,110.457 89.543,200 200,200 h 500 c 110.46,0 200,-89.543 200,-200 v 0 c 0,-110.457 -89.54,-200 -200,-200 z" />
  <path
     style="font-weight:normal;font-size:medium;font-family:sans-serif;text-anchor:start;mix-blend-mode:normal;fill:#b71c1c;stroke:none;stroke-width:1;stroke-linecap:butt;stroke-linejoin:miter;stroke-miterlimit:10;stroke-dasharray:none;stroke-dashoffset:0"
     inkscape:connector-curvature="0"
     id="path62"
     d="m 113000,21200 c 110.46,0 200,-89.543 200,-200 v 0 c 0,-110.457 -89.54,-200 -200,-200 h -13000 c -110.457,0 -200,89.543 -200,200 v 0 c 0,110.457 89.543,200 200,200 z" />
  <path
     style="font-weight:normal;font-size:medium;font-family:sans-serif;text-anchor:start;mix-blend-mode:normal;fill:#b71c1c;stroke:none;stroke-width:1;stroke-linecap:butt;stroke-linejoin:miter;stroke-miterlimit:10;stroke-dasharray:none;stroke-dashoffset:0"
     inkscape:connector-curvature="0"
     id="path64"
     d="m 112800,40000 c 0,110.457 89.54,200 200,200 v 0 c 110.46,0 200,-89.543 200,-200 V 21000 c 0,-110.457 -89.54,-200 -200,-200 v 0 c -110.46,0 -200,89.543 -200,200 z" />
  <path
     style="font-weight:normal;font-size:medium;font-family:sans-serif;text-anchor:start;mix-blend-mode:normal;fill:#b71c1c;stroke:none;stroke-width:1;stroke-linecap:butt;stroke-linejoin:miter;stroke-miterlimit:10;stroke-dasharray:none;stroke-dashoffset:0"
     inkscape:connector-curvature="0"
     id="path66"
     d="m 91000,39800 c -110.457,0 -200,89.543 -200,200 v 0 c 0,110.457 89.543,200 200,200 h 22000 c 110.46,0 200,-89.543 200,-200 v 0 c 0,-110.457 -89.54,-200 -200,-200 z" />
  <path
     style="font-weight:normal;font-size:medium;font-family:sans-serif;text-anchor:start;mix-blend-mode:normal;fill:#b71c1c;stroke:none;stroke-width:1;stroke-linecap:butt;stroke-linejoin:miter;stroke-miterlimit:10;stroke-dasharray:none;stroke-dashoffset:0"
     inkscape:connector-curvature="0"
     id="path68"
     d="m 91200,34000 c 0,-110.457 -89.543,-200 -200,-200 v 0 c -110.457,0 -200,89.543 -200,200 v 6000 c 0,110.457 89.543,200 200,200 v 0 c 110.457,0 200,-89.543 200,-200 z" />
  <path
     style="font-weight:normal;font-size:medium;font-family:sans-serif;text-anchor:start;mix-blend-mode:normal;fill:#b71c1c;stroke:none;stroke-width:1;stroke-linecap:butt;stroke-linejoin:miter;stroke-miterlimit:10;stroke-dasharray:none;stroke-dashoffset:0"
     inkscape:connector-curvature="0"
     id="path70"
     d="m 91200,33800 c 0,-110.457 -89.543,-200 -200,-200 v 0 c -110.457,0 -200,89.543 -200,200 v 200 c 0,110.457 89.543,200 200,200 v 0 c 110.457,0 200,-89.543 200,-200 z" />
  <path
     style="font-weight:normal;font-size:medium;font-family:sans-serif;text-anchor:start;mix-blend-mode:normal;fill:#b71c1c;stroke:none;stroke-width:1;stroke-linecap:butt;stroke-linejoin:miter;stroke-miterlimit:10;stroke-dasharray:none;stroke-dashoffset:0"
     inkscape:connector-curvature="0"
     id="path72"
     d="m 102100,33900 c 110.46,0 200,-89.543 200,-200 v 0 c 0,-110.457 -89.54,-200 -200,-200 H 81900 c -110.457,0 -200,89.543 -200,200 v 0 c 0,110.457 89.543,200 200,200 z" />
  <path
     style="font-weight:normal;font-size:medium;font-family:sans-serif;text-anchor:start;mix-blend-mode:normal;fill:#b71c1c;stroke:none;stroke-width:1;stroke-linecap:butt;stroke-linejoin:miter;stroke-miterlimit:10;stroke-dasharray:none;stroke-dashoffset:0"
     inkscape:connector-curvature="0"
     id="path74"
     d="m 99300,26300 c 0,110.457 89.543,200 200,200 v 0 c 110.457,0 200,-89.543 200,-200 v -5300 c 0,-110.457 -89.543,-200 -200,-200 v 0 c -110.457,0 -200,89.543 -200,200 z" />
  <path
     style="font-weight:normal;font-size:medium;font-family:sans-serif;text-anchor:start;mix-blend-mode:normal;fill:#b71c1c;stroke:none;stroke-width:1;stroke-linecap:butt;stroke-linejoin:miter;stroke-miterlimit:10;stroke-dasharray:none;stroke-dashoffset:0"
     inkscape:connector-curvature="0"
     id="path76"
     d="m 101100,26500 c 110.46,0 200,-89.543 200,-200 v 0 c 0,-110.457 -89.54,-200 -200,-200 h -3000 c -110.457,0 -200,89.543 -200,200 v 0 c 0,110.457 89.543,200 200,200 z" />
  <path
     style="font-weight:normal;font-size:medium;font-family:sans-serif;text-anchor:start;mix-blend-mode:normal;fill:#b71c1c;stroke:none;stroke-width:1;stroke-linecap:butt;stroke-linejoin:miter;stroke-miterlimit:10;stroke-dasharray:none;stroke-dashoffset:0"
     inkscape:connector-curvature="0"
     id="path78"
     d="m 83000,31800 c -110.457,0 -200,89.543 -200,200 v 0 c 0,110.457 89.543,200 200,200 h 17000 c 110.46,0 200,-89.543 200,-200 v 0 c 0,-110.457 -89.54,-200 -200,-200 z" />
  <path
     style="font-weight:normal;font-size:medium;font-family:sans-serif;text-anchor:start;mix-blend-mode:normal;fill:#b71c1c;stroke:none;stroke-width:1;stroke-linecap:butt;stroke-linejoin:miter;stroke-miterlimit:10;stroke-dasharray:none;stroke-dashoffset:0"
     inkscape:connector-curvature="0"
     id="path80"
     d="m 81660,29880 c -66.274,-88.366 -191.634,-106.274 -280,-40 v 0 c -88.366,66.274 -106.274,191.634 -40,280 l 1500,2000 c 66.274,88.366 191.634,106.274 280,40 v 0 c 88.366,-66.274 106.274,-191.634 40,-280 z" />
  <path
     style="font-weight:normal;font-size:medium;font-family:sans-serif;text-anchor:start;mix-blend-mode:normal;fill:#b71c1c;stroke:none;stroke-width:1;stroke-linecap:butt;stroke-linejoin:miter;stroke-miterlimit:10;stroke-dasharray:none;stroke-dashoffset:0"
     inkscape:connector-curvature="0"
     id="path82"
     d="m 98660,30120 c 66.274,-88.366 48.366,-213.726 -40,-280 v 0 c -88.366,-66.274 -213.726,-48.366 -280,40 l -1500,2000 c -66.274,88.366 -48.366,213.726 40,280 v 0 c 88.366,66.274 213.726,48.366 280,-40 z" />
  <path
     style="font-weight:normal;font-size:medium;font-family:sans-serif;text-anchor:start;mix-blend-mode:normal;fill:#b71c1c;stroke:none;stroke-width:1;stroke-linecap:butt;stroke-linejoin:miter;stroke-miterlimit:10;stroke-dasharray:none;stroke-dashoffset:0"
     inkscape:connector-curvature="0"
     id="path84"
     d="m 101563.85,30114.692 c 63.34,-90.489 41.33,-215.195 -49.16,-278.538 v 0 c -90.49,-63.343 -215.19,-41.336 -278.54,49.154 l -1399.996,2000 c -63.343,90.489 -41.336,215.195 49.154,278.538 v 0 c 90.489,63.343 215.192,41.336 278.542,-49.154 z" />
  <path
     style="font-weight:normal;font-size:medium;font-family:sans-serif;text-anchor:start;mix-blend-mode:normal;fill:#b71c1c;stroke:none;stroke-width:1;stroke-linecap:butt;stroke-linejoin:miter;stroke-miterlimit:10;stroke-dasharray:none;stroke-dashoffset:0"
     inkscape:connector-curvature="0"
     id="path86"
     d="m 0,-400 c -220.91,0 -400,179.0861 -400,400 v 0 c 0,220.9139 179.09,400 400,400 h 135000 c 220.91,0 400,-179.0861 400,-400 v 0 c 0,-220.9139 -179.09,-400 -400,-400 z" />
  <path
     style="font-weight:normal;font-size:medium;font-family:sans-serif;text-anchor:start;mix-blend-mode:normal;fill:#b71c1c;stroke:none;stroke-width:1;stroke-linecap:butt;stroke-linejoin:miter;stroke-miterlimit:10;stroke-dasharray:none;stroke-dashoffset:0"
     inkscape:connector-curvature="0"
     id="path88"
     d="m -400,85000 c 0,220.914 179.09,400 400,400 v 0 c 220.91,0 400,-179.086 400,-400 V 0 C 400,-220.9139 220.91,-400 0,-400 v 0 c -220.91,0 -400,179.0861 -400,400 z" />
  <path
     style="font-weight:normal;font-size:medium;font-family:sans-serif;text-anchor:start;mix-blend-mode:normal;fill:#b71c1c;stroke:none;stroke-width:1;stroke-linecap:butt;stroke-linejoin:miter;stroke-miterlimit:10;stroke-dasharray:none;stroke-dashoffset:0"
     inkscape:connector-curvature="0"
     id="path90"
     d="m 135000,85400 c 220.91,0 400,-179.086 400,-400 v 0 c 0,-220.914 -179.09,-400 -400,-400 H 0 c -220.91,0 -400,179.086 -400,400 v 0 c 0,220.914 179.09,400 400,400 z" />
  <path
     style="font-weight:normal;font-size:medium;font-family:sans-serif;text-anchor:start;mix-blend-mode:normal;fill:#b71c1c;stroke:none;stroke-width:1;stroke-linecap:butt;stroke-linejoin:miter;stroke-miterlimit:10;stroke-dasharray:none;stroke-dashoffset:0"
     inkscape:connector-curvature="0"
     id="path92"
     d="m 135400,0 c 0,-220.9139 -179.09,-400 -400,-400 v 0 c -220.91,0 -400,179.0861 -400,400 v 85000 c 0,220.914 179.09,400 400,400 v 0 c 220.91,0 400,-179.086 400,-400 z" />
  <path
     inkscape:connector-curvature="0"
     style="font-weight:normal;font-size:medium;font-family:sans-serif;text-anchor:start;mix-blend-mode:normal;fill:url(#color-1);stroke:none;stroke-width:1;stroke-linecap:butt;stroke-linejoin:miter;stroke-miterlimit:10;stroke-dasharray:none;stroke-dashoffset:0"
     id="path94"
     d="m 82250,30000 c 0,-414.214 -335.786,-750 -750,-750 -414.214,0 -750,335.786 -750,750 0,414.214 335.786,750 750,750 414.214,0 750,-335.786 750,-750 z" />
  <path
     inkscape:connector-curvature="0"
     style="font-weight:normal;font-size:medium;font-family:sans-serif;text-anchor:start;mix-blend-mode:normal;fill:url(#color-2);stroke:none;stroke-width:1;stroke-linecap:butt;stroke-linejoin:miter;stroke-miterlimit:10;stroke-dasharray:none;stroke-dashoffset:0"
     id="path96"
     d="m 82750,33700 c 0,-414.214 -335.786,-750 -750,-750 -414.214,0 -750,335.786 -750,750 0,414.214 335.786,750 750,750 414.214,0 750,-335.786 750,-750 z" />
  <path
     inkscape:connector-curvature="0"
     style="font-weight:normal;font-size:medium;font-family:sans-serif;text-anchor:start;mix-blend-mode:normal;fill:url(#color-3);stroke:none;stroke-width:1;stroke-linecap:butt;stroke-linejoin:miter;stroke-miterlimit:10;stroke-dasharray:none;stroke-dashoffset:0"
     id="path98"
     d="m 99750,33700 c 0,-414.214 -335.786,-750 -750,-750 -414.214,0 -750,335.786 -750,750 0,414.214 335.786,750 750,750 414.214,0 750,-335.786 750,-750 z" />
  <path
     inkscape:connector-curvature="0"
     style="font-weight:normal;font-size:medium;font-family:sans-serif;text-anchor:start;mix-blend-mode:normal;fill:url(#color-4);stroke:none;stroke-width:1;stroke-linecap:butt;stroke-linejoin:miter;stroke-miterlimit:10;stroke-dasharray:none;stroke-dashoffset:0"
     id="path100"
     d="m 102750,33700 c 0,-414.214 -335.79,-750 -750,-750 -414.21,0 -750,335.786 -750,750 0,414.214 335.79,750 750,750 414.21,0 750,-335.786 750,-750 z" />
  <path
     inkscape:connector-curvature="0"
     style="font-weight:normal;font-size:medium;font-family:sans-serif;text-anchor:start;mix-blend-mode:normal;fill:url(#color-5);stroke:none;stroke-width:1;stroke-linecap:butt;stroke-linejoin:miter;stroke-miterlimit:10;stroke-dasharray:none;stroke-dashoffset:0"
     id="path102"
     d="m 102250,30000 c 0,-414.214 -335.79,-750 -750,-750 -414.21,0 -750,335.786 -750,750 0,414.214 335.79,750 750,750 414.21,0 750,-335.786 750,-750 z" />
  <path
     inkscape:connector-curvature="0"
     style="font-weight:normal;font-size:medium;font-family:sans-serif;text-anchor:start;mix-blend-mode:normal;fill:url(#color-6);stroke:none;stroke-width:1;stroke-linecap:butt;stroke-linejoin:miter;stroke-miterlimit:10;stroke-dasharray:none;stroke-dashoffset:0"
     id="path104"
     d="m 99250,30000 c 0,-414.214 -335.786,-750 -750,-750 -414.214,0 -750,335.786 -750,750 0,414.214 335.786,750 750,750 414.214,0 750,-335.786 750,-750 z" />
  <path
     inkscape:connector-curvature="0"
     style="font-weight:normal;font-size:medium;font-family:sans-serif;text-anchor:start;mix-blend-mode:normal;fill:url(#color-7);stroke:none;stroke-width:1;stroke-linecap:butt;stroke-linejoin:miter;stroke-miterlimit:10;stroke-dasharray:none;stroke-dashoffset:0"
     id="path106"
     d="m 98750,26300 c 0,-414.214 -335.786,-750 -750,-750 -414.214,0 -750,335.786 -750,750 0,414.214 335.786,750 750,750 414.214,0 750,-335.786 750,-750 z" />
  <path
     inkscape:connector-curvature="0"
     style="font-weight:normal;font-size:medium;font-family:sans-serif;text-anchor:start;mix-blend-mode:normal;fill:url(#color-8);stroke:none;stroke-width:1;stroke-linecap:butt;stroke-linejoin:miter;stroke-miterlimit:10;stroke-dasharray:none;stroke-dashoffset:0"
     id="path108"
     d="m 101750,26300 c 0,-414.214 -335.79,-750 -750,-750 -414.21,0 -750,335.786 -750,750 0,414.214 335.79,750 750,750 414.21,0 750,-335.786 750,-750 z" />
  <path
     inkscape:connector-curvature="0"
     style="font-weight:normal;font-size:medium;font-family:sans-serif;text-anchor:start;mix-blend-mode:normal;fill:url(#color-9);stroke:none;stroke-width:2.5313282;stroke-linecap:butt;stroke-linejoin:miter;stroke-miterlimit:10;stroke-dasharray:none;stroke-dashoffset:0"
     id="path110"
     d="m 107183.64,51835.491 c 0,-1115.615 -904.39,-2020 -2020,-2020 -1115.61,0 -2020,904.385 -2020,2020 0,1115.615 904.39,2020 2020,2020 1115.61,0 2020,-904.385 2020,-2020 z" />
  <path
     inkscape:connector-curvature="0"
     style="font-weight:normal;font-size:medium;font-family:sans-serif;text-anchor:start;mix-blend-mode:normal;fill:url(#color-10);stroke:none;stroke-width:2.5313282;stroke-linecap:butt;stroke-linejoin:miter;stroke-miterlimit:10;stroke-dasharray:none;stroke-dashoffset:0"
     id="path112"
     d="m 86740.331,19882.404 c 0,-1115.615 -904.385,-2020 -2020,-2020 -1115.615,0 -2020,904.385 -2020,2020 0,1115.615 904.385,2020 2020,2020 1115.615,0 2020,-904.385 2020,-2020 z" />
</svg>
