<?xml version="1.0" encoding="UTF-8" standalone="no"?>
<svg
   xmlns:dc="http://purl.org/dc/elements/1.1/"
   xmlns:cc="http://creativecommons.org/ns#"
   xmlns:rdf="http://www.w3.org/1999/02/22-rdf-syntax-ns#"
   xmlns:svg="http://www.w3.org/2000/svg"
   xmlns="http://www.w3.org/2000/svg"
   xmlns:sodipodi="http://sodipodi.sourceforge.net/DTD/sodipodi-0.dtd"
   xmlns:inkscape="http://www.inkscape.org/namespaces/inkscape"
   width="95mm"
   height="95mm"
   viewBox="0 0 95000 95000"
   version="1.1"
   id="svg219"
   sodipodi:docname="Device_layer_2.svg"
   inkscape:version="0.92.1 r15371">
  <metadata
     id="metadata223">
    <rdf:RDF>
      <cc:Work
         rdf:about="">
        <dc:format>image/svg+xml</dc:format>
        <dc:type
           rdf:resource="http://purl.org/dc/dcmitype/StillImage" />
      </cc:Work>
    </rdf:RDF>
  </metadata>
  <sodipodi:namedview
     pagecolor="#ffffff"
     bordercolor="#666666"
     borderopacity="1"
     objecttolerance="10"
     gridtolerance="10"
     guidetolerance="10"
     inkscape:pageopacity="0"
     inkscape:pageshadow="2"
     inkscape:window-width="1536"
     inkscape:window-height="801"
     id="namedview221"
     showgrid="false"
     inkscape:zoom="1.3145614"
     inkscape:cx="179.52756"
     inkscape:cy="179.52756"
     inkscape:window-x="-8"
     inkscape:window-y="-8"
     inkscape:window-maximized="1"
     inkscape:current-layer="svg219" />
  <defs
     id="defs57">
    <radialGradient
       cx="32000"
       cy="16000"
       r="130"
       gradientUnits="userSpaceOnUse"
       id="color-1"
       gradientTransform="matrix(-1,0,0,1,89708.333,5291.6669)">
      <stop
         offset="1"
         stop-color="#ef5350"
         id="stop2" />
      <stop
         offset="1"
         stop-color="#b71c1c"
         id="stop4" />
    </radialGradient>
    <radialGradient
       cx="21700"
       cy="16000"
       r="1750"
       gradientUnits="userSpaceOnUse"
       id="color-2"
       gradientTransform="matrix(-1,0,0,1,89708.333,5291.6669)">
      <stop
         offset="1"
         stop-color="#ef5350"
         id="stop7" />
      <stop
         offset="1"
         stop-color="#b71c1c"
         id="stop9" />
    </radialGradient>
    <radialGradient
       cx="43000"
       cy="41000"
       r="130"
       gradientUnits="userSpaceOnUse"
       id="color-3"
       gradientTransform="matrix(-1,0,0,1,89708.333,5291.6669)">
      <stop
         offset="1"
         stop-color="#ef5350"
         id="stop12" />
      <stop
         offset="1"
         stop-color="#b71c1c"
         id="stop14" />
    </radialGradient>
    <radialGradient
       cx="31700"
       cy="41000"
       r="130"
       gradientUnits="userSpaceOnUse"
       id="color-4"
       gradientTransform="matrix(-1,0,0,1,89708.333,5291.6669)">
      <stop
         offset="1"
         stop-color="#ef5350"
         id="stop17" />
      <stop
         offset="1"
         stop-color="#b71c1c"
         id="stop19" />
    </radialGradient>
    <radialGradient
       cx="15000"
       cy="45000"
       r="130"
       gradientUnits="userSpaceOnUse"
       id="color-5"
       gradientTransform="matrix(-1,0,0,1,89708.333,5291.6669)">
      <stop
         offset="1"
         stop-color="#ef5350"
         id="stop22" />
      <stop
         offset="1"
         stop-color="#b71c1c"
         id="stop24" />
    </radialGradient>
    <radialGradient
       cx="44000"
       cy="20000"
       r="130"
       gradientUnits="userSpaceOnUse"
       id="color-6"
       gradientTransform="matrix(-1,0,0,1,89708.333,5291.6669)">
      <stop
         offset="1"
         stop-color="#ef5350"
         id="stop27" />
      <stop
         offset="1"
         stop-color="#b71c1c"
         id="stop29" />
    </radialGradient>
    <radialGradient
       cx="70000"
       cy="20000"
       r="1750"
       gradientUnits="userSpaceOnUse"
       id="color-7"
       gradientTransform="matrix(-1,0,0,1,89708.333,5291.6669)">
      <stop
         offset="1"
         stop-color="#ef5350"
         id="stop32" />
      <stop
         offset="1"
         stop-color="#b71c1c"
         id="stop34" />
    </radialGradient>
    <radialGradient
       cx="15000"
       cy="40000"
       r="1750"
       gradientUnits="userSpaceOnUse"
       id="color-8"
       gradientTransform="matrix(-1,0,0,1,89708.333,5291.6669)">
      <stop
         offset="1"
         stop-color="#ef5350"
         id="stop37" />
      <stop
         offset="1"
         stop-color="#b71c1c"
         id="stop39" />
    </radialGradient>
    <radialGradient
       cx="38000"
       cy="45000"
       r="130"
       gradientUnits="userSpaceOnUse"
       id="color-9"
       gradientTransform="matrix(-1,0,0,1,89708.333,5291.6669)">
      <stop
         offset="1"
         stop-color="#ef5350"
         id="stop42" />
      <stop
         offset="1"
         stop-color="#b71c1c"
         id="stop44" />
    </radialGradient>
    <radialGradient
       cx="33830"
       cy="28000"
       r="130"
       gradientUnits="userSpaceOnUse"
       id="color-10"
       gradientTransform="matrix(-1,0,0,1,89708.333,5291.6669)">
      <stop
         offset="1"
         stop-color="#ef5350"
         id="stop47" />
      <stop
         offset="1"
         stop-color="#b71c1c"
         id="stop49" />
    </radialGradient>
    <radialGradient
       cx="29530"
       cy="28000"
       r="130"
       gradientUnits="userSpaceOnUse"
       id="color-11"
       gradientTransform="matrix(-1,0,0,1,89708.333,5291.6669)">
      <stop
         offset="1"
         stop-color="#ef5350"
         id="stop52" />
      <stop
         offset="1"
         stop-color="#b71c1c"
         id="stop54" />
    </radialGradient>
  </defs>
  <polygon
     style="font-weight:normal;font-size:medium;font-family:sans-serif;text-anchor:start;mix-blend-mode:normal;fill:#b71c1c;stroke:none;stroke-width:0;stroke-linecap:butt;stroke-linejoin:miter;stroke-miterlimit:10;stroke-dasharray:none;stroke-dashoffset:0"
     id="polygon59"
     points="48800,33670 50200,33670 50200,33930 48800,33930 "
     transform="matrix(-1,0,0,1,89708.333,5291.6669)" />
  <polygon
     style="font-weight:normal;font-size:medium;font-family:sans-serif;text-anchor:start;mix-blend-mode:normal;fill:#b71c1c;stroke:none;stroke-width:0;stroke-linecap:butt;stroke-linejoin:miter;stroke-miterlimit:10;stroke-dasharray:none;stroke-dashoffset:0"
     id="polygon61"
     points="34000,33930 33300,33930 33300,33670 34000,33670 "
     transform="matrix(-1,0,0,1,89708.333,5291.6669)" />
  <polygon
     style="font-weight:normal;font-size:medium;font-family:sans-serif;text-anchor:start;mix-blend-mode:normal;fill:#b71c1c;stroke:none;stroke-width:0;stroke-linecap:butt;stroke-linejoin:miter;stroke-miterlimit:10;stroke-dasharray:none;stroke-dashoffset:0"
     id="polygon63"
     points="30300,33930 29600,33930 29600,33670 30300,33670 "
     transform="matrix(-1,0,0,1,89708.333,5291.6669)" />
  <polygon
     style="font-weight:normal;font-size:medium;font-family:sans-serif;text-anchor:start;mix-blend-mode:normal;fill:#b71c1c;stroke:none;stroke-width:0;stroke-linecap:butt;stroke-linejoin:miter;stroke-miterlimit:10;stroke-dasharray:none;stroke-dashoffset:0"
     id="polygon65"
     points="50000,29980 50000,29510 50260,29510 50260,29980 "
     transform="matrix(-1,0,0,1,89708.333,5291.6669)" />
  <polygon
     style="font-weight:normal;font-size:medium;font-family:sans-serif;text-anchor:start;mix-blend-mode:normal;fill:#b71c1c;stroke:none;stroke-width:0;stroke-linecap:butt;stroke-linejoin:miter;stroke-miterlimit:10;stroke-dasharray:none;stroke-dashoffset:0"
     id="polygon67"
     points="33670,29790 33670,29440 33930,29440 33930,29790 "
     transform="matrix(-1,0,0,1,89708.333,5291.6669)" />
  <polygon
     style="font-weight:normal;font-size:medium;font-family:sans-serif;text-anchor:start;mix-blend-mode:normal;fill:#b71c1c;stroke:none;stroke-width:0;stroke-linecap:butt;stroke-linejoin:miter;stroke-miterlimit:10;stroke-dasharray:none;stroke-dashoffset:0"
     id="polygon69"
     points="29400,29840 29400,29460 29660,29460 29660,29840 "
     transform="matrix(-1,0,0,1,89708.333,5291.6669)" />
  <polygon
     style="font-weight:normal;font-size:medium;font-family:sans-serif;text-anchor:start;mix-blend-mode:normal;fill:#b71c1c;stroke:none;stroke-width:0;stroke-linecap:butt;stroke-linejoin:miter;stroke-miterlimit:10;stroke-dasharray:none;stroke-dashoffset:0"
     id="polygon71"
     points="34550,27100 30450,27100 30450,26840 34550,26840 "
     transform="matrix(-1,0,0,1,89708.333,5291.6669)" />
  <polygon
     style="font-weight:normal;font-size:medium;font-family:sans-serif;text-anchor:start;mix-blend-mode:normal;fill:#b71c1c;stroke:none;stroke-width:0;stroke-linecap:butt;stroke-linejoin:miter;stroke-miterlimit:10;stroke-dasharray:none;stroke-dashoffset:0"
     id="polygon73"
     points="21000,15800 25000,15800 25000,16200 21000,16200 "
     transform="matrix(-1,0,0,1,89708.333,5291.6669)" />
  <polygon
     style="font-weight:normal;font-size:medium;font-family:sans-serif;text-anchor:start;mix-blend-mode:normal;fill:#b71c1c;stroke:none;stroke-width:0;stroke-linecap:butt;stroke-linejoin:miter;stroke-miterlimit:10;stroke-dasharray:none;stroke-dashoffset:0"
     id="polygon75"
     points="31700,40870 43000,40870 43000,41130 31700,41130 "
     transform="matrix(-1,0,0,1,89708.333,5291.6669)" />
  <polygon
     style="font-weight:normal;font-size:medium;font-family:sans-serif;text-anchor:start;mix-blend-mode:normal;fill:#b71c1c;stroke:none;stroke-width:0;stroke-linecap:butt;stroke-linejoin:miter;stroke-miterlimit:10;stroke-dasharray:none;stroke-dashoffset:0"
     id="polygon77"
     points="32000,41130 32000,40870 "
     transform="matrix(-1,0,0,1,89708.333,5291.6669)" />
  <polygon
     style="font-weight:normal;font-size:medium;font-family:sans-serif;text-anchor:start;mix-blend-mode:normal;fill:#b71c1c;stroke:none;stroke-width:0;stroke-linecap:butt;stroke-linejoin:miter;stroke-miterlimit:10;stroke-dasharray:none;stroke-dashoffset:0"
     id="polygon79"
     points="32000,41130 32000,40870 "
     transform="matrix(-1,0,0,1,89708.333,5291.6669)" />
  <polygon
     style="font-weight:normal;font-size:medium;font-family:sans-serif;text-anchor:start;mix-blend-mode:normal;fill:#b71c1c;stroke:none;stroke-width:0;stroke-linecap:butt;stroke-linejoin:miter;stroke-miterlimit:10;stroke-dasharray:none;stroke-dashoffset:0"
     id="polygon81"
     points="32000,41130 32000,40870 "
     transform="matrix(-1,0,0,1,89708.333,5291.6669)" />
  <polygon
     style="font-weight:normal;font-size:medium;font-family:sans-serif;text-anchor:start;mix-blend-mode:normal;fill:#b71c1c;stroke:none;stroke-width:0;stroke-linecap:butt;stroke-linejoin:miter;stroke-miterlimit:10;stroke-dasharray:none;stroke-dashoffset:0"
     id="polygon83"
     points="32000,41130 32000,40870 "
     transform="matrix(-1,0,0,1,89708.333,5291.6669)" />
  <polygon
     style="font-weight:normal;font-size:medium;font-family:sans-serif;text-anchor:start;mix-blend-mode:normal;fill:#b71c1c;stroke:none;stroke-width:0;stroke-linecap:butt;stroke-linejoin:miter;stroke-miterlimit:10;stroke-dasharray:none;stroke-dashoffset:0"
     id="polygon85"
     points="32000,41130 32000,40870 "
     transform="matrix(-1,0,0,1,89708.333,5291.6669)" />
  <polygon
     style="font-weight:normal;font-size:medium;font-family:sans-serif;text-anchor:start;mix-blend-mode:normal;fill:#b71c1c;stroke:none;stroke-width:0;stroke-linecap:butt;stroke-linejoin:miter;stroke-miterlimit:10;stroke-dasharray:none;stroke-dashoffset:0"
     id="polygon87"
     points="42870,41000 42870,33800 43130,33800 43130,41000 "
     transform="matrix(-1,0,0,1,89708.333,5291.6669)" />
  <polygon
     style="font-weight:normal;font-size:medium;font-family:sans-serif;text-anchor:start;mix-blend-mode:normal;fill:#b71c1c;stroke:none;stroke-width:0;stroke-linecap:butt;stroke-linejoin:miter;stroke-miterlimit:10;stroke-dasharray:none;stroke-dashoffset:0"
     id="polygon89"
     points="43000,33670 49800,33670 49800,33930 43000,33930 "
     transform="matrix(-1,0,0,1,89708.333,5291.6669)" />
  <polygon
     style="font-weight:normal;font-size:medium;font-family:sans-serif;text-anchor:start;mix-blend-mode:normal;fill:#b71c1c;stroke:none;stroke-width:0;stroke-linecap:butt;stroke-linejoin:miter;stroke-miterlimit:10;stroke-dasharray:none;stroke-dashoffset:0"
     id="polygon91"
     points="31570,41000 31570,33800 31830,33800 31830,41000 "
     transform="matrix(-1,0,0,1,89708.333,5291.6669)" />
  <polygon
     style="font-weight:normal;font-size:medium;font-family:sans-serif;text-anchor:start;mix-blend-mode:normal;fill:#b71c1c;stroke:none;stroke-width:0;stroke-linecap:butt;stroke-linejoin:miter;stroke-miterlimit:10;stroke-dasharray:none;stroke-dashoffset:0"
     id="polygon93"
     points="33700,33930 29900,33930 29900,33670 33700,33670 "
     transform="matrix(-1,0,0,1,89708.333,5291.6669)" />
  <polygon
     style="font-weight:normal;font-size:medium;font-family:sans-serif;text-anchor:start;mix-blend-mode:normal;fill:#b71c1c;stroke:none;stroke-width:0;stroke-linecap:butt;stroke-linejoin:miter;stroke-miterlimit:10;stroke-dasharray:none;stroke-dashoffset:0"
     id="polygon95"
     points="33000,35130 33000,34870 "
     transform="matrix(-1,0,0,1,89708.333,5291.6669)" />
  <polygon
     style="font-weight:normal;font-size:medium;font-family:sans-serif;text-anchor:start;mix-blend-mode:normal;fill:#b71c1c;stroke:none;stroke-width:0;stroke-linecap:butt;stroke-linejoin:miter;stroke-miterlimit:10;stroke-dasharray:none;stroke-dashoffset:0"
     id="polygon97"
     points="31870,27000 31870,16000 32130,16000 32130,27000 "
     transform="matrix(-1,0,0,1,89708.333,5291.6669)" />
  <polygon
     style="font-weight:normal;font-size:medium;font-family:sans-serif;text-anchor:start;mix-blend-mode:normal;fill:#b71c1c;stroke:none;stroke-width:0;stroke-linecap:butt;stroke-linejoin:miter;stroke-miterlimit:10;stroke-dasharray:none;stroke-dashoffset:0"
     id="polygon99"
     points="32000,16130 20000,16130 20000,15870 32000,15870 "
     transform="matrix(-1,0,0,1,89708.333,5291.6669)" />
  <polygon
     style="font-weight:normal;font-size:medium;font-family:sans-serif;text-anchor:start;mix-blend-mode:normal;fill:#b71c1c;stroke:none;stroke-width:0;stroke-linecap:butt;stroke-linejoin:miter;stroke-miterlimit:10;stroke-dasharray:none;stroke-dashoffset:0"
     id="polygon101"
     points="50000,29610 50000,28000 50260,28000 50260,29610 "
     transform="matrix(-1,0,0,1,89708.333,5291.6669)" />
  <polygon
     style="font-weight:normal;font-size:medium;font-family:sans-serif;text-anchor:start;mix-blend-mode:normal;fill:#b71c1c;stroke:none;stroke-width:0;stroke-linecap:butt;stroke-linejoin:miter;stroke-miterlimit:10;stroke-dasharray:none;stroke-dashoffset:0"
     id="polygon103"
     points="49900,29230 49900,28970 "
     transform="matrix(-1,0,0,1,89708.333,5291.6669)" />
  <polygon
     style="font-weight:normal;font-size:medium;font-family:sans-serif;text-anchor:start;mix-blend-mode:normal;fill:#b71c1c;stroke:none;stroke-width:0;stroke-linecap:butt;stroke-linejoin:miter;stroke-miterlimit:10;stroke-dasharray:none;stroke-dashoffset:0"
     id="polygon105"
     points="49900,29230 49900,28970 "
     transform="matrix(-1,0,0,1,89708.333,5291.6669)" />
  <polygon
     style="font-weight:normal;font-size:medium;font-family:sans-serif;text-anchor:start;mix-blend-mode:normal;fill:#b71c1c;stroke:none;stroke-width:0;stroke-linecap:butt;stroke-linejoin:miter;stroke-miterlimit:10;stroke-dasharray:none;stroke-dashoffset:0"
     id="polygon107"
     points="49900,28030 49900,27770 "
     transform="matrix(-1,0,0,1,89708.333,5291.6669)" />
  <polygon
     style="font-weight:normal;font-size:medium;font-family:sans-serif;text-anchor:start;mix-blend-mode:normal;fill:#b71c1c;stroke:none;stroke-width:0;stroke-linecap:butt;stroke-linejoin:miter;stroke-miterlimit:10;stroke-dasharray:none;stroke-dashoffset:0"
     id="polygon109"
     points="50100,28130 50100,27870 "
     transform="matrix(-1,0,0,1,89708.333,5291.6669)" />
  <polygon
     style="font-weight:normal;font-size:medium;font-family:sans-serif;text-anchor:start;mix-blend-mode:normal;fill:#b71c1c;stroke:none;stroke-width:0;stroke-linecap:butt;stroke-linejoin:miter;stroke-miterlimit:10;stroke-dasharray:none;stroke-dashoffset:0"
     id="polygon111"
     points="50100,28130 50100,27870 "
     transform="matrix(-1,0,0,1,89708.333,5291.6669)" />
  <polygon
     style="font-weight:normal;font-size:medium;font-family:sans-serif;text-anchor:start;mix-blend-mode:normal;fill:#b71c1c;stroke:none;stroke-width:0;stroke-linecap:butt;stroke-linejoin:miter;stroke-miterlimit:10;stroke-dasharray:none;stroke-dashoffset:0"
     id="polygon113"
     points="49800,28330 49800,28070 "
     transform="matrix(-1,0,0,1,89708.333,5291.6669)" />
  <polygon
     style="font-weight:normal;font-size:medium;font-family:sans-serif;text-anchor:start;mix-blend-mode:normal;fill:#b71c1c;stroke:none;stroke-width:0;stroke-linecap:butt;stroke-linejoin:miter;stroke-miterlimit:10;stroke-dasharray:none;stroke-dashoffset:0"
     id="polygon115"
     points="49800,28330 49800,28070 "
     transform="matrix(-1,0,0,1,89708.333,5291.6669)" />
  <polygon
     style="font-weight:normal;font-size:medium;font-family:sans-serif;text-anchor:start;mix-blend-mode:normal;fill:#b71c1c;stroke:none;stroke-width:0;stroke-linecap:butt;stroke-linejoin:miter;stroke-miterlimit:10;stroke-dasharray:none;stroke-dashoffset:0"
     id="polygon117"
     points="50000,29130 50000,28870 "
     transform="matrix(-1,0,0,1,89708.333,5291.6669)" />
  <polygon
     style="font-weight:normal;font-size:medium;font-family:sans-serif;text-anchor:start;mix-blend-mode:normal;fill:#b71c1c;stroke:none;stroke-width:0;stroke-linecap:butt;stroke-linejoin:miter;stroke-miterlimit:10;stroke-dasharray:none;stroke-dashoffset:0"
     id="polygon119"
     points="50000,29130 50000,28870 "
     transform="matrix(-1,0,0,1,89708.333,5291.6669)" />
  <polygon
     style="font-weight:normal;font-size:medium;font-family:sans-serif;text-anchor:start;mix-blend-mode:normal;fill:#b71c1c;stroke:none;stroke-width:0;stroke-linecap:butt;stroke-linejoin:miter;stroke-miterlimit:10;stroke-dasharray:none;stroke-dashoffset:0"
     id="polygon121"
     points="50000,29130 50000,28870 "
     transform="matrix(-1,0,0,1,89708.333,5291.6669)" />
  <polygon
     style="font-weight:normal;font-size:medium;font-family:sans-serif;text-anchor:start;mix-blend-mode:normal;fill:#b71c1c;stroke:none;stroke-width:0;stroke-linecap:butt;stroke-linejoin:miter;stroke-miterlimit:10;stroke-dasharray:none;stroke-dashoffset:0"
     id="polygon123"
     points="49700,29630 49700,29370 "
     transform="matrix(-1,0,0,1,89708.333,5291.6669)" />
  <polygon
     style="font-weight:normal;font-size:medium;font-family:sans-serif;text-anchor:start;mix-blend-mode:normal;fill:#b71c1c;stroke:none;stroke-width:0;stroke-linecap:butt;stroke-linejoin:miter;stroke-miterlimit:10;stroke-dasharray:none;stroke-dashoffset:0"
     id="polygon125"
     points="49700,29630 49700,29370 "
     transform="matrix(-1,0,0,1,89708.333,5291.6669)" />
  <polygon
     style="font-weight:normal;font-size:medium;font-family:sans-serif;text-anchor:start;mix-blend-mode:normal;fill:#b71c1c;stroke:none;stroke-width:0;stroke-linecap:butt;stroke-linejoin:miter;stroke-miterlimit:10;stroke-dasharray:none;stroke-dashoffset:0"
     id="polygon127"
     points="50100,29330 50100,29070 "
     transform="matrix(-1,0,0,1,89708.333,5291.6669)" />
  <polygon
     style="font-weight:normal;font-size:medium;font-family:sans-serif;text-anchor:start;mix-blend-mode:normal;fill:#b71c1c;stroke:none;stroke-width:0;stroke-linecap:butt;stroke-linejoin:miter;stroke-miterlimit:10;stroke-dasharray:none;stroke-dashoffset:0"
     id="polygon129"
     points="33930,28000 33930,29700 33670,29700 33670,28000 "
     transform="matrix(-1,0,0,1,89708.333,5291.6669)" />
  <polygon
     style="font-weight:normal;font-size:medium;font-family:sans-serif;text-anchor:start;mix-blend-mode:normal;fill:#b71c1c;stroke:none;stroke-width:0;stroke-linecap:butt;stroke-linejoin:miter;stroke-miterlimit:10;stroke-dasharray:none;stroke-dashoffset:0"
     id="polygon131"
     points="33700,29730 33700,29470 "
     transform="matrix(-1,0,0,1,89708.333,5291.6669)" />
  <polygon
     style="font-weight:normal;font-size:medium;font-family:sans-serif;text-anchor:start;mix-blend-mode:normal;fill:#b71c1c;stroke:none;stroke-width:0;stroke-linecap:butt;stroke-linejoin:miter;stroke-miterlimit:10;stroke-dasharray:none;stroke-dashoffset:0"
     id="polygon133"
     points="29400,29610 29400,28000 29660,28000 29660,29610 "
     transform="matrix(-1,0,0,1,89708.333,5291.6669)" />
  <path
     style="font-weight:normal;font-size:medium;font-family:sans-serif;text-anchor:start;mix-blend-mode:normal;fill:#b71c1c;stroke:none;stroke-width:0;stroke-linecap:butt;stroke-linejoin:miter;stroke-miterlimit:10;stroke-dasharray:none;stroke-dashoffset:0"
     inkscape:connector-curvature="0"
     id="path135"
     d="m 39808.33,35692.17 c 0.276,0 0.5,-0.224 0.5,-0.5 v -800 c 0,-0.276 -0.224,-0.5 -0.5,-0.5 h -1100 c -0.276,0 -0.5,0.224 -0.5,0.5 v 800 c 0,0.276 0.224,0.5 0.5,0.5 z" />
  <path
     style="font-weight:normal;font-size:medium;font-family:sans-serif;text-anchor:start;mix-blend-mode:normal;fill:#b71c1c;stroke:none;stroke-width:0;stroke-linecap:butt;stroke-linejoin:miter;stroke-miterlimit:10;stroke-dasharray:none;stroke-dashoffset:0"
     inkscape:connector-curvature="0"
     id="path137"
     d="m 40008.33,39292.17 c 0.276,0 0.5,-0.224 0.5,-0.5 v -1100 c 0,-0.276 -0.224,-0.5 -0.5,-0.5 h -800 c -0.276,0 -0.5,0.224 -0.5,0.5 v 1100 c 0,0.276 0.224,0.5 0.5,0.5 z" />
  <path
     style="font-weight:normal;font-size:medium;font-family:sans-serif;text-anchor:start;mix-blend-mode:normal;fill:#b71c1c;stroke:none;stroke-width:0;stroke-linecap:butt;stroke-linejoin:miter;stroke-miterlimit:10;stroke-dasharray:none;stroke-dashoffset:0"
     inkscape:connector-curvature="0"
     id="path139"
     d="m 56308.33,39292.17 c 0.276,0 0.5,-0.224 0.5,-0.5 v -1100 c 0,-0.276 -0.224,-0.5 -0.5,-0.5 h -800 c -0.276,0 -0.5,0.224 -0.5,0.5 v 1100 c 0,0.276 0.224,0.5 0.5,0.5 z" />
  <path
     style="font-weight:normal;font-size:medium;font-family:sans-serif;text-anchor:start;mix-blend-mode:normal;fill:#b71c1c;stroke:none;stroke-width:0;stroke-linecap:butt;stroke-linejoin:miter;stroke-miterlimit:10;stroke-dasharray:none;stroke-dashoffset:0"
     inkscape:connector-curvature="0"
     id="path141"
     d="m 60608.33,39292.17 c 0.276,0 0.5,-0.224 0.5,-0.5 v -1100 c 0,-0.276 -0.224,-0.5 -0.5,-0.5 h -800 c -0.276,0 -0.5,0.224 -0.5,0.5 v 1100 c 0,0.276 0.224,0.5 0.5,0.5 z" />
  <path
     style="font-weight:normal;font-size:medium;font-family:sans-serif;text-anchor:start;mix-blend-mode:normal;fill:#b71c1c;stroke:none;stroke-width:0;stroke-linecap:butt;stroke-linejoin:miter;stroke-miterlimit:10;stroke-dasharray:none;stroke-dashoffset:0"
     inkscape:connector-curvature="0"
     id="path143"
     d="m 56108.33,35692.17 c 0.276,0 0.5,-0.224 0.5,-0.5 v -800 c 0,-0.276 -0.224,-0.5 -0.5,-0.5 h -1100 c -0.276,0 -0.5,0.224 -0.5,0.5 v 800 c 0,0.276 0.224,0.5 0.5,0.5 z" />
  <path
     style="font-weight:normal;font-size:medium;font-family:sans-serif;text-anchor:start;mix-blend-mode:normal;fill:#b71c1c;stroke:none;stroke-width:0;stroke-linecap:butt;stroke-linejoin:miter;stroke-miterlimit:10;stroke-dasharray:none;stroke-dashoffset:0"
     inkscape:connector-curvature="0"
     id="path145"
     d="m 60408.33,35692.17 c 0.276,0 0.5,-0.224 0.5,-0.5 v -800 c 0,-0.276 -0.224,-0.5 -0.5,-0.5 h -1100 c -0.276,0 -0.5,0.224 -0.5,0.5 v 800 c 0,0.276 0.224,0.5 0.5,0.5 z" />
  <path
     style="font-weight:normal;font-size:medium;font-family:sans-serif;text-anchor:start;mix-blend-mode:normal;fill:#b71c1c;stroke:none;stroke-width:0;stroke-linecap:butt;stroke-linejoin:miter;stroke-miterlimit:10;stroke-dasharray:none;stroke-dashoffset:0"
     inkscape:connector-curvature="0"
     id="path147"
     d="m 55608.33,32392.17 c 0.276,0 0.5,-0.224 0.5,-0.5 v -1100 c 0,-0.276 -0.224,-0.5 -0.5,-0.5 h -800 c -0.276,0 -0.5,0.224 -0.5,0.5 v 1100 c 0,0.276 0.224,0.5 0.5,0.5 z" />
  <path
     style="font-weight:normal;font-size:medium;font-family:sans-serif;text-anchor:start;mix-blend-mode:normal;fill:#b71c1c;stroke:none;stroke-width:0;stroke-linecap:butt;stroke-linejoin:miter;stroke-miterlimit:10;stroke-dasharray:none;stroke-dashoffset:0"
     inkscape:connector-curvature="0"
     id="path149"
     d="m 59908.33,32392.17 c 0.276,0 0.5,-0.224 0.5,-0.5 v -1100 c 0,-0.276 -0.224,-0.5 -0.5,-0.5 h -800 c -0.276,0 -0.5,0.224 -0.5,0.5 v 1100 c 0,0.276 0.224,0.5 0.5,0.5 z" />
  <polygon
     style="font-weight:normal;font-size:medium;font-family:sans-serif;text-anchor:start;mix-blend-mode:normal;fill:#b71c1c;stroke:none;stroke-width:0;stroke-linecap:butt;stroke-linejoin:miter;stroke-miterlimit:10;stroke-dasharray:none;stroke-dashoffset:0"
     id="polygon151"
     points="66000,19800 68300,19800 68300,20200 66000,20200 "
     transform="matrix(-1,0,0,1,89708.333,5291.6669)" />
  <polygon
     style="font-weight:normal;font-size:medium;font-family:sans-serif;text-anchor:start;mix-blend-mode:normal;fill:#b71c1c;stroke:none;stroke-width:0;stroke-linecap:butt;stroke-linejoin:miter;stroke-miterlimit:10;stroke-dasharray:none;stroke-dashoffset:0"
     id="polygon153"
     points="14800,43000 14800,41500 15200,41500 15200,43000 "
     transform="matrix(-1,0,0,1,89708.333,5291.6669)" />
  <polygon
     style="font-weight:normal;font-size:medium;font-family:sans-serif;text-anchor:start;mix-blend-mode:normal;fill:#b71c1c;stroke:none;stroke-width:0;stroke-linecap:butt;stroke-linejoin:miter;stroke-miterlimit:10;stroke-dasharray:none;stroke-dashoffset:0"
     id="polygon155"
     points="43870,28000 43870,20000 44130,20000 44130,28000 "
     transform="matrix(-1,0,0,1,89708.333,5291.6669)" />
  <polygon
     style="font-weight:normal;font-size:medium;font-family:sans-serif;text-anchor:start;mix-blend-mode:normal;fill:#b71c1c;stroke:none;stroke-width:0;stroke-linecap:butt;stroke-linejoin:miter;stroke-miterlimit:10;stroke-dasharray:none;stroke-dashoffset:0"
     id="polygon157"
     points="44000,19870 71000,19870 71000,20130 44000,20130 "
     transform="matrix(-1,0,0,1,89708.333,5291.6669)" />
  <polygon
     style="font-weight:normal;font-size:medium;font-family:sans-serif;text-anchor:start;mix-blend-mode:normal;fill:#b71c1c;stroke:none;stroke-width:0;stroke-linecap:butt;stroke-linejoin:miter;stroke-miterlimit:10;stroke-dasharray:none;stroke-dashoffset:0"
     id="polygon159"
     points="38000,45130 15000,45130 15000,44870 38000,44870 "
     transform="matrix(-1,0,0,1,89708.333,5291.6669)" />
  <polygon
     style="font-weight:normal;font-size:medium;font-family:sans-serif;text-anchor:start;mix-blend-mode:normal;fill:#b71c1c;stroke:none;stroke-width:0;stroke-linecap:butt;stroke-linejoin:miter;stroke-miterlimit:10;stroke-dasharray:none;stroke-dashoffset:0"
     id="polygon161"
     points="14870,45000 14870,40000 15130,40000 15130,45000 "
     transform="matrix(-1,0,0,1,89708.333,5291.6669)" />
  <polygon
     style="font-weight:normal;font-size:medium;font-family:sans-serif;text-anchor:start;mix-blend-mode:normal;fill:#b71c1c;stroke:none;stroke-width:0;stroke-linecap:butt;stroke-linejoin:miter;stroke-miterlimit:10;stroke-dasharray:none;stroke-dashoffset:0"
     id="polygon163"
     points="38130,41000 38130,45000 37870,45000 37870,41000 "
     transform="matrix(-1,0,0,1,89708.333,5291.6669)" />
  <polygon
     style="font-weight:normal;font-size:medium;font-family:sans-serif;text-anchor:start;mix-blend-mode:normal;fill:#b71c1c;stroke:none;stroke-width:0;stroke-linecap:butt;stroke-linejoin:miter;stroke-miterlimit:10;stroke-dasharray:none;stroke-dashoffset:0"
     id="polygon165"
     points="50260,28130 49980,28130 49980,27870 50260,27870 "
     transform="matrix(-1,0,0,1,89708.333,5291.6669)" />
  <polygon
     style="font-weight:normal;font-size:medium;font-family:sans-serif;text-anchor:start;mix-blend-mode:normal;fill:#b71c1c;stroke:none;stroke-width:0;stroke-linecap:butt;stroke-linejoin:miter;stroke-miterlimit:10;stroke-dasharray:none;stroke-dashoffset:0"
     id="polygon167"
     points="50000,28130 29530,28130 29530,27870 50000,27870 "
     transform="matrix(-1,0,0,1,89708.333,5291.6669)" />
  <polygon
     style="font-weight:normal;font-size:medium;font-family:sans-serif;text-anchor:start;mix-blend-mode:normal;fill:#b71c1c;stroke:none;stroke-width:0;stroke-linecap:butt;stroke-linejoin:miter;stroke-miterlimit:10;stroke-dasharray:none;stroke-dashoffset:0"
     id="polygon169"
     points="33830,29330 33830,29070 "
     transform="matrix(-1,0,0,1,89708.333,5291.6669)" />
  <path
     style="font-weight:normal;font-size:medium;font-family:sans-serif;text-anchor:start;mix-blend-mode:normal;fill:#b71c1c;stroke:none;stroke-width:0;stroke-linecap:butt;stroke-linejoin:miter;stroke-miterlimit:10;stroke-dasharray:none;stroke-dashoffset:0"
     inkscape:connector-curvature="0"
     id="path171"
     d="m 40008.33,39192.17 c 0.276,0 0.5,-0.224 0.5,-0.5 v -900 c 0,-0.276 -0.224,-0.5 -0.5,-0.5 h -800 c -0.276,0 -0.5,0.224 -0.5,0.5 v 900 c 0,0.276 0.224,0.5 0.5,0.5 z" />
  <path
     style="font-weight:normal;font-size:medium;font-family:sans-serif;text-anchor:start;mix-blend-mode:normal;fill:#b71c1c;stroke:none;stroke-width:0;stroke-linecap:butt;stroke-linejoin:miter;stroke-miterlimit:10;stroke-dasharray:none;stroke-dashoffset:0"
     inkscape:connector-curvature="0"
     id="path173"
     d="m 39708.33,35692.17 c 0.276,0 0.5,-0.224 0.5,-0.5 v -800 c 0,-0.276 -0.224,-0.5 -0.5,-0.5 h -900 c -0.276,0 -0.5,0.224 -0.5,0.5 v 800 c 0,0.276 0.224,0.5 0.5,0.5 z" />
  <path
     style="font-weight:normal;font-size:medium;font-family:sans-serif;text-anchor:start;mix-blend-mode:normal;fill:#b71c1c;stroke:none;stroke-width:0;stroke-linecap:butt;stroke-linejoin:miter;stroke-miterlimit:10;stroke-dasharray:none;stroke-dashoffset:0"
     inkscape:connector-curvature="0"
     id="path175"
     d="m 56308.33,39192.17 c 0.276,0 0.5,-0.224 0.5,-0.5 v -900 c 0,-0.276 -0.224,-0.5 -0.5,-0.5 h -800 c -0.276,0 -0.5,0.224 -0.5,0.5 v 900 c 0,0.276 0.224,0.5 0.5,0.5 z" />
  <path
     style="font-weight:normal;font-size:medium;font-family:sans-serif;text-anchor:start;mix-blend-mode:normal;fill:#b71c1c;stroke:none;stroke-width:0;stroke-linecap:butt;stroke-linejoin:miter;stroke-miterlimit:10;stroke-dasharray:none;stroke-dashoffset:0"
     inkscape:connector-curvature="0"
     id="path177"
     d="m 60608.33,39192.17 c 0.276,0 0.5,-0.224 0.5,-0.5 v -900 c 0,-0.276 -0.224,-0.5 -0.5,-0.5 h -800 c -0.276,0 -0.5,0.224 -0.5,0.5 v 900 c 0,0.276 0.224,0.5 0.5,0.5 z" />
  <path
     style="font-weight:normal;font-size:medium;font-family:sans-serif;text-anchor:start;mix-blend-mode:normal;fill:#b71c1c;stroke:none;stroke-width:0;stroke-linecap:butt;stroke-linejoin:miter;stroke-miterlimit:10;stroke-dasharray:none;stroke-dashoffset:0"
     inkscape:connector-curvature="0"
     id="path179"
     d="m 56008.33,35692.17 c 0.276,0 0.5,-0.224 0.5,-0.5 v -800 c 0,-0.276 -0.224,-0.5 -0.5,-0.5 h -900 c -0.276,0 -0.5,0.224 -0.5,0.5 v 800 c 0,0.276 0.224,0.5 0.5,0.5 z" />
  <path
     style="font-weight:normal;font-size:medium;font-family:sans-serif;text-anchor:start;mix-blend-mode:normal;fill:#b71c1c;stroke:none;stroke-width:0;stroke-linecap:butt;stroke-linejoin:miter;stroke-miterlimit:10;stroke-dasharray:none;stroke-dashoffset:0"
     inkscape:connector-curvature="0"
     id="path181"
     d="m 60308.33,35692.17 c 0.276,0 0.5,-0.224 0.5,-0.5 v -800 c 0,-0.276 -0.224,-0.5 -0.5,-0.5 h -900 c -0.276,0 -0.5,0.224 -0.5,0.5 v 800 c 0,0.276 0.224,0.5 0.5,0.5 z" />
  <path
     style="font-weight:normal;font-size:medium;font-family:sans-serif;text-anchor:start;mix-blend-mode:normal;fill:#b71c1c;stroke:none;stroke-width:0;stroke-linecap:butt;stroke-linejoin:miter;stroke-miterlimit:10;stroke-dasharray:none;stroke-dashoffset:0"
     inkscape:connector-curvature="0"
     id="path183"
     d="m 55608.33,32292.17 c 0.276,0 0.5,-0.224 0.5,-0.5 v -900 c 0,-0.276 -0.224,-0.5 -0.5,-0.5 h -800 c -0.276,0 -0.5,0.224 -0.5,0.5 v 900 c 0,0.276 0.224,0.5 0.5,0.5 z" />
  <path
     style="font-weight:normal;font-size:medium;font-family:sans-serif;text-anchor:start;mix-blend-mode:normal;fill:#b71c1c;stroke:none;stroke-width:0;stroke-linecap:butt;stroke-linejoin:miter;stroke-miterlimit:10;stroke-dasharray:none;stroke-dashoffset:0"
     inkscape:connector-curvature="0"
     id="path185"
     d="m 59908.33,32292.17 c 0.276,0 0.5,-0.224 0.5,-0.5 v -900 c 0,-0.276 -0.224,-0.5 -0.5,-0.5 h -800 c -0.276,0 -0.5,0.224 -0.5,0.5 v 900 c 0,0.276 0.224,0.5 0.5,0.5 z" />
  <path
     inkscape:connector-curvature="0"
     style="font-weight:normal;font-size:medium;font-family:sans-serif;text-anchor:start;mix-blend-mode:normal;fill:url(#color-1);stroke:none;stroke-width:1;stroke-linecap:butt;stroke-linejoin:miter;stroke-miterlimit:10;stroke-dasharray:none;stroke-dashoffset:0"
     id="path195"
     d="m 57838.33,21291.67 c 0,-71.797 -58.203,-130 -130,-130 -71.797,0 -130,58.203 -130,130 0,71.797 58.203,130 130,130 71.797,0 130,-58.203 130,-130 z" />
  <path
     inkscape:connector-curvature="0"
     style="font-weight:normal;font-size:medium;font-family:sans-serif;text-anchor:start;mix-blend-mode:normal;fill:url(#color-2);stroke:none;stroke-width:1;stroke-linecap:butt;stroke-linejoin:miter;stroke-miterlimit:10;stroke-dasharray:none;stroke-dashoffset:0"
     id="path197"
     d="m 69758.33,21291.67 c 0,-966.498 -783.502,-1750 -1750,-1750 -966.498,0 -1750,783.502 -1750,1750 0,966.498 783.502,1750 1750,1750 966.498,0 1750,-783.502 1750,-1750 z" />
  <path
     inkscape:connector-curvature="0"
     style="font-weight:normal;font-size:medium;font-family:sans-serif;text-anchor:start;mix-blend-mode:normal;fill:url(#color-3);stroke:none;stroke-width:1;stroke-linecap:butt;stroke-linejoin:miter;stroke-miterlimit:10;stroke-dasharray:none;stroke-dashoffset:0"
     id="path199"
     d="m 46838.33,46291.67 c 0,-71.797 -58.203,-130 -130,-130 -71.797,0 -130,58.203 -130,130 0,71.797 58.203,130 130,130 71.797,0 130,-58.203 130,-130 z" />
  <path
     inkscape:connector-curvature="0"
     style="font-weight:normal;font-size:medium;font-family:sans-serif;text-anchor:start;mix-blend-mode:normal;fill:url(#color-4);stroke:none;stroke-width:1;stroke-linecap:butt;stroke-linejoin:miter;stroke-miterlimit:10;stroke-dasharray:none;stroke-dashoffset:0"
     id="path201"
     d="m 58138.33,46291.67 c 0,-71.797 -58.203,-130 -130,-130 -71.797,0 -130,58.203 -130,130 0,71.797 58.203,130 130,130 71.797,0 130,-58.203 130,-130 z" />
  <path
     inkscape:connector-curvature="0"
     style="font-weight:normal;font-size:medium;font-family:sans-serif;text-anchor:start;mix-blend-mode:normal;fill:url(#color-5);stroke:none;stroke-width:1;stroke-linecap:butt;stroke-linejoin:miter;stroke-miterlimit:10;stroke-dasharray:none;stroke-dashoffset:0"
     id="path203"
     d="m 74838.33,50291.67 c 0,-71.797 -58.203,-130 -130,-130 -71.797,0 -130,58.203 -130,130 0,71.797 58.203,130 130,130 71.797,0 130,-58.203 130,-130 z" />
  <path
     inkscape:connector-curvature="0"
     style="font-weight:normal;font-size:medium;font-family:sans-serif;text-anchor:start;mix-blend-mode:normal;fill:url(#color-6);stroke:none;stroke-width:1;stroke-linecap:butt;stroke-linejoin:miter;stroke-miterlimit:10;stroke-dasharray:none;stroke-dashoffset:0"
     id="path205"
     d="m 45838.33,25291.67 c 0,-71.797 -58.203,-130 -130,-130 -71.797,0 -130,58.203 -130,130 0,71.797 58.203,130 130,130 71.797,0 130,-58.203 130,-130 z" />
  <path
     inkscape:connector-curvature="0"
     style="font-weight:normal;font-size:medium;font-family:sans-serif;text-anchor:start;mix-blend-mode:normal;fill:url(#color-7);stroke:none;stroke-width:1;stroke-linecap:butt;stroke-linejoin:miter;stroke-miterlimit:10;stroke-dasharray:none;stroke-dashoffset:0"
     id="path207"
     d="m 21458.33,25291.67 c 0,-966.498 -783.502,-1750 -1750,-1750 -966.498,0 -1750,783.502 -1750,1750 0,966.498 783.502,1750 1750,1750 966.498,0 1750,-783.502 1750,-1750 z" />
  <path
     inkscape:connector-curvature="0"
     style="font-weight:normal;font-size:medium;font-family:sans-serif;text-anchor:start;mix-blend-mode:normal;fill:url(#color-8);stroke:none;stroke-width:1;stroke-linecap:butt;stroke-linejoin:miter;stroke-miterlimit:10;stroke-dasharray:none;stroke-dashoffset:0"
     id="path209"
     d="m 76458.33,45291.67 c 0,-966.498 -783.502,-1750 -1750,-1750 -966.498,0 -1750,783.502 -1750,1750 0,966.498 783.502,1750 1750,1750 966.498,0 1750,-783.502 1750,-1750 z" />
  <path
     inkscape:connector-curvature="0"
     style="font-weight:normal;font-size:medium;font-family:sans-serif;text-anchor:start;mix-blend-mode:normal;fill:url(#color-9);stroke:none;stroke-width:1;stroke-linecap:butt;stroke-linejoin:miter;stroke-miterlimit:10;stroke-dasharray:none;stroke-dashoffset:0"
     id="path211"
     d="m 51838.33,50291.67 c 0,-71.797 -58.203,-130 -130,-130 -71.797,0 -130,58.203 -130,130 0,71.797 58.203,130 130,130 71.797,0 130,-58.203 130,-130 z" />
  <path
     inkscape:connector-curvature="0"
     style="font-weight:normal;font-size:medium;font-family:sans-serif;text-anchor:start;mix-blend-mode:normal;fill:url(#color-10);stroke:none;stroke-width:1;stroke-linecap:butt;stroke-linejoin:miter;stroke-miterlimit:10;stroke-dasharray:none;stroke-dashoffset:0"
     id="path213"
     d="m 56008.33,33291.67 c 0,-71.797 -58.203,-130 -130,-130 -71.797,0 -130,58.203 -130,130 0,71.797 58.203,130 130,130 71.797,0 130,-58.203 130,-130 z" />
  <path
     inkscape:connector-curvature="0"
     style="font-weight:normal;font-size:medium;font-family:sans-serif;text-anchor:start;mix-blend-mode:normal;fill:url(#color-11);stroke:none;stroke-width:1;stroke-linecap:butt;stroke-linejoin:miter;stroke-miterlimit:10;stroke-dasharray:none;stroke-dashoffset:0"
     id="path215"
     d="m 60308.33,33291.67 c 0,-71.797 -58.203,-130 -130,-130 -71.797,0 -130,58.203 -130,130 0,71.797 58.203,130 130,130 71.797,0 130,-58.203 130,-130 z" />
</svg>
