<?xml version="1.0" encoding="UTF-8" standalone="no"?>
<svg
   xmlns:dc="http://purl.org/dc/elements/1.1/"
   xmlns:cc="http://creativecommons.org/ns#"
   xmlns:rdf="http://www.w3.org/1999/02/22-rdf-syntax-ns#"
   xmlns:svg="http://www.w3.org/2000/svg"
   xmlns="http://www.w3.org/2000/svg"
   xmlns:sodipodi="http://sodipodi.sourceforge.net/DTD/sodipodi-0.dtd"
   xmlns:inkscape="http://www.inkscape.org/namespaces/inkscape"
   width="135mm"
   height="85mm"
   viewBox="0 0 135000 85000"
   version="1.1"
   id="svg131"
   sodipodi:docname="C2_250_100.svg"
   inkscape:version="0.92.1 r15371">
  <metadata
     id="metadata135">
    <rdf:RDF>
      <cc:Work
         rdf:about="">
        <dc:format>image/svg+xml</dc:format>
        <dc:type
           rdf:resource="http://purl.org/dc/dcmitype/StillImage" />
        <dc:title></dc:title>
      </cc:Work>
    </rdf:RDF>
  </metadata>
  <sodipodi:namedview
     pagecolor="#ffffff"
     bordercolor="#666666"
     borderopacity="1"
     objecttolerance="10"
     gridtolerance="10"
     guidetolerance="10"
     inkscape:pageopacity="0"
     inkscape:pageshadow="2"
     inkscape:window-width="1536"
     inkscape:window-height="801"
     id="namedview133"
     showgrid="false"
     inkscape:zoom="1.5909466"
     inkscape:cx="344.4348"
     inkscape:cy="153.0554"
     inkscape:window-x="-8"
     inkscape:window-y="-8"
     inkscape:window-maximized="1"
     inkscape:current-layer="svg131" />
  <defs
     id="defs57">
    <radialGradient
       cx="49500"
       cy="32450"
       r="550"
       gradientUnits="userSpaceOnUse"
       id="color-1"
       gradientTransform="matrix(-1,0,0,1,135000,0)">
      <stop
         offset="1"
         stop-color="#f44336"
         id="stop2" />
      <stop
         offset="1"
         stop-color="#b71c1c"
         id="stop4" />
    </radialGradient>
    <radialGradient
       cx="45100"
       cy="32450"
       r="550"
       gradientUnits="userSpaceOnUse"
       id="color-2"
       gradientTransform="matrix(-1,0,0,1,135000,0)">
      <stop
         offset="1"
         stop-color="#f44336"
         id="stop7" />
      <stop
         offset="1"
         stop-color="#b71c1c"
         id="stop9" />
    </radialGradient>
    <radialGradient
       cx="58150"
       cy="30000"
       r="550"
       gradientUnits="userSpaceOnUse"
       id="color-3"
       gradientTransform="matrix(-1,0,0,1,135000,0)">
      <stop
         offset="1"
         stop-color="#f44336"
         id="stop12" />
      <stop
         offset="1"
         stop-color="#b71c1c"
         id="stop14" />
    </radialGradient>
    <radialGradient
       cx="57760"
       cy="32450"
       r="550"
       gradientUnits="userSpaceOnUse"
       id="color-4"
       gradientTransform="matrix(-1,0,0,1,135000,0)">
      <stop
         offset="1"
         stop-color="#f44336"
         id="stop17" />
      <stop
         offset="1"
         stop-color="#b71c1c"
         id="stop19" />
    </radialGradient>
    <radialGradient
       cx="50250"
       cy="27550"
       r="550"
       gradientUnits="userSpaceOnUse"
       id="color-5"
       gradientTransform="matrix(-1,0,0,1,135000,0)">
      <stop
         offset="1"
         stop-color="#f44336"
         id="stop22" />
      <stop
         offset="1"
         stop-color="#b71c1c"
         id="stop24" />
    </radialGradient>
    <radialGradient
       cx="45800"
       cy="27550"
       r="550"
       gradientUnits="userSpaceOnUse"
       id="color-6"
       gradientTransform="matrix(-1,0,0,1,135000,0)">
      <stop
         offset="1"
         stop-color="#f44336"
         id="stop27" />
      <stop
         offset="1"
         stop-color="#b71c1c"
         id="stop29" />
    </radialGradient>
    <radialGradient
       cx="49850"
       cy="30000"
       r="550"
       gradientUnits="userSpaceOnUse"
       id="color-7"
       gradientTransform="matrix(-1,0,0,1,135000,0)">
      <stop
         offset="1"
         stop-color="#f44336"
         id="stop32" />
      <stop
         offset="1"
         stop-color="#b71c1c"
         id="stop34" />
    </radialGradient>
    <radialGradient
       cx="45450"
       cy="30000"
       r="550"
       gradientUnits="userSpaceOnUse"
       id="color-8"
       gradientTransform="matrix(-1,0,0,1,135000,0)">
      <stop
         offset="1"
         stop-color="#f44336"
         id="stop37" />
      <stop
         offset="1"
         stop-color="#b71c1c"
         id="stop39" />
    </radialGradient>
    <radialGradient
       cx="27000"
       cy="18000"
       r="2020"
       gradientUnits="userSpaceOnUse"
       id="color-9"
       gradientTransform="matrix(-1,0,0,1,135000,0)">
      <stop
         offset="1"
         stop-color="#ef5350"
         id="stop42" />
      <stop
         offset="1"
         stop-color="#b71c1c"
         id="stop44" />
    </radialGradient>
    <radialGradient
       cx="30000"
       cy="50000"
       r="2020"
       gradientUnits="userSpaceOnUse"
       id="color-10"
       gradientTransform="matrix(-1,0,0,1,135000,0)">
      <stop
         offset="1"
         stop-color="#ef5350"
         id="stop47" />
      <stop
         offset="1"
         stop-color="#b71c1c"
         id="stop49" />
    </radialGradient>
    <radialGradient
       cx="70000"
       cy="18000"
       r="2020"
       gradientUnits="userSpaceOnUse"
       id="color-11"
       gradientTransform="matrix(-1,0,0,1,135000,0)">
      <stop
         offset="1"
         stop-color="#ef5350"
         id="stop52" />
      <stop
         offset="1"
         stop-color="#b71c1c"
         id="stop54" />
    </radialGradient>
  </defs>
  <path
     style="font-weight:normal;font-size:medium;font-family:sans-serif;text-anchor:start;mix-blend-mode:normal;fill:#b71c1c;stroke:none;stroke-width:1;stroke-linecap:butt;stroke-linejoin:miter;stroke-miterlimit:10;stroke-dasharray:none;stroke-dashoffset:0"
     inkscape:connector-curvature="0"
     id="path59"
     d="m 87000,17870 c -71.797,0 -130,58.203 -130,130 v 0 c 0,71.797 58.203,130 130,130 h 21000 c 71.8,0 130,-58.203 130,-130 v 0 c 0,-71.797 -58.2,-130 -130,-130 z" />
  <path
     style="font-weight:normal;font-size:medium;font-family:sans-serif;text-anchor:start;mix-blend-mode:normal;fill:#b71c1c;stroke:none;stroke-width:1;stroke-linecap:butt;stroke-linejoin:miter;stroke-miterlimit:10;stroke-dasharray:none;stroke-dashoffset:0"
     inkscape:connector-curvature="0"
     id="path61"
     d="m 79000,41870 c -71.797,0 -130,58.203 -130,130 v 0 c 0,71.797 58.203,130 130,130 h 26000 c 71.8,0 130,-58.203 130,-130 v 0 c 0,-71.797 -58.2,-130 -130,-130 z" />
  <path
     style="font-weight:normal;font-size:medium;font-family:sans-serif;text-anchor:start;mix-blend-mode:normal;fill:#b71c1c;stroke:none;stroke-width:1;stroke-linecap:butt;stroke-linejoin:miter;stroke-miterlimit:10;stroke-dasharray:none;stroke-dashoffset:0"
     inkscape:connector-curvature="0"
     id="path63"
     d="m 67000,32370 c -71.797,0 -130,58.203 -130,130 v 0 c 0,71.797 58.203,130 130,130 h 10200 c 71.797,0 130,-58.203 130,-130 v 0 c 0,-71.797 -58.203,-130 -130,-130 z" />
  <path
     style="font-weight:normal;font-size:medium;font-family:sans-serif;text-anchor:start;mix-blend-mode:normal;fill:#b71c1c;stroke:none;stroke-width:1;stroke-linecap:butt;stroke-linejoin:miter;stroke-miterlimit:10;stroke-dasharray:none;stroke-dashoffset:0"
     inkscape:connector-curvature="0"
     id="path65"
     d="m 66870,34000 c 0,71.797 58.203,130 130,130 v 0 c 71.797,0 130,-58.203 130,-130 v -1500 c 0,-71.797 -58.203,-130 -130,-130 v 0 c -71.797,0 -130,58.203 -130,130 z" />
  <path
     style="font-weight:normal;font-size:medium;font-family:sans-serif;text-anchor:start;mix-blend-mode:normal;fill:#b71c1c;stroke:none;stroke-width:1;stroke-linecap:butt;stroke-linejoin:miter;stroke-miterlimit:10;stroke-dasharray:none;stroke-dashoffset:0"
     inkscape:connector-curvature="0"
     id="path67"
     d="m 67000,41870 c -71.797,0 -130,58.203 -130,130 v 0 c 0,71.797 58.203,130 130,130 h 12000 c 71.797,0 130,-58.203 130,-130 v 0 c 0,-71.797 -58.203,-130 -130,-130 z" />
  <path
     style="font-weight:normal;font-size:medium;font-family:sans-serif;text-anchor:start;mix-blend-mode:normal;fill:#b71c1c;stroke:none;stroke-width:1;stroke-linecap:butt;stroke-linejoin:miter;stroke-miterlimit:10;stroke-dasharray:none;stroke-dashoffset:0"
     inkscape:connector-curvature="0"
     id="path69"
     d="m 67130,34000 c 0,-71.797 -58.203,-130 -130,-130 v 0 c -71.797,0 -130,58.203 -130,130 v 8000 c 0,71.797 58.203,130 130,130 v 0 c 71.797,0 130,-58.203 130,-130 z" />
  <path
     style="font-weight:normal;font-size:medium;font-family:sans-serif;text-anchor:start;mix-blend-mode:normal;fill:#b71c1c;stroke:none;stroke-width:1;stroke-linecap:butt;stroke-linejoin:miter;stroke-miterlimit:10;stroke-dasharray:none;stroke-dashoffset:0"
     inkscape:connector-curvature="0"
     id="path71"
     d="m 105130,42000 c 0,-71.797 -58.2,-130 -130,-130 v 0 c -71.8,0 -130,58.203 -130,130 v 8000 c 0,71.797 58.2,130 130,130 v 0 c 71.8,0 130,-58.203 130,-130 z" />
  <path
     style="font-weight:normal;font-size:medium;font-family:sans-serif;text-anchor:start;mix-blend-mode:normal;fill:#b71c1c;stroke:none;stroke-width:1;stroke-linecap:butt;stroke-linejoin:miter;stroke-miterlimit:10;stroke-dasharray:none;stroke-dashoffset:0"
     inkscape:connector-curvature="0"
     id="path73"
     d="m 87830,39900 c 0,-71.797 -58.203,-130 -130,-130 v 0 c -71.797,0 -130,58.203 -130,130 v 2100 c 0,71.797 58.203,130 130,130 v 0 c 71.797,0 130,-58.203 130,-130 z" />
  <path
     style="font-weight:normal;font-size:medium;font-family:sans-serif;text-anchor:start;mix-blend-mode:normal;fill:#b71c1c;stroke:none;stroke-width:1;stroke-linecap:butt;stroke-linejoin:miter;stroke-miterlimit:10;stroke-dasharray:none;stroke-dashoffset:0"
     inkscape:connector-curvature="0"
     id="path75"
     d="m 87130,18000 c 0,-71.797 -58.203,-130 -130,-130 v 0 c -71.797,0 -130,58.203 -130,130 v 6000 c 0,71.797 58.203,130 130,130 v 0 c 71.797,0 130,-58.203 130,-130 z" />
  <path
     style="font-weight:normal;font-size:medium;font-family:sans-serif;text-anchor:start;mix-blend-mode:normal;fill:#b71c1c;stroke:none;stroke-width:1;stroke-linecap:butt;stroke-linejoin:miter;stroke-miterlimit:10;stroke-dasharray:none;stroke-dashoffset:0"
     inkscape:connector-curvature="0"
     id="path77"
     d="m 87830,36000 c 0,-71.797 -58.203,-130 -130,-130 v 0 c -71.797,0 -130,58.203 -130,130 v 3900 c 0,71.797 58.203,130 130,130 v 0 c 71.797,0 130,-58.203 130,-130 z" />
  <path
     style="font-weight:normal;font-size:medium;font-family:sans-serif;text-anchor:start;mix-blend-mode:normal;fill:#b71c1c;stroke:none;stroke-width:1;stroke-linecap:butt;stroke-linejoin:miter;stroke-miterlimit:10;stroke-dasharray:none;stroke-dashoffset:0"
     inkscape:connector-curvature="0"
     id="path79"
     d="m 87588.526,36066.884 c 36.939,61.566 116.793,81.529 178.358,44.59 v 0 c 61.566,-36.939 81.529,-116.793 44.59,-178.358 l -2100,-3500 c -36.939,-61.566 -116.793,-81.529 -178.358,-44.59 v 0 c -61.566,36.939 -81.529,116.793 -44.59,178.358 z" />
  <path
     style="font-weight:normal;font-size:medium;font-family:sans-serif;text-anchor:start;mix-blend-mode:normal;fill:#b71c1c;stroke:none;stroke-width:1;stroke-linecap:butt;stroke-linejoin:miter;stroke-miterlimit:10;stroke-dasharray:none;stroke-dashoffset:0"
     inkscape:connector-curvature="0"
     id="path81"
     d="m 90010.927,32467.788 c 37.438,-61.263 18.125,-141.276 -43.139,-178.715 v 0 c -61.263,-37.438 -141.276,-18.125 -178.715,43.138 l -2200,3600 c -37.438,61.264 -18.125,141.277 43.138,178.716 v 0 c 61.264,37.438 141.277,18.125 178.716,-43.139 z" />
  <path
     style="font-weight:normal;font-size:medium;font-family:sans-serif;text-anchor:start;mix-blend-mode:normal;fill:#b71c1c;stroke:none;stroke-width:1;stroke-linecap:butt;stroke-linejoin:miter;stroke-miterlimit:10;stroke-dasharray:none;stroke-dashoffset:0"
     inkscape:connector-curvature="0"
     id="path83"
     d="m 87110.063,23930.818 c -38.209,-60.786 -118.459,-79.089 -179.245,-40.881 v 0 c -60.786,38.209 -79.089,118.459 -40.881,179.245 l 2200,3500 c 38.209,60.786 118.459,79.089 179.245,40.881 v 0 c 60.786,-38.209 79.089,-118.459 40.881,-179.245 z" />
  <path
     style="font-weight:normal;font-size:medium;font-family:sans-serif;text-anchor:start;mix-blend-mode:normal;fill:#b71c1c;stroke:none;stroke-width:1;stroke-linecap:butt;stroke-linejoin:miter;stroke-miterlimit:10;stroke-dasharray:none;stroke-dashoffset:0"
     inkscape:connector-curvature="0"
     id="path85"
     d="m 84689.073,27532.211 c -37.438,61.264 -18.125,141.277 43.139,178.716 v 0 c 61.263,37.438 141.276,18.125 178.715,-43.138 l 2200,-3600 c 37.438,-61.264 18.125,-141.277 -43.138,-178.716 v 0 c -61.264,-37.438 -141.277,-18.125 -178.716,43.138 z" />
  <path
     style="font-weight:normal;font-size:medium;font-family:sans-serif;text-anchor:start;mix-blend-mode:normal;fill:#b71c1c;stroke:none;stroke-width:1;stroke-linecap:butt;stroke-linejoin:miter;stroke-miterlimit:10;stroke-dasharray:none;stroke-dashoffset:0"
     inkscape:connector-curvature="0"
     id="path87"
     d="m 78130,18000 c 0,-71.797 -58.203,-130 -130,-130 v 0 c -71.797,0 -130,58.203 -130,130 v 11000 c 0,71.797 58.203,130 130,130 v 0 c 71.797,0 130,-58.203 130,-130 z" />
  <path
     style="font-weight:normal;font-size:medium;font-family:sans-serif;text-anchor:start;mix-blend-mode:normal;fill:#b71c1c;stroke:none;stroke-width:1;stroke-linecap:butt;stroke-linejoin:miter;stroke-miterlimit:10;stroke-dasharray:none;stroke-dashoffset:0"
     inkscape:connector-curvature="0"
     id="path89"
     d="m 65000,17870 c -71.797,0 -130,58.203 -130,130 v 0 c 0,71.797 58.203,130 130,130 h 13000 c 71.797,0 130,-58.203 130,-130 v 0 c 0,-71.797 -58.203,-130 -130,-130 z" />
  <path
     style="font-weight:normal;font-size:medium;font-family:sans-serif;text-anchor:start;mix-blend-mode:normal;fill:#b71c1c;stroke:none;stroke-width:1;stroke-linecap:butt;stroke-linejoin:miter;stroke-miterlimit:10;stroke-dasharray:none;stroke-dashoffset:0"
     inkscape:connector-curvature="0"
     id="path91"
     d="m 91000,29130 c 71.797,0 130,-58.203 130,-130 v 0 c 0,-71.797 -58.203,-130 -130,-130 H 75500 c -71.797,0 -130,58.203 -130,130 v 0 c 0,71.797 58.203,130 130,130 z" />
  <path
     style="font-weight:normal;font-size:medium;font-family:sans-serif;text-anchor:start;mix-blend-mode:normal;fill:#b71c1c;stroke:none;stroke-width:1;stroke-linecap:butt;stroke-linejoin:miter;stroke-miterlimit:10;stroke-dasharray:none;stroke-dashoffset:0"
     inkscape:connector-curvature="0"
     id="path93"
     d="m 75579.262,28896.959 c -56.908,-43.776 -138.528,-33.129 -182.303,23.779 v 0 c -43.776,56.908 -33.129,138.528 23.779,182.303 l 1300,1000 c 56.908,43.776 138.528,33.129 182.303,-23.779 v 0 c 43.776,-56.908 33.129,-138.528 -23.779,-182.303 z" />
  <path
     style="font-weight:normal;font-size:medium;font-family:sans-serif;text-anchor:start;mix-blend-mode:normal;fill:#b71c1c;stroke:none;stroke-width:1;stroke-linecap:butt;stroke-linejoin:miter;stroke-miterlimit:10;stroke-dasharray:none;stroke-dashoffset:0"
     inkscape:connector-curvature="0"
     id="path95"
     d="m 85224.439,29894.215 c -58.424,41.731 -71.956,122.922 -30.224,181.346 v 0 c 41.731,58.424 122.922,71.956 181.346,30.224 l 1400,-1000 c 58.424,-41.731 71.956,-122.922 30.224,-181.346 v 0 c -41.731,-58.424 -122.922,-71.956 -181.346,-30.224 z" />
  <path
     style="font-weight:normal;font-size:medium;font-family:sans-serif;text-anchor:start;mix-blend-mode:normal;fill:#b71c1c;stroke:none;stroke-width:1;stroke-linecap:butt;stroke-linejoin:miter;stroke-miterlimit:10;stroke-dasharray:none;stroke-dashoffset:0"
     inkscape:connector-curvature="0"
     id="path97"
     d="m 91075.561,29105.785 c 58.424,-41.731 71.956,-122.922 30.224,-181.346 v 0 c -41.731,-58.424 -122.922,-71.956 -181.346,-30.224 l -1400,1000 c -58.424,41.731 -71.956,122.922 -30.224,181.346 v 0 c 41.731,58.424 122.922,71.956 181.346,30.224 z" />
</svg>
