<?xml version="1.0" encoding="UTF-8" standalone="no"?>
<svg
   xmlns:dc="http://purl.org/dc/elements/1.1/"
   xmlns:cc="http://creativecommons.org/ns#"
   xmlns:rdf="http://www.w3.org/1999/02/22-rdf-syntax-ns#"
   xmlns:svg="http://www.w3.org/2000/svg"
   xmlns="http://www.w3.org/2000/svg"
   xmlns:sodipodi="http://sodipodi.sourceforge.net/DTD/sodipodi-0.dtd"
   xmlns:inkscape="http://www.inkscape.org/namespaces/inkscape"
   width="135mm"
   height="85mm"
   viewBox="0 0 135000 85000"
   version="1.1"
   id="svg125"
   sodipodi:docname="C_150_100.svg"
   inkscape:version="0.92.1 r15371">
  <metadata
     id="metadata129">
    <rdf:RDF>
      <cc:Work
         rdf:about="">
        <dc:format>image/svg+xml</dc:format>
        <dc:type
           rdf:resource="http://purl.org/dc/dcmitype/StillImage" />
        <dc:title />
      </cc:Work>
    </rdf:RDF>
  </metadata>
  <sodipodi:namedview
     pagecolor="#ffffff"
     bordercolor="#666666"
     borderopacity="1"
     objecttolerance="10"
     gridtolerance="10"
     guidetolerance="10"
     inkscape:pageopacity="0"
     inkscape:pageshadow="2"
     inkscape:window-width="1536"
     inkscape:window-height="801"
     id="namedview127"
     showgrid="false"
     inkscape:zoom="1.5909466"
     inkscape:cx="322.08605"
     inkscape:cy="175.89658"
     inkscape:window-x="-8"
     inkscape:window-y="-8"
     inkscape:window-maximized="1"
     inkscape:current-layer="svg125" />
  <defs
     id="defs17">
    <radialGradient
       cx="20000"
       cy="44000"
       r="2020"
       gradientUnits="userSpaceOnUse"
       id="color-1"
       gradientTransform="matrix(-1,0,0,1,135000,0)">
      <stop
         offset="1"
         stop-color="#ef5350"
         id="stop2" />
      <stop
         offset="1"
         stop-color="#b71c1c"
         id="stop4" />
    </radialGradient>
    <radialGradient
       cx="20000"
       cy="20000"
       r="2020"
       gradientUnits="userSpaceOnUse"
       id="color-2"
       gradientTransform="matrix(-1,0,0,1,135000,0)">
      <stop
         offset="1"
         stop-color="#ef5350"
         id="stop7" />
      <stop
         offset="1"
         stop-color="#b71c1c"
         id="stop9" />
    </radialGradient>
    <radialGradient
       cx="70000"
       cy="20000"
       r="2020"
       gradientUnits="userSpaceOnUse"
       id="color-3"
       gradientTransform="matrix(-1,0,0,1,135000,0)">
      <stop
         offset="1"
         stop-color="#ef5350"
         id="stop12" />
      <stop
         offset="1"
         stop-color="#b71c1c"
         id="stop14" />
    </radialGradient>
  </defs>
  <path
     style="font-weight:normal;font-size:medium;font-family:sans-serif;text-anchor:start;mix-blend-mode:normal;fill:#b71c1c;stroke:none;stroke-width:0.00377953;stroke-linecap:butt;stroke-linejoin:miter;stroke-miterlimit:10;stroke-dasharray:none;stroke-dashoffset:0"
     d="M 349.60547 56.201172 C 349.33411 56.201172 349.11523 56.422001 349.11523 56.693359 L 349.11523 68.03125 L 349.11523 95.886719 L 345.82617 95.886719 C 345.55481 95.886719 345.33594 96.107548 345.33594 96.378906 C 345.33594 96.650265 345.55481 96.869141 345.82617 96.869141 L 353.76367 96.869141 C 354.03503 96.869141 354.25586 96.650265 354.25586 96.378906 C 354.25586 96.107548 354.03503 95.886719 353.76367 95.886719 L 350.09766 95.886719 L 350.09766 68.03125 L 350.09766 57.183594 L 351.49609 57.183594 L 407.69727 57.183594 L 407.69727 68.03125 L 407.69727 75.589844 C 407.69727 75.861202 407.91808 76.082031 408.18945 76.082031 L 434.64648 76.082031 C 434.91785 76.082031 435.13672 75.861202 435.13672 75.589844 C 435.13672 75.318485 434.91785 75.099609 434.64648 75.099609 L 408.67969 75.099609 L 408.67969 68.03125 L 408.67969 56.693359 C 408.67969 56.422001 408.46082 56.201172 408.18945 56.201172 L 351.49609 56.201172 L 349.60547 56.201172 z M 245.66992 75.099609 C 245.39856 75.099609 245.17773 75.318485 245.17773 75.589844 C 245.17773 75.861202 245.39856 76.082031 245.66992 76.082031 L 283.26172 76.082031 L 309.57422 102.39453 C 309.61955 102.43986 309.67421 102.47509 309.73438 102.5 C 309.73438 102.5 309.73633 102.50195 309.73633 102.50195 C 309.79362 102.52536 309.85616 102.53906 309.92188 102.53906 L 328.32812 102.53906 L 328.32812 105.33594 L 313.32227 105.33594 C 313.05091 105.33594 312.83203 105.55481 312.83203 105.82617 L 312.83203 108.09375 C 312.83203 108.36511 313.05091 108.58594 313.32227 108.58594 C 313.59362 108.58594 313.81445 108.36511 313.81445 108.09375 L 313.81445 106.31836 L 344.58008 106.31836 L 344.58008 109.22852 C 344.58008 109.49987 344.79895 109.71875 345.07031 109.71875 C 345.34167 109.71875 345.5625 109.49987 345.5625 109.22852 L 345.5625 106.31836 L 355.27539 106.31836 L 361.58789 106.31836 L 361.58789 108.47266 C 361.58789 108.74401 361.80677 108.96289 362.07812 108.96289 C 362.34948 108.96289 362.57031 108.74401 362.57031 108.47266 L 362.57031 105.82617 C 362.57031 105.55481 362.34948 105.33594 362.07812 105.33594 L 355.27539 105.33594 L 329.31055 105.33594 L 329.31055 102.04688 C 329.31055 101.77552 329.08972 101.55664 328.81836 101.55664 L 310.12695 101.55664 L 283.8125 75.242188 C 283.76804 75.19773 283.71503 75.163535 283.65625 75.138672 C 283.59525 75.112918 283.52999 75.099609 283.46484 75.099609 L 245.66992 75.099609 z M 302.36133 129.90234 C 302.08997 129.90234 301.87109 130.12317 301.87109 130.39453 C 301.87109 130.66589 302.08997 130.88477 302.36133 130.88477 L 316.98828 130.88477 L 316.98828 166.29883 C 316.98828 166.57019 317.20911 166.79102 317.48047 166.79102 L 434.64648 166.79102 C 434.91785 166.79102 435.13672 166.57019 435.13672 166.29883 C 435.13672 166.02747 434.91785 165.80859 434.64648 165.80859 L 353.12109 165.80859 L 353.12109 147.54102 L 363.10938 131.26367 L 370.01562 131.26367 C 370.28698 131.26367 370.50781 131.04284 370.50781 130.77148 C 370.50781 130.50013 370.28698 130.28125 370.01562 130.28125 L 362.83398 130.28125 C 362.81733 130.28125 362.80334 130.2894 362.78711 130.29102 C 362.75071 130.29466 362.71631 130.29899 362.68164 130.31055 C 362.65092 130.32072 362.6234 130.33388 362.5957 130.34961 C 362.57015 130.36403 362.5463 130.37937 362.52344 130.39844 C 362.49486 130.42224 362.47177 130.4489 362.44922 130.47852 C 362.43899 130.49189 362.42502 130.50096 362.41602 130.51562 L 352.66406 146.40625 L 344.37305 130.54492 C 344.36345 130.52657 344.34742 130.51465 344.33594 130.49805 C 344.31384 130.46595 344.29258 130.43416 344.26367 130.4082 C 344.24227 130.38902 344.21747 130.3763 344.19336 130.36133 C 344.16431 130.34312 344.13622 130.32633 344.10352 130.31445 C 344.06871 130.30176 344.03296 130.29758 343.99609 130.29297 C 343.97598 130.29046 343.95829 130.28125 343.9375 130.28125 L 334.48828 130.28125 C 334.21692 130.28125 333.99609 130.50013 333.99609 130.77148 C 333.99609 131.04284 334.21692 131.26367 334.48828 131.26367 L 343.64062 131.26367 L 352.13867 147.52148 L 352.13867 165.80859 L 317.9707 165.80859 L 317.9707 130.39453 C 317.9707 130.12317 317.75183 129.90234 317.48047 129.90234 L 302.36133 129.90234 z "
     transform="scale(264.58333)"
     id="path19" />
</svg>
