<?xml version="1.0" encoding="UTF-8" standalone="no"?>
<svg
   xmlns:dc="http://purl.org/dc/elements/1.1/"
   xmlns:cc="http://creativecommons.org/ns#"
   xmlns:rdf="http://www.w3.org/1999/02/22-rdf-syntax-ns#"
   xmlns:svg="http://www.w3.org/2000/svg"
   xmlns="http://www.w3.org/2000/svg"
   xmlns:sodipodi="http://sodipodi.sourceforge.net/DTD/sodipodi-0.dtd"
   xmlns:inkscape="http://www.inkscape.org/namespaces/inkscape"
   width="135mm"
   height="85mm"
   viewBox="0 0 135000 85000"
   version="1.1"
   id="svg87"
   sodipodi:docname="C_150_100.svg"
   inkscape:version="0.92.1 r15371">
  <metadata
     id="metadata91">
    <rdf:RDF>
      <cc:Work
         rdf:about="">
        <dc:format>image/svg+xml</dc:format>
        <dc:type
           rdf:resource="http://purl.org/dc/dcmitype/StillImage" />
        <dc:title></dc:title>
      </cc:Work>
    </rdf:RDF>
  </metadata>
  <sodipodi:namedview
     pagecolor="#ffffff"
     bordercolor="#666666"
     borderopacity="1"
     objecttolerance="10"
     gridtolerance="10"
     guidetolerance="10"
     inkscape:pageopacity="0"
     inkscape:pageshadow="2"
     inkscape:window-width="1536"
     inkscape:window-height="801"
     id="namedview89"
     showgrid="false"
     inkscape:zoom="2.2499383"
     inkscape:cx="310.68591"
     inkscape:cy="172.97298"
     inkscape:window-x="-8"
     inkscape:window-y="-8"
     inkscape:window-maximized="1"
     inkscape:current-layer="svg87" />
  <defs
     id="defs17">
    <radialGradient
       cx="20000"
       cy="44000"
       r="2020"
       gradientUnits="userSpaceOnUse"
       id="color-1"
       gradientTransform="matrix(-1,0,0,1,135000,0)">
      <stop
         offset="1"
         stop-color="#ef5350"
         id="stop2" />
      <stop
         offset="1"
         stop-color="#b71c1c"
         id="stop4" />
    </radialGradient>
    <radialGradient
       cx="20000"
       cy="20000"
       r="2020"
       gradientUnits="userSpaceOnUse"
       id="color-2"
       gradientTransform="matrix(-1,0,0,1,135000,0)">
      <stop
         offset="1"
         stop-color="#ef5350"
         id="stop7" />
      <stop
         offset="1"
         stop-color="#b71c1c"
         id="stop9" />
    </radialGradient>
    <radialGradient
       cx="70000"
       cy="20000"
       r="2020"
       gradientUnits="userSpaceOnUse"
       id="color-3"
       gradientTransform="matrix(-1,0,0,1,135000,0)">
      <stop
         offset="1"
         stop-color="#ef5350"
         id="stop12" />
      <stop
         offset="1"
         stop-color="#b71c1c"
         id="stop14" />
    </radialGradient>
  </defs>
  <path
     style="font-weight:normal;font-size:medium;font-family:sans-serif;text-anchor:start;mix-blend-mode:normal;fill:#b71c1c;stroke:none;stroke-width:0.00377953;stroke-linecap:butt;stroke-linejoin:miter;stroke-miterlimit:10;stroke-dasharray:none;stroke-dashoffset:0"
     d="M 349.60547 56.201172 C 349.33411 56.201172 349.11523 56.422001 349.11523 56.693359 L 349.11523 68.03125 L 349.11523 95.886719 L 342.04688 95.886719 C 341.77552 95.886719 341.55664 96.107548 341.55664 96.378906 C 341.55664 96.650265 341.77552 96.869141 342.04688 96.869141 L 357.54297 96.869141 C 357.81433 96.869141 358.03516 96.650265 358.03516 96.378906 C 358.03516 96.107548 357.81433 95.886719 357.54297 95.886719 L 350.09766 95.886719 L 350.09766 68.03125 L 350.09766 57.183594 L 351.49609 57.183594 L 407.69727 57.183594 L 407.69727 68.03125 L 407.69727 75.589844 C 407.69727 75.861202 407.91808 76.082031 408.18945 76.082031 L 434.64648 76.082031 C 434.91785 76.082031 435.13672 75.861202 435.13672 75.589844 C 435.13672 75.318485 434.91785 75.099609 434.64648 75.099609 L 408.67969 75.099609 L 408.67969 68.03125 L 408.67969 56.693359 C 408.67969 56.422001 408.46082 56.201172 408.18945 56.201172 L 351.49609 56.201172 L 349.60547 56.201172 z M 245.66992 75.099609 C 245.39856 75.099609 245.17773 75.318485 245.17773 75.589844 C 245.17773 75.861202 245.39856 76.082031 245.66992 76.082031 L 283.26172 76.082031 L 312.85938 105.67969 C 312.84449 105.72661 312.83203 105.77432 312.83203 105.82617 L 312.83203 111.87305 C 312.83203 112.14441 313.05091 112.36523 313.32227 112.36523 C 313.59362 112.36523 313.81445 112.14441 313.81445 111.87305 L 313.81445 106.31836 L 344.58008 106.31836 L 344.58008 113.38672 C 344.58008 113.65808 344.79895 113.87695 345.07031 113.87695 C 345.34167 113.87695 345.5625 113.65808 345.5625 113.38672 L 345.5625 106.31836 L 355.27539 106.31836 L 361.58789 106.31836 L 361.58789 111.87305 C 361.58789 112.14441 361.80677 112.36523 362.07812 112.36523 C 362.34948 112.36523 362.57031 112.14441 362.57031 111.87305 L 362.57031 105.82617 C 362.57031 105.55481 362.34948 105.33594 362.07812 105.33594 L 355.27539 105.33594 L 313.90625 105.33594 L 283.8125 75.242188 C 283.76804 75.19773 283.71503 75.163535 283.65625 75.138672 C 283.59525 75.112918 283.52999 75.099609 283.46484 75.099609 L 245.66992 75.099609 z M 302.74023 130.28125 C 302.46888 130.28125 302.24805 130.50013 302.24805 130.77148 C 302.24805 131.04284 302.46888 131.26367 302.74023 131.26367 L 354.78516 131.26367 L 354.78516 166.29883 C 354.78516 166.57019 355.00403 166.79102 355.27539 166.79102 L 434.64648 166.79102 C 434.91785 166.79102 435.13672 166.57019 435.13672 166.29883 C 435.13672 166.02747 434.91785 165.80859 434.64648 165.80859 L 355.76758 165.80859 L 355.76758 131.26367 L 373.03906 131.26367 C 373.31042 131.26367 373.53125 131.04284 373.53125 130.77148 C 373.53125 130.50013 373.31042 130.28125 373.03906 130.28125 L 302.74023 130.28125 z "
     transform="scale(264.58333)"
     id="path19" />
</svg>
