<?xml version="1.0" encoding="UTF-8" standalone="no"?>
<svg
   xmlns:dc="http://purl.org/dc/elements/1.1/"
   xmlns:cc="http://creativecommons.org/ns#"
   xmlns:rdf="http://www.w3.org/1999/02/22-rdf-syntax-ns#"
   xmlns:svg="http://www.w3.org/2000/svg"
   xmlns="http://www.w3.org/2000/svg"
   xmlns:sodipodi="http://sodipodi.sourceforge.net/DTD/sodipodi-0.dtd"
   xmlns:inkscape="http://www.inkscape.org/namespaces/inkscape"
   width="135mm"
   height="85mm"
   viewBox="0 0 135000 85000"
   version="1.1"
   id="svg116"
   sodipodi:docname="C_25064.svg"
   inkscape:version="0.92.1 r15371">
  <metadata
     id="metadata120">
    <rdf:RDF>
      <cc:Work
         rdf:about="">
        <dc:format>image/svg+xml</dc:format>
        <dc:type
           rdf:resource="http://purl.org/dc/dcmitype/StillImage" />
        <dc:title></dc:title>
      </cc:Work>
    </rdf:RDF>
  </metadata>
  <sodipodi:namedview
     pagecolor="#ffffff"
     bordercolor="#666666"
     borderopacity="1"
     objecttolerance="10"
     gridtolerance="10"
     guidetolerance="10"
     inkscape:pageopacity="0"
     inkscape:pageshadow="2"
     inkscape:window-width="1536"
     inkscape:window-height="801"
     id="namedview118"
     showgrid="false"
     inkscape:zoom="3.1818932"
     inkscape:cx="334.48538"
     inkscape:cy="207.39084"
     inkscape:window-x="-8"
     inkscape:window-y="-8"
     inkscape:window-maximized="1"
     inkscape:current-layer="svg116" />
  <defs
     id="defs52">
    <radialGradient
       cx="53500"
       cy="30000"
       r="750"
       gradientUnits="userSpaceOnUse"
       id="color-1"
       gradientTransform="matrix(-1,0,0,1,135000,0)">
      <stop
         offset="1"
         stop-color="#f44336"
         id="stop2" />
      <stop
         offset="1"
         stop-color="#b71c1c"
         id="stop4" />
    </radialGradient>
    <radialGradient
       cx="53000"
       cy="33700"
       r="750"
       gradientUnits="userSpaceOnUse"
       id="color-2"
       gradientTransform="matrix(-1,0,0,1,135000,0)">
      <stop
         offset="1"
         stop-color="#f44336"
         id="stop7" />
      <stop
         offset="1"
         stop-color="#b71c1c"
         id="stop9" />
    </radialGradient>
    <radialGradient
       cx="36000"
       cy="33700"
       r="750"
       gradientUnits="userSpaceOnUse"
       id="color-3"
       gradientTransform="matrix(-1,0,0,1,135000,0)">
      <stop
         offset="1"
         stop-color="#f44336"
         id="stop12" />
      <stop
         offset="1"
         stop-color="#b71c1c"
         id="stop14" />
    </radialGradient>
    <radialGradient
       cx="33000"
       cy="33700"
       r="750"
       gradientUnits="userSpaceOnUse"
       id="color-4"
       gradientTransform="matrix(-1,0,0,1,135000,0)">
      <stop
         offset="1"
         stop-color="#f44336"
         id="stop17" />
      <stop
         offset="1"
         stop-color="#b71c1c"
         id="stop19" />
    </radialGradient>
    <radialGradient
       cx="33500"
       cy="30000"
       r="750"
       gradientUnits="userSpaceOnUse"
       id="color-5"
       gradientTransform="matrix(-1,0,0,1,135000,0)">
      <stop
         offset="1"
         stop-color="#f44336"
         id="stop22" />
      <stop
         offset="1"
         stop-color="#b71c1c"
         id="stop24" />
    </radialGradient>
    <radialGradient
       cx="36500"
       cy="30000"
       r="750"
       gradientUnits="userSpaceOnUse"
       id="color-6"
       gradientTransform="matrix(-1,0,0,1,135000,0)">
      <stop
         offset="1"
         stop-color="#f44336"
         id="stop27" />
      <stop
         offset="1"
         stop-color="#b71c1c"
         id="stop29" />
    </radialGradient>
    <radialGradient
       cx="37000"
       cy="26300"
       r="750"
       gradientUnits="userSpaceOnUse"
       id="color-7"
       gradientTransform="matrix(-1,0,0,1,135000,0)">
      <stop
         offset="1"
         stop-color="#f44336"
         id="stop32" />
      <stop
         offset="1"
         stop-color="#b71c1c"
         id="stop34" />
    </radialGradient>
    <radialGradient
       cx="34000"
       cy="26300"
       r="750"
       gradientUnits="userSpaceOnUse"
       id="color-8"
       gradientTransform="matrix(-1,0,0,1,135000,0)">
      <stop
         offset="1"
         stop-color="#f44336"
         id="stop37" />
      <stop
         offset="1"
         stop-color="#b71c1c"
         id="stop39" />
    </radialGradient>
    <radialGradient
       cx="30000"
       cy="50000"
       r="789"
       gradientUnits="userSpaceOnUse"
       id="color-9"
       gradientTransform="matrix(-1,0,0,1,135000,0)">
      <stop
         offset="1"
         stop-color="#ef5350"
         id="stop42" />
      <stop
         offset="1"
         stop-color="#b71c1c"
         id="stop44" />
    </radialGradient>
    <radialGradient
       cx="50000"
       cy="20000"
       r="789"
       gradientUnits="userSpaceOnUse"
       id="color-10"
       gradientTransform="matrix(-1,0,0,1,135000,0)">
      <stop
         offset="1"
         stop-color="#ef5350"
         id="stop47" />
      <stop
         offset="1"
         stop-color="#b71c1c"
         id="stop49" />
    </radialGradient>
  </defs>
  <path
     style="font-weight:normal;font-size:medium;font-family:sans-serif;text-anchor:start;mix-blend-mode:normal;fill:#b71c1c;stroke:none;stroke-width:0.00377953;stroke-linecap:butt;stroke-linejoin:miter;stroke-miterlimit:10;stroke-dasharray:none;stroke-dashoffset:0"
     d="M 321.25977 74.833984 C 320.84229 74.833984 320.50391 75.172368 320.50391 75.589844 C 320.50391 76.007319 320.84229 76.345703 321.25977 76.345703 L 343.18164 76.345703 L 343.18164 120.18945 L 314.07812 120.18945 L 308.63672 112.93164 C 308.38623 112.59766 307.91211 112.53077 307.57812 112.78125 C 307.24414 113.03173 307.17725 113.50586 307.42773 113.83984 L 313.0957 121.39844 C 313.10697 121.41346 313.12458 121.41965 313.13672 121.43359 C 313.17063 121.47266 313.20883 121.50373 313.25 121.53516 C 313.28828 121.56431 313.32484 121.59227 313.36719 121.61328 C 313.40812 121.63379 313.45133 121.64533 313.49609 121.6582 C 313.54711 121.6728 313.59557 121.68577 313.64844 121.68945 C 313.66682 121.69079 313.68245 121.70117 313.70117 121.70117 L 377.95312 121.70117 C 377.97544 121.70117 377.9938 121.68939 378.01562 121.6875 C 378.06963 121.68293 378.12003 121.67218 378.17188 121.65625 C 378.21342 121.64339 378.25287 121.63082 378.29102 121.61133 C 378.33908 121.5871 378.38128 121.55615 378.42383 121.52148 C 378.45871 121.49296 378.49025 121.46392 378.51953 121.42969 C 378.5358 121.41075 378.55765 121.39979 378.57227 121.37891 L 383.86328 113.81836 C 384.10268 113.47635 384.01974 113.00503 383.67773 112.76562 C 383.33572 112.52622 382.86443 112.61112 382.625 112.95312 L 377.55859 120.18945 L 368.125 120.18945 L 372.88867 113.83984 C 373.13916 113.50586 373.07031 113.03173 372.73633 112.78125 C 372.40235 112.53077 371.93017 112.59766 371.67969 112.93164 L 366.23633 120.18945 L 344.69336 120.18945 L 344.69336 75.589844 C 344.69336 75.172368 344.35498 74.833984 343.9375 74.833984 L 321.25977 74.833984 z M 376.0625 78.613281 C 375.64502 78.613281 375.30664 78.951665 375.30664 79.369141 L 375.30664 98.646484 L 370.77148 98.646484 C 370.35401 98.646484 370.01562 98.984868 370.01562 99.402344 C 370.01562 99.819819 370.35401 100.1582 370.77148 100.1582 L 382.10938 100.1582 C 382.52686 100.1582 382.86523 99.819819 382.86523 99.402344 C 382.86523 98.984868 382.52686 98.646484 382.10938 98.646484 L 376.81836 98.646484 L 376.81836 80.126953 L 377.95312 80.126953 L 426.33008 80.126953 L 426.33008 150.42578 L 396.84961 150.42578 L 344.69336 150.42578 L 344.69336 128.50391 L 344.69336 128.12695 L 385.89062 128.12695 C 386.30811 128.12695 386.64648 127.78662 386.64648 127.36914 C 386.64648 126.95167 386.30811 126.61328 385.89062 126.61328 L 309.54297 126.61328 C 309.12549 126.61328 308.78711 126.95167 308.78711 127.36914 C 308.78711 127.78662 309.12549 128.12695 309.54297 128.12695 L 343.18164 128.12695 L 343.18164 128.50391 L 343.18164 151.18164 C 343.18164 151.59912 343.52002 151.9375 343.9375 151.9375 L 396.09375 151.9375 L 396.09375 188.97656 C 396.09375 189.39404 396.43212 189.73242 396.84961 189.73242 C 397.2671 189.73242 397.60547 189.39404 397.60547 188.97656 L 397.60547 151.9375 L 427.08594 151.9375 C 427.50342 151.9375 427.8418 151.59912 427.8418 151.18164 L 427.8418 79.369141 C 427.8418 78.951665 427.50342 78.613281 427.08594 78.613281 L 377.95312 78.613281 L 376.0625 78.613281 z "
     transform="scale(264.58333)"
     id="path54" />
</svg>
