<?xml version="1.0" encoding="UTF-8" standalone="no"?>
<svg
   xmlns:dc="http://purl.org/dc/elements/1.1/"
   xmlns:cc="http://creativecommons.org/ns#"
   xmlns:rdf="http://www.w3.org/1999/02/22-rdf-syntax-ns#"
   xmlns:svg="http://www.w3.org/2000/svg"
   xmlns="http://www.w3.org/2000/svg"
   xmlns:sodipodi="http://sodipodi.sourceforge.net/DTD/sodipodi-0.dtd"
   xmlns:inkscape="http://www.inkscape.org/namespaces/inkscape"
   width="135mm"
   height="85mm"
   viewBox="0 0 135000 85000"
   version="1.1"
   id="svg128"
   sodipodi:docname="C_250_32.svg"
   inkscape:version="0.92.1 r15371">
  <metadata
     id="metadata132">
    <rdf:RDF>
      <cc:Work
         rdf:about="">
        <dc:format>image/svg+xml</dc:format>
        <dc:type
           rdf:resource="http://purl.org/dc/dcmitype/StillImage" />
        <dc:title></dc:title>
      </cc:Work>
    </rdf:RDF>
  </metadata>
  <sodipodi:namedview
     pagecolor="#ffffff"
     bordercolor="#666666"
     borderopacity="1"
     objecttolerance="10"
     gridtolerance="10"
     guidetolerance="10"
     inkscape:pageopacity="0"
     inkscape:pageshadow="2"
     inkscape:window-width="1536"
     inkscape:window-height="801"
     id="namedview130"
     showgrid="false"
     inkscape:zoom="1.5909466"
     inkscape:cx="312.80283"
     inkscape:cy="135.41897"
     inkscape:window-x="-8"
     inkscape:window-y="-8"
     inkscape:window-maximized="1"
     inkscape:current-layer="svg128" />
  <defs
     id="defs52">
    <radialGradient
       cx="49500"
       cy="32450"
       r="450"
       gradientUnits="userSpaceOnUse"
       id="color-1"
       gradientTransform="matrix(-1,0,0,1,135000,0)">
      <stop
         offset="0.88889"
         stop-color="#f44336"
         id="stop2" />
      <stop
         offset="0.88889"
         stop-color="#b71c1c"
         id="stop4" />
    </radialGradient>
    <radialGradient
       cx="45100"
       cy="32450"
       r="450"
       gradientUnits="userSpaceOnUse"
       id="color-2"
       gradientTransform="matrix(-1,0,0,1,135000,0)">
      <stop
         offset="0.88889"
         stop-color="#f44336"
         id="stop7" />
      <stop
         offset="0.88889"
         stop-color="#b71c1c"
         id="stop9" />
    </radialGradient>
    <radialGradient
       cx="58150"
       cy="30000"
       r="450"
       gradientUnits="userSpaceOnUse"
       id="color-3"
       gradientTransform="matrix(-1,0,0,1,135000,0)">
      <stop
         offset="0.88889"
         stop-color="#f44336"
         id="stop12" />
      <stop
         offset="0.88889"
         stop-color="#b71c1c"
         id="stop14" />
    </radialGradient>
    <radialGradient
       cx="57760"
       cy="32450"
       r="450"
       gradientUnits="userSpaceOnUse"
       id="color-4"
       gradientTransform="matrix(-1,0,0,1,135000,0)">
      <stop
         offset="0.88889"
         stop-color="#f44336"
         id="stop17" />
      <stop
         offset="0.88889"
         stop-color="#b71c1c"
         id="stop19" />
    </radialGradient>
    <radialGradient
       cx="50250"
       cy="27550"
       r="450"
       gradientUnits="userSpaceOnUse"
       id="color-5"
       gradientTransform="matrix(-1,0,0,1,135000,0)">
      <stop
         offset="0.88889"
         stop-color="#f44336"
         id="stop22" />
      <stop
         offset="0.88889"
         stop-color="#b71c1c"
         id="stop24" />
    </radialGradient>
    <radialGradient
       cx="45800"
       cy="27550"
       r="450"
       gradientUnits="userSpaceOnUse"
       id="color-6"
       gradientTransform="matrix(-1,0,0,1,135000,0)">
      <stop
         offset="0.88889"
         stop-color="#f44336"
         id="stop27" />
      <stop
         offset="0.88889"
         stop-color="#b71c1c"
         id="stop29" />
    </radialGradient>
    <radialGradient
       cx="49850"
       cy="30000"
       r="450"
       gradientUnits="userSpaceOnUse"
       id="color-7"
       gradientTransform="matrix(-1,0,0,1,135000,0)">
      <stop
         offset="0.88889"
         stop-color="#f44336"
         id="stop32" />
      <stop
         offset="0.88889"
         stop-color="#b71c1c"
         id="stop34" />
    </radialGradient>
    <radialGradient
       cx="45450"
       cy="30000"
       r="450"
       gradientUnits="userSpaceOnUse"
       id="color-8"
       gradientTransform="matrix(-1,0,0,1,135000,0)">
      <stop
         offset="0.88889"
         stop-color="#f44336"
         id="stop37" />
      <stop
         offset="0.88889"
         stop-color="#b71c1c"
         id="stop39" />
    </radialGradient>
    <radialGradient
       cx="30000"
       cy="50000"
       r="2020"
       gradientUnits="userSpaceOnUse"
       id="color-9"
       gradientTransform="matrix(-1,0,0,1,135000,0)">
      <stop
         offset="1"
         stop-color="#ef5350"
         id="stop42" />
      <stop
         offset="1"
         stop-color="#b71c1c"
         id="stop44" />
    </radialGradient>
    <radialGradient
       cx="70000"
       cy="18000"
       r="2020"
       gradientUnits="userSpaceOnUse"
       id="color-10"
       gradientTransform="matrix(-1,0,0,1,135000,0)">
      <stop
         offset="1"
         stop-color="#ef5350"
         id="stop47" />
      <stop
         offset="1"
         stop-color="#b71c1c"
         id="stop49" />
    </radialGradient>
  </defs>
  <path
     inkscape:connector-curvature="0"
     style="font-weight:normal;font-size:medium;font-family:sans-serif;text-anchor:start;mix-blend-mode:normal;fill:url(#color-1);stroke:none;stroke-width:1;stroke-linecap:butt;stroke-linejoin:miter;stroke-miterlimit:10;stroke-dasharray:none;stroke-dashoffset:0"
     id="path106"
     d="m 85950,32450 c 0,-248.528 -201.472,-450 -450,-450 -248.528,0 -450,201.472 -450,450 0,248.528 201.472,450 450,450 248.528,0 450,-201.472 450,-450 z" />
  <path
     inkscape:connector-curvature="0"
     style="font-weight:normal;font-size:medium;font-family:sans-serif;text-anchor:start;mix-blend-mode:normal;fill:url(#color-2);stroke:none;stroke-width:1;stroke-linecap:butt;stroke-linejoin:miter;stroke-miterlimit:10;stroke-dasharray:none;stroke-dashoffset:0"
     id="path108"
     d="m 90350,32450 c 0,-248.528 -201.472,-450 -450,-450 -248.528,0 -450,201.472 -450,450 0,248.528 201.472,450 450,450 248.528,0 450,-201.472 450,-450 z" />
  <path
     inkscape:connector-curvature="0"
     style="font-weight:normal;font-size:medium;font-family:sans-serif;text-anchor:start;mix-blend-mode:normal;fill:url(#color-3);stroke:none;stroke-width:1;stroke-linecap:butt;stroke-linejoin:miter;stroke-miterlimit:10;stroke-dasharray:none;stroke-dashoffset:0"
     id="path110"
     d="m 77300,30000 c 0,-248.528 -201.472,-450 -450,-450 -248.528,0 -450,201.472 -450,450 0,248.528 201.472,450 450,450 248.528,0 450,-201.472 450,-450 z" />
  <path
     inkscape:connector-curvature="0"
     style="font-weight:normal;font-size:medium;font-family:sans-serif;text-anchor:start;mix-blend-mode:normal;fill:url(#color-4);stroke:none;stroke-width:1;stroke-linecap:butt;stroke-linejoin:miter;stroke-miterlimit:10;stroke-dasharray:none;stroke-dashoffset:0"
     id="path112"
     d="m 77690,32450 c 0,-248.528 -201.472,-450 -450,-450 -248.528,0 -450,201.472 -450,450 0,248.528 201.472,450 450,450 248.528,0 450,-201.472 450,-450 z" />
  <path
     inkscape:connector-curvature="0"
     style="font-weight:normal;font-size:medium;font-family:sans-serif;text-anchor:start;mix-blend-mode:normal;fill:url(#color-5);stroke:none;stroke-width:1;stroke-linecap:butt;stroke-linejoin:miter;stroke-miterlimit:10;stroke-dasharray:none;stroke-dashoffset:0"
     id="path114"
     d="m 85200,27550 c 0,-248.528 -201.472,-450 -450,-450 -248.528,0 -450,201.472 -450,450 0,248.528 201.472,450 450,450 248.528,0 450,-201.472 450,-450 z" />
  <path
     inkscape:connector-curvature="0"
     style="font-weight:normal;font-size:medium;font-family:sans-serif;text-anchor:start;mix-blend-mode:normal;fill:url(#color-6);stroke:none;stroke-width:1;stroke-linecap:butt;stroke-linejoin:miter;stroke-miterlimit:10;stroke-dasharray:none;stroke-dashoffset:0"
     id="path116"
     d="m 89650,27550 c 0,-248.528 -201.472,-450 -450,-450 -248.528,0 -450,201.472 -450,450 0,248.528 201.472,450 450,450 248.528,0 450,-201.472 450,-450 z" />
  <path
     inkscape:connector-curvature="0"
     style="font-weight:normal;font-size:medium;font-family:sans-serif;text-anchor:start;mix-blend-mode:normal;fill:url(#color-7);stroke:none;stroke-width:1;stroke-linecap:butt;stroke-linejoin:miter;stroke-miterlimit:10;stroke-dasharray:none;stroke-dashoffset:0"
     id="path118"
     d="m 85600,30000 c 0,-248.528 -201.472,-450 -450,-450 -248.528,0 -450,201.472 -450,450 0,248.528 201.472,450 450,450 248.528,0 450,-201.472 450,-450 z" />
  <path
     inkscape:connector-curvature="0"
     style="font-weight:normal;font-size:medium;font-family:sans-serif;text-anchor:start;mix-blend-mode:normal;fill:url(#color-8);stroke:none;stroke-width:1;stroke-linecap:butt;stroke-linejoin:miter;stroke-miterlimit:10;stroke-dasharray:none;stroke-dashoffset:0"
     id="path120"
     d="m 90000,30000 c 0,-248.528 -201.472,-450 -450,-450 -248.528,0 -450,201.472 -450,450 0,248.528 201.472,450 450,450 248.528,0 450,-201.472 450,-450 z" />
</svg>
