<?xml version="1.0" encoding="UTF-8" standalone="no"?>
<svg
   xmlns:dc="http://purl.org/dc/elements/1.1/"
   xmlns:cc="http://creativecommons.org/ns#"
   xmlns:rdf="http://www.w3.org/1999/02/22-rdf-syntax-ns#"
   xmlns:svg="http://www.w3.org/2000/svg"
   xmlns="http://www.w3.org/2000/svg"
   xmlns:sodipodi="http://sodipodi.sourceforge.net/DTD/sodipodi-0.dtd"
   xmlns:inkscape="http://www.inkscape.org/namespaces/inkscape"
   width="135mm"
   height="85mm"
   viewBox="0 0 135000 85000"
   version="1.1"
   id="svg128"
   sodipodi:docname="C_250.svg"
   inkscape:version="0.92.1 r15371">
  <metadata
     id="metadata132">
    <rdf:RDF>
      <cc:Work
         rdf:about="">
        <dc:format>image/svg+xml</dc:format>
        <dc:type
           rdf:resource="http://purl.org/dc/dcmitype/StillImage" />
        <dc:title></dc:title>
      </cc:Work>
    </rdf:RDF>
  </metadata>
  <sodipodi:namedview
     pagecolor="#ffffff"
     bordercolor="#666666"
     borderopacity="1"
     objecttolerance="10"
     gridtolerance="10"
     guidetolerance="10"
     inkscape:pageopacity="0"
     inkscape:pageshadow="2"
     inkscape:window-width="1536"
     inkscape:window-height="801"
     id="namedview130"
     showgrid="false"
     inkscape:zoom="1.5909466"
     inkscape:cx="312.80283"
     inkscape:cy="135.41897"
     inkscape:window-x="-8"
     inkscape:window-y="-8"
     inkscape:window-maximized="1"
     inkscape:current-layer="svg128" />
  <defs
     id="defs52">
    <radialGradient
       cx="49500"
       cy="32450"
       r="450"
       gradientUnits="userSpaceOnUse"
       id="color-1"
       gradientTransform="matrix(-1,0,0,1,135000,0)">
      <stop
         offset="0.88889"
         stop-color="#f44336"
         id="stop2" />
      <stop
         offset="0.88889"
         stop-color="#b71c1c"
         id="stop4" />
    </radialGradient>
    <radialGradient
       cx="45100"
       cy="32450"
       r="450"
       gradientUnits="userSpaceOnUse"
       id="color-2"
       gradientTransform="matrix(-1,0,0,1,135000,0)">
      <stop
         offset="0.88889"
         stop-color="#f44336"
         id="stop7" />
      <stop
         offset="0.88889"
         stop-color="#b71c1c"
         id="stop9" />
    </radialGradient>
    <radialGradient
       cx="58150"
       cy="30000"
       r="450"
       gradientUnits="userSpaceOnUse"
       id="color-3"
       gradientTransform="matrix(-1,0,0,1,135000,0)">
      <stop
         offset="0.88889"
         stop-color="#f44336"
         id="stop12" />
      <stop
         offset="0.88889"
         stop-color="#b71c1c"
         id="stop14" />
    </radialGradient>
    <radialGradient
       cx="57760"
       cy="32450"
       r="450"
       gradientUnits="userSpaceOnUse"
       id="color-4"
       gradientTransform="matrix(-1,0,0,1,135000,0)">
      <stop
         offset="0.88889"
         stop-color="#f44336"
         id="stop17" />
      <stop
         offset="0.88889"
         stop-color="#b71c1c"
         id="stop19" />
    </radialGradient>
    <radialGradient
       cx="50250"
       cy="27550"
       r="450"
       gradientUnits="userSpaceOnUse"
       id="color-5"
       gradientTransform="matrix(-1,0,0,1,135000,0)">
      <stop
         offset="0.88889"
         stop-color="#f44336"
         id="stop22" />
      <stop
         offset="0.88889"
         stop-color="#b71c1c"
         id="stop24" />
    </radialGradient>
    <radialGradient
       cx="45800"
       cy="27550"
       r="450"
       gradientUnits="userSpaceOnUse"
       id="color-6"
       gradientTransform="matrix(-1,0,0,1,135000,0)">
      <stop
         offset="0.88889"
         stop-color="#f44336"
         id="stop27" />
      <stop
         offset="0.88889"
         stop-color="#b71c1c"
         id="stop29" />
    </radialGradient>
    <radialGradient
       cx="49850"
       cy="30000"
       r="450"
       gradientUnits="userSpaceOnUse"
       id="color-7"
       gradientTransform="matrix(-1,0,0,1,135000,0)">
      <stop
         offset="0.88889"
         stop-color="#f44336"
         id="stop32" />
      <stop
         offset="0.88889"
         stop-color="#b71c1c"
         id="stop34" />
    </radialGradient>
    <radialGradient
       cx="45450"
       cy="30000"
       r="450"
       gradientUnits="userSpaceOnUse"
       id="color-8"
       gradientTransform="matrix(-1,0,0,1,135000,0)">
      <stop
         offset="0.88889"
         stop-color="#f44336"
         id="stop37" />
      <stop
         offset="0.88889"
         stop-color="#b71c1c"
         id="stop39" />
    </radialGradient>
    <radialGradient
       cx="30000"
       cy="50000"
       r="2020"
       gradientUnits="userSpaceOnUse"
       id="color-9"
       gradientTransform="matrix(-1,0,0,1,135000,0)">
      <stop
         offset="1"
         stop-color="#ef5350"
         id="stop42" />
      <stop
         offset="1"
         stop-color="#b71c1c"
         id="stop44" />
    </radialGradient>
    <radialGradient
       cx="70000"
       cy="18000"
       r="2020"
       gradientUnits="userSpaceOnUse"
       id="color-10"
       gradientTransform="matrix(-1,0,0,1,135000,0)">
      <stop
         offset="1"
         stop-color="#ef5350"
         id="stop47" />
      <stop
         offset="1"
         stop-color="#b71c1c"
         id="stop49" />
    </radialGradient>
  </defs>
  <path
     style="font-weight:normal;font-size:medium;font-family:sans-serif;text-anchor:start;mix-blend-mode:normal;fill:#b71c1c;stroke:none;stroke-width:0.00377953;stroke-linecap:butt;stroke-linejoin:miter;stroke-miterlimit:10;stroke-dasharray:none;stroke-dashoffset:0"
     d="M 245.66992 67.275391 C 245.25245 67.275391 244.91406 67.613775 244.91406 68.03125 C 244.91406 68.448725 245.25245 68.787109 245.66992 68.787109 L 294.04688 68.787109 L 294.04688 108.84961 L 285.35352 108.84961 C 285.33548 108.84961 285.32046 108.85813 285.30273 108.85938 C 285.2534 108.86273 285.20796 108.8758 285.16016 108.88867 C 285.11252 108.90163 285.06684 108.914 285.02344 108.93555 C 284.98226 108.95576 284.94757 108.9838 284.91016 109.01172 C 284.86839 109.04298 284.82742 109.07226 284.79297 109.11133 C 284.78164 109.12416 284.76645 109.13076 284.75586 109.14453 C 284.73551 109.17098 284.72922 109.20237 284.71289 109.23047 C 284.68716 109.27413 284.66312 109.31652 284.64648 109.36523 C 284.63006 109.41374 284.62343 109.46168 284.61719 109.51172 C 284.61299 109.54398 284.59766 109.57206 284.59766 109.60547 C 284.59766 109.62339 284.60619 109.63864 284.60742 109.65625 C 284.61076 109.70537 284.62394 109.75122 284.63672 109.79883 C 284.64985 109.84744 284.66153 109.89525 284.68359 109.93945 C 284.70361 109.97994 284.73228 110.01395 284.75977 110.05078 C 284.79103 110.09255 284.8203 110.13352 284.85938 110.16797 C 284.87221 110.1793 284.87881 110.19449 284.89258 110.20508 L 289.80664 113.98438 C 290.13754 114.23891 290.61265 114.17856 290.86719 113.84766 C 291.12173 113.51675 291.05942 113.04165 290.72852 112.78711 L 287.57422 110.36133 L 325.32812 110.36133 L 321.95508 112.77148 C 321.61537 113.01414 321.53665 113.4845 321.7793 113.82422 C 322.02195 114.16393 322.49427 114.24265 322.83398 114 L 327.92773 110.36133 L 341.58008 110.36133 L 338.20703 112.77148 C 337.86732 113.01414 337.7886 113.4845 338.03125 113.82422 C 338.2739 114.16393 338.74622 114.24265 339.08594 114 L 344.37695 110.2207 C 344.39456 110.20813 344.40373 110.18954 344.41992 110.17578 C 344.45743 110.14393 344.48885 110.10883 344.51953 110.07031 C 344.55199 110.02954 344.58051 109.98905 344.60352 109.94336 C 344.62289 109.90524 344.63568 109.86572 344.64844 109.82422 C 344.66475 109.77094 344.67733 109.71957 344.68164 109.66406 C 344.68328 109.64377 344.69336 109.62618 344.69336 109.60547 C 344.69336 109.57687 344.67887 109.55317 344.67578 109.52539 C 344.6704 109.47529 344.66209 109.4277 344.64648 109.37891 C 344.63124 109.33145 344.61175 109.28895 344.58789 109.24609 C 344.57363 109.22014 344.57037 109.1907 344.55273 109.16602 C 344.53932 109.14723 344.51867 109.13827 344.50391 109.12109 C 344.47157 109.08329 344.4356 109.05228 344.39648 109.02148 C 344.35862 108.99179 344.32137 108.96498 344.2793 108.94336 C 344.23571 108.92068 344.19063 108.90649 344.14258 108.89258 C 344.09553 108.87901 344.05069 108.86757 344.00195 108.86328 C 343.97949 108.86127 343.96049 108.84961 343.9375 108.84961 L 295.55859 108.84961 L 295.55859 68.03125 C 295.55859 67.613775 295.22021 67.275391 294.80273 67.275391 L 245.66992 67.275391 z M 328.81836 67.275391 C 328.71399 67.275391 328.61583 67.297687 328.52539 67.335938 C 328.25408 67.45069 328.0625 67.718144 328.0625 68.03125 L 328.0625 90.496094 L 319.85938 103.91992 C 319.64168 104.27615 319.75315 104.74129 320.10938 104.95898 C 320.4656 105.17668 320.93075 105.06521 321.14844 104.70898 L 328.82812 92.144531 L 336.49414 104.33984 C 336.71631 104.69329 337.18171 104.79834 337.53516 104.57617 C 337.88861 104.354 337.99561 103.88861 337.77344 103.53516 L 329.57422 90.490234 L 329.57422 68.787109 L 433.89062 68.787109 L 433.89062 151.18164 L 433.89062 157.98438 L 332.2207 157.98438 L 332.2207 150.80273 L 332.2207 136.27539 L 340.42383 122.85156 C 340.64152 122.49534 340.53005 122.03019 340.17383 121.8125 C 339.8176 121.59481 339.35246 121.70628 339.13477 122.0625 L 331.4707 134.60352 L 324.17578 122.44531 C 323.96099 122.08733 323.49665 121.97076 323.13867 122.18555 C 322.78069 122.40034 322.66412 122.86467 322.87891 123.22266 L 330.70898 136.27148 L 330.70898 150.80273 L 330.70898 157.98438 L 298.58203 157.98438 L 253.98438 157.98438 L 253.98438 128.50391 L 253.98438 123.58984 L 291.7793 123.58984 C 292.19677 123.58984 292.53516 123.25146 292.53516 122.83398 C 292.53516 122.41651 292.19677 122.07812 291.7793 122.07812 L 253.22852 122.07812 C 252.81104 122.07812 252.47266 122.41651 252.47266 122.83398 L 252.47266 128.50391 L 252.47266 158.74023 C 252.47266 159.15771 252.81104 159.49609 253.22852 159.49609 L 298.58203 159.49609 L 396.09375 159.49609 L 396.09375 188.97656 C 396.09375 189.39404 396.43212 189.73242 396.84961 189.73242 C 397.2671 189.73242 397.60547 189.39404 397.60547 188.97656 L 397.60547 159.49609 L 434.64648 159.49609 C 434.75086 159.49609 434.84902 159.47575 434.93945 159.4375 C 435.21076 159.32275 435.40234 159.05334 435.40234 158.74023 L 435.40234 151.18164 L 435.40234 68.03125 C 435.40234 67.613775 435.06397 67.275391 434.64648 67.275391 L 328.81836 67.275391 z "
     transform="scale(264.58333)"
     id="path54" />
</svg>
