<?xml version="1.0" encoding="UTF-8" standalone="no"?>
<svg
   xmlns:dc="http://purl.org/dc/elements/1.1/"
   xmlns:cc="http://creativecommons.org/ns#"
   xmlns:rdf="http://www.w3.org/1999/02/22-rdf-syntax-ns#"
   xmlns:svg="http://www.w3.org/2000/svg"
   xmlns="http://www.w3.org/2000/svg"
   xmlns:sodipodi="http://sodipodi.sourceforge.net/DTD/sodipodi-0.dtd"
   xmlns:inkscape="http://www.inkscape.org/namespaces/inkscape"
   width="135mm"
   height="85mm"
   viewBox="0 0 135000 85000"
   version="1.1"
   id="svg87"
   sodipodi:docname="C_500_32.svg"
   inkscape:version="0.92.1 r15371">
  <metadata
     id="metadata91">
    <rdf:RDF>
      <cc:Work
         rdf:about="">
        <dc:format>image/svg+xml</dc:format>
        <dc:type
           rdf:resource="http://purl.org/dc/dcmitype/StillImage" />
        <dc:title></dc:title>
      </cc:Work>
    </rdf:RDF>
  </metadata>
  <sodipodi:namedview
     pagecolor="#ffffff"
     bordercolor="#666666"
     borderopacity="1"
     objecttolerance="10"
     gridtolerance="10"
     guidetolerance="10"
     inkscape:pageopacity="0"
     inkscape:pageshadow="2"
     inkscape:window-width="1536"
     inkscape:window-height="801"
     id="namedview89"
     showgrid="false"
     inkscape:zoom="2.2499383"
     inkscape:cx="421.82152"
     inkscape:cy="226.30778"
     inkscape:window-x="-8"
     inkscape:window-y="-8"
     inkscape:window-maximized="1"
     inkscape:current-layer="svg87" />
  <defs
     id="defs17">
    <radialGradient
       cx="20000"
       cy="44000"
       r="2020"
       gradientUnits="userSpaceOnUse"
       id="color-1"
       gradientTransform="matrix(-1,0,0,1,135000,0)">
      <stop
         offset="1"
         stop-color="#ef5350"
         id="stop2" />
      <stop
         offset="1"
         stop-color="#b71c1c"
         id="stop4" />
    </radialGradient>
    <radialGradient
       cx="20000"
       cy="20000"
       r="2020"
       gradientUnits="userSpaceOnUse"
       id="color-2"
       gradientTransform="matrix(-1,0,0,1,135000,0)">
      <stop
         offset="1"
         stop-color="#ef5350"
         id="stop7" />
      <stop
         offset="1"
         stop-color="#b71c1c"
         id="stop9" />
    </radialGradient>
    <radialGradient
       cx="70000"
       cy="20000"
       r="2020"
       gradientUnits="userSpaceOnUse"
       id="color-3"
       gradientTransform="matrix(-1,0,0,1,135000,0)">
      <stop
         offset="1"
         stop-color="#ef5350"
         id="stop12" />
      <stop
         offset="1"
         stop-color="#b71c1c"
         id="stop14" />
    </radialGradient>
  </defs>
  <path
     style="font-weight:normal;font-size:medium;font-family:sans-serif;text-anchor:start;mix-blend-mode:normal;fill:#b71c1c;stroke:none;stroke-width:1;stroke-linecap:butt;stroke-linejoin:miter;stroke-miterlimit:10;stroke-dasharray:none;stroke-dashoffset:0"
     inkscape:connector-curvature="0"
     id="path55"
     d="m 80800,35300.5 c 0.276,0 0.5,-0.224 0.5,-0.5 v -1500 c 0,-0.276 -0.224,-0.5 -0.5,-0.5 h -1500 c -0.276,0 -0.5,0.224 -0.5,0.5 v 1500 c 0,0.276 0.224,0.5 0.5,0.5 z" />
  <path
     style="font-weight:normal;font-size:medium;font-family:sans-serif;text-anchor:start;mix-blend-mode:normal;fill:#b71c1c;stroke:none;stroke-width:1;stroke-linecap:butt;stroke-linejoin:miter;stroke-miterlimit:10;stroke-dasharray:none;stroke-dashoffset:0"
     inkscape:connector-curvature="0"
     id="path57"
     d="m 99300,35300.5 c 0.276,0 0.5,-0.224 0.5,-0.5 v -1500 c 0,-0.276 -0.224,-0.5 -0.5,-0.5 h -1400 c -0.276,0 -0.5,0.224 -0.5,0.5 v 1500 c 0,0.276 0.224,0.5 0.5,0.5 z" />
  <path
     style="font-weight:normal;font-size:medium;font-family:sans-serif;text-anchor:start;mix-blend-mode:normal;fill:#b71c1c;stroke:none;stroke-width:1;stroke-linecap:butt;stroke-linejoin:miter;stroke-miterlimit:10;stroke-dasharray:none;stroke-dashoffset:0"
     inkscape:connector-curvature="0"
     id="path59"
     d="m 88900,35300.5 c 0.276,0 0.5,-0.224 0.5,-0.5 v -1500 c 0,-0.276 -0.224,-0.5 -0.5,-0.5 h -1400 c -0.276,0 -0.5,0.224 -0.5,0.5 v 1500 c 0,0.276 0.224,0.5 0.5,0.5 z" />
  <path
     style="font-weight:normal;font-size:medium;font-family:sans-serif;text-anchor:start;mix-blend-mode:normal;fill:#b71c1c;stroke:none;stroke-width:1;stroke-linecap:butt;stroke-linejoin:miter;stroke-miterlimit:10;stroke-dasharray:none;stroke-dashoffset:0"
     inkscape:connector-curvature="0"
     id="path61"
     d="m 83100,30700.5 c 0.276,0 0.5,-0.224 0.5,-0.5 v -1400 c 0,-0.276 -0.224,-0.5 -0.5,-0.5 h -1500 c -0.276,0 -0.5,0.224 -0.5,0.5 v 1400 c 0,0.276 0.224,0.5 0.5,0.5 z" />
  <path
     style="font-weight:normal;font-size:medium;font-family:sans-serif;text-anchor:start;mix-blend-mode:normal;fill:#b71c1c;stroke:none;stroke-width:1;stroke-linecap:butt;stroke-linejoin:miter;stroke-miterlimit:10;stroke-dasharray:none;stroke-dashoffset:0"
     inkscape:connector-curvature="0"
     id="path63"
     d="m 91500,30700.5 c 0.276,0 0.5,-0.224 0.5,-0.5 v -1400 c 0,-0.276 -0.224,-0.5 -0.5,-0.5 h -1500 c -0.276,0 -0.5,0.224 -0.5,0.5 v 1400 c 0,0.276 0.224,0.5 0.5,0.5 z" />
  <path
     style="font-weight:normal;font-size:medium;font-family:sans-serif;text-anchor:start;mix-blend-mode:normal;fill:#b71c1c;stroke:none;stroke-width:1;stroke-linecap:butt;stroke-linejoin:miter;stroke-miterlimit:10;stroke-dasharray:none;stroke-dashoffset:0"
     inkscape:connector-curvature="0"
     id="path65"
     d="m 96000,30700.5 c 0.276,0 0.5,-0.224 0.5,-0.5 v -1400 c 0,-0.276 -0.224,-0.5 -0.5,-0.5 h -1500 c -0.276,0 -0.5,0.224 -0.5,0.5 v 1400 c 0,0.276 0.224,0.5 0.5,0.5 z" />
  <path
     style="font-weight:normal;font-size:medium;font-family:sans-serif;text-anchor:start;mix-blend-mode:normal;fill:#b71c1c;stroke:none;stroke-width:1;stroke-linecap:butt;stroke-linejoin:miter;stroke-miterlimit:10;stroke-dasharray:none;stroke-dashoffset:0"
     inkscape:connector-curvature="0"
     id="path67"
     d="m 91000,26300.5 c 0.276,0 0.5,-0.224 0.5,-0.5 v -1500 c 0,-0.276 -0.224,-0.5 -0.5,-0.5 h -1400 c -0.276,0 -0.5,0.224 -0.5,0.5 v 1500 c 0,0.276 0.224,0.5 0.5,0.5 z" />
  <path
     style="font-weight:normal;font-size:medium;font-family:sans-serif;text-anchor:start;mix-blend-mode:normal;fill:#b71c1c;stroke:none;stroke-width:1;stroke-linecap:butt;stroke-linejoin:miter;stroke-miterlimit:10;stroke-dasharray:none;stroke-dashoffset:0"
     inkscape:connector-curvature="0"
     id="path69"
     d="m 95500,26300.5 c 0.276,0 0.5,-0.224 0.5,-0.5 v -1500 c 0,-0.276 -0.224,-0.5 -0.5,-0.5 h -1400 c -0.276,0 -0.5,0.224 -0.5,0.5 v 1500 c 0,0.276 0.224,0.5 0.5,0.5 z" />
</svg>
