<?xml version="1.0" encoding="UTF-8" standalone="no"?>
<svg
   xmlns:dc="http://purl.org/dc/elements/1.1/"
   xmlns:cc="http://creativecommons.org/ns#"
   xmlns:rdf="http://www.w3.org/1999/02/22-rdf-syntax-ns#"
   xmlns:svg="http://www.w3.org/2000/svg"
   xmlns="http://www.w3.org/2000/svg"
   xmlns:sodipodi="http://sodipodi.sourceforge.net/DTD/sodipodi-0.dtd"
   xmlns:inkscape="http://www.inkscape.org/namespaces/inkscape"
   width="135mm"
   height="85mm"
   viewBox="0 0 135000 85000"
   version="1.1"
   id="svg125"
   sodipodi:docname="C_500_64.svg"
   inkscape:version="0.92.1 r15371">
  <metadata
     id="metadata129">
    <rdf:RDF>
      <cc:Work
         rdf:about="">
        <dc:format>image/svg+xml</dc:format>
        <dc:type
           rdf:resource="http://purl.org/dc/dcmitype/StillImage" />
        <dc:title />
      </cc:Work>
    </rdf:RDF>
  </metadata>
  <sodipodi:namedview
     pagecolor="#ffffff"
     bordercolor="#666666"
     borderopacity="1"
     objecttolerance="10"
     gridtolerance="10"
     guidetolerance="10"
     inkscape:pageopacity="0"
     inkscape:pageshadow="2"
     inkscape:window-width="1536"
     inkscape:window-height="801"
     id="namedview127"
     showgrid="false"
     inkscape:zoom="4.4998765"
     inkscape:cx="361.98746"
     inkscape:cy="191.88295"
     inkscape:window-x="-8"
     inkscape:window-y="-8"
     inkscape:window-maximized="1"
     inkscape:current-layer="svg125" />
  <defs
     id="defs17">
    <radialGradient
       cx="20000"
       cy="44000"
       r="2020"
       gradientUnits="userSpaceOnUse"
       id="color-1"
       gradientTransform="matrix(-1,0,0,1,135000,0)">
      <stop
         offset="1"
         stop-color="#ef5350"
         id="stop2" />
      <stop
         offset="1"
         stop-color="#b71c1c"
         id="stop4" />
    </radialGradient>
    <radialGradient
       cx="20000"
       cy="20000"
       r="2020"
       gradientUnits="userSpaceOnUse"
       id="color-2"
       gradientTransform="matrix(-1,0,0,1,135000,0)">
      <stop
         offset="1"
         stop-color="#ef5350"
         id="stop7" />
      <stop
         offset="1"
         stop-color="#b71c1c"
         id="stop9" />
    </radialGradient>
    <radialGradient
       cx="70000"
       cy="20000"
       r="2020"
       gradientUnits="userSpaceOnUse"
       id="color-3"
       gradientTransform="matrix(-1,0,0,1,135000,0)">
      <stop
         offset="1"
         stop-color="#ef5350"
         id="stop12" />
      <stop
         offset="1"
         stop-color="#b71c1c"
         id="stop14" />
    </radialGradient>
  </defs>
  <path
     style="font-weight:normal;font-size:medium;font-family:sans-serif;text-anchor:start;mix-blend-mode:normal;fill:#b71c1c;stroke:none;stroke-width:0.00377953;stroke-linecap:butt;stroke-linejoin:miter;stroke-miterlimit:10;stroke-dasharray:none;stroke-dashoffset:0"
     d="M 253.22852 74.833984 C 252.81104 74.833984 252.47266 75.172368 252.47266 75.589844 C 252.47266 76.007319 252.81104 76.345703 253.22852 76.345703 L 260.78711 76.345703 C 261.20458 76.345703 261.54297 76.007319 261.54297 75.589844 C 261.54297 75.172368 261.20458 74.833984 260.78711 74.833984 L 253.22852 74.833984 z M 419.52734 74.833984 C 419.10986 74.833984 418.77148 75.172368 418.77148 75.589844 C 418.77148 76.007319 419.10986 76.345703 419.52734 76.345703 L 427.08594 76.345703 C 427.50342 76.345703 427.8418 76.007319 427.8418 75.589844 C 427.8418 75.172368 427.50342 74.833984 427.08594 74.833984 L 419.52734 74.833984 z M 338.64648 93.730469 C 338.64648 93.730469 338.64453 93.732422 338.64453 93.732422 L 338.64453 99.402344 C 338.64453 99.402344 338.64648 99.404297 338.64648 99.404297 L 343.9375 99.404297 C 343.9375 99.404297 343.93945 99.402344 343.93945 99.402344 L 343.93945 97.134766 L 345.82617 97.134766 C 346.24365 97.134766 346.58203 96.796382 346.58203 96.378906 C 346.58203 95.961431 346.24365 95.621094 345.82617 95.621094 L 343.93945 95.621094 L 343.93945 93.732422 C 343.93945 93.732422 343.9375 93.730469 343.9375 93.730469 L 338.64648 93.730469 z M 355.6543 93.730469 C 355.6543 93.730469 355.65234 93.732422 355.65234 93.732422 L 355.65234 95.621094 L 354.14258 95.621094 C 353.7251 95.621094 353.38672 95.961431 353.38672 96.378906 C 353.38672 96.796382 353.7251 97.134766 354.14258 97.134766 L 355.65234 97.134766 L 355.65234 99.402344 C 355.65234 99.402344 355.6543 99.404297 355.6543 99.404297 L 360.94531 99.404297 C 360.94531 99.404297 360.94727 99.402344 360.94727 99.402344 L 360.94727 93.732422 C 360.94727 93.732422 360.94531 93.730469 360.94531 93.730469 L 355.6543 93.730469 z M 313.32227 107.7168 C 312.90479 107.7168 312.56641 108.05518 312.56641 108.47266 L 312.56641 110.73828 L 308.41016 110.73828 C 308.41016 110.73828 308.4082 110.74023 308.4082 110.74023 L 308.4082 116.03125 C 308.4082 116.03125 308.41016 116.0332 308.41016 116.0332 L 314.07812 116.0332 C 314.07812 116.0332 314.08008 116.03125 314.08008 116.03125 L 314.08008 110.74023 C 314.08008 110.74023 314.07812 110.73828 314.07812 110.73828 L 314.07812 108.47266 C 314.07812 108.05518 313.73974 107.7168 313.32227 107.7168 z M 345.07031 107.7168 C 344.65284 107.7168 344.31445 108.05518 344.31445 108.47266 L 344.31445 110.73828 L 340.1582 110.73828 C 340.1582 110.73828 340.15625 110.74023 340.15625 110.74023 L 340.15625 116.03125 C 340.15625 116.03125 340.1582 116.0332 340.1582 116.0332 L 345.82617 116.0332 C 345.82617 116.0332 345.82812 116.03125 345.82812 116.03125 L 345.82812 110.74023 C 345.82812 110.74023 345.82617 110.74023 345.82617 110.74023 L 345.82617 110.73828 L 345.82617 108.47266 C 345.82617 108.05518 345.48779 107.7168 345.07031 107.7168 z M 362.07812 107.7168 C 361.66065 107.7168 361.32227 108.05518 361.32227 108.47266 L 361.32227 110.73828 L 357.16602 110.73828 C 357.16602 110.73828 357.16406 110.74023 357.16406 110.74023 L 357.16406 116.03125 C 357.16406 116.03125 357.16602 116.0332 357.16602 116.0332 L 362.83398 116.0332 C 362.83398 116.0332 362.83594 116.03125 362.83594 116.03125 L 362.83594 110.74023 C 362.83594 110.74023 362.83398 110.74023 362.83398 110.74023 L 362.83398 110.73828 L 362.83398 108.47266 C 362.83398 108.05518 362.4956 107.7168 362.07812 107.7168 z M 299.7168 127.74609 C 299.7168 127.74609 299.71484 127.74805 299.71484 127.74805 L 299.71484 133.41797 C 299.71484 133.41797 299.7168 133.41992 299.7168 133.41992 L 305.38672 133.41992 C 305.38672 133.41992 305.38867 133.41797 305.38867 133.41797 L 305.38867 131.15039 L 307.6543 131.15039 C 308.07177 131.15039 308.41016 130.81201 308.41016 130.39453 C 308.41016 129.97706 308.07177 129.63867 307.6543 129.63867 L 305.38867 129.63867 L 305.38867 127.74805 C 305.38867 127.74805 305.38672 127.74609 305.38672 127.74609 L 299.7168 127.74609 z M 330.70898 127.74609 C 330.70898 127.74609 330.70703 127.74805 330.70703 127.74805 L 330.70703 133.41797 C 330.70703 133.41797 330.70898 133.41992 330.70898 133.41992 L 336 133.41992 C 336 133.41992 336.00195 133.41797 336.00195 133.41797 L 336.00195 131.52734 L 338.26758 131.52734 C 338.68505 131.52734 339.02344 131.18896 339.02344 130.77148 C 339.02344 130.35401 338.68505 130.01562 338.26758 130.01562 L 336.00195 130.01562 L 336.00195 127.74805 C 336.00195 127.74805 336 127.74609 336 127.74609 L 330.70898 127.74609 z M 370.01562 127.74609 C 370.01562 127.74609 370.01367 127.74805 370.01367 127.74805 L 370.01367 130.01562 L 367.74805 130.01562 C 367.33057 130.01562 366.99219 130.35401 366.99219 130.77148 C 366.99219 131.18896 367.33057 131.52734 367.74805 131.52734 L 370.01367 131.52734 L 370.01367 133.41797 C 370.01367 133.41797 370.01562 133.41992 370.01562 133.41992 L 375.30664 133.41992 C 375.30664 133.41992 375.30859 133.41797 375.30859 133.41797 L 375.30859 127.74805 C 375.30859 127.74805 375.30664 127.74609 375.30664 127.74609 L 370.01562 127.74609 z M 419.52734 165.54297 C 419.10986 165.54297 418.77148 165.88135 418.77148 166.29883 C 418.77148 166.7163 419.10986 167.05469 419.52734 167.05469 L 430.86523 167.05469 C 431.28272 167.05469 431.62109 166.7163 431.62109 166.29883 C 431.62109 165.88135 431.28272 165.54297 430.86523 165.54297 L 419.52734 165.54297 z "
     transform="scale(264.58333)"
     id="path27" />
</svg>
