<svg width="135mm" height="85mm" viewBox="0 0 135000 85000" xmlns="http://www.w3.org/2000/svg"><defs><radialGradient cx="53500" cy="30000" r="750" gradientUnits="userSpaceOnUse" id="color-1"><stop offset="1" stop-color="#f44336"/><stop offset="1" stop-color="#b71c1c"/></radialGradient><radialGradient cx="53000" cy="33700" r="750" gradientUnits="userSpaceOnUse" id="color-2"><stop offset="1" stop-color="#f44336"/><stop offset="1" stop-color="#b71c1c"/></radialGradient><radialGradient cx="36000" cy="33700" r="750" gradientUnits="userSpaceOnUse" id="color-3"><stop offset="1" stop-color="#f44336"/><stop offset="1" stop-color="#b71c1c"/></radialGradient><radialGradient cx="33000" cy="33700" r="750" gradientUnits="userSpaceOnUse" id="color-4"><stop offset="1" stop-color="#f44336"/><stop offset="1" stop-color="#b71c1c"/></radialGradient><radialGradient cx="33500" cy="30000" r="750" gradientUnits="userSpaceOnUse" id="color-5"><stop offset="1" stop-color="#f44336"/><stop offset="1" stop-color="#b71c1c"/></radialGradient><radialGradient cx="36500" cy="30000" r="750" gradientUnits="userSpaceOnUse" id="color-6"><stop offset="1" stop-color="#f44336"/><stop offset="1" stop-color="#b71c1c"/></radialGradient><radialGradient cx="37000" cy="26300" r="750" gradientUnits="userSpaceOnUse" id="color-7"><stop offset="1" stop-color="#f44336"/><stop offset="1" stop-color="#b71c1c"/></radialGradient><radialGradient cx="34000" cy="26300" r="750" gradientUnits="userSpaceOnUse" id="color-8"><stop offset="1" stop-color="#f44336"/><stop offset="1" stop-color="#b71c1c"/></radialGradient><radialGradient cx="30000" cy="50000" r="798" gradientUnits="userSpaceOnUse" id="color-9"><stop offset="1" stop-color="#ef5350"/><stop offset="1" stop-color="#b71c1c"/></radialGradient><radialGradient cx="50000" cy="20000" r="798" gradientUnits="userSpaceOnUse" id="color-10"><stop offset="1" stop-color="#ef5350"/><stop offset="1" stop-color="#b71c1c"/></radialGradient></defs><g fill="none" stroke="none" stroke-width="1" stroke-linecap="butt" stroke-linejoin="miter" stroke-miterlimit="10" stroke-dasharray="" stroke-dashoffset="0" font-family="sans-serif" font-weight="normal" font-size="12" text-anchor="start" mix-blend-mode="normal"><path d="M29800,40000c0,-110.45695 89.54305,-200 200,-200l0,0c110.45695,0 200,89.54305 200,200l0,10000c0,110.45695 -89.54305,200 -200,200l0,0c-110.45695,0 -200,-89.54305 -200,-200z" fill="#b71c1c"/><path d="M44000,20200c-110.45695,0 -200,-89.54305 -200,-200l0,0c0,-110.45695 89.54305,-200 200,-200l6000,0c110.45695,0 200,89.54305 200,200l0,0c0,110.45695 -89.54305,200 -200,200z" fill="#b71c1c"/><path d="M44200,32000c0,110.45695 -89.54305,200 -200,200l0,0c-110.45695,0 -200,-89.54305 -200,-200l0,-12000c0,-110.45695 89.54305,-200 200,-200l0,0c110.45695,0 200,89.54305 200,200z" fill="#b71c1c"/><path d="M35500,20800c110.45695,0 200,89.54305 200,200l0,0c0,110.45695 -89.54305,200 -200,200l-500,0c-110.45695,0 -200,-89.54305 -200,-200l0,0c0,-110.45695 89.54305,-200 200,-200z" fill="#b71c1c"/><path d="M22000,21200c-110.45695,0 -200,-89.54305 -200,-200l0,0c0,-110.45695 89.54305,-200 200,-200l13000,0c110.45695,0 200,89.54305 200,200l0,0c0,110.45695 -89.54305,200 -200,200z" fill="#b71c1c"/><path d="M22200,40000c0,110.45695 -89.54305,200 -200,200l0,0c-110.45695,0 -200,-89.54305 -200,-200l0,-19000c0,-110.45695 89.54305,-200 200,-200l0,0c110.45695,0 200,89.54305 200,200z" fill="#b71c1c"/><path d="M44000,39800c110.45695,0 200,89.54305 200,200l0,0c0,110.45695 -89.54305,200 -200,200l-22000,0c-110.45695,0 -200,-89.54305 -200,-200l0,0c0,-110.45695 89.54305,-200 200,-200z" fill="#b71c1c"/><path d="M43800,34000c0,-110.45695 89.54305,-200 200,-200l0,0c110.45695,0 200,89.54305 200,200l0,6000c0,110.45695 -89.54305,200 -200,200l0,0c-110.45695,0 -200,-89.54305 -200,-200z" fill="#b71c1c"/><path d="M43800,33800c0,-110.45695 89.54305,-200 200,-200l0,0c110.45695,0 200,89.54305 200,200l0,200c0,110.45695 -89.54305,200 -200,200l0,0c-110.45695,0 -200,-89.54305 -200,-200z" fill="#b71c1c"/><path d="M32900,33900c-110.45695,0 -200,-89.54305 -200,-200l0,0c0,-110.45695 89.54305,-200 200,-200l20200,0c110.45695,0 200,89.54305 200,200l0,0c0,110.45695 -89.54305,200 -200,200z" fill="#b71c1c"/><path d="M35700,26300c0,110.45695 -89.54305,200 -200,200l0,0c-110.45695,0 -200,-89.54305 -200,-200l0,-5300c0,-110.45695 89.54305,-200 200,-200l0,0c110.45695,0 200,89.54305 200,200z" fill="#b71c1c"/><path d="M33900,26500c-110.45695,0 -200,-89.54305 -200,-200l0,0c0,-110.45695 89.54305,-200 200,-200l3000,0c110.45695,0 200,89.54305 200,200l0,0c0,110.45695 -89.54305,200 -200,200z" fill="#b71c1c"/><path d="M52000,31800c110.45695,0 200,89.54305 200,200l0,0c0,110.45695 -89.54305,200 -200,200l-17000,0c-110.45695,0 -200,-89.54305 -200,-200l0,0c0,-110.45695 89.54305,-200 200,-200z" fill="#b71c1c"/><path d="M53340,29880c66.27417,-88.36556 191.63444,-106.27417 280,-40l0,0c88.36556,66.27417 106.27417,191.63444 40,280l-1500,2000c-66.27417,88.36556 -191.63444,106.27417 -280,40l0,0c-88.36556,-66.27417 -106.27417,-191.63444 -40,-280z" fill="#b71c1c"/><path d="M36340,30120c-66.27417,-88.36556 -48.36556,-213.72583 40,-280l0,0c88.36556,-66.27417 213.72583,-48.36556 280,40l1500,2000c66.27417,88.36556 48.36556,213.72583 -40,280l0,0c-88.36556,66.27417 -213.72583,48.36556 -280,-40z" fill="#b71c1c"/><path d="M33436.15362,30114.69247c-63.3429,-90.48986 -41.33594,-215.19595 49.15392,-278.53885l0,0c90.48986,-63.3429 215.19595,-41.33594 278.53885,49.15392l1400,2000c63.3429,90.48986 41.33594,215.19595 -49.15392,278.53885l0,0c-90.48986,63.3429 -215.19595,41.33594 -278.53885,-49.15392z" fill="#b71c1c"/><path d="M135000,-400c220.9139,0 400,179.0861 400,400l0,0c0,220.9139 -179.0861,400 -400,400l-135000,0c-220.9139,0 -400,-179.0861 -400,-400l0,0c0,-220.9139 179.0861,-400 400,-400z" fill="#b71c1c"/><path d="M135400,85000c0,220.9139 -179.0861,400 -400,400l0,0c-220.9139,0 -400,-179.0861 -400,-400l0,-85000c0,-220.9139 179.0861,-400 400,-400l0,0c220.9139,0 400,179.0861 400,400z" fill="#b71c1c"/><path d="M0,85400c-220.9139,0 -400,-179.0861 -400,-400l0,0c0,-220.9139 179.0861,-400 400,-400l135000,0c220.9139,0 400,179.0861 400,400l0,0c0,220.9139 -179.0861,400 -400,400z" fill="#b71c1c"/><path d="M-400,0c0,-220.9139 179.0861,-400 400,-400l0,0c220.9139,0 400,179.0861 400,400l0,85000c0,220.9139 -179.0861,400 -400,400l0,0c-220.9139,0 -400,-179.0861 -400,-400z" fill="#b71c1c"/><path d="M52750,30000c0,-414.21356 335.78644,-750 750,-750c414.21356,0 750,335.78644 750,750c0,414.21356 -335.78644,750 -750,750c-414.21356,0 -750,-335.78644 -750,-750z" fill="url(#color-1)"/><path d="M52250,33700c0,-414.21356 335.78644,-750 750,-750c414.21356,0 750,335.78644 750,750c0,414.21356 -335.78644,750 -750,750c-414.21356,0 -750,-335.78644 -750,-750z" fill="url(#color-2)"/><path d="M35250,33700c0,-414.21356 335.78644,-750 750,-750c414.21356,0 750,335.78644 750,750c0,414.21356 -335.78644,750 -750,750c-414.21356,0 -750,-335.78644 -750,-750z" fill="url(#color-3)"/><path d="M32250,33700c0,-414.21356 335.78644,-750 750,-750c414.21356,0 750,335.78644 750,750c0,414.21356 -335.78644,750 -750,750c-414.21356,0 -750,-335.78644 -750,-750z" fill="url(#color-4)"/><path d="M32750,30000c0,-414.21356 335.78644,-750 750,-750c414.21356,0 750,335.78644 750,750c0,414.21356 -335.78644,750 -750,750c-414.21356,0 -750,-335.78644 -750,-750z" fill="url(#color-5)"/><path d="M35750,30000c0,-414.21356 335.78644,-750 750,-750c414.21356,0 750,335.78644 750,750c0,414.21356 -335.78644,750 -750,750c-414.21356,0 -750,-335.78644 -750,-750z" fill="url(#color-6)"/><path d="M36250,26300c0,-414.21356 335.78644,-750 750,-750c414.21356,0 750,335.78644 750,750c0,414.21356 -335.78644,750 -750,750c-414.21356,0 -750,-335.78644 -750,-750z" fill="url(#color-7)"/><path d="M33250,26300c0,-414.21356 335.78644,-750 750,-750c414.21356,0 750,335.78644 750,750c0,414.21356 -335.78644,750 -750,750c-414.21356,0 -750,-335.78644 -750,-750z" fill="url(#color-8)"/><path d="M29202,50000c0,-440.72323 357.27677,-798 798,-798c440.72323,0 798,357.27677 798,798c0,440.72323 -357.27677,798 -798,798c-440.72323,0 -798,-357.27677 -798,-798z" fill="url(#color-9)"/><path d="M49202,20000c0,-440.72323 357.27677,-798 798,-798c440.72323,0 798,357.27677 798,798c0,440.72323 -357.27677,798 -798,798c-440.72323,0 -798,-357.27677 -798,-798z" fill="url(#color-10)"/></g></svg>