<?xml version="1.0" encoding="UTF-8" standalone="no"?>
<svg
   xmlns:dc="http://purl.org/dc/elements/1.1/"
   xmlns:cc="http://creativecommons.org/ns#"
   xmlns:rdf="http://www.w3.org/1999/02/22-rdf-syntax-ns#"
   xmlns:svg="http://www.w3.org/2000/svg"
   xmlns="http://www.w3.org/2000/svg"
   xmlns:sodipodi="http://sodipodi.sourceforge.net/DTD/sodipodi-0.dtd"
   xmlns:inkscape="http://www.inkscape.org/namespaces/inkscape"
   width="135mm"
   height="85mm"
   viewBox="0 0 135000 85000"
   version="1.1"
   id="svg194"
   sodipodi:docname="F.svg"
   inkscape:version="0.92.1 r15371">
  <metadata
     id="metadata198">
    <rdf:RDF>
      <cc:Work
         rdf:about="">
        <dc:format>image/svg+xml</dc:format>
        <dc:type
           rdf:resource="http://purl.org/dc/dcmitype/StillImage" />
        <dc:title />
      </cc:Work>
    </rdf:RDF>
  </metadata>
  <sodipodi:namedview
     pagecolor="#ffffff"
     bordercolor="#666666"
     borderopacity="1"
     objecttolerance="10"
     gridtolerance="10"
     guidetolerance="10"
     inkscape:pageopacity="0"
     inkscape:pageshadow="2"
     inkscape:window-width="1536"
     inkscape:window-height="801"
     id="namedview196"
     showgrid="false"
     inkscape:zoom="2.2499383"
     inkscape:cx="286.54049"
     inkscape:cy="118.92703"
     inkscape:window-x="-8"
     inkscape:window-y="-8"
     inkscape:window-maximized="1"
     inkscape:current-layer="svg194" />
  <defs
     id="defs72">
    <radialGradient
       cx="40000"
       cy="60000"
       r="1250"
       gradientUnits="userSpaceOnUse"
       id="color-1">
      <stop
         offset="0.96"
         stop-color="#3f51b5"
         id="stop2" />
      <stop
         offset="0.96"
         stop-color="#1a237e"
         id="stop4" />
    </radialGradient>
    <radialGradient
       cx="47000"
       cy="21000"
       r="1250"
       gradientUnits="userSpaceOnUse"
       id="color-2">
      <stop
         offset="0.96"
         stop-color="#3f51b5"
         id="stop7" />
      <stop
         offset="0.96"
         stop-color="#1a237e"
         id="stop9" />
    </radialGradient>
    <radialGradient
       cx="38000"
       cy="21000"
       r="1250"
       gradientUnits="userSpaceOnUse"
       id="color-3">
      <stop
         offset="0.96"
         stop-color="#3f51b5"
         id="stop12" />
      <stop
         offset="0.96"
         stop-color="#1a237e"
         id="stop14" />
    </radialGradient>
    <radialGradient
       cx="55000"
       cy="37100"
       r="1250"
       gradientUnits="userSpaceOnUse"
       id="color-4">
      <stop
         offset="0.96"
         stop-color="#3f51b5"
         id="stop17" />
      <stop
         offset="0.96"
         stop-color="#1a237e"
         id="stop19" />
    </radialGradient>
    <radialGradient
       cx="46800"
       cy="37100"
       r="1250"
       gradientUnits="userSpaceOnUse"
       id="color-5">
      <stop
         offset="0.96"
         stop-color="#3f51b5"
         id="stop22" />
      <stop
         offset="0.96"
         stop-color="#1a237e"
         id="stop24" />
    </radialGradient>
    <radialGradient
       cx="36400"
       cy="37100"
       r="1250"
       gradientUnits="userSpaceOnUse"
       id="color-6">
      <stop
         offset="0.96"
         stop-color="#3f51b5"
         id="stop27" />
      <stop
         offset="0.96"
         stop-color="#1a237e"
         id="stop29" />
    </radialGradient>
    <radialGradient
       cx="31000"
       cy="30000"
       r="1250"
       gradientUnits="userSpaceOnUse"
       id="color-7">
      <stop
         offset="0.96"
         stop-color="#3f51b5"
         id="stop32" />
      <stop
         offset="0.96"
         stop-color="#1a237e"
         id="stop34" />
    </radialGradient>
    <radialGradient
       cx="40000"
       cy="60000"
       r="1010"
       gradientUnits="userSpaceOnUse"
       id="color-8">
      <stop
         offset="1"
         stop-color="#5c6bc0"
         id="stop37" />
      <stop
         offset="1"
         stop-color="#1a237e"
         id="stop39" />
    </radialGradient>
    <radialGradient
       cx="47000"
       cy="21000"
       r="1010"
       gradientUnits="userSpaceOnUse"
       id="color-9">
      <stop
         offset="1"
         stop-color="#5c6bc0"
         id="stop42" />
      <stop
         offset="1"
         stop-color="#1a237e"
         id="stop44" />
    </radialGradient>
    <radialGradient
       cx="38000"
       cy="21000"
       r="1010"
       gradientUnits="userSpaceOnUse"
       id="color-10">
      <stop
         offset="1"
         stop-color="#5c6bc0"
         id="stop47" />
      <stop
         offset="1"
         stop-color="#1a237e"
         id="stop49" />
    </radialGradient>
    <radialGradient
       cx="55000"
       cy="37100"
       r="1010"
       gradientUnits="userSpaceOnUse"
       id="color-11">
      <stop
         offset="1"
         stop-color="#5c6bc0"
         id="stop52" />
      <stop
         offset="1"
         stop-color="#1a237e"
         id="stop54" />
    </radialGradient>
    <radialGradient
       cx="46800"
       cy="37100"
       r="1010"
       gradientUnits="userSpaceOnUse"
       id="color-12">
      <stop
         offset="1"
         stop-color="#5c6bc0"
         id="stop57" />
      <stop
         offset="1"
         stop-color="#1a237e"
         id="stop59" />
    </radialGradient>
    <radialGradient
       cx="36400"
       cy="37100"
       r="1010"
       gradientUnits="userSpaceOnUse"
       id="color-13">
      <stop
         offset="1"
         stop-color="#5c6bc0"
         id="stop62" />
      <stop
         offset="1"
         stop-color="#1a237e"
         id="stop64" />
    </radialGradient>
    <radialGradient
       cx="31000"
       cy="30000"
       r="1010"
       gradientUnits="userSpaceOnUse"
       id="color-14">
      <stop
         offset="1"
         stop-color="#5c6bc0"
         id="stop67" />
      <stop
         offset="1"
         stop-color="#1a237e"
         id="stop69" />
    </radialGradient>
  </defs>
  <path
     style="font-weight:normal;font-size:medium;font-family:sans-serif;text-anchor:start;mix-blend-mode:normal;fill:#1a237e;stroke:none;stroke-width:1;stroke-linecap:butt;stroke-linejoin:miter;stroke-miterlimit:10;stroke-dasharray:none;stroke-dashoffset:0"
     inkscape:connector-curvature="0"
     id="path74"
     d="m 30000,60250 c -138.071,0 -250,-111.929 -250,-250 v 0 c 0,-138.071 111.929,-250 250,-250 h 10000 c 138.071,0 250,111.929 250,250 v 0 c 0,138.071 -111.929,250 -250,250 z" />
  <path
     style="font-weight:normal;font-size:medium;font-family:sans-serif;text-anchor:start;mix-blend-mode:normal;fill:#1a237e;stroke:none;stroke-width:1;stroke-linecap:butt;stroke-linejoin:miter;stroke-miterlimit:10;stroke-dasharray:none;stroke-dashoffset:0"
     inkscape:connector-curvature="0"
     id="path76"
     d="m 29750,49000 c 0,-138.071 111.929,-250 250,-250 v 0 c 138.071,0 250,111.929 250,250 v 11000 c 0,138.071 -111.929,250 -250,250 v 0 c -138.071,0 -250,-111.929 -250,-250 z" />
  <path
     style="font-weight:normal;font-size:medium;font-family:sans-serif;text-anchor:start;mix-blend-mode:normal;fill:#1a237e;stroke:none;stroke-width:1;stroke-linecap:butt;stroke-linejoin:miter;stroke-miterlimit:10;stroke-dasharray:none;stroke-dashoffset:0"
     inkscape:connector-curvature="0"
     id="path78"
     d="m 69000,42250 c -138.071,0 -250,-111.929 -250,-250 v 0 c 0,-138.071 111.929,-250 250,-250 h 1000 c 138.071,0 250,111.929 250,250 v 0 c 0,138.071 -111.929,250 -250,250 z" />
  <path
     style="font-weight:normal;font-size:medium;font-family:sans-serif;text-anchor:start;mix-blend-mode:normal;fill:#1a237e;stroke:none;stroke-width:1;stroke-linecap:butt;stroke-linejoin:miter;stroke-miterlimit:10;stroke-dasharray:none;stroke-dashoffset:0"
     inkscape:connector-curvature="0"
     id="path80"
     d="m 69750,42000 c 0,-138.071 111.929,-250 250,-250 v 0 c 138.071,0 250,111.929 250,250 v 8000 c 0,138.071 -111.929,250 -250,250 v 0 c -138.071,0 -250,-111.929 -250,-250 z" />
  <path
     style="font-weight:normal;font-size:medium;font-family:sans-serif;text-anchor:start;mix-blend-mode:normal;fill:#1a237e;stroke:none;stroke-width:1;stroke-linecap:butt;stroke-linejoin:miter;stroke-miterlimit:10;stroke-dasharray:none;stroke-dashoffset:0"
     inkscape:connector-curvature="0"
     id="path82"
     d="m 29750,49500 v -1750 h 500 v 1750 z m 2500,-1250 v -500 h -2000 v 500 z m 0,3000 v -3000 h -500 v 3000 z m 2000,0 v -500 h -2000 v 500 z m 0,-500 v -3000 h -500 v 3000 z m 2000,-2500 v -500 h -2000 v 500 z m 0,3000 v -3000 h -500 v 3000 z m 2000,0 v -500 h -2000 v 500 z m 0,-500 v -3000 h -500 v 3000 z m 2000,-2500 v -500 h -2000 v 500 z m 0,3000 v -3000 h -500 v 3000 z m 2000,0 v -500 h -2000 v 500 z m 0,-500 v -3000 h -500 v 3000 z m 2000,-2500 v -500 h -2000 v 500 z m 0,3000 v -3000 h -500 v 3000 z m 2000,0 v -500 h -2000 v 500 z m 0,-500 v -3000 h -500 v 3000 z m 2000,-2500 v -500 h -2000 v 500 z m 0,3000 v -3000 h -500 v 3000 z m 2000,0 v -500 h -2000 v 500 z m 0,-500 v -3000 h -500 v 3000 z m 2000,-2500 v -500 h -2000 v 500 z m 0,3000 v -3000 h -500 v 3000 z m 2000,0 v -500 h -2000 v 500 z m 0,-500 v -3000 h -500 v 3000 z m 2000,-2500 v -500 h -2000 v 500 z m 0,3000 v -3000 h -500 v 3000 z m 2000,0 v -500 h -2000 v 500 z m 0,-500 v -3000 h -500 v 3000 z m 2000,-2500 v -500 h -2000 v 500 z m 0,3000 v -3000 h -500 v 3000 z m 2000,0 v -500 h -2000 v 500 z m 0,-500 v -3000 h -500 v 3000 z m 2000,-2500 v -500 h -2000 v 500 z m 0,3000 v -3000 h -500 v 3000 z m 2000,0 v -500 h -2000 v 500 z m 0,-500 v -3000 h -500 v 3000 z m 2000,-2500 v -500 h -2000 v 500 z m 0,3000 v -3000 h -500 v 3000 z m 2000,0 v -500 h -2000 v 500 z m 0,-500 v -1250 h -500 v 1250 z" />
  <path
     style="font-weight:normal;font-size:medium;font-family:sans-serif;text-anchor:start;mix-blend-mode:normal;fill:#1a237e;stroke:none;stroke-width:1;stroke-linecap:butt;stroke-linejoin:miter;stroke-miterlimit:10;stroke-dasharray:none;stroke-dashoffset:0"
     inkscape:connector-curvature="0"
     id="path84"
     d="m 70750,30250 v -500 h -1000 v 500 z m -500,1500 v -1500 h 500 v 1500 z m -1500,0 v -500 h 1500 v 500 z m 0,1500 v -1500 h 500 v 1500 z m 500,0 v -500 h 1500 v 500 z m 1000,1500 v -1500 h 500 v 1500 z m -1500,0 v -500 h 1500 v 500 z m 0,1500 v -1500 h 500 v 1500 z m 500,0 v -500 h 1500 v 500 z m 1000,1500 v -1500 h 500 v 1500 z m -1500,0 v -500 h 1500 v 500 z m 0,1500 v -1500 h 500 v 1500 z m 500,0 v -500 h 1500 v 500 z m 1000,1500 v -1500 h 500 v 1500 z m -1500,0 v -500 h 1500 v 500 z m 0,1500 v -1500 h 500 v 1500 z m 500,0 v -500 h 500 v 500 z" />
  <path
     style="font-weight:normal;font-size:medium;font-family:sans-serif;text-anchor:start;mix-blend-mode:normal;fill:#1a237e;stroke:none;stroke-width:1;stroke-linecap:butt;stroke-linejoin:miter;stroke-miterlimit:10;stroke-dasharray:none;stroke-dashoffset:0"
     inkscape:connector-curvature="0"
     id="path86"
     d="m 47200,23000 c 0,110.457 -89.543,200 -200,200 v 0 c -110.457,0 -200,-89.543 -200,-200 v -1000 c 0,-110.457 89.543,-200 200,-200 v 0 c 110.457,0 200,89.543 200,200 z" />
  <path
     style="font-weight:normal;font-size:medium;font-family:sans-serif;text-anchor:start;mix-blend-mode:normal;fill:#1a237e;stroke:none;stroke-width:1;stroke-linecap:butt;stroke-linejoin:miter;stroke-miterlimit:10;stroke-dasharray:none;stroke-dashoffset:0"
     inkscape:connector-curvature="0"
     id="path88"
     d="m 38200,23000 c 0,110.457 -89.543,200 -200,200 v 0 c -110.457,0 -200,-89.543 -200,-200 v -1600 c 0,-110.457 89.543,-200 200,-200 v 0 c 110.457,0 200,89.543 200,200 z" />
  <path
     style="font-weight:normal;font-size:medium;font-family:sans-serif;text-anchor:start;mix-blend-mode:normal;fill:#1a237e;stroke:none;stroke-width:1;stroke-linecap:butt;stroke-linejoin:miter;stroke-miterlimit:10;stroke-dasharray:none;stroke-dashoffset:0"
     inkscape:connector-curvature="0"
     id="path90"
     d="m 44834.854,25247.697 c -81.571,74.478 -208.073,68.728 -282.551,-12.843 v 0 c -74.478,-81.571 -68.728,-208.073 12.843,-282.551 l 2300,-2100 c 81.571,-74.478 208.073,-68.728 282.551,12.843 v 0 c 74.478,81.571 68.728,208.073 -12.843,282.551 z" />
  <path
     style="font-weight:normal;font-size:medium;font-family:sans-serif;text-anchor:start;mix-blend-mode:normal;fill:#1a237e;stroke:none;stroke-width:1;stroke-linecap:butt;stroke-linejoin:miter;stroke-miterlimit:10;stroke-dasharray:none;stroke-dashoffset:0"
     inkscape:connector-curvature="0"
     id="path92"
     d="m 40338.095,24955.329 c 79.9,76.268 82.844,202.866 6.576,282.766 v 0 c -76.268,79.9 -202.866,82.844 -282.766,6.576 l -2200,-2100 c -79.9,-76.268 -82.844,-202.867 -6.576,-282.766 v 0 c 76.268,-79.9 202.867,-82.844 282.766,-6.576 z" />
  <path
     style="font-weight:normal;font-size:medium;font-family:sans-serif;text-anchor:start;mix-blend-mode:normal;fill:#1a237e;stroke:none;stroke-width:1;stroke-linecap:butt;stroke-linejoin:miter;stroke-miterlimit:10;stroke-dasharray:none;stroke-dashoffset:0"
     inkscape:connector-curvature="0"
     id="path94"
     d="m 54800,35000 c 0,-110.457 89.543,-200 200,-200 v 0 c 110.457,0 200,89.543 200,200 v 1800 c 0,110.457 -89.543,200 -200,200 v 0 c -110.457,0 -200,-89.543 -200,-200 z" />
  <path
     style="font-weight:normal;font-size:medium;font-family:sans-serif;text-anchor:start;mix-blend-mode:normal;fill:#1a237e;stroke:none;stroke-width:1;stroke-linecap:butt;stroke-linejoin:miter;stroke-miterlimit:10;stroke-dasharray:none;stroke-dashoffset:0"
     inkscape:connector-curvature="0"
     id="path96"
     d="m 46600,35000 c 0,-110.457 89.543,-200 200,-200 v 0 c 110.457,0 200,89.543 200,200 v 1800 c 0,110.457 -89.543,200 -200,200 v 0 c -110.457,0 -200,-89.543 -200,-200 z" />
  <path
     style="font-weight:normal;font-size:medium;font-family:sans-serif;text-anchor:start;mix-blend-mode:normal;fill:#1a237e;stroke:none;stroke-width:1;stroke-linecap:butt;stroke-linejoin:miter;stroke-miterlimit:10;stroke-dasharray:none;stroke-dashoffset:0"
     inkscape:connector-curvature="0"
     id="path98"
     d="m 36200,35000 c 0,-110.457 89.543,-200 200,-200 v 0 c 110.457,0 200,89.543 200,200 v 1800 c 0,110.457 -89.543,200 -200,200 v 0 c -110.457,0 -200,-89.543 -200,-200 z" />
  <path
     style="font-weight:normal;font-size:medium;font-family:sans-serif;text-anchor:start;mix-blend-mode:normal;fill:#1a237e;stroke:none;stroke-width:1;stroke-linecap:butt;stroke-linejoin:miter;stroke-miterlimit:10;stroke-dasharray:none;stroke-dashoffset:0"
     inkscape:connector-curvature="0"
     id="path100"
     d="m 54300,35200.5 c -0.276,0 -0.5,-0.224 -0.5,-0.5 v -400 c 0,-0.276 0.224,-0.5 0.5,-0.5 h 1300 c 0.276,0 0.5,0.224 0.5,0.5 v 400 c 0,0.276 -0.224,0.5 -0.5,0.5 z" />
  <path
     style="font-weight:normal;font-size:medium;font-family:sans-serif;text-anchor:start;mix-blend-mode:normal;fill:#1a237e;stroke:none;stroke-width:1;stroke-linecap:butt;stroke-linejoin:miter;stroke-miterlimit:10;stroke-dasharray:none;stroke-dashoffset:0"
     inkscape:connector-curvature="0"
     id="path102"
     d="m 46200,35200.5 c -0.276,0 -0.5,-0.224 -0.5,-0.5 v -400 c 0,-0.276 0.224,-0.5 0.5,-0.5 h 1200 c 0.276,0 0.5,0.224 0.5,0.5 v 400 c 0,0.276 -0.224,0.5 -0.5,0.5 z" />
  <path
     style="font-weight:normal;font-size:medium;font-family:sans-serif;text-anchor:start;mix-blend-mode:normal;fill:#1a237e;stroke:none;stroke-width:1;stroke-linecap:butt;stroke-linejoin:miter;stroke-miterlimit:10;stroke-dasharray:none;stroke-dashoffset:0"
     inkscape:connector-curvature="0"
     id="path104"
     d="m 35800,35200.5 c -0.276,0 -0.5,-0.224 -0.5,-0.5 v -400 c 0,-0.276 0.224,-0.5 0.5,-0.5 h 1200 c 0.276,0 0.5,0.224 0.5,0.5 v 400 c 0,0.276 -0.224,0.5 -0.5,0.5 z" />
  <path
     style="font-weight:normal;font-size:medium;font-family:sans-serif;text-anchor:start;mix-blend-mode:normal;fill:#1a237e;stroke:none;stroke-width:1;stroke-linecap:butt;stroke-linejoin:miter;stroke-miterlimit:10;stroke-dasharray:none;stroke-dashoffset:0"
     inkscape:connector-curvature="0"
     id="path106"
     d="m 44100,25300.5 c -0.276,0 -0.5,-0.224 -0.5,-0.5 v -400 c 0,-0.276 0.224,-0.5 0.5,-0.5 h 1200 c 0.276,0 0.5,0.224 0.5,0.5 v 400 c 0,0.276 -0.224,0.5 -0.5,0.5 z" />
  <path
     style="font-weight:normal;font-size:medium;font-family:sans-serif;text-anchor:start;mix-blend-mode:normal;fill:#1a237e;stroke:none;stroke-width:1;stroke-linecap:butt;stroke-linejoin:miter;stroke-miterlimit:10;stroke-dasharray:none;stroke-dashoffset:0"
     inkscape:connector-curvature="0"
     id="path108"
     d="m 39600,25300.5 c -0.276,0 -0.5,-0.224 -0.5,-0.5 v -400 c 0,-0.276 0.224,-0.5 0.5,-0.5 h 1200 c 0.276,0 0.5,0.224 0.5,0.5 v 400 c 0,0.276 -0.224,0.5 -0.5,0.5 z" />
  <path
     style="font-weight:normal;font-size:medium;font-family:sans-serif;text-anchor:start;mix-blend-mode:normal;fill:#1a237e;stroke:none;stroke-width:1;stroke-linecap:butt;stroke-linejoin:miter;stroke-miterlimit:10;stroke-dasharray:none;stroke-dashoffset:0"
     inkscape:connector-curvature="0"
     id="path110"
     d="m 54300,34300.5 c -0.276,0 -0.5,-0.224 -0.5,-0.5 v -400 c 0,-0.276 0.224,-0.5 0.5,-0.5 h 1300 c 0.276,0 0.5,0.224 0.5,0.5 v 400 c 0,0.276 -0.224,0.5 -0.5,0.5 z" />
  <path
     style="font-weight:normal;font-size:medium;font-family:sans-serif;text-anchor:start;mix-blend-mode:normal;fill:#1a237e;stroke:none;stroke-width:1;stroke-linecap:butt;stroke-linejoin:miter;stroke-miterlimit:10;stroke-dasharray:none;stroke-dashoffset:0"
     inkscape:connector-curvature="0"
     id="path112"
     d="m 46200,34300.5 c -0.276,0 -0.5,-0.224 -0.5,-0.5 v -400 c 0,-0.276 0.224,-0.5 0.5,-0.5 h 1200 c 0.276,0 0.5,0.224 0.5,0.5 v 400 c 0,0.276 -0.224,0.5 -0.5,0.5 z" />
  <path
     style="font-weight:normal;font-size:medium;font-family:sans-serif;text-anchor:start;mix-blend-mode:normal;fill:#1a237e;stroke:none;stroke-width:1;stroke-linecap:butt;stroke-linejoin:miter;stroke-miterlimit:10;stroke-dasharray:none;stroke-dashoffset:0"
     inkscape:connector-curvature="0"
     id="path114"
     d="m 35800,34300.5 c -0.276,0 -0.5,-0.224 -0.5,-0.5 v -400 c 0,-0.276 0.224,-0.5 0.5,-0.5 h 1200 c 0.276,0 0.5,0.224 0.5,0.5 v 400 c 0,0.276 -0.224,0.5 -0.5,0.5 z" />
  <path
     style="font-weight:normal;font-size:medium;font-family:sans-serif;text-anchor:start;mix-blend-mode:normal;fill:#1a237e;stroke:none;stroke-width:1;stroke-linecap:butt;stroke-linejoin:miter;stroke-miterlimit:10;stroke-dasharray:none;stroke-dashoffset:0"
     inkscape:connector-curvature="0"
     id="path116"
     d="m 44100,26200.5 c -0.276,0 -0.5,-0.224 -0.5,-0.5 v -400 c 0,-0.276 0.224,-0.5 0.5,-0.5 h 1200 c 0.276,0 0.5,0.224 0.5,0.5 v 400 c 0,0.276 -0.224,0.5 -0.5,0.5 z" />
  <path
     style="font-weight:normal;font-size:medium;font-family:sans-serif;text-anchor:start;mix-blend-mode:normal;fill:#1a237e;stroke:none;stroke-width:1;stroke-linecap:butt;stroke-linejoin:miter;stroke-miterlimit:10;stroke-dasharray:none;stroke-dashoffset:0"
     inkscape:connector-curvature="0"
     id="path118"
     d="m 39600,26200.5 c -0.276,0 -0.5,-0.224 -0.5,-0.5 v -400 c 0,-0.276 0.224,-0.5 0.5,-0.5 h 1200 c 0.276,0 0.5,0.224 0.5,0.5 v 400 c 0,0.276 -0.224,0.5 -0.5,0.5 z" />
  <path
     style="font-weight:normal;font-size:medium;font-family:sans-serif;text-anchor:start;mix-blend-mode:normal;fill:#1a237e;stroke:none;stroke-width:1;stroke-linecap:butt;stroke-linejoin:miter;stroke-miterlimit:10;stroke-dasharray:none;stroke-dashoffset:0"
     inkscape:connector-curvature="0"
     id="path120"
     d="m 53200,30250 c -138.071,0 -250,-111.929 -250,-250 v 0 c 0,-138.071 111.929,-250 250,-250 h 16800 c 138.071,0 250,111.929 250,250 v 0 c 0,138.071 -111.929,250 -250,250 z" />
  <path
     style="font-weight:normal;font-size:medium;font-family:sans-serif;text-anchor:start;mix-blend-mode:normal;fill:#1a237e;stroke:none;stroke-width:1;stroke-linecap:butt;stroke-linejoin:miter;stroke-miterlimit:10;stroke-dasharray:none;stroke-dashoffset:0"
     inkscape:connector-curvature="0"
     id="path122"
     d="m 39300,29800 c 110.457,0 200,89.543 200,200 v 0 c 0,110.457 -89.543,200 -200,200 h -7300 c -110.457,0 -200,-89.543 -200,-200 v 0 c 0,-110.457 89.543,-200 200,-200 z" />
  <path
     style="font-weight:normal;font-size:medium;font-family:sans-serif;text-anchor:start;mix-blend-mode:normal;fill:#1a237e;stroke:none;stroke-width:1;stroke-linecap:butt;stroke-linejoin:miter;stroke-miterlimit:10;stroke-dasharray:none;stroke-dashoffset:0"
     inkscape:connector-curvature="0"
     id="path124"
     d="m 39186.453,31835.357 c 90.93,-62.71 215.48,-39.833 278.19,51.096 v 0 c 62.71,90.93 39.833,215.48 -51.096,278.19 l -2900,2000 c -90.93,62.71 -215.48,39.833 -278.19,-51.096 v 0 c -62.71,-90.93 -39.833,-215.48 51.096,-278.19 z" />
  <path
     style="font-weight:normal;font-size:medium;font-family:sans-serif;text-anchor:start;mix-blend-mode:normal;fill:#1a237e;stroke:none;stroke-width:1;stroke-linecap:butt;stroke-linejoin:miter;stroke-miterlimit:10;stroke-dasharray:none;stroke-dashoffset:0"
     inkscape:connector-curvature="0"
     id="path126"
     d="m 43689.06,32166.41 c -91.906,-61.27 -116.741,-185.444 -55.47,-277.35 v 0 c 61.27,-91.906 185.444,-116.741 277.35,-55.47 l 3000,2000 c 91.906,61.27 116.741,185.444 55.47,277.35 v 0 c -61.27,91.906 -185.444,116.741 -277.35,55.47 z" />
  <path
     style="font-weight:normal;font-size:medium;font-family:sans-serif;text-anchor:start;mix-blend-mode:normal;fill:#1a237e;stroke:none;stroke-width:1;stroke-linecap:butt;stroke-linejoin:miter;stroke-miterlimit:10;stroke-dasharray:none;stroke-dashoffset:0"
     inkscape:connector-curvature="0"
     id="path128"
     d="m 39100,30000 c 0,-110.457 89.543,-200 200,-200 v 0 c 110.457,0 200,89.543 200,200 v 2000 c 0,110.457 -89.543,200 -200,200 v 0 c -110.457,0 -200,-89.543 -200,-200 z" />
  <path
     style="font-weight:normal;font-size:medium;font-family:sans-serif;text-anchor:start;mix-blend-mode:normal;fill:#1a237e;stroke:none;stroke-width:1;stroke-linecap:butt;stroke-linejoin:miter;stroke-miterlimit:10;stroke-dasharray:none;stroke-dashoffset:0"
     inkscape:connector-curvature="0"
     id="path130"
     d="m 55116.248,33837.253 c 89.882,64.202 110.7,189.112 46.499,278.995 v 0 c -64.202,89.882 -189.112,110.7 -278.995,46.499 l -2800,-2000 c -89.882,-64.202 -110.7,-189.112 -46.499,-278.995 v 0 c 64.202,-89.882 189.112,-110.7 278.995,-46.499 z" />
  <path
     style="font-weight:normal;font-size:medium;font-family:sans-serif;text-anchor:start;mix-blend-mode:normal;fill:#1a237e;stroke:none;stroke-width:1;stroke-linecap:butt;stroke-linejoin:miter;stroke-miterlimit:10;stroke-dasharray:none;stroke-dashoffset:0"
     inkscape:connector-curvature="0"
     id="path132"
     d="m 52000,30000 c 0,-110.457 89.543,-200 200,-200 v 0 c 110.457,0 200,89.543 200,200 v 2000 c 0,110.457 -89.543,200 -200,200 v 0 c -110.457,0 -200,-89.543 -200,-200 z" />
  <path
     style="font-weight:normal;font-size:medium;font-family:sans-serif;text-anchor:start;mix-blend-mode:normal;fill:#1a237e;stroke:none;stroke-width:1;stroke-linecap:butt;stroke-linejoin:miter;stroke-miterlimit:10;stroke-dasharray:none;stroke-dashoffset:0"
     inkscape:connector-curvature="0"
     id="path134"
     d="m 43600,30000 c 0,-110.457 89.543,-200 200,-200 v 0 c 110.457,0 200,89.543 200,200 v 2000 c 0,110.457 -89.543,200 -200,200 v 0 c -110.457,0 -200,-89.543 -200,-200 z" />
  <path
     style="font-weight:normal;font-size:medium;font-family:sans-serif;text-anchor:start;mix-blend-mode:normal;fill:#1a237e;stroke:none;stroke-width:1;stroke-linecap:butt;stroke-linejoin:miter;stroke-miterlimit:10;stroke-dasharray:none;stroke-dashoffset:0"
     inkscape:connector-curvature="0"
     id="path136"
     d="m 40400,30000 c 0,110.457 -89.543,200 -200,200 v 0 c -110.457,0 -200,-89.543 -200,-200 v -3800 c 0,-110.457 89.543,-200 200,-200 v 0 c 110.457,0 200,89.543 200,200 z" />
  <path
     style="font-weight:normal;font-size:medium;font-family:sans-serif;text-anchor:start;mix-blend-mode:normal;fill:#1a237e;stroke:none;stroke-width:1;stroke-linecap:butt;stroke-linejoin:miter;stroke-miterlimit:10;stroke-dasharray:none;stroke-dashoffset:0"
     inkscape:connector-curvature="0"
     id="path138"
     d="m 44900,30000 c 0,110.457 -89.543,200 -200,200 v 0 c -110.457,0 -200,-89.543 -200,-200 v -3800 c 0,-110.457 89.543,-200 200,-200 v 0 c 110.457,0 200,89.543 200,200 z" />
  <path
     style="font-weight:normal;font-size:medium;font-family:sans-serif;text-anchor:start;mix-blend-mode:normal;fill:#1a237e;stroke:none;stroke-width:1;stroke-linecap:butt;stroke-linejoin:miter;stroke-miterlimit:10;stroke-dasharray:none;stroke-dashoffset:0"
     inkscape:connector-curvature="0"
     id="path140"
     d="m 52900,30600.5 c -0.276,0 -0.5,-0.224 -0.5,-0.5 v -1200 c 0,-0.276 0.224,-0.5 0.5,-0.5 h 400 c 0.276,0 0.5,0.224 0.5,0.5 v 1200 c 0,0.276 -0.224,0.5 -0.5,0.5 z" />
  <path
     style="font-weight:normal;font-size:medium;font-family:sans-serif;text-anchor:start;mix-blend-mode:normal;fill:#1a237e;stroke:none;stroke-width:1;stroke-linecap:butt;stroke-linejoin:miter;stroke-miterlimit:10;stroke-dasharray:none;stroke-dashoffset:0"
     inkscape:connector-curvature="0"
     id="path142"
     d="m 52000,30600.5 c -0.276,0 -0.5,-0.224 -0.5,-0.5 v -1200 c 0,-0.276 0.224,-0.5 0.5,-0.5 h 400 c 0.276,0 0.5,0.224 0.5,0.5 v 1200 c 0,0.276 -0.224,0.5 -0.5,0.5 z" />
  <path
     style="font-weight:normal;font-size:medium;font-family:sans-serif;text-anchor:start;mix-blend-mode:normal;fill:#1a237e;stroke:none;stroke-width:1;stroke-linecap:butt;stroke-linejoin:miter;stroke-miterlimit:10;stroke-dasharray:none;stroke-dashoffset:0"
     inkscape:connector-curvature="0"
     id="path144"
     d="m 44800,30250 c -138.071,0 -250,-111.929 -250,-250 v 0 c 0,-138.071 111.929,-250 250,-250 h 7300 c 138.071,0 250,111.929 250,250 v 0 c 0,138.071 -111.929,250 -250,250 z" />
  <path
     style="font-weight:normal;font-size:medium;font-family:sans-serif;text-anchor:start;mix-blend-mode:normal;fill:#1a237e;stroke:none;stroke-width:1;stroke-linecap:butt;stroke-linejoin:miter;stroke-miterlimit:10;stroke-dasharray:none;stroke-dashoffset:0"
     inkscape:connector-curvature="0"
     id="path146"
     d="m 44500,30600.5 c -0.276,0 -0.5,-0.224 -0.5,-0.5 v -1200 c 0,-0.276 0.224,-0.5 0.5,-0.5 h 400 c 0.276,0 0.5,0.224 0.5,0.5 v 1200 c 0,0.276 -0.224,0.5 -0.5,0.5 z" />
  <path
     style="font-weight:normal;font-size:medium;font-family:sans-serif;text-anchor:start;mix-blend-mode:normal;fill:#1a237e;stroke:none;stroke-width:1;stroke-linecap:butt;stroke-linejoin:miter;stroke-miterlimit:10;stroke-dasharray:none;stroke-dashoffset:0"
     inkscape:connector-curvature="0"
     id="path148"
     d="m 39100,30600.5 c -0.276,0 -0.5,-0.224 -0.5,-0.5 v -1200 c 0,-0.276 0.224,-0.5 0.5,-0.5 h 400 c 0.276,0 0.5,0.224 0.5,0.5 v 1200 c 0,0.276 -0.224,0.5 -0.5,0.5 z" />
  <path
     style="font-weight:normal;font-size:medium;font-family:sans-serif;text-anchor:start;mix-blend-mode:normal;fill:#1a237e;stroke:none;stroke-width:1;stroke-linecap:butt;stroke-linejoin:miter;stroke-miterlimit:10;stroke-dasharray:none;stroke-dashoffset:0"
     inkscape:connector-curvature="0"
     id="path150"
     d="m 40000,30600.5 c -0.276,0 -0.5,-0.224 -0.5,-0.5 v -1200 c 0,-0.276 0.224,-0.5 0.5,-0.5 h 400 c 0.276,0 0.5,0.224 0.5,0.5 v 1200 c 0,0.276 -0.224,0.5 -0.5,0.5 z" />
  <path
     style="font-weight:normal;font-size:medium;font-family:sans-serif;text-anchor:start;mix-blend-mode:normal;fill:#1a237e;stroke:none;stroke-width:1;stroke-linecap:butt;stroke-linejoin:miter;stroke-miterlimit:10;stroke-dasharray:none;stroke-dashoffset:0"
     inkscape:connector-curvature="0"
     id="path152"
     d="m 43600,30600.5 c -0.276,0 -0.5,-0.224 -0.5,-0.5 v -1200 c 0,-0.276 0.224,-0.5 0.5,-0.5 h 400 c 0.276,0 0.5,0.224 0.5,0.5 v 1200 c 0,0.276 -0.224,0.5 -0.5,0.5 z" />
  <path
     style="font-weight:normal;font-size:medium;font-family:sans-serif;text-anchor:start;mix-blend-mode:normal;fill:#1a237e;stroke:none;stroke-width:1;stroke-linecap:butt;stroke-linejoin:miter;stroke-miterlimit:10;stroke-dasharray:none;stroke-dashoffset:0"
     inkscape:connector-curvature="0"
     id="path154"
     d="m 40000,30200.5 c -0.276,0 -0.5,-0.224 -0.5,-0.5 v -400 c 0,-0.276 0.224,-0.5 0.5,-0.5 h 4000 c 0.276,0 0.5,0.224 0.5,0.5 v 400 c 0,0.276 -0.224,0.5 -0.5,0.5 z" />
  <path
     inkscape:connector-curvature="0"
     style="font-weight:normal;font-size:medium;font-family:sans-serif;text-anchor:start;mix-blend-mode:normal;fill:url(#color-1);stroke:none;stroke-width:1;stroke-linecap:butt;stroke-linejoin:miter;stroke-miterlimit:10;stroke-dasharray:none;stroke-dashoffset:0"
     id="path164"
     d="m 38750,60000 c 0,-690.356 559.644,-1250 1250,-1250 690.356,0 1250,559.644 1250,1250 0,690.356 -559.644,1250 -1250,1250 -690.356,0 -1250,-559.644 -1250,-1250 z" />
  <path
     inkscape:connector-curvature="0"
     style="font-weight:normal;font-size:medium;font-family:sans-serif;text-anchor:start;mix-blend-mode:normal;fill:url(#color-2);stroke:none;stroke-width:1;stroke-linecap:butt;stroke-linejoin:miter;stroke-miterlimit:10;stroke-dasharray:none;stroke-dashoffset:0"
     id="path166"
     d="m 45750,21000 c 0,-690.356 559.644,-1250 1250,-1250 690.356,0 1250,559.644 1250,1250 0,690.356 -559.644,1250 -1250,1250 -690.356,0 -1250,-559.644 -1250,-1250 z" />
  <path
     inkscape:connector-curvature="0"
     style="font-weight:normal;font-size:medium;font-family:sans-serif;text-anchor:start;mix-blend-mode:normal;fill:url(#color-3);stroke:none;stroke-width:1;stroke-linecap:butt;stroke-linejoin:miter;stroke-miterlimit:10;stroke-dasharray:none;stroke-dashoffset:0"
     id="path168"
     d="m 36750,21000 c 0,-690.356 559.644,-1250 1250,-1250 690.356,0 1250,559.644 1250,1250 0,690.356 -559.644,1250 -1250,1250 -690.356,0 -1250,-559.644 -1250,-1250 z" />
  <path
     inkscape:connector-curvature="0"
     style="font-weight:normal;font-size:medium;font-family:sans-serif;text-anchor:start;mix-blend-mode:normal;fill:url(#color-4);stroke:none;stroke-width:1;stroke-linecap:butt;stroke-linejoin:miter;stroke-miterlimit:10;stroke-dasharray:none;stroke-dashoffset:0"
     id="path170"
     d="m 53750,37100 c 0,-690.356 559.644,-1250 1250,-1250 690.356,0 1250,559.644 1250,1250 0,690.356 -559.644,1250 -1250,1250 -690.356,0 -1250,-559.644 -1250,-1250 z" />
  <path
     inkscape:connector-curvature="0"
     style="font-weight:normal;font-size:medium;font-family:sans-serif;text-anchor:start;mix-blend-mode:normal;fill:url(#color-5);stroke:none;stroke-width:1;stroke-linecap:butt;stroke-linejoin:miter;stroke-miterlimit:10;stroke-dasharray:none;stroke-dashoffset:0"
     id="path172"
     d="m 45550,37100 c 0,-690.356 559.644,-1250 1250,-1250 690.356,0 1250,559.644 1250,1250 0,690.356 -559.644,1250 -1250,1250 -690.356,0 -1250,-559.644 -1250,-1250 z" />
  <path
     inkscape:connector-curvature="0"
     style="font-weight:normal;font-size:medium;font-family:sans-serif;text-anchor:start;mix-blend-mode:normal;fill:url(#color-6);stroke:none;stroke-width:1;stroke-linecap:butt;stroke-linejoin:miter;stroke-miterlimit:10;stroke-dasharray:none;stroke-dashoffset:0"
     id="path174"
     d="m 35150,37100 c 0,-690.356 559.644,-1250 1250,-1250 690.356,0 1250,559.644 1250,1250 0,690.356 -559.644,1250 -1250,1250 -690.356,0 -1250,-559.644 -1250,-1250 z" />
  <path
     inkscape:connector-curvature="0"
     style="font-weight:normal;font-size:medium;font-family:sans-serif;text-anchor:start;mix-blend-mode:normal;fill:url(#color-7);stroke:none;stroke-width:1;stroke-linecap:butt;stroke-linejoin:miter;stroke-miterlimit:10;stroke-dasharray:none;stroke-dashoffset:0"
     id="path176"
     d="m 29750,30000 c 0,-690.356 559.644,-1250 1250,-1250 690.356,0 1250,559.644 1250,1250 0,690.356 -559.644,1250 -1250,1250 -690.356,0 -1250,-559.644 -1250,-1250 z" />
  <path
     inkscape:connector-curvature="0"
     style="font-weight:normal;font-size:medium;font-family:sans-serif;text-anchor:start;mix-blend-mode:normal;fill:url(#color-8);stroke:none;stroke-width:1;stroke-linecap:butt;stroke-linejoin:miter;stroke-miterlimit:10;stroke-dasharray:none;stroke-dashoffset:0"
     id="path178"
     d="m 38990,60000 c 0,-557.808 452.192,-1010 1010,-1010 557.808,0 1010,452.192 1010,1010 0,557.808 -452.192,1010 -1010,1010 -557.808,0 -1010,-452.192 -1010,-1010 z" />
  <path
     inkscape:connector-curvature="0"
     style="font-weight:normal;font-size:medium;font-family:sans-serif;text-anchor:start;mix-blend-mode:normal;fill:url(#color-9);stroke:none;stroke-width:1;stroke-linecap:butt;stroke-linejoin:miter;stroke-miterlimit:10;stroke-dasharray:none;stroke-dashoffset:0"
     id="path180"
     d="m 45990,21000 c 0,-557.808 452.192,-1010 1010,-1010 557.808,0 1010,452.192 1010,1010 0,557.808 -452.192,1010 -1010,1010 -557.808,0 -1010,-452.192 -1010,-1010 z" />
  <path
     inkscape:connector-curvature="0"
     style="font-weight:normal;font-size:medium;font-family:sans-serif;text-anchor:start;mix-blend-mode:normal;fill:url(#color-10);stroke:none;stroke-width:1;stroke-linecap:butt;stroke-linejoin:miter;stroke-miterlimit:10;stroke-dasharray:none;stroke-dashoffset:0"
     id="path182"
     d="m 36990,21000 c 0,-557.808 452.192,-1010 1010,-1010 557.808,0 1010,452.192 1010,1010 0,557.808 -452.192,1010 -1010,1010 -557.808,0 -1010,-452.192 -1010,-1010 z" />
  <path
     inkscape:connector-curvature="0"
     style="font-weight:normal;font-size:medium;font-family:sans-serif;text-anchor:start;mix-blend-mode:normal;fill:url(#color-11);stroke:none;stroke-width:1;stroke-linecap:butt;stroke-linejoin:miter;stroke-miterlimit:10;stroke-dasharray:none;stroke-dashoffset:0"
     id="path184"
     d="m 53990,37100 c 0,-557.808 452.192,-1010 1010,-1010 557.808,0 1010,452.192 1010,1010 0,557.808 -452.192,1010 -1010,1010 -557.808,0 -1010,-452.192 -1010,-1010 z" />
  <path
     inkscape:connector-curvature="0"
     style="font-weight:normal;font-size:medium;font-family:sans-serif;text-anchor:start;mix-blend-mode:normal;fill:url(#color-12);stroke:none;stroke-width:1;stroke-linecap:butt;stroke-linejoin:miter;stroke-miterlimit:10;stroke-dasharray:none;stroke-dashoffset:0"
     id="path186"
     d="m 45790,37100 c 0,-557.808 452.192,-1010 1010,-1010 557.808,0 1010,452.192 1010,1010 0,557.808 -452.192,1010 -1010,1010 -557.808,0 -1010,-452.192 -1010,-1010 z" />
  <path
     inkscape:connector-curvature="0"
     style="font-weight:normal;font-size:medium;font-family:sans-serif;text-anchor:start;mix-blend-mode:normal;fill:url(#color-13);stroke:none;stroke-width:1;stroke-linecap:butt;stroke-linejoin:miter;stroke-miterlimit:10;stroke-dasharray:none;stroke-dashoffset:0"
     id="path188"
     d="m 35390,37100 c 0,-557.808 452.192,-1010 1010,-1010 557.808,0 1010,452.192 1010,1010 0,557.808 -452.192,1010 -1010,1010 -557.808,0 -1010,-452.192 -1010,-1010 z" />
  <path
     inkscape:connector-curvature="0"
     style="font-weight:normal;font-size:medium;font-family:sans-serif;text-anchor:start;mix-blend-mode:normal;fill:url(#color-14);stroke:none;stroke-width:1;stroke-linecap:butt;stroke-linejoin:miter;stroke-miterlimit:10;stroke-dasharray:none;stroke-dashoffset:0"
     id="path190"
     d="m 29990,30000 c 0,-557.808 452.192,-1010 1010,-1010 557.808,0 1010,452.192 1010,1010 0,557.808 -452.192,1010 -1010,1010 -557.808,0 -1010,-452.192 -1010,-1010 z" />
</svg>
