<?xml version="1.0" encoding="UTF-8" standalone="no"?>
<svg
   xmlns:dc="http://purl.org/dc/elements/1.1/"
   xmlns:cc="http://creativecommons.org/ns#"
   xmlns:rdf="http://www.w3.org/1999/02/22-rdf-syntax-ns#"
   xmlns:svg="http://www.w3.org/2000/svg"
   xmlns="http://www.w3.org/2000/svg"
   xmlns:sodipodi="http://sodipodi.sourceforge.net/DTD/sodipodi-0.dtd"
   xmlns:inkscape="http://www.inkscape.org/namespaces/inkscape"
   width="135mm"
   height="85mm"
   viewBox="0 0 135000 85000"
   version="1.1"
   id="svg115"
   sodipodi:docname="F.svg"
   inkscape:version="0.92.1 r15371">
  <metadata
     id="metadata119">
    <rdf:RDF>
      <cc:Work
         rdf:about="">
        <dc:format>image/svg+xml</dc:format>
        <dc:type
           rdf:resource="http://purl.org/dc/dcmitype/StillImage" />
        <dc:title></dc:title>
      </cc:Work>
    </rdf:RDF>
  </metadata>
  <sodipodi:namedview
     pagecolor="#ffffff"
     bordercolor="#666666"
     borderopacity="1"
     objecttolerance="10"
     gridtolerance="10"
     guidetolerance="10"
     inkscape:pageopacity="0"
     inkscape:pageshadow="2"
     inkscape:window-width="640"
     inkscape:window-height="480"
     id="namedview117"
     showgrid="false"
     inkscape:zoom="0.56248457"
     inkscape:cx="255.11811"
     inkscape:cy="160.62992"
     inkscape:window-x="0"
     inkscape:window-y="0"
     inkscape:window-maximized="0"
     inkscape:current-layer="svg115" />
  <defs
     id="defs37">
    <radialGradient
       cx="72000"
       cy="29000"
       r="789"
       gradientUnits="userSpaceOnUse"
       id="color-1">
      <stop
         offset="1"
         stop-color="#5c6bc0"
         id="stop2" />
      <stop
         offset="1"
         stop-color="#1a237e"
         id="stop4" />
    </radialGradient>
    <radialGradient
       cx="26000"
       cy="30000"
       r="789"
       gradientUnits="userSpaceOnUse"
       id="color-2">
      <stop
         offset="1"
         stop-color="#5c6bc0"
         id="stop7" />
      <stop
         offset="1"
         stop-color="#1a237e"
         id="stop9" />
    </radialGradient>
    <radialGradient
       cx="53000"
       cy="35800"
       r="789"
       gradientUnits="userSpaceOnUse"
       id="color-3">
      <stop
         offset="1"
         stop-color="#5c6bc0"
         id="stop12" />
      <stop
         offset="1"
         stop-color="#1a237e"
         id="stop14" />
    </radialGradient>
    <radialGradient
       cx="36000"
       cy="35800"
       r="789"
       gradientUnits="userSpaceOnUse"
       id="color-4">
      <stop
         offset="1"
         stop-color="#5c6bc0"
         id="stop17" />
      <stop
         offset="1"
         stop-color="#1a237e"
         id="stop19" />
    </radialGradient>
    <radialGradient
       cx="33000"
       cy="35800"
       r="789"
       gradientUnits="userSpaceOnUse"
       id="color-5">
      <stop
         offset="1"
         stop-color="#5c6bc0"
         id="stop22" />
      <stop
         offset="1"
         stop-color="#1a237e"
         id="stop24" />
    </radialGradient>
    <radialGradient
       cx="37000"
       cy="24200"
       r="789"
       gradientUnits="userSpaceOnUse"
       id="color-6">
      <stop
         offset="1"
         stop-color="#5c6bc0"
         id="stop27" />
      <stop
         offset="1"
         stop-color="#1a237e"
         id="stop29" />
    </radialGradient>
    <radialGradient
       cx="34000"
       cy="24200"
       r="789"
       gradientUnits="userSpaceOnUse"
       id="color-7">
      <stop
         offset="1"
         stop-color="#5c6bc0"
         id="stop32" />
      <stop
         offset="1"
         stop-color="#1a237e"
         id="stop34" />
    </radialGradient>
  </defs>
  <g
     fill="none"
     stroke="none"
     stroke-width="1"
     stroke-linecap="butt"
     stroke-linejoin="miter"
     stroke-miterlimit="10"
     stroke-dasharray=""
     stroke-dashoffset="0"
     font-family="sans-serif"
     font-weight="normal"
     font-size="12"
     text-anchor="start"
     mix-blend-mode="normal"
     id="g113">
    <path
       d="M35800,34300c0,-110.45695 89.54305,-200 200,-200l0,0c110.45695,0 200,89.54305 200,200l0,1200c0,110.45695 -89.54305,200 -200,200l0,0c-110.45695,0 -200,-89.54305 -200,-200z"
       fill="#1a237e"
       id="path39" />
    <path
       d="M32800,34400c0,-110.45695 89.54305,-200 200,-200l0,0c110.45695,0 200,89.54305 200,200l0,1100c0,110.45695 -89.54305,200 -200,200l0,0c-110.45695,0 -200,-89.54305 -200,-200z"
       fill="#1a237e"
       id="path41" />
    <path
       d="M33800,24600c0,-110.45695 89.54305,-200 200,-200l0,0c110.45695,0 200,89.54305 200,200l0,1000c0,110.45695 -89.54305,200 -200,200l0,0c-110.45695,0 -200,-89.54305 -200,-200z"
       fill="#1a237e"
       id="path43" />
    <path
       d="M36750,24800c0,-138.07119 111.92881,-250 250,-250l0,0c138.07119,0 250,111.92881 250,250l0,800c0,138.07119 -111.92881,250 -250,250l0,0c-138.07119,0 -250,-111.92881 -250,-250z"
       fill="#1a237e"
       id="path45" />
    <path
       d="M52750,34400c0,-138.07119 111.92881,-250 250,-250l0,0c138.07119,0 250,111.92881 250,250l0,800c0,138.07119 -111.92881,250 -250,250l0,0c-138.07119,0 -250,-111.92881 -250,-250z"
       fill="#1a237e"
       id="path47" />
    <path
       d="M69500,29250c-138.07119,0 -250,-111.92881 -250,-250l0,0c0,-138.07119 111.92881,-250 250,-250l2500,0c138.07119,0 250,111.92881 250,250l0,0c0,138.07119 -111.92881,250 -250,250z"
       fill="#1a237e"
       id="path49" />
    <path
       d="M69750,29500c0,138.07119 -111.92881,250 -250,250l0,0c-138.07119,0 -250,-111.92881 -250,-250l0,-500c0,-138.07119 111.92881,-250 250,-250l0,0c138.07119,0 250,111.92881 250,250z"
       fill="#1a237e"
       id="path51" />
    <path
       d="M33000,29800c110.45695,0 200,89.54305 200,200l0,0c0,110.45695 -89.54305,200 -200,200l-7000,0c-110.45695,0 -200,-89.54305 -200,-200l0,0c0,-110.45695 89.54305,-200 200,-200z"
       fill="#1a237e"
       id="path53" />
    <path
       d="M32800,30000c0,-110.45695 89.54305,-200 200,-200l0,0c110.45695,0 200,89.54305 200,200l0,3000c0,110.45695 -89.54305,200 -200,200l0,0c-110.45695,0 -200,-89.54305 -200,-200z"
       fill="#1a237e"
       id="path55" />
    <path
       d="M34200,30000c0,110.45695 -89.54305,200 -200,200l0,0c-110.45695,0 -200,-89.54305 -200,-200l0,-3000c0,-110.45695 89.54305,-200 200,-200l0,0c110.45695,0 200,89.54305 200,200z"
       fill="#1a237e"
       id="path57" />
    <path
       d="M36000,29800c110.45695,0 200,89.54305 200,200l0,0c0,110.45695 -89.54305,200 -200,200l-2000,0c-110.45695,0 -200,-89.54305 -200,-200l0,0c0,-110.45695 89.54305,-200 200,-200z"
       fill="#1a237e"
       id="path59" />
    <path
       d="M35800,30000c0,-110.45695 89.54305,-200 200,-200l0,0c110.45695,0 200,89.54305 200,200l0,3000c0,110.45695 -89.54305,200 -200,200l0,0c-110.45695,0 -200,-89.54305 -200,-200z"
       fill="#1a237e"
       id="path61" />
    <path
       d="M36750,27000c0,-138.07119 111.92881,-250 250,-250l0,0c138.07119,0 250,111.92881 250,250l0,3000c0,138.07119 -111.92881,250 -250,250l0,0c-138.07119,0 -250,-111.92881 -250,-250z"
       fill="#1a237e"
       id="path63" />
    <path
       d="M57000,29750c138.07119,0 250,111.92881 250,250l0,0c0,138.07119 -111.92881,250 -250,250l-3000,0c-138.07119,0 -250,-111.92881 -250,-250l0,0c0,-138.07119 111.92881,-250 250,-250z"
       fill="#1a237e"
       id="path65" />
    <path
       d="M56750,29500c0,-138.07119 111.92881,-250 250,-250l0,0c138.07119,0 250,111.92881 250,250l0,500c0,138.07119 -111.92881,250 -250,250l0,0c-138.07119,0 -250,-111.92881 -250,-250z"
       fill="#1a237e"
       id="path67" />
    <path
       d="M56750,29500l0,-1750l500,0l0,1750z M58500,28250l0,-500l-1250,0l0,500z M58500,31250l0,-3000l-500,0l0,3000z M59750,31250l0,-500l-1250,0l0,500z M59750,30750l0,-3000l-500,0l0,3000z M61000,28250l0,-500l-1250,0l0,500z M61000,31250l0,-3000l-500,0l0,3000z M62250,31250l0,-500l-1250,0l0,500z M62250,30750l0,-3000l-500,0l0,3000z M63500,28250l0,-500l-1250,0l0,500z M63500,31250l0,-3000l-500,0l0,3000z M64750,31250l0,-500l-1250,0l0,500z M64750,30750l0,-3000l-500,0l0,3000z M66000,28250l0,-500l-1250,0l0,500z M66000,31250l0,-3000l-500,0l0,3000z M67250,31250l0,-500l-1250,0l0,500z M67250,30750l0,-3000l-500,0l0,3000z M68500,28250l0,-500l-1250,0l0,500z M68500,31250l0,-3000l-500,0l0,3000z M69750,31250l0,-500l-1250,0l0,500z M69750,30750l0,-1250l-500,0l0,1250z"
       fill="#1a237e"
       id="path69" />
    <path
       d="M52750,30000c0,-138.07119 111.92881,-250 250,-250l0,0c138.07119,0 250,111.92881 250,250l0,3000c0,138.07119 -111.92881,250 -250,250l0,0c-138.07119,0 -250,-111.92881 -250,-250z"
       fill="#1a237e"
       id="path71" />
    <path
       d="M37000,30250c-138.07119,0 -250,-111.92881 -250,-250l0,0c0,-138.07119 111.92881,-250 250,-250l16000,0c138.07119,0 250,111.92881 250,250l0,0c0,138.07119 -111.92881,250 -250,250z"
       fill="#1a237e"
       id="path73" />
    <path
       d="M400,85000c0,220.9139 -179.0861,400 -400,400l0,0c-220.9139,0 -400,-179.0861 -400,-400l0,-85000c0,-220.9139 179.0861,-400 400,-400l0,0c220.9139,0 400,179.0861 400,400z"
       fill="#1a237e"
       id="path75" />
    <path
       d="M135000,84600c220.9139,0 400,179.0861 400,400l0,0c0,220.9139 -179.0861,400 -400,400l-135000,0c-220.9139,0 -400,-179.0861 -400,-400l0,0c0,-220.9139 179.0861,-400 400,-400z"
       fill="#1a237e"
       id="path77" />
    <path
       d="M134600,0c0,-220.9139 179.0861,-400 400,-400l0,0c220.9139,0 400,179.0861 400,400l0,85000c0,220.9139 -179.0861,400 -400,400l0,0c-220.9139,0 -400,-179.0861 -400,-400z"
       fill="#1a237e"
       id="path79" />
    <path
       d="M0,400c-220.9139,0 -400,-179.0861 -400,-400l0,0c0,-220.9139 179.0861,-400 400,-400l135000,0c220.9139,0 400,179.0861 400,400l0,0c0,220.9139 -179.0861,400 -400,400z"
       fill="#1a237e"
       id="path81" />
    <path
       d="M52230,33700c0,-425.25926 344.74074,-770 770,-770c425.25926,0 770,344.74074 770,770c0,425.25926 -344.74074,770 -770,770c-425.25926,0 -770,-344.74074 -770,-770z M53770,34000l0,-600l-1540,0l0,600z"
       fill="#3f51b5"
       id="path83" />
    <path
       d="M35230,33700c0,-425.25926 344.74074,-770 770,-770c425.25926,0 770,344.74074 770,770c0,425.25926 -344.74074,770 -770,770c-425.25926,0 -770,-344.74074 -770,-770z M36770,34000l0,-600l-1540,0l0,600z"
       fill="#3f51b5"
       id="path85" />
    <path
       d="M32230,33700c0,-425.25926 344.74074,-770 770,-770c425.25926,0 770,344.74074 770,770c0,425.25926 -344.74074,770 -770,770c-425.25926,0 -770,-344.74074 -770,-770z M33770,34000l0,-600l-1540,0l0,600z"
       fill="#3f51b5"
       id="path87" />
    <path
       d="M36230,26300c0,-425.25926 344.74074,-770 770,-770c425.25926,0 770,344.74074 770,770c0,425.25926 -344.74074,770 -770,770c-425.25926,0 -770,-344.74074 -770,-770z M37770,26600l0,-600l-1540,0l0,600z"
       fill="#3f51b5"
       id="path89" />
    <path
       d="M33230,26300c0,-425.25926 344.74074,-770 770,-770c425.25926,0 770,344.74074 770,770c0,425.25926 -344.74074,770 -770,770c-425.25926,0 -770,-344.74074 -770,-770z M34770,26600l0,-600l-1540,0l0,600z"
       fill="#3f51b5"
       id="path91" />
    <path
       d="M52730,30000c0,-425.25926 344.74074,-770 770,-770c425.25926,0 770,344.74074 770,770c0,425.25926 -344.74074,770 -770,770c-425.25926,0 -770,-344.74074 -770,-770z M53800,30770l0,-1540l-600,0l0,1540z"
       fill="#3f51b5"
       id="path93" />
    <path
       d="M35730,30000c0,-425.25926 344.74074,-770 770,-770c425.25926,0 770,344.74074 770,770c0,425.25926 -344.74074,770 -770,770c-425.25926,0 -770,-344.74074 -770,-770z M36800,30770l0,-1540l-600,0l0,1540z"
       fill="#3f51b5"
       id="path95" />
    <path
       d="M32730,30000c0,-425.25926 344.74074,-770 770,-770c425.25926,0 770,344.74074 770,770c0,425.25926 -344.74074,770 -770,770c-425.25926,0 -770,-344.74074 -770,-770z M33800,30770l0,-1540l-600,0l0,1540z"
       fill="#3f51b5"
       id="path97" />
    <path
       d="M71211,29000c0,-435.75267 353.24733,-789 789,-789c435.75267,0 789,353.24733 789,789c0,435.75267 -353.24733,789 -789,789c-435.75267,0 -789,-353.24733 -789,-789z"
       fill="url(#color-1)"
       id="path99" />
    <path
       d="M25211,30000c0,-435.75267 353.24733,-789 789,-789c435.75267,0 789,353.24733 789,789c0,435.75267 -353.24733,789 -789,789c-435.75267,0 -789,-353.24733 -789,-789z"
       fill="url(#color-2)"
       id="path101" />
    <path
       d="M52211,35800c0,-435.75267 353.24733,-789 789,-789c435.75267,0 789,353.24733 789,789c0,435.75267 -353.24733,789 -789,789c-435.75267,0 -789,-353.24733 -789,-789z"
       fill="url(#color-3)"
       id="path103" />
    <path
       d="M35211,35800c0,-435.75267 353.24733,-789 789,-789c435.75267,0 789,353.24733 789,789c0,435.75267 -353.24733,789 -789,789c-435.75267,0 -789,-353.24733 -789,-789z"
       fill="url(#color-4)"
       id="path105" />
    <path
       d="M32211,35800c0,-435.75267 353.24733,-789 789,-789c435.75267,0 789,353.24733 789,789c0,435.75267 -353.24733,789 -789,789c-435.75267,0 -789,-353.24733 -789,-789z"
       fill="url(#color-5)"
       id="path107" />
    <path
       d="M36211,24200c0,-435.75267 353.24733,-789 789,-789c435.75267,0 789,353.24733 789,789c0,435.75267 -353.24733,789 -789,789c-435.75267,0 -789,-353.24733 -789,-789z"
       fill="url(#color-6)"
       id="path109" />
    <path
       d="M33211,24200c0,-435.75267 353.24733,-789 789,-789c435.75267,0 789,353.24733 789,789c0,435.75267 -353.24733,789 -789,789c-435.75267,0 -789,-353.24733 -789,-789z"
       fill="url(#color-7)"
       id="path111" />
  </g>
</svg>
