<?xml version="1.0" encoding="UTF-8" standalone="no"?>
<svg
   xmlns:dc="http://purl.org/dc/elements/1.1/"
   xmlns:cc="http://creativecommons.org/ns#"
   xmlns:rdf="http://www.w3.org/1999/02/22-rdf-syntax-ns#"
   xmlns:svg="http://www.w3.org/2000/svg"
   xmlns="http://www.w3.org/2000/svg"
   xmlns:sodipodi="http://sodipodi.sourceforge.net/DTD/sodipodi-0.dtd"
   xmlns:inkscape="http://www.inkscape.org/namespaces/inkscape"
   width="135mm"
   height="85mm"
   viewBox="0 0 135000 85000"
   version="1.1"
   id="svg178"
   sodipodi:docname="F.svg"
   inkscape:version="0.92.1 r15371">
  <metadata
     id="metadata182">
    <rdf:RDF>
      <cc:Work
         rdf:about="">
        <dc:format>image/svg+xml</dc:format>
        <dc:type
           rdf:resource="http://purl.org/dc/dcmitype/StillImage" />
        <dc:title />
      </cc:Work>
    </rdf:RDF>
  </metadata>
  <sodipodi:namedview
     pagecolor="#ffffff"
     bordercolor="#666666"
     borderopacity="1"
     objecttolerance="10"
     gridtolerance="10"
     guidetolerance="10"
     inkscape:pageopacity="0"
     inkscape:pageshadow="2"
     inkscape:window-width="1536"
     inkscape:window-height="801"
     id="namedview180"
     showgrid="false"
     inkscape:zoom="1.5909466"
     inkscape:cx="287.16021"
     inkscape:cy="162.09349"
     inkscape:window-x="-8"
     inkscape:window-y="-8"
     inkscape:window-maximized="1"
     inkscape:current-layer="svg178" />
  <defs
     id="defs72">
    <radialGradient
       cx="26000"
       cy="30000"
       r="900"
       gradientUnits="userSpaceOnUse"
       id="color-1">
      <stop
         offset="1"
         stop-color="#5c6bc0"
         id="stop2" />
      <stop
         offset="1"
         stop-color="#1a237e"
         id="stop4" />
    </radialGradient>
    <radialGradient
       cx="38300"
       cy="50000"
       r="900"
       gradientUnits="userSpaceOnUse"
       id="color-2">
      <stop
         offset="1"
         stop-color="#5c6bc0"
         id="stop7" />
      <stop
         offset="1"
         stop-color="#1a237e"
         id="stop9" />
    </radialGradient>
    <radialGradient
       cx="53000"
       cy="36000"
       r="900"
       gradientUnits="userSpaceOnUse"
       id="color-3">
      <stop
         offset="1"
         stop-color="#5c6bc0"
         id="stop12" />
      <stop
         offset="1"
         stop-color="#1a237e"
         id="stop14" />
    </radialGradient>
    <radialGradient
       cx="38100"
       cy="35300"
       r="900"
       gradientUnits="userSpaceOnUse"
       id="color-4">
      <stop
         offset="1"
         stop-color="#5c6bc0"
         id="stop17" />
      <stop
         offset="1"
         stop-color="#1a237e"
         id="stop19" />
    </radialGradient>
    <radialGradient
       cx="31000"
       cy="35300"
       r="900"
       gradientUnits="userSpaceOnUse"
       id="color-5">
      <stop
         offset="1"
         stop-color="#5c6bc0"
         id="stop22" />
      <stop
         offset="1"
         stop-color="#1a237e"
         id="stop24" />
    </radialGradient>
    <radialGradient
       cx="39000"
       cy="24700"
       r="900"
       gradientUnits="userSpaceOnUse"
       id="color-6">
      <stop
         offset="1"
         stop-color="#5c6bc0"
         id="stop27" />
      <stop
         offset="1"
         stop-color="#1a237e"
         id="stop29" />
    </radialGradient>
    <radialGradient
       cx="32000"
       cy="24700"
       r="900"
       gradientUnits="userSpaceOnUse"
       id="color-7">
      <stop
         offset="1"
         stop-color="#5c6bc0"
         id="stop32" />
      <stop
         offset="1"
         stop-color="#1a237e"
         id="stop34" />
    </radialGradient>
    <radialGradient
       cx="38100"
       cy="35300"
       r="798"
       gradientUnits="userSpaceOnUse"
       id="color-8">
      <stop
         offset="1"
         stop-color="#5c6bc0"
         id="stop37" />
      <stop
         offset="1"
         stop-color="#1a237e"
         id="stop39" />
    </radialGradient>
    <radialGradient
       cx="31000"
       cy="35300"
       r="798"
       gradientUnits="userSpaceOnUse"
       id="color-9">
      <stop
         offset="1"
         stop-color="#5c6bc0"
         id="stop42" />
      <stop
         offset="1"
         stop-color="#1a237e"
         id="stop44" />
    </radialGradient>
    <radialGradient
       cx="39000"
       cy="24700"
       r="798"
       gradientUnits="userSpaceOnUse"
       id="color-10">
      <stop
         offset="1"
         stop-color="#5c6bc0"
         id="stop47" />
      <stop
         offset="1"
         stop-color="#1a237e"
         id="stop49" />
    </radialGradient>
    <radialGradient
       cx="32000"
       cy="24700"
       r="798"
       gradientUnits="userSpaceOnUse"
       id="color-11">
      <stop
         offset="1"
         stop-color="#5c6bc0"
         id="stop52" />
      <stop
         offset="1"
         stop-color="#1a237e"
         id="stop54" />
    </radialGradient>
    <radialGradient
       cx="53000"
       cy="36000"
       r="798"
       gradientUnits="userSpaceOnUse"
       id="color-12">
      <stop
         offset="1"
         stop-color="#5c6bc0"
         id="stop57" />
      <stop
         offset="1"
         stop-color="#1a237e"
         id="stop59" />
    </radialGradient>
    <radialGradient
       cx="38300"
       cy="50000"
       r="798"
       gradientUnits="userSpaceOnUse"
       id="color-13">
      <stop
         offset="1"
         stop-color="#5c6bc0"
         id="stop62" />
      <stop
         offset="1"
         stop-color="#1a237e"
         id="stop64" />
    </radialGradient>
    <radialGradient
       cx="26000"
       cy="30000"
       r="798"
       gradientUnits="userSpaceOnUse"
       id="color-14">
      <stop
         offset="1"
         stop-color="#5c6bc0"
         id="stop67" />
      <stop
         offset="1"
         stop-color="#1a237e"
         id="stop69" />
    </radialGradient>
  </defs>
  <path
     style="font-weight:normal;font-size:medium;font-family:sans-serif;text-anchor:start;mix-blend-mode:normal;fill:#1a237e;stroke:none;stroke-width:1;stroke-linecap:butt;stroke-linejoin:miter;stroke-miterlimit:10;stroke-dasharray:none;stroke-dashoffset:0"
     inkscape:connector-curvature="0"
     id="path74"
     d="m 39200,25800 c 0,110.457 -89.543,200 -200,200 v 0 c -110.457,0 -200,-89.543 -200,-200 v -500 c 0,-110.457 89.543,-200 200,-200 v 0 c 110.457,0 200,89.543 200,200 z" />
  <path
     style="font-weight:normal;font-size:medium;font-family:sans-serif;text-anchor:start;mix-blend-mode:normal;fill:#1a237e;stroke:none;stroke-width:1;stroke-linecap:butt;stroke-linejoin:miter;stroke-miterlimit:10;stroke-dasharray:none;stroke-dashoffset:0"
     inkscape:connector-curvature="0"
     id="path76"
     d="m 32200,25800 c 0,110.457 -89.543,200 -200,200 v 0 c -110.457,0 -200,-89.543 -200,-200 v -400 c 0,-110.457 89.543,-200 200,-200 v 0 c 110.457,0 200,89.543 200,200 z" />
  <path
     style="font-weight:normal;font-size:medium;font-family:sans-serif;text-anchor:start;mix-blend-mode:normal;fill:#1a237e;stroke:none;stroke-width:1;stroke-linecap:butt;stroke-linejoin:miter;stroke-miterlimit:10;stroke-dasharray:none;stroke-dashoffset:0"
     inkscape:connector-curvature="0"
     id="path78"
     d="m 30800,34200 c 0,-110.457 89.543,-200 200,-200 v 0 c 110.457,0 200,89.543 200,200 v 500 c 0,110.457 -89.543,200 -200,200 v 0 c -110.457,0 -200,-89.543 -200,-200 z" />
  <path
     style="font-weight:normal;font-size:medium;font-family:sans-serif;text-anchor:start;mix-blend-mode:normal;fill:#1a237e;stroke:none;stroke-width:1;stroke-linecap:butt;stroke-linejoin:miter;stroke-miterlimit:10;stroke-dasharray:none;stroke-dashoffset:0"
     inkscape:connector-curvature="0"
     id="path80"
     d="m 37900,34200 c 0,-110.457 89.543,-200 200,-200 v 0 c 110.457,0 200,89.543 200,200 v 400 c 0,110.457 -89.543,200 -200,200 v 0 c -110.457,0 -200,-89.543 -200,-200 z" />
  <path
     style="font-weight:normal;font-size:medium;font-family:sans-serif;text-anchor:start;mix-blend-mode:normal;fill:#1a237e;stroke:none;stroke-width:1;stroke-linecap:butt;stroke-linejoin:miter;stroke-miterlimit:10;stroke-dasharray:none;stroke-dashoffset:0"
     inkscape:connector-curvature="0"
     id="path82"
     d="m 37000,26000 c -110.457,0 -200,-89.543 -200,-200 v 0 c 0,-110.457 89.543,-200 200,-200 h 2000 c 110.457,0 200,89.543 200,200 v 0 c 0,110.457 -89.543,200 -200,200 z" />
  <path
     style="font-weight:normal;font-size:medium;font-family:sans-serif;text-anchor:start;mix-blend-mode:normal;fill:#1a237e;stroke:none;stroke-width:1;stroke-linecap:butt;stroke-linejoin:miter;stroke-miterlimit:10;stroke-dasharray:none;stroke-dashoffset:0"
     inkscape:connector-curvature="0"
     id="path84"
     d="m 34000,25600 c 110.457,0 200,89.543 200,200 v 0 c 0,110.457 -89.543,200 -200,200 h -2000 c -110.457,0 -200,-89.543 -200,-200 v 0 c 0,-110.457 89.543,-200 200,-200 z" />
  <path
     style="font-weight:normal;font-size:medium;font-family:sans-serif;text-anchor:start;mix-blend-mode:normal;fill:#1a237e;stroke:none;stroke-width:1;stroke-linecap:butt;stroke-linejoin:miter;stroke-miterlimit:10;stroke-dasharray:none;stroke-dashoffset:0"
     inkscape:connector-curvature="0"
     id="path86"
     d="m 36000,34400 c -110.457,0 -200,-89.543 -200,-200 v 0 c 0,-110.457 89.543,-200 200,-200 h 2100 c 110.457,0 200,89.543 200,200 v 0 c 0,110.457 -89.543,200 -200,200 z" />
  <path
     style="font-weight:normal;font-size:medium;font-family:sans-serif;text-anchor:start;mix-blend-mode:normal;fill:#1a237e;stroke:none;stroke-width:1;stroke-linecap:butt;stroke-linejoin:miter;stroke-miterlimit:10;stroke-dasharray:none;stroke-dashoffset:0"
     inkscape:connector-curvature="0"
     id="path88"
     d="m 33000,34000 c 110.457,0 200,89.543 200,200 v 0 c 0,110.457 -89.543,200 -200,200 h -2000 c -110.457,0 -200,-89.543 -200,-200 v 0 c 0,-110.457 89.543,-200 200,-200 z" />
  <path
     style="font-weight:normal;font-size:medium;font-family:sans-serif;text-anchor:start;mix-blend-mode:normal;fill:#1a237e;stroke:none;stroke-width:1;stroke-linecap:butt;stroke-linejoin:miter;stroke-miterlimit:10;stroke-dasharray:none;stroke-dashoffset:0"
     inkscape:connector-curvature="0"
     id="path90"
     d="m 42000,49750 c 138.071,0 250,111.929 250,250 v 0 c 0,138.071 -111.929,250 -250,250 h -2900 c -138.071,0 -250,-111.929 -250,-250 v 0 c 0,-138.071 111.929,-250 250,-250 z" />
  <path
     style="font-weight:normal;font-size:medium;font-family:sans-serif;text-anchor:start;mix-blend-mode:normal;fill:#1a237e;stroke:none;stroke-width:1;stroke-linecap:butt;stroke-linejoin:miter;stroke-miterlimit:10;stroke-dasharray:none;stroke-dashoffset:0"
     inkscape:connector-curvature="0"
     id="path92"
     d="m 69500,50250 c -138.071,0 -250,-111.929 -250,-250 v 0 c 0,-138.071 111.929,-250 250,-250 h 2500 c 138.071,0 250,111.929 250,250 v 0 c 0,138.071 -111.929,250 -250,250 z" />
  <path
     style="font-weight:normal;font-size:medium;font-family:sans-serif;text-anchor:start;mix-blend-mode:normal;fill:#1a237e;stroke:none;stroke-width:1;stroke-linecap:butt;stroke-linejoin:miter;stroke-miterlimit:10;stroke-dasharray:none;stroke-dashoffset:0"
     inkscape:connector-curvature="0"
     id="path94"
     d="m 71750,30000 c 0,-138.071 111.929,-250 250,-250 v 0 c 138.071,0 250,111.929 250,250 v 20000 c 0,138.071 -111.929,250 -250,250 v 0 c -138.071,0 -250,-111.929 -250,-250 z" />
  <path
     style="font-weight:normal;font-size:medium;font-family:sans-serif;text-anchor:start;mix-blend-mode:normal;fill:#1a237e;stroke:none;stroke-width:1;stroke-linecap:butt;stroke-linejoin:miter;stroke-miterlimit:10;stroke-dasharray:none;stroke-dashoffset:0"
     inkscape:connector-curvature="0"
     id="path96"
     d="m 72000,29750 c 138.071,0 250,111.929 250,250 v 0 c 0,138.071 -111.929,250 -250,250 h -2500 c -138.071,0 -250,-111.929 -250,-250 v 0 c 0,-138.071 111.929,-250 250,-250 z" />
  <path
     style="font-weight:normal;font-size:medium;font-family:sans-serif;text-anchor:start;mix-blend-mode:normal;fill:#1a237e;stroke:none;stroke-width:1;stroke-linecap:butt;stroke-linejoin:miter;stroke-miterlimit:10;stroke-dasharray:none;stroke-dashoffset:0"
     inkscape:connector-curvature="0"
     id="path98"
     d="m 52750,34400 c 0,-138.071 111.929,-250 250,-250 v 0 c 138.071,0 250,111.929 250,250 v 800 c 0,138.071 -111.929,250 -250,250 v 0 c -138.071,0 -250,-111.929 -250,-250 z" />
  <path
     style="font-weight:normal;font-size:medium;font-family:sans-serif;text-anchor:start;mix-blend-mode:normal;fill:#1a237e;stroke:none;stroke-width:1;stroke-linecap:butt;stroke-linejoin:miter;stroke-miterlimit:10;stroke-dasharray:none;stroke-dashoffset:0"
     inkscape:connector-curvature="0"
     id="path100"
     d="m 33000,29800 c 110.457,0 200,89.543 200,200 v 0 c 0,110.457 -89.543,200 -200,200 h -7000 c -110.457,0 -200,-89.543 -200,-200 v 0 c 0,-110.457 89.543,-200 200,-200 z" />
  <path
     style="font-weight:normal;font-size:medium;font-family:sans-serif;text-anchor:start;mix-blend-mode:normal;fill:#1a237e;stroke:none;stroke-width:1;stroke-linecap:butt;stroke-linejoin:miter;stroke-miterlimit:10;stroke-dasharray:none;stroke-dashoffset:0"
     inkscape:connector-curvature="0"
     id="path102"
     d="m 32800,30000 c 0,-110.457 89.543,-200 200,-200 v 0 c 110.457,0 200,89.543 200,200 v 3000 c 0,110.457 -89.543,200 -200,200 v 0 c -110.457,0 -200,-89.543 -200,-200 z" />
  <path
     style="font-weight:normal;font-size:medium;font-family:sans-serif;text-anchor:start;mix-blend-mode:normal;fill:#1a237e;stroke:none;stroke-width:1;stroke-linecap:butt;stroke-linejoin:miter;stroke-miterlimit:10;stroke-dasharray:none;stroke-dashoffset:0"
     inkscape:connector-curvature="0"
     id="path104"
     d="m 34200,30000 c 0,110.457 -89.543,200 -200,200 v 0 c -110.457,0 -200,-89.543 -200,-200 v -3000 c 0,-110.457 89.543,-200 200,-200 v 0 c 110.457,0 200,89.543 200,200 z" />
  <path
     style="font-weight:normal;font-size:medium;font-family:sans-serif;text-anchor:start;mix-blend-mode:normal;fill:#1a237e;stroke:none;stroke-width:1;stroke-linecap:butt;stroke-linejoin:miter;stroke-miterlimit:10;stroke-dasharray:none;stroke-dashoffset:0"
     inkscape:connector-curvature="0"
     id="path106"
     d="m 36000,29800 c 110.457,0 200,89.543 200,200 v 0 c 0,110.457 -89.543,200 -200,200 h -2000 c -110.457,0 -200,-89.543 -200,-200 v 0 c 0,-110.457 89.543,-200 200,-200 z" />
  <path
     style="font-weight:normal;font-size:medium;font-family:sans-serif;text-anchor:start;mix-blend-mode:normal;fill:#1a237e;stroke:none;stroke-width:1;stroke-linecap:butt;stroke-linejoin:miter;stroke-miterlimit:10;stroke-dasharray:none;stroke-dashoffset:0"
     inkscape:connector-curvature="0"
     id="path108"
     d="m 35800,30000 c 0,-110.457 89.543,-200 200,-200 v 0 c 110.457,0 200,89.543 200,200 v 3000 c 0,110.457 -89.543,200 -200,200 v 0 c -110.457,0 -200,-89.543 -200,-200 z" />
  <path
     style="font-weight:normal;font-size:medium;font-family:sans-serif;text-anchor:start;mix-blend-mode:normal;fill:#1a237e;stroke:none;stroke-width:1;stroke-linecap:butt;stroke-linejoin:miter;stroke-miterlimit:10;stroke-dasharray:none;stroke-dashoffset:0"
     inkscape:connector-curvature="0"
     id="path110"
     d="m 36750,27000 c 0,-138.071 111.929,-250 250,-250 v 0 c 138.071,0 250,111.929 250,250 v 3000 c 0,138.071 -111.929,250 -250,250 v 0 c -138.071,0 -250,-111.929 -250,-250 z" />
  <path
     style="font-weight:normal;font-size:medium;font-family:sans-serif;text-anchor:start;mix-blend-mode:normal;fill:#1a237e;stroke:none;stroke-width:1;stroke-linecap:butt;stroke-linejoin:miter;stroke-miterlimit:10;stroke-dasharray:none;stroke-dashoffset:0"
     inkscape:connector-curvature="0"
     id="path112"
     d="m 57000,29750 c 138.071,0 250,111.929 250,250 v 0 c 0,138.071 -111.929,250 -250,250 h -3000 c -138.071,0 -250,-111.929 -250,-250 v 0 c 0,-138.071 111.929,-250 250,-250 z" />
  <path
     style="font-weight:normal;font-size:medium;font-family:sans-serif;text-anchor:start;mix-blend-mode:normal;fill:#1a237e;stroke:none;stroke-width:1;stroke-linecap:butt;stroke-linejoin:miter;stroke-miterlimit:10;stroke-dasharray:none;stroke-dashoffset:0"
     inkscape:connector-curvature="0"
     id="path114"
     d="m 56750,29500 c 0,-138.071 111.929,-250 250,-250 v 0 c 138.071,0 250,111.929 250,250 v 500 c 0,138.071 -111.929,250 -250,250 v 0 c -138.071,0 -250,-111.929 -250,-250 z" />
  <path
     style="font-weight:normal;font-size:medium;font-family:sans-serif;text-anchor:start;mix-blend-mode:normal;fill:#1a237e;stroke:none;stroke-width:1;stroke-linecap:butt;stroke-linejoin:miter;stroke-miterlimit:10;stroke-dasharray:none;stroke-dashoffset:0"
     inkscape:connector-curvature="0"
     id="path116"
     d="m 52750,30000 c 0,-138.071 111.929,-250 250,-250 v 0 c 138.071,0 250,111.929 250,250 v 3000 c 0,138.071 -111.929,250 -250,250 v 0 c -138.071,0 -250,-111.929 -250,-250 z" />
  <path
     style="font-weight:normal;font-size:medium;font-family:sans-serif;text-anchor:start;mix-blend-mode:normal;fill:#1a237e;stroke:none;stroke-width:1;stroke-linecap:butt;stroke-linejoin:miter;stroke-miterlimit:10;stroke-dasharray:none;stroke-dashoffset:0"
     inkscape:connector-curvature="0"
     id="path118"
     d="m 37000,30250 c -138.071,0 -250,-111.929 -250,-250 v 0 c 0,-138.071 111.929,-250 250,-250 h 16000 c 138.071,0 250,111.929 250,250 v 0 c 0,138.071 -111.929,250 -250,250 z" />
  <path
     style="font-weight:normal;font-size:medium;font-family:sans-serif;text-anchor:start;mix-blend-mode:normal;fill:#3949ab;stroke:none;stroke-width:1;stroke-linecap:butt;stroke-linejoin:miter;stroke-miterlimit:10;stroke-dasharray:none;stroke-dashoffset:0"
     inkscape:connector-curvature="0"
     id="path128"
     d="m 41750,50050 v -3000 h 500 v 3000 z m 1750,-2500 v -500 h -1250 v 500 z m 0,5500 v -5500 h -500 v 5500 z m 1250,0 v -500 h -1250 v 500 z m 0,-500 v -5500 h -500 v 5500 z m 1250,-5000 v -500 h -1250 v 500 z m 0,5500 v -5500 h -500 v 5500 z m 1250,0 v -500 h -1250 v 500 z m 0,-500 v -5500 h -500 v 5500 z m 1250,-5000 v -500 h -1250 v 500 z m 0,5500 v -5500 h -500 v 5500 z m 1250,0 v -500 h -1250 v 500 z m 0,-500 v -5500 h -500 v 5500 z m 1250,-5000 v -500 h -1250 v 500 z m 0,5500 v -5500 h -500 v 5500 z m 1250,0 v -500 h -1250 v 500 z m 0,-500 v -5500 h -500 v 5500 z m 1250,-5000 v -500 h -1250 v 500 z m 0,5500 v -5500 h -500 v 5500 z m 1250,0 v -500 h -1250 v 500 z m 0,-500 v -5500 h -500 v 5500 z m 1250,-5000 v -500 h -1250 v 500 z m 0,5500 v -5500 h -500 v 5500 z m 1250,0 v -500 h -1250 v 500 z m 0,-500 v -5500 h -500 v 5500 z m 1250,-5000 v -500 h -1250 v 500 z m 0,5500 v -5500 h -500 v 5500 z m 1250,0 v -500 h -1250 v 500 z m 0,-500 v -5500 h -500 v 5500 z m 1250,-5000 v -500 h -1250 v 500 z m 0,5500 v -5500 h -500 v 5500 z m 1250,0 v -500 h -1250 v 500 z m 0,-500 v -5500 h -500 v 5500 z m 1250,-5000 v -500 h -1250 v 500 z m 0,5500 v -5500 h -500 v 5500 z m 1250,0 v -500 h -1250 v 500 z m 0,-500 v -5500 h -500 v 5500 z m 1250,-5000 v -500 h -1250 v 500 z m 0,5500 v -5500 h -500 v 5500 z m 1250,0 v -500 h -1250 v 500 z m 0,-500 v -5500 h -500 v 5500 z m 1250,-5000 v -500 h -1250 v 500 z m 0,5500 v -5500 h -500 v 5500 z m 1250,0 v -500 h -1250 v 500 z m 0,-500 v -2500 h -500 v 2500 z" />
  <path
     style="font-weight:normal;font-size:medium;font-family:sans-serif;text-anchor:start;mix-blend-mode:normal;fill:#3949ab;stroke:none;stroke-width:1;stroke-linecap:butt;stroke-linejoin:miter;stroke-miterlimit:10;stroke-dasharray:none;stroke-dashoffset:0"
     inkscape:connector-curvature="0"
     id="path130"
     d="m 56750,30000 v -1750 h 500 v 1750 z m 1750,-1250 v -500 h -1250 v 500 z m 0,3000 v -3000 h -500 v 3000 z m 1250,0 v -500 h -1250 v 500 z m 0,-500 v -3000 h -500 v 3000 z m 1250,-2500 v -500 h -1250 v 500 z m 0,3000 v -3000 h -500 v 3000 z m 1250,0 v -500 h -1250 v 500 z m 0,-500 v -3000 h -500 v 3000 z m 1250,-2500 v -500 h -1250 v 500 z m 0,3000 v -3000 h -500 v 3000 z m 1250,0 v -500 h -1250 v 500 z m 0,-500 v -3000 h -500 v 3000 z m 1250,-2500 v -500 h -1250 v 500 z m 0,3000 v -3000 h -500 v 3000 z m 1250,0 v -500 h -1250 v 500 z m 0,-500 v -3000 h -500 v 3000 z m 1250,-2500 v -500 h -1250 v 500 z m 0,3000 v -3000 h -500 v 3000 z m 1250,0 v -500 h -1250 v 500 z m 0,-500 v -1250 h -500 v 1250 z" />
  <path
     style="font-weight:normal;font-size:medium;font-family:sans-serif;text-anchor:start;mix-blend-mode:normal;fill:#3f51b5;stroke:none;stroke-width:1;stroke-linecap:butt;stroke-linejoin:miter;stroke-miterlimit:10;stroke-dasharray:none;stroke-dashoffset:0"
     inkscape:connector-curvature="0"
     id="path132"
     d="m 52250,33700 c 0,-414.214 335.786,-750 750,-750 414.214,0 750,335.786 750,750 0,414.214 -335.786,750 -750,750 -414.214,0 -750,-335.786 -750,-750 z m 1500,300 v -600 h -1500 v 600 z" />
  <path
     style="font-weight:normal;font-size:medium;font-family:sans-serif;text-anchor:start;mix-blend-mode:normal;fill:#3f51b5;stroke:none;stroke-width:1;stroke-linecap:butt;stroke-linejoin:miter;stroke-miterlimit:10;stroke-dasharray:none;stroke-dashoffset:0"
     inkscape:connector-curvature="0"
     id="path134"
     d="m 35250,33700 c 0,-414.214 335.786,-750 750,-750 414.214,0 750,335.786 750,750 0,414.214 -335.786,750 -750,750 -414.214,0 -750,-335.786 -750,-750 z m 1500,300 v -600 h -1500 v 600 z" />
  <path
     style="font-weight:normal;font-size:medium;font-family:sans-serif;text-anchor:start;mix-blend-mode:normal;fill:#3f51b5;stroke:none;stroke-width:1;stroke-linecap:butt;stroke-linejoin:miter;stroke-miterlimit:10;stroke-dasharray:none;stroke-dashoffset:0"
     inkscape:connector-curvature="0"
     id="path136"
     d="m 32250,33700 c 0,-414.214 335.786,-750 750,-750 414.214,0 750,335.786 750,750 0,414.214 -335.786,750 -750,750 -414.214,0 -750,-335.786 -750,-750 z m 1500,300 v -600 h -1500 v 600 z" />
  <path
     style="font-weight:normal;font-size:medium;font-family:sans-serif;text-anchor:start;mix-blend-mode:normal;fill:#3f51b5;stroke:none;stroke-width:1;stroke-linecap:butt;stroke-linejoin:miter;stroke-miterlimit:10;stroke-dasharray:none;stroke-dashoffset:0"
     inkscape:connector-curvature="0"
     id="path138"
     d="m 36250,26300 c 0,-414.214 335.786,-750 750,-750 414.214,0 750,335.786 750,750 0,414.214 -335.786,750 -750,750 -414.214,0 -750,-335.786 -750,-750 z m 1500,300 v -600 h -1500 v 600 z" />
  <path
     style="font-weight:normal;font-size:medium;font-family:sans-serif;text-anchor:start;mix-blend-mode:normal;fill:#3f51b5;stroke:none;stroke-width:1;stroke-linecap:butt;stroke-linejoin:miter;stroke-miterlimit:10;stroke-dasharray:none;stroke-dashoffset:0"
     inkscape:connector-curvature="0"
     id="path140"
     d="m 33250,26300 c 0,-414.214 335.786,-750 750,-750 414.214,0 750,335.786 750,750 0,414.214 -335.786,750 -750,750 -414.214,0 -750,-335.786 -750,-750 z m 1500,300 v -600 h -1500 v 600 z" />
  <path
     style="font-weight:normal;font-size:medium;font-family:sans-serif;text-anchor:start;mix-blend-mode:normal;fill:#3f51b5;stroke:none;stroke-width:1;stroke-linecap:butt;stroke-linejoin:miter;stroke-miterlimit:10;stroke-dasharray:none;stroke-dashoffset:0"
     inkscape:connector-curvature="0"
     id="path142"
     d="m 52750,30000 c 0,-414.214 335.786,-750 750,-750 414.214,0 750,335.786 750,750 0,414.214 -335.786,750 -750,750 -414.214,0 -750,-335.786 -750,-750 z m 1050,750 v -1500 h -600 v 1500 z" />
  <path
     style="font-weight:normal;font-size:medium;font-family:sans-serif;text-anchor:start;mix-blend-mode:normal;fill:#3f51b5;stroke:none;stroke-width:1;stroke-linecap:butt;stroke-linejoin:miter;stroke-miterlimit:10;stroke-dasharray:none;stroke-dashoffset:0"
     inkscape:connector-curvature="0"
     id="path144"
     d="m 35750,30000 c 0,-414.214 335.786,-750 750,-750 414.214,0 750,335.786 750,750 0,414.214 -335.786,750 -750,750 -414.214,0 -750,-335.786 -750,-750 z m 1050,750 v -1500 h -600 v 1500 z" />
  <path
     style="font-weight:normal;font-size:medium;font-family:sans-serif;text-anchor:start;mix-blend-mode:normal;fill:#3f51b5;stroke:none;stroke-width:1;stroke-linecap:butt;stroke-linejoin:miter;stroke-miterlimit:10;stroke-dasharray:none;stroke-dashoffset:0"
     inkscape:connector-curvature="0"
     id="path146"
     d="m 32750,30000 c 0,-414.214 335.786,-750 750,-750 414.214,0 750,335.786 750,750 0,414.214 -335.786,750 -750,750 -414.214,0 -750,-335.786 -750,-750 z m 1050,750 v -1500 h -600 v 1500 z" />
  <path
     inkscape:connector-curvature="0"
     style="font-weight:normal;font-size:medium;font-family:sans-serif;text-anchor:start;mix-blend-mode:normal;fill:url(#color-1);stroke:none;stroke-width:1;stroke-linecap:butt;stroke-linejoin:miter;stroke-miterlimit:10;stroke-dasharray:none;stroke-dashoffset:0"
     id="path148"
     d="m 25100,30000 c 0,-497.056 402.944,-900 900,-900 497.056,0 900,402.944 900,900 0,497.056 -402.944,900 -900,900 -497.056,0 -900,-402.944 -900,-900 z" />
  <path
     inkscape:connector-curvature="0"
     style="font-weight:normal;font-size:medium;font-family:sans-serif;text-anchor:start;mix-blend-mode:normal;fill:url(#color-2);stroke:none;stroke-width:1;stroke-linecap:butt;stroke-linejoin:miter;stroke-miterlimit:10;stroke-dasharray:none;stroke-dashoffset:0"
     id="path150"
     d="m 37400,50000 c 0,-497.056 402.944,-900 900,-900 497.056,0 900,402.944 900,900 0,497.056 -402.944,900 -900,900 -497.056,0 -900,-402.944 -900,-900 z" />
  <path
     inkscape:connector-curvature="0"
     style="font-weight:normal;font-size:medium;font-family:sans-serif;text-anchor:start;mix-blend-mode:normal;fill:url(#color-3);stroke:none;stroke-width:1;stroke-linecap:butt;stroke-linejoin:miter;stroke-miterlimit:10;stroke-dasharray:none;stroke-dashoffset:0"
     id="path152"
     d="m 52100,36000 c 0,-497.056 402.944,-900 900,-900 497.056,0 900,402.944 900,900 0,497.056 -402.944,900 -900,900 -497.056,0 -900,-402.944 -900,-900 z" />
  <path
     inkscape:connector-curvature="0"
     style="font-weight:normal;font-size:medium;font-family:sans-serif;text-anchor:start;mix-blend-mode:normal;fill:url(#color-4);stroke:none;stroke-width:1;stroke-linecap:butt;stroke-linejoin:miter;stroke-miterlimit:10;stroke-dasharray:none;stroke-dashoffset:0"
     id="path154"
     d="m 37200,35300 c 0,-497.056 402.944,-900 900,-900 497.056,0 900,402.944 900,900 0,497.056 -402.944,900 -900,900 -497.056,0 -900,-402.944 -900,-900 z" />
  <path
     inkscape:connector-curvature="0"
     style="font-weight:normal;font-size:medium;font-family:sans-serif;text-anchor:start;mix-blend-mode:normal;fill:url(#color-5);stroke:none;stroke-width:1;stroke-linecap:butt;stroke-linejoin:miter;stroke-miterlimit:10;stroke-dasharray:none;stroke-dashoffset:0"
     id="path156"
     d="m 30100,35300 c 0,-497.056 402.944,-900 900,-900 497.056,0 900,402.944 900,900 0,497.056 -402.944,900 -900,900 -497.056,0 -900,-402.944 -900,-900 z" />
  <path
     inkscape:connector-curvature="0"
     style="font-weight:normal;font-size:medium;font-family:sans-serif;text-anchor:start;mix-blend-mode:normal;fill:url(#color-6);stroke:none;stroke-width:1;stroke-linecap:butt;stroke-linejoin:miter;stroke-miterlimit:10;stroke-dasharray:none;stroke-dashoffset:0"
     id="path158"
     d="m 38100,24700 c 0,-497.056 402.944,-900 900,-900 497.056,0 900,402.944 900,900 0,497.056 -402.944,900 -900,900 -497.056,0 -900,-402.944 -900,-900 z" />
  <path
     inkscape:connector-curvature="0"
     style="font-weight:normal;font-size:medium;font-family:sans-serif;text-anchor:start;mix-blend-mode:normal;fill:url(#color-7);stroke:none;stroke-width:1;stroke-linecap:butt;stroke-linejoin:miter;stroke-miterlimit:10;stroke-dasharray:none;stroke-dashoffset:0"
     id="path160"
     d="m 31100,24700 c 0,-497.056 402.944,-900 900,-900 497.056,0 900,402.944 900,900 0,497.056 -402.944,900 -900,900 -497.056,0 -900,-402.944 -900,-900 z" />
  <path
     inkscape:connector-curvature="0"
     style="font-weight:normal;font-size:medium;font-family:sans-serif;text-anchor:start;mix-blend-mode:normal;fill:url(#color-8);stroke:none;stroke-width:1;stroke-linecap:butt;stroke-linejoin:miter;stroke-miterlimit:10;stroke-dasharray:none;stroke-dashoffset:0"
     id="path162"
     d="m 37302,35300 c 0,-440.723 357.277,-798 798,-798 440.723,0 798,357.277 798,798 0,440.723 -357.277,798 -798,798 -440.723,0 -798,-357.277 -798,-798 z" />
  <path
     inkscape:connector-curvature="0"
     style="font-weight:normal;font-size:medium;font-family:sans-serif;text-anchor:start;mix-blend-mode:normal;fill:url(#color-9);stroke:none;stroke-width:1;stroke-linecap:butt;stroke-linejoin:miter;stroke-miterlimit:10;stroke-dasharray:none;stroke-dashoffset:0"
     id="path164"
     d="m 30202,35300 c 0,-440.723 357.277,-798 798,-798 440.723,0 798,357.277 798,798 0,440.723 -357.277,798 -798,798 -440.723,0 -798,-357.277 -798,-798 z" />
  <path
     inkscape:connector-curvature="0"
     style="font-weight:normal;font-size:medium;font-family:sans-serif;text-anchor:start;mix-blend-mode:normal;fill:url(#color-10);stroke:none;stroke-width:1;stroke-linecap:butt;stroke-linejoin:miter;stroke-miterlimit:10;stroke-dasharray:none;stroke-dashoffset:0"
     id="path166"
     d="m 38202,24700 c 0,-440.723 357.277,-798 798,-798 440.723,0 798,357.277 798,798 0,440.723 -357.277,798 -798,798 -440.723,0 -798,-357.277 -798,-798 z" />
  <path
     inkscape:connector-curvature="0"
     style="font-weight:normal;font-size:medium;font-family:sans-serif;text-anchor:start;mix-blend-mode:normal;fill:url(#color-11);stroke:none;stroke-width:1;stroke-linecap:butt;stroke-linejoin:miter;stroke-miterlimit:10;stroke-dasharray:none;stroke-dashoffset:0"
     id="path168"
     d="m 31202,24700 c 0,-440.723 357.277,-798 798,-798 440.723,0 798,357.277 798,798 0,440.723 -357.277,798 -798,798 -440.723,0 -798,-357.277 -798,-798 z" />
  <path
     inkscape:connector-curvature="0"
     style="font-weight:normal;font-size:medium;font-family:sans-serif;text-anchor:start;mix-blend-mode:normal;fill:url(#color-12);stroke:none;stroke-width:1;stroke-linecap:butt;stroke-linejoin:miter;stroke-miterlimit:10;stroke-dasharray:none;stroke-dashoffset:0"
     id="path170"
     d="m 52202,36000 c 0,-440.723 357.277,-798 798,-798 440.723,0 798,357.277 798,798 0,440.723 -357.277,798 -798,798 -440.723,0 -798,-357.277 -798,-798 z" />
  <path
     inkscape:connector-curvature="0"
     style="font-weight:normal;font-size:medium;font-family:sans-serif;text-anchor:start;mix-blend-mode:normal;fill:url(#color-13);stroke:none;stroke-width:1;stroke-linecap:butt;stroke-linejoin:miter;stroke-miterlimit:10;stroke-dasharray:none;stroke-dashoffset:0"
     id="path172"
     d="m 37502,50000 c 0,-440.723 357.277,-798 798,-798 440.723,0 798,357.277 798,798 0,440.723 -357.277,798 -798,798 -440.723,0 -798,-357.277 -798,-798 z" />
  <path
     inkscape:connector-curvature="0"
     style="font-weight:normal;font-size:medium;font-family:sans-serif;text-anchor:start;mix-blend-mode:normal;fill:url(#color-14);stroke:none;stroke-width:1;stroke-linecap:butt;stroke-linejoin:miter;stroke-miterlimit:10;stroke-dasharray:none;stroke-dashoffset:0"
     id="path174"
     d="m 25202,30000 c 0,-440.723 357.277,-798 798,-798 440.723,0 798,357.277 798,798 0,440.723 -357.277,798 -798,798 -440.723,0 -798,-357.277 -798,-798 z" />
</svg>
