<?xml version="1.0" encoding="UTF-8" standalone="no"?>
<svg
   xmlns:dc="http://purl.org/dc/elements/1.1/"
   xmlns:cc="http://creativecommons.org/ns#"
   xmlns:rdf="http://www.w3.org/1999/02/22-rdf-syntax-ns#"
   xmlns:svg="http://www.w3.org/2000/svg"
   xmlns="http://www.w3.org/2000/svg"
   xmlns:sodipodi="http://sodipodi.sourceforge.net/DTD/sodipodi-0.dtd"
   xmlns:inkscape="http://www.inkscape.org/namespaces/inkscape"
   width="135mm"
   height="85mm"
   viewBox="0 0 135000 85000"
   version="1.1"
   id="svg202"
   sodipodi:docname="F_250_100.svg"
   inkscape:version="0.92.1 r15371">
  <metadata
     id="metadata206">
    <rdf:RDF>
      <cc:Work
         rdf:about="">
        <dc:format>image/svg+xml</dc:format>
        <dc:type
           rdf:resource="http://purl.org/dc/dcmitype/StillImage" />
        <dc:title></dc:title>
      </cc:Work>
    </rdf:RDF>
  </metadata>
  <sodipodi:namedview
     pagecolor="#ffffff"
     bordercolor="#666666"
     borderopacity="1"
     objecttolerance="10"
     gridtolerance="10"
     guidetolerance="10"
     inkscape:pageopacity="0"
     inkscape:pageshadow="2"
     inkscape:window-width="1536"
     inkscape:window-height="801"
     id="namedview204"
     showgrid="false"
     inkscape:zoom="8.9997531"
     inkscape:cx="201.02481"
     inkscape:cy="200.63102"
     inkscape:window-x="-8"
     inkscape:window-y="-8"
     inkscape:window-maximized="1"
     inkscape:current-layer="svg202" />
  <defs
     id="defs72">
    <radialGradient
       cx="61000"
       cy="36000"
       r="900"
       gradientUnits="userSpaceOnUse"
       id="color-1">
      <stop
         offset="0.44444"
         stop-color="#3f51b5"
         id="stop2" />
      <stop
         offset="0.44444"
         stop-color="#1a237e"
         id="stop4" />
    </radialGradient>
    <radialGradient
       cx="53000"
       cy="36000"
       r="900"
       gradientUnits="userSpaceOnUse"
       id="color-2">
      <stop
         offset="0.44444"
         stop-color="#3f51b5"
         id="stop7" />
      <stop
         offset="0.44444"
         stop-color="#1a237e"
         id="stop9" />
    </radialGradient>
    <radialGradient
       cx="42000"
       cy="36000"
       r="900"
       gradientUnits="userSpaceOnUse"
       id="color-3">
      <stop
         offset="0.44444"
         stop-color="#3f51b5"
         id="stop12" />
      <stop
         offset="0.44444"
         stop-color="#1a237e"
         id="stop14" />
    </radialGradient>
    <radialGradient
       cx="53000"
       cy="24000"
       r="1250"
       gradientUnits="userSpaceOnUse"
       id="color-4">
      <stop
         offset="0.32"
         stop-color="#3f51b5"
         id="stop17" />
      <stop
         offset="0.32"
         stop-color="#1a237e"
         id="stop19" />
    </radialGradient>
    <radialGradient
       cx="42000"
       cy="24000"
       r="1250"
       gradientUnits="userSpaceOnUse"
       id="color-5">
      <stop
         offset="0.32"
         stop-color="#3f51b5"
         id="stop22" />
      <stop
         offset="0.32"
         stop-color="#1a237e"
         id="stop24" />
    </radialGradient>
    <radialGradient
       cx="35000"
       cy="30000"
       r="1250"
       gradientUnits="userSpaceOnUse"
       id="color-6">
      <stop
         offset="0.32"
         stop-color="#3f51b5"
         id="stop27" />
      <stop
         offset="0.32"
         stop-color="#1a237e"
         id="stop29" />
    </radialGradient>
    <radialGradient
       cx="50000"
       cy="50000"
       r="1250"
       gradientUnits="userSpaceOnUse"
       id="color-7">
      <stop
         offset="0.76"
         stop-color="#3f51b5"
         id="stop32" />
      <stop
         offset="0.76"
         stop-color="#1a237e"
         id="stop34" />
    </radialGradient>
    <radialGradient
       cx="61000"
       cy="36000"
       r="790"
       gradientUnits="userSpaceOnUse"
       id="color-8">
      <stop
         offset="1"
         stop-color="#5c6bc0"
         id="stop37" />
      <stop
         offset="1"
         stop-color="#1a237e"
         id="stop39" />
    </radialGradient>
    <radialGradient
       cx="53000"
       cy="36000"
       r="790"
       gradientUnits="userSpaceOnUse"
       id="color-9">
      <stop
         offset="1"
         stop-color="#5c6bc0"
         id="stop42" />
      <stop
         offset="1"
         stop-color="#1a237e"
         id="stop44" />
    </radialGradient>
    <radialGradient
       cx="42000"
       cy="36000"
       r="790"
       gradientUnits="userSpaceOnUse"
       id="color-10">
      <stop
         offset="1"
         stop-color="#5c6bc0"
         id="stop47" />
      <stop
         offset="1"
         stop-color="#1a237e"
         id="stop49" />
    </radialGradient>
    <radialGradient
       cx="53000"
       cy="24000"
       r="1010"
       gradientUnits="userSpaceOnUse"
       id="color-11">
      <stop
         offset="1"
         stop-color="#5c6bc0"
         id="stop52" />
      <stop
         offset="1"
         stop-color="#1a237e"
         id="stop54" />
    </radialGradient>
    <radialGradient
       cx="42000"
       cy="24000"
       r="1010"
       gradientUnits="userSpaceOnUse"
       id="color-12">
      <stop
         offset="1"
         stop-color="#5c6bc0"
         id="stop57" />
      <stop
         offset="1"
         stop-color="#1a237e"
         id="stop59" />
    </radialGradient>
    <radialGradient
       cx="35000"
       cy="30000"
       r="1010"
       gradientUnits="userSpaceOnUse"
       id="color-13">
      <stop
         offset="1"
         stop-color="#5c6bc0"
         id="stop62" />
      <stop
         offset="1"
         stop-color="#1a237e"
         id="stop64" />
    </radialGradient>
    <radialGradient
       cx="50000"
       cy="50000"
       r="1010"
       gradientUnits="userSpaceOnUse"
       id="color-14">
      <stop
         offset="1"
         stop-color="#5c6bc0"
         id="stop67" />
      <stop
         offset="1"
         stop-color="#1a237e"
         id="stop69" />
    </radialGradient>
  </defs>
  <path
     style="font-weight:normal;font-size:medium;font-family:sans-serif;text-anchor:start;mix-blend-mode:normal;fill:#1a237e;stroke:none;stroke-width:1;stroke-linecap:butt;stroke-linejoin:miter;stroke-miterlimit:10;stroke-dasharray:none;stroke-dashoffset:0"
     inkscape:connector-curvature="0"
     id="path90"
     d="m 57700,29800.5 c -0.276,0 -0.5,-0.224 -0.5,-0.5 v -200 c 0,-0.276 0.224,-0.5 0.5,-0.5 h 300 c 0.276,0 0.5,0.224 0.5,0.5 v 200 c 0,0.276 -0.224,0.5 -0.5,0.5 z" />
  <path
     style="font-weight:normal;font-size:medium;font-family:sans-serif;text-anchor:start;mix-blend-mode:normal;fill:#1a237e;stroke:none;stroke-width:1;stroke-linecap:butt;stroke-linejoin:miter;stroke-miterlimit:10;stroke-dasharray:none;stroke-dashoffset:0"
     inkscape:connector-curvature="0"
     id="path92"
     d="m 58300,30400.5 c -0.276,0 -0.5,-0.224 -0.5,-0.5 v -800 c 0,-0.276 0.224,-0.5 0.5,-0.5 h 300 c 0.276,0 0.5,0.224 0.5,0.5 v 800 c 0,0.276 -0.224,0.5 -0.5,0.5 z" />
  <path
     style="font-weight:normal;font-size:medium;font-family:sans-serif;text-anchor:start;mix-blend-mode:normal;fill:#1a237e;stroke:none;stroke-width:1;stroke-linecap:butt;stroke-linejoin:miter;stroke-miterlimit:10;stroke-dasharray:none;stroke-dashoffset:0"
     inkscape:connector-curvature="0"
     id="path94"
     d="m 50000,30400.5 c -0.276,0 -0.5,-0.224 -0.5,-0.5 v -200 c 0,-0.276 0.224,-0.5 0.5,-0.5 h 300 c 0.276,0 0.5,0.224 0.5,0.5 v 200 c 0,0.276 -0.224,0.5 -0.5,0.5 z" />
  <path
     style="font-weight:normal;font-size:medium;font-family:sans-serif;text-anchor:start;mix-blend-mode:normal;fill:#1a237e;stroke:none;stroke-width:1;stroke-linecap:butt;stroke-linejoin:miter;stroke-miterlimit:10;stroke-dasharray:none;stroke-dashoffset:0"
     inkscape:connector-curvature="0"
     id="path118"
     d="m 49100,32900.5 c -0.276,0 -0.5,-0.224 -0.5,-0.5 v -300 c 0,-0.276 0.224,-0.5 0.5,-0.5 h 800 c 0.276,0 0.5,0.224 0.5,0.5 v 300 c 0,0.276 -0.224,0.5 -0.5,0.5 z" />
  <path
     style="font-weight:normal;font-size:medium;font-family:sans-serif;text-anchor:start;mix-blend-mode:normal;fill:#1a237e;stroke:none;stroke-width:1;stroke-linecap:butt;stroke-linejoin:miter;stroke-miterlimit:10;stroke-dasharray:none;stroke-dashoffset:0"
     inkscape:connector-curvature="0"
     id="path120"
     d="m 44700,32900.5 c -0.276,0 -0.5,-0.224 -0.5,-0.5 v -300 c 0,-0.276 0.224,-0.5 0.5,-0.5 h 800 c 0.276,0 0.5,0.224 0.5,0.5 v 300 c 0,0.276 -0.224,0.5 -0.5,0.5 z" />
  <path
     style="font-weight:normal;font-size:medium;font-family:sans-serif;text-anchor:start;mix-blend-mode:normal;fill:#1a237e;stroke:none;stroke-width:1;stroke-linecap:butt;stroke-linejoin:miter;stroke-miterlimit:10;stroke-dasharray:none;stroke-dashoffset:0"
     inkscape:connector-curvature="0"
     id="path122"
     d="m 57350,32900.5 c -0.276,0 -0.5,-0.224 -0.5,-0.5 v -300 c 0,-0.276 0.224,-0.5 0.5,-0.5 h 800 c 0.276,0 0.5,0.224 0.5,0.5 v 300 c 0,0.276 -0.224,0.5 -0.5,0.5 z" />
  <path
     style="font-weight:normal;font-size:medium;font-family:sans-serif;text-anchor:start;mix-blend-mode:normal;fill:#1a237e;stroke:none;stroke-width:1;stroke-linecap:butt;stroke-linejoin:miter;stroke-miterlimit:10;stroke-dasharray:none;stroke-dashoffset:0"
     inkscape:connector-curvature="0"
     id="path124"
     d="m 57340,32300.5 c -0.276,0 -0.5,-0.224 -0.5,-0.5 v -300 c 0,-0.276 0.224,-0.5 0.5,-0.5 h 810 c 0.276,0 0.5,0.224 0.5,0.5 v 300 c 0,0.276 -0.224,0.5 -0.5,0.5 z" />
  <path
     style="font-weight:normal;font-size:medium;font-family:sans-serif;text-anchor:start;mix-blend-mode:normal;fill:#1a237e;stroke:none;stroke-width:1;stroke-linecap:butt;stroke-linejoin:miter;stroke-miterlimit:10;stroke-dasharray:none;stroke-dashoffset:0"
     inkscape:connector-curvature="0"
     id="path126"
     d="m 49850,27400.5 c -0.276,0 -0.5,-0.224 -0.5,-0.5 v -300 c 0,-0.276 0.224,-0.5 0.5,-0.5 h 800 c 0.276,0 0.5,0.224 0.5,0.5 v 300 c 0,0.276 -0.224,0.5 -0.5,0.5 z" />
  <path
     style="font-weight:normal;font-size:medium;font-family:sans-serif;text-anchor:start;mix-blend-mode:normal;fill:#1a237e;stroke:none;stroke-width:1;stroke-linecap:butt;stroke-linejoin:miter;stroke-miterlimit:10;stroke-dasharray:none;stroke-dashoffset:0"
     inkscape:connector-curvature="0"
     id="path128"
     d="m 49850,28000.5 c -0.276,0 -0.5,-0.224 -0.5,-0.5 v -300 c 0,-0.276 0.224,-0.5 0.5,-0.5 h 800 c 0.276,0 0.5,0.224 0.5,0.5 v 300 c 0,0.276 -0.224,0.5 -0.5,0.5 z" />
  <path
     style="font-weight:normal;font-size:medium;font-family:sans-serif;text-anchor:start;mix-blend-mode:normal;fill:#1a237e;stroke:none;stroke-width:1;stroke-linecap:butt;stroke-linejoin:miter;stroke-miterlimit:10;stroke-dasharray:none;stroke-dashoffset:0"
     inkscape:connector-curvature="0"
     id="path130"
     d="m 44700,32300.5 c -0.276,0 -0.5,-0.224 -0.5,-0.5 v -300 c 0,-0.276 0.224,-0.5 0.5,-0.5 h 800 c 0.276,0 0.5,0.224 0.5,0.5 v 300 c 0,0.276 -0.224,0.5 -0.5,0.5 z" />
  <path
     style="font-weight:normal;font-size:medium;font-family:sans-serif;text-anchor:start;mix-blend-mode:normal;fill:#1a237e;stroke:none;stroke-width:1;stroke-linecap:butt;stroke-linejoin:miter;stroke-miterlimit:10;stroke-dasharray:none;stroke-dashoffset:0"
     inkscape:connector-curvature="0"
     id="path132"
     d="m 49100,32300.5 c -0.276,0 -0.5,-0.224 -0.5,-0.5 v -300 c 0,-0.276 0.224,-0.5 0.5,-0.5 h 800 c 0.276,0 0.5,0.224 0.5,0.5 v 300 c 0,0.276 -0.224,0.5 -0.5,0.5 z" />
  <path
     style="font-weight:normal;font-size:medium;font-family:sans-serif;text-anchor:start;mix-blend-mode:normal;fill:#1a237e;stroke:none;stroke-width:1;stroke-linecap:butt;stroke-linejoin:miter;stroke-miterlimit:10;stroke-dasharray:none;stroke-dashoffset:0"
     inkscape:connector-curvature="0"
     id="path134"
     d="m 45400,27400.5 c -0.276,0 -0.5,-0.224 -0.5,-0.5 v -300 c 0,-0.276 0.224,-0.5 0.5,-0.5 h 800 c 0.276,0 0.5,0.224 0.5,0.5 v 300 c 0,0.276 -0.224,0.5 -0.5,0.5 z" />
  <path
     style="font-weight:normal;font-size:medium;font-family:sans-serif;text-anchor:start;mix-blend-mode:normal;fill:#1a237e;stroke:none;stroke-width:1;stroke-linecap:butt;stroke-linejoin:miter;stroke-miterlimit:10;stroke-dasharray:none;stroke-dashoffset:0"
     inkscape:connector-curvature="0"
     id="path136"
     d="m 45400,28000.5 c -0.276,0 -0.5,-0.224 -0.5,-0.5 v -300 c 0,-0.276 0.224,-0.5 0.5,-0.5 h 800 c 0.276,0 0.5,0.224 0.5,0.5 v 300 c 0,0.276 -0.224,0.5 -0.5,0.5 z" />
  <path
     style="font-weight:normal;font-size:medium;font-family:sans-serif;text-anchor:start;mix-blend-mode:normal;fill:#1a237e;stroke:none;stroke-width:1;stroke-linecap:butt;stroke-linejoin:miter;stroke-miterlimit:10;stroke-dasharray:none;stroke-dashoffset:0"
     inkscape:connector-curvature="0"
     id="path150"
     d="m 50000,30300.5 c -0.276,0 -0.5,-0.224 -0.5,-0.5 v -700 c 0,-0.276 0.224,-0.5 0.5,-0.5 h 300 c 0.276,0 0.5,0.224 0.5,0.5 v 700 c 0,0.276 -0.224,0.5 -0.5,0.5 z" />
  <path
     style="font-weight:normal;font-size:medium;font-family:sans-serif;text-anchor:start;mix-blend-mode:normal;fill:#1a237e;stroke:none;stroke-width:1;stroke-linecap:butt;stroke-linejoin:miter;stroke-miterlimit:10;stroke-dasharray:none;stroke-dashoffset:0"
     inkscape:connector-curvature="0"
     id="path152"
     d="m 49400,30300.5 c -0.276,0 -0.5,-0.224 -0.5,-0.5 v -700 c 0,-0.276 0.224,-0.5 0.5,-0.5 h 300 c 0.276,0 0.5,0.224 0.5,0.5 v 700 c 0,0.276 -0.224,0.5 -0.5,0.5 z" />
  <path
     style="font-weight:normal;font-size:medium;font-family:sans-serif;text-anchor:start;mix-blend-mode:normal;fill:#1a237e;stroke:none;stroke-width:1;stroke-linecap:butt;stroke-linejoin:miter;stroke-miterlimit:10;stroke-dasharray:none;stroke-dashoffset:0"
     inkscape:connector-curvature="0"
     id="path154"
     d="m 45000,30400.5 c -0.276,0 -0.5,-0.224 -0.5,-0.5 v -800 c 0,-0.276 0.224,-0.5 0.5,-0.5 h 300 c 0.276,0 0.5,0.224 0.5,0.5 v 800 c 0,0.276 -0.224,0.5 -0.5,0.5 z" />
  <path
     style="font-weight:normal;font-size:medium;font-family:sans-serif;text-anchor:start;mix-blend-mode:normal;fill:#1a237e;stroke:none;stroke-width:1;stroke-linecap:butt;stroke-linejoin:miter;stroke-miterlimit:10;stroke-dasharray:none;stroke-dashoffset:0"
     inkscape:connector-curvature="0"
     id="path156"
     d="m 45600,30400.5 c -0.276,0 -0.5,-0.224 -0.5,-0.5 v -800 c 0,-0.276 0.224,-0.5 0.5,-0.5 h 300 c 0.276,0 0.5,0.224 0.5,0.5 v 800 c 0,0.276 -0.224,0.5 -0.5,0.5 z" />
  <path
     style="font-weight:normal;font-size:medium;font-family:sans-serif;text-anchor:start;mix-blend-mode:normal;fill:#1a237e;stroke:none;stroke-width:1;stroke-linecap:butt;stroke-linejoin:miter;stroke-miterlimit:10;stroke-dasharray:none;stroke-dashoffset:0"
     inkscape:connector-curvature="0"
     id="path158"
     d="m 50100,30250.5 c -0.276,0 -0.5,-0.224 -0.5,-0.5 v -500 c 0,-0.276 0.224,-0.5 0.5,-0.5 h 200 c 0.276,0 0.5,0.224 0.5,0.5 v 500 c 0,0.276 -0.224,0.5 -0.5,0.5 z" />
</svg>
