<?xml version="1.0" encoding="UTF-8" standalone="no"?>
<svg
   xmlns:dc="http://purl.org/dc/elements/1.1/"
   xmlns:cc="http://creativecommons.org/ns#"
   xmlns:rdf="http://www.w3.org/1999/02/22-rdf-syntax-ns#"
   xmlns:svg="http://www.w3.org/2000/svg"
   xmlns="http://www.w3.org/2000/svg"
   xmlns:sodipodi="http://sodipodi.sourceforge.net/DTD/sodipodi-0.dtd"
   xmlns:inkscape="http://www.inkscape.org/namespaces/inkscape"
   width="135mm"
   height="85mm"
   viewBox="0 0 135000 85000"
   version="1.1"
   id="svg194"
   sodipodi:docname="F_250_64.svg"
   inkscape:version="0.92.1 r15371">
  <metadata
     id="metadata198">
    <rdf:RDF>
      <cc:Work
         rdf:about="">
        <dc:format>image/svg+xml</dc:format>
        <dc:type
           rdf:resource="http://purl.org/dc/dcmitype/StillImage" />
        <dc:title></dc:title>
      </cc:Work>
    </rdf:RDF>
  </metadata>
  <sodipodi:namedview
     pagecolor="#ffffff"
     bordercolor="#666666"
     borderopacity="1"
     objecttolerance="10"
     gridtolerance="10"
     guidetolerance="10"
     inkscape:pageopacity="0"
     inkscape:pageshadow="2"
     inkscape:window-width="1536"
     inkscape:window-height="801"
     id="namedview196"
     showgrid="false"
     inkscape:zoom="2.2499383"
     inkscape:cx="286.54049"
     inkscape:cy="136.7053"
     inkscape:window-x="-8"
     inkscape:window-y="-8"
     inkscape:window-maximized="1"
     inkscape:current-layer="svg194" />
  <defs
     id="defs72">
    <radialGradient
       cx="40000"
       cy="60000"
       r="1250"
       gradientUnits="userSpaceOnUse"
       id="color-1">
      <stop
         offset="0.96"
         stop-color="#3f51b5"
         id="stop2" />
      <stop
         offset="0.96"
         stop-color="#1a237e"
         id="stop4" />
    </radialGradient>
    <radialGradient
       cx="47000"
       cy="21000"
       r="1250"
       gradientUnits="userSpaceOnUse"
       id="color-2">
      <stop
         offset="0.96"
         stop-color="#3f51b5"
         id="stop7" />
      <stop
         offset="0.96"
         stop-color="#1a237e"
         id="stop9" />
    </radialGradient>
    <radialGradient
       cx="38000"
       cy="21000"
       r="1250"
       gradientUnits="userSpaceOnUse"
       id="color-3">
      <stop
         offset="0.96"
         stop-color="#3f51b5"
         id="stop12" />
      <stop
         offset="0.96"
         stop-color="#1a237e"
         id="stop14" />
    </radialGradient>
    <radialGradient
       cx="55000"
       cy="37100"
       r="1250"
       gradientUnits="userSpaceOnUse"
       id="color-4">
      <stop
         offset="0.96"
         stop-color="#3f51b5"
         id="stop17" />
      <stop
         offset="0.96"
         stop-color="#1a237e"
         id="stop19" />
    </radialGradient>
    <radialGradient
       cx="46800"
       cy="37100"
       r="1250"
       gradientUnits="userSpaceOnUse"
       id="color-5">
      <stop
         offset="0.96"
         stop-color="#3f51b5"
         id="stop22" />
      <stop
         offset="0.96"
         stop-color="#1a237e"
         id="stop24" />
    </radialGradient>
    <radialGradient
       cx="36400"
       cy="37100"
       r="1250"
       gradientUnits="userSpaceOnUse"
       id="color-6">
      <stop
         offset="0.96"
         stop-color="#3f51b5"
         id="stop27" />
      <stop
         offset="0.96"
         stop-color="#1a237e"
         id="stop29" />
    </radialGradient>
    <radialGradient
       cx="31000"
       cy="30000"
       r="1250"
       gradientUnits="userSpaceOnUse"
       id="color-7">
      <stop
         offset="0.96"
         stop-color="#3f51b5"
         id="stop32" />
      <stop
         offset="0.96"
         stop-color="#1a237e"
         id="stop34" />
    </radialGradient>
    <radialGradient
       cx="40000"
       cy="60000"
       r="1010"
       gradientUnits="userSpaceOnUse"
       id="color-8">
      <stop
         offset="1"
         stop-color="#5c6bc0"
         id="stop37" />
      <stop
         offset="1"
         stop-color="#1a237e"
         id="stop39" />
    </radialGradient>
    <radialGradient
       cx="47000"
       cy="21000"
       r="1010"
       gradientUnits="userSpaceOnUse"
       id="color-9">
      <stop
         offset="1"
         stop-color="#5c6bc0"
         id="stop42" />
      <stop
         offset="1"
         stop-color="#1a237e"
         id="stop44" />
    </radialGradient>
    <radialGradient
       cx="38000"
       cy="21000"
       r="1010"
       gradientUnits="userSpaceOnUse"
       id="color-10">
      <stop
         offset="1"
         stop-color="#5c6bc0"
         id="stop47" />
      <stop
         offset="1"
         stop-color="#1a237e"
         id="stop49" />
    </radialGradient>
    <radialGradient
       cx="55000"
       cy="37100"
       r="1010"
       gradientUnits="userSpaceOnUse"
       id="color-11">
      <stop
         offset="1"
         stop-color="#5c6bc0"
         id="stop52" />
      <stop
         offset="1"
         stop-color="#1a237e"
         id="stop54" />
    </radialGradient>
    <radialGradient
       cx="46800"
       cy="37100"
       r="1010"
       gradientUnits="userSpaceOnUse"
       id="color-12">
      <stop
         offset="1"
         stop-color="#5c6bc0"
         id="stop57" />
      <stop
         offset="1"
         stop-color="#1a237e"
         id="stop59" />
    </radialGradient>
    <radialGradient
       cx="36400"
       cy="37100"
       r="1010"
       gradientUnits="userSpaceOnUse"
       id="color-13">
      <stop
         offset="1"
         stop-color="#5c6bc0"
         id="stop62" />
      <stop
         offset="1"
         stop-color="#1a237e"
         id="stop64" />
    </radialGradient>
    <radialGradient
       cx="31000"
       cy="30000"
       r="1010"
       gradientUnits="userSpaceOnUse"
       id="color-14">
      <stop
         offset="1"
         stop-color="#5c6bc0"
         id="stop67" />
      <stop
         offset="1"
         stop-color="#1a237e"
         id="stop69" />
    </radialGradient>
  </defs>
  <path
     style="font-weight:normal;font-size:medium;font-family:sans-serif;text-anchor:start;mix-blend-mode:normal;fill:#1a237e;stroke:none;stroke-width:0.00377953;stroke-linecap:butt;stroke-linejoin:miter;stroke-miterlimit:10;stroke-dasharray:none;stroke-dashoffset:0"
     d="M 143.62109 80.126953 C 143.20362 80.126953 142.86523 80.465337 142.86523 80.882812 L 142.86523 86.929688 C 142.86523 86.934496 142.8671 86.938572 142.86719 86.943359 C 142.86868 87.025359 142.89003 87.105594 142.91797 87.183594 C 142.92245 87.195945 142.92069 87.210614 142.92578 87.222656 C 142.9485 87.27676 142.98959 87.32251 143.02539 87.371094 C 143.0484 87.402068 143.06441 87.437769 143.0918 87.464844 C 143.09526 87.468276 143.09607 87.473182 143.09961 87.476562 L 150.04883 94.107422 L 149.66992 94.107422 C 149.66992 94.107422 149.66797 94.109375 149.66797 94.109375 L 149.66797 95.621094 C 149.66797 95.621094 149.66992 95.623047 149.66992 95.623047 L 154.20508 95.623047 C 154.20508 95.623047 154.20703 95.621094 154.20703 95.621094 L 154.20703 94.109375 C 154.20703 94.109375 154.20508 94.107422 154.20508 94.107422 L 152.23633 94.107422 L 144.37891 86.607422 L 144.37891 80.882812 C 144.37891 80.465337 144.03857 80.126953 143.62109 80.126953 z M 177.63867 82.394531 C 177.2212 82.394531 176.88281 82.732915 176.88281 83.150391 L 176.88281 86.595703 L 168.65625 94.107422 L 166.67773 94.107422 C 166.67773 94.107422 166.67578 94.109375 166.67578 94.109375 L 166.67578 95.621094 C 166.67578 95.621094 166.67773 95.623047 166.67773 95.623047 L 171.21289 95.623047 C 171.21289 95.623047 171.21484 95.621094 171.21484 95.621094 L 171.21484 94.109375 C 171.21484 94.109375 171.21289 94.107422 171.21289 94.107422 L 170.89648 94.107422 L 178.14844 87.488281 C 178.15455 87.482705 178.15623 87.474478 178.16211 87.46875 C 178.19753 87.434376 178.21988 87.390322 178.24805 87.349609 C 178.27487 87.310565 178.30747 87.27491 178.32617 87.232422 C 178.34481 87.19034 178.34861 87.143358 178.35938 87.097656 C 178.37098 87.047811 178.38924 87.000217 178.39062 86.949219 C 178.39081 86.942315 178.39453 86.936636 178.39453 86.929688 L 178.39453 83.150391 C 178.39453 82.732915 178.05615 82.394531 177.63867 82.394531 z M 149.66992 97.509766 C 149.66992 97.509766 149.66797 97.511719 149.66797 97.511719 L 149.66797 99.023438 C 149.66797 99.023438 149.66992 99.025391 149.66992 99.025391 L 151.18164 99.025391 L 151.18164 111.11719 C 151.18164 111.11719 151.17969 111.11719 151.17969 111.11719 L 151.17969 112.63086 L 151.17969 114.14258 L 151.17969 115.6543 C 151.17969 115.6543 151.18164 115.65625 151.18164 115.65625 L 152.69336 115.65625 C 152.69336 115.65625 152.69531 115.6543 152.69531 115.6543 L 152.69531 114.14453 L 164.78516 114.14453 L 164.78516 115.6543 C 164.78516 115.6543 164.78711 115.65625 164.78711 115.65625 L 164.78711 120.94531 C 164.78711 120.97111 164.80021 120.99245 164.80273 121.01758 C 164.80783 121.06964 164.81834 121.11805 164.83398 121.16797 C 164.84765 121.21126 164.86195 121.25148 164.88281 121.29102 C 164.90712 121.33771 164.93651 121.37864 164.9707 121.41992 C 165.00017 121.45543 165.03101 121.48604 165.06641 121.51562 C 165.08765 121.53345 165.09943 121.55848 165.12305 121.57422 L 174.95117 128.125 L 174.61328 128.125 C 174.61328 128.125 174.61133 128.12695 174.61133 128.12695 L 174.61133 129.63867 C 174.61133 129.63867 174.61328 129.64062 174.61328 129.64062 L 179.15039 129.64062 C 179.15039 129.64062 179.15234 129.63867 179.15234 129.63867 L 179.15234 128.12695 C 179.15234 128.12695 179.15039 128.125 179.15039 128.125 L 177.5293 128.125 C 177.47315 128.02878 177.39972 127.94096 177.30078 127.875 L 166.29883 120.54102 L 166.29883 115.65625 C 166.29883 115.65625 166.30078 115.6543 166.30078 115.6543 L 166.30078 114.14258 L 166.30078 112.63086 L 166.30078 111.11719 C 166.30078 111.11719 166.29883 111.11719 166.29883 111.11719 L 164.78711 111.11719 C 164.78711 111.11719 164.78516 111.11719 164.78516 111.11719 L 164.78516 112.62891 L 152.69531 112.62891 L 152.69531 111.11719 C 152.69531 111.11719 152.69336 111.11719 152.69336 111.11719 L 152.69336 99.025391 L 154.20508 99.025391 C 154.20508 99.025391 154.20703 99.023438 154.20703 99.023438 L 154.20703 97.511719 C 154.20703 97.511719 154.20508 97.509766 154.20508 97.509766 L 149.66992 97.509766 z M 166.67773 97.509766 C 166.67773 97.509766 166.67578 97.511719 166.67578 97.511719 L 166.67578 99.023438 C 166.67578 99.023438 166.67773 99.025391 166.67773 99.025391 L 168.18945 99.025391 L 168.18945 111.11719 C 168.18945 111.11719 168.1875 111.11719 168.1875 111.11719 L 168.1875 115.6543 C 168.1875 115.6543 168.18945 115.65625 168.18945 115.65625 L 169.70117 115.65625 C 169.70117 115.65625 169.70312 115.6543 169.70312 115.6543 L 169.70312 114.33008 L 196.5332 114.33008 L 196.5332 115.6543 C 196.5332 115.6543 196.53516 115.65625 196.53516 115.65625 L 196.53516 120.94531 C 196.53516 120.96549 196.54532 120.98217 196.54688 121.00195 C 196.55118 121.05746 196.56377 121.10883 196.58008 121.16211 C 196.59288 121.20384 196.60552 121.24294 196.625 121.28125 C 196.64733 121.3256 196.67579 121.36456 196.70703 121.4043 C 196.7382 121.44381 196.76832 121.4811 196.80664 121.51367 C 196.82342 121.52802 196.83326 121.54748 196.85156 121.56055 L 206.04297 128.125 L 205.22852 128.125 C 205.22852 128.125 205.22656 128.12695 205.22656 128.12695 L 205.22656 129.63867 C 205.22656 129.63867 205.22852 129.64062 205.22852 129.64062 L 210.14258 129.64062 C 210.14258 129.64062 210.14453 129.63867 210.14453 129.63867 L 210.14453 128.12695 C 210.14453 128.12695 210.14258 128.125 210.14258 128.125 L 208.52344 128.125 C 208.47115 128.03481 208.40285 127.95321 208.3125 127.88867 L 198.04688 120.55664 L 198.04688 115.65625 C 198.04688 115.65625 198.04883 115.6543 198.04883 115.6543 L 198.04883 111.11719 C 198.04883 111.11719 198.04688 111.11719 198.04688 111.11719 L 196.53516 111.11719 C 196.53516 111.11719 196.5332 111.11719 196.5332 111.11719 L 196.5332 112.44141 L 169.70312 112.44141 L 169.70312 111.11719 C 169.70312 111.11719 169.70117 111.11719 169.70117 111.11719 L 169.70117 99.025391 L 171.21289 99.025391 C 171.21289 99.025391 171.21484 99.023438 171.21484 99.023438 L 171.21484 97.511719 C 171.21484 97.511719 171.21289 97.509766 171.21289 97.509766 L 166.67773 97.509766 z M 147.77734 111.11719 L 147.77734 112.63086 L 120.94531 112.63086 C 120.52784 112.63086 120.18945 112.96924 120.18945 113.38672 C 120.18945 113.80419 120.52784 114.14258 120.94531 114.14258 L 147.77734 114.14258 L 147.77734 115.6543 C 147.77734 115.6543 147.7793 115.65625 147.7793 115.65625 L 147.7793 120.54688 L 137.14648 127.88086 C 137.05195 127.94605 136.98197 128.03195 136.92773 128.125 L 135.30664 128.125 C 135.30664 128.125 135.30469 128.12695 135.30469 128.12695 L 135.30469 129.63867 C 135.30469 129.63867 135.30664 129.64062 135.30664 129.64062 L 139.8418 129.64062 C 139.8418 129.64062 139.84375 129.63867 139.84375 129.63867 L 139.84375 128.12695 C 139.84375 128.12695 139.8418 128.125 139.8418 128.125 L 139.45703 128.125 L 148.96484 121.56641 C 148.98425 121.55303 148.99397 121.53238 149.01172 121.51758 C 149.05043 121.48546 149.08361 121.45124 149.11523 121.41211 C 149.14725 121.37234 149.17624 121.33365 149.19922 121.28906 C 149.22017 121.249 149.23447 121.20794 149.24805 121.16406 C 149.26371 121.11298 149.27271 121.06297 149.27734 121.00977 C 149.27936 120.98727 149.29102 120.96833 149.29102 120.94531 L 149.29102 115.65625 C 149.29102 115.65625 149.29297 115.6543 149.29297 115.6543 L 149.29297 111.11719 C 149.29297 111.11719 149.29102 111.11719 149.29102 111.11719 L 147.7793 111.11719 C 147.7793 111.11719 147.77734 111.11719 147.77734 111.11719 z M 199.93555 111.11719 L 199.93555 115.6543 C 199.93555 115.6543 199.9375 115.65625 199.9375 115.65625 L 201.44922 115.65625 C 201.44922 115.65625 201.45117 115.6543 201.45117 115.6543 L 201.45117 114.33008 L 264.56641 114.33008 L 265.51172 114.33008 L 265.51172 118.10938 L 259.8418 118.10938 L 259.8418 120 L 259.8418 125.66992 L 261.73242 125.66992 L 265.51172 125.66992 L 265.51172 129.44922 L 259.8418 129.44922 L 259.8418 131.33789 L 259.8418 137.00781 L 261.73242 137.00781 L 265.51172 137.00781 L 265.51172 140.78711 L 259.8418 140.78711 L 259.8418 142.67773 L 259.8418 148.3457 L 261.73242 148.3457 L 265.51172 148.3457 L 265.51172 152.12695 L 259.8418 152.12695 L 259.8418 154.01562 L 259.8418 159.68555 L 261.73242 159.68555 L 263.62109 159.68555 L 263.62109 188.97656 L 263.62109 191.81055 L 257.95312 191.81055 L 257.95312 182.36133 L 257.95312 180.47266 L 250.39453 180.47266 L 248.50391 180.47266 L 248.50391 191.81055 L 242.83398 191.81055 L 242.83398 182.36133 L 242.83398 180.47266 L 235.27539 180.47266 L 233.38672 180.47266 L 233.38672 191.81055 L 227.7168 191.81055 L 227.7168 182.36133 L 227.7168 180.47266 L 220.1582 180.47266 L 218.26758 180.47266 L 218.26758 191.81055 L 212.59766 191.81055 L 212.59766 182.36133 L 212.59766 180.47266 L 205.03906 180.47266 L 203.15039 180.47266 L 203.15039 191.81055 L 197.48047 191.81055 L 197.48047 182.36133 L 197.48047 180.47266 L 189.92188 180.47266 L 188.03125 180.47266 L 188.03125 191.81055 L 182.36133 191.81055 L 182.36133 182.36133 L 182.36133 180.47266 L 174.80273 180.47266 L 172.91406 180.47266 L 172.91406 191.81055 L 167.24414 191.81055 L 167.24414 182.36133 L 167.24414 180.47266 L 159.68555 180.47266 L 157.79492 180.47266 L 157.79492 191.81055 L 152.12695 191.81055 L 152.12695 182.36133 L 152.12695 180.47266 L 144.56641 180.47266 L 142.67773 180.47266 L 142.67773 191.81055 L 137.00781 191.81055 L 137.00781 182.36133 L 137.00781 180.47266 L 129.44922 180.47266 L 127.55859 180.47266 L 127.55859 191.81055 L 121.89062 191.81055 L 121.89062 182.36133 L 121.89062 180.47266 L 114.33008 180.47266 L 112.44141 180.47266 L 112.44141 187.08594 L 112.44141 226.77148 C 112.44141 227.29333 112.86488 227.7168 113.38672 227.7168 L 151.18164 227.7168 C 151.70348 227.7168 152.12695 227.29333 152.12695 226.77148 C 152.12695 226.24964 151.70348 225.82617 151.18164 225.82617 L 114.33008 225.82617 L 114.33008 185.19727 L 114.33008 182.36133 L 120 182.36133 L 120 193.70117 L 121.89062 193.70117 L 129.44922 193.70117 L 129.44922 191.81055 L 129.44922 182.36133 L 135.11719 182.36133 L 135.11719 193.70117 L 137.00781 193.70117 L 144.56641 193.70117 L 144.56641 191.81055 L 144.56641 182.36133 L 150.23633 182.36133 L 150.23633 193.70117 L 152.12695 193.70117 L 159.68555 193.70117 L 159.68555 191.81055 L 159.68555 182.36133 L 165.35352 182.36133 L 165.35352 193.70117 L 167.24414 193.70117 L 174.80273 193.70117 L 174.80273 191.81055 L 174.80273 182.36133 L 180.47266 182.36133 L 180.47266 193.70117 L 182.36133 193.70117 L 189.92188 193.70117 L 189.92188 191.81055 L 189.92188 182.36133 L 195.58984 182.36133 L 195.58984 193.70117 L 197.48047 193.70117 L 205.03906 193.70117 L 205.03906 191.81055 L 205.03906 182.36133 L 210.70898 182.36133 L 210.70898 193.70117 L 212.59766 193.70117 L 220.1582 193.70117 L 220.1582 191.81055 L 220.1582 182.36133 L 225.82617 182.36133 L 225.82617 193.70117 L 227.7168 193.70117 L 235.27539 193.70117 L 235.27539 191.81055 L 235.27539 182.36133 L 240.94531 182.36133 L 240.94531 193.70117 L 242.83398 193.70117 L 250.39453 193.70117 L 250.39453 191.81055 L 250.39453 182.36133 L 256.0625 182.36133 L 256.0625 193.70117 L 257.95312 193.70117 L 265.51172 193.70117 L 265.51172 191.81055 L 265.51172 187.08594 L 265.51172 158.74023 C 265.51172 158.21839 265.08825 157.79492 264.56641 157.79492 L 261.73242 157.79492 L 261.73242 154.01562 L 265.51172 154.01562 L 267.40234 154.01562 L 267.40234 148.3457 L 267.40234 146.45703 L 261.73242 146.45703 L 261.73242 142.67773 L 265.51172 142.67773 L 267.40234 142.67773 L 267.40234 137.00781 L 267.40234 135.11719 L 261.73242 135.11719 L 261.73242 131.33789 L 265.51172 131.33789 L 267.40234 131.33789 L 267.40234 125.66992 L 267.40234 123.7793 L 261.73242 123.7793 L 261.73242 120 L 265.51172 120 L 267.40234 120 L 267.40234 114.33008 L 267.40234 112.44141 L 264.56641 112.44141 L 201.45117 112.44141 L 201.45117 111.11719 C 201.45117 111.11719 201.44922 111.11719 201.44922 111.11719 L 199.9375 111.11719 C 199.9375 111.11719 199.93555 111.11719 199.93555 111.11719 z M 135.30664 131.52539 C 135.30664 131.52539 135.30469 131.52734 135.30469 131.52734 L 135.30469 133.03906 C 135.30469 133.03906 135.30664 133.04102 135.30664 133.04102 L 136.81836 133.04102 L 136.81836 139.08594 C 136.81836 139.50341 137.15674 139.8418 137.57422 139.8418 C 137.99169 139.8418 138.33008 139.50341 138.33008 139.08594 L 138.33008 133.04102 L 139.8418 133.04102 C 139.8418 133.04102 139.84375 133.03906 139.84375 133.03906 L 139.84375 131.52734 C 139.84375 131.52734 139.8418 131.52539 139.8418 131.52539 L 135.30664 131.52539 z M 174.61328 131.52539 C 174.61328 131.52539 174.61133 131.52734 174.61133 131.52734 L 174.61133 133.03906 C 174.61133 133.03906 174.61328 133.04102 174.61328 133.04102 L 176.12695 133.04102 L 176.12695 139.08594 C 176.12695 139.50341 176.46534 139.8418 176.88281 139.8418 C 177.30029 139.8418 177.63867 139.50341 177.63867 139.08594 L 177.63867 133.04102 L 179.15039 133.04102 C 179.15039 133.04102 179.15234 133.03906 179.15234 133.03906 L 179.15234 131.52734 C 179.15234 131.52734 179.15039 131.52539 179.15039 131.52539 L 174.61328 131.52539 z M 205.22852 131.52539 C 205.22852 131.52539 205.22656 131.52734 205.22656 131.52734 L 205.22656 133.03906 C 205.22656 133.03906 205.22852 133.04102 205.22852 133.04102 L 207.11719 133.04102 L 207.11719 139.08594 C 207.11719 139.50341 207.45557 139.8418 207.87305 139.8418 C 208.29052 139.8418 208.63086 139.50341 208.63086 139.08594 L 208.63086 133.04102 L 210.14258 133.04102 C 210.14258 133.04102 210.14453 133.03906 210.14453 133.03906 L 210.14453 131.52734 C 210.14453 131.52734 210.14258 131.52539 210.14258 131.52539 L 205.22852 131.52539 z "
     transform="scale(264.58333)"
     id="path74" />
</svg>
