<?xml version="1.0" encoding="UTF-8" standalone="no"?>
<svg
   xmlns:dc="http://purl.org/dc/elements/1.1/"
   xmlns:cc="http://creativecommons.org/ns#"
   xmlns:rdf="http://www.w3.org/1999/02/22-rdf-syntax-ns#"
   xmlns:svg="http://www.w3.org/2000/svg"
   xmlns="http://www.w3.org/2000/svg"
   xmlns:sodipodi="http://sodipodi.sourceforge.net/DTD/sodipodi-0.dtd"
   xmlns:inkscape="http://www.inkscape.org/namespaces/inkscape"
   width="95mm"
   height="95mm"
   viewBox="0 0 95000 95000"
   version="1.1"
   id="svg306"
   sodipodi:docname="F_250_64.svg"
   inkscape:version="0.92.1 r15371">
  <metadata
     id="metadata310">
    <rdf:RDF>
      <cc:Work
         rdf:about="">
        <dc:format>image/svg+xml</dc:format>
        <dc:type
           rdf:resource="http://purl.org/dc/dcmitype/StillImage" />
        <dc:title></dc:title>
      </cc:Work>
    </rdf:RDF>
  </metadata>
  <sodipodi:namedview
     pagecolor="#ffffff"
     bordercolor="#666666"
     borderopacity="1"
     objecttolerance="10"
     gridtolerance="10"
     guidetolerance="10"
     inkscape:pageopacity="0"
     inkscape:pageshadow="2"
     inkscape:window-width="1536"
     inkscape:window-height="801"
     id="namedview308"
     showgrid="false"
     inkscape:zoom="2.6291229"
     inkscape:cx="149.07795"
     inkscape:cy="153.29539"
     inkscape:window-x="-8"
     inkscape:window-y="-8"
     inkscape:window-maximized="1"
     inkscape:current-layer="svg306" />
  <defs
     id="defs142">
    <radialGradient
       cx="49000"
       cy="37000"
       r="1010"
       gradientUnits="userSpaceOnUse"
       id="color-1"
       gradientTransform="translate(5291.6669,5291.6669)">
      <stop
         offset="0.29703"
         stop-color="#3f51b5"
         id="stop2" />
      <stop
         offset="0.29703"
         stop-color="#1a237e"
         id="stop4" />
    </radialGradient>
    <radialGradient
       cx="21000"
       cy="30000"
       r="1010"
       gradientUnits="userSpaceOnUse"
       id="color-2"
       gradientTransform="translate(5291.6669,5291.6669)">
      <stop
         offset="0.29703"
         stop-color="#3f51b5"
         id="stop7" />
      <stop
         offset="0.29703"
         stop-color="#1a237e"
         id="stop9" />
    </radialGradient>
    <radialGradient
       cx="35500"
       cy="22000"
       r="1010"
       gradientUnits="userSpaceOnUse"
       id="color-3"
       gradientTransform="translate(5291.6669,5291.6669)">
      <stop
         offset="0.29703"
         stop-color="#3f51b5"
         id="stop12" />
      <stop
         offset="0.29703"
         stop-color="#1a237e"
         id="stop14" />
    </radialGradient>
    <radialGradient
       cx="29000"
       cy="22000"
       r="1010"
       gradientUnits="userSpaceOnUse"
       id="color-4"
       gradientTransform="translate(5291.6669,5291.6669)">
      <stop
         offset="0.29703"
         stop-color="#3f51b5"
         id="stop17" />
      <stop
         offset="0.29703"
         stop-color="#1a237e"
         id="stop19" />
    </radialGradient>
    <radialGradient
       cx="30000"
       cy="64000"
       r="1200"
       gradientUnits="userSpaceOnUse"
       id="color-5"
       gradientTransform="translate(5291.6669,5291.6669)">
      <stop
         offset="1"
         stop-color="#3f51b5"
         id="stop22" />
      <stop
         offset="1"
         stop-color="#1a237e"
         id="stop24" />
    </radialGradient>
    <radialGradient
       cx="35000"
       cy="37000"
       r="1200"
       gradientUnits="userSpaceOnUse"
       id="color-6"
       gradientTransform="translate(5291.6669,5291.6669)">
      <stop
         offset="1"
         stop-color="#3f51b5"
         id="stop27" />
      <stop
         offset="1"
         stop-color="#1a237e"
         id="stop29" />
    </radialGradient>
    <radialGradient
       cx="28300"
       cy="37000"
       r="1200"
       gradientUnits="userSpaceOnUse"
       id="color-7"
       gradientTransform="translate(5291.6669,5291.6669)">
      <stop
         offset="1"
         stop-color="#3f51b5"
         id="stop32" />
      <stop
         offset="1"
         stop-color="#1a237e"
         id="stop34" />
    </radialGradient>
    <radialGradient
       cx="20000"
       cy="64000"
       r="250"
       gradientUnits="userSpaceOnUse"
       id="color-8"
       gradientTransform="translate(5291.6669,5291.6669)">
      <stop
         offset="1"
         stop-color="#5c6bc0"
         id="stop37" />
      <stop
         offset="1"
         stop-color="#1a237e"
         id="stop39" />
    </radialGradient>
    <radialGradient
       cx="30000"
       cy="64000"
       r="1010"
       gradientUnits="userSpaceOnUse"
       id="color-9"
       gradientTransform="translate(5291.6669,5291.6669)">
      <stop
         offset="1"
         stop-color="#5c6bc0"
         id="stop42" />
      <stop
         offset="1"
         stop-color="#1a237e"
         id="stop44" />
    </radialGradient>
    <radialGradient
       cx="49000"
       cy="37000"
       r="1200"
       gradientUnits="userSpaceOnUse"
       id="color-10"
       gradientTransform="translate(5291.6669,5291.6669)">
      <stop
         offset="1"
         stop-color="#5c6bc0"
         id="stop47" />
      <stop
         offset="1"
         stop-color="#1a237e"
         id="stop49" />
    </radialGradient>
    <radialGradient
       cx="49000"
       cy="35000"
       r="200"
       gradientUnits="userSpaceOnUse"
       id="color-11"
       gradientTransform="translate(5291.6669,5291.6669)">
      <stop
         offset="1"
         stop-color="#5c6bc0"
         id="stop52" />
      <stop
         offset="1"
         stop-color="#1a237e"
         id="stop54" />
    </radialGradient>
    <radialGradient
       cx="50100"
       cy="34000"
       r="200"
       gradientUnits="userSpaceOnUse"
       id="color-12"
       gradientTransform="translate(5291.6669,5291.6669)">
      <stop
         offset="1"
         stop-color="#5c6bc0"
         id="stop57" />
      <stop
         offset="1"
         stop-color="#1a237e"
         id="stop59" />
    </radialGradient>
    <radialGradient
       cx="35500"
       cy="22000"
       r="1200"
       gradientUnits="userSpaceOnUse"
       id="color-13"
       gradientTransform="translate(5291.6669,5291.6669)">
      <stop
         offset="1"
         stop-color="#5c6bc0"
         id="stop62" />
      <stop
         offset="1"
         stop-color="#1a237e"
         id="stop64" />
    </radialGradient>
    <radialGradient
       cx="29000"
       cy="22000"
       r="1200"
       gradientUnits="userSpaceOnUse"
       id="color-14"
       gradientTransform="translate(5291.6669,5291.6669)">
      <stop
         offset="1"
         stop-color="#5c6bc0"
         id="stop67" />
      <stop
         offset="1"
         stop-color="#1a237e"
         id="stop69" />
    </radialGradient>
    <radialGradient
       cx="21000"
       cy="30000"
       r="1200"
       gradientUnits="userSpaceOnUse"
       id="color-15"
       gradientTransform="translate(5291.6669,5291.6669)">
      <stop
         offset="1"
         stop-color="#5c6bc0"
         id="stop72" />
      <stop
         offset="1"
         stop-color="#1a237e"
         id="stop74" />
    </radialGradient>
    <radialGradient
       cx="35500"
       cy="22000"
       r="400"
       gradientUnits="userSpaceOnUse"
       id="color-16"
       gradientTransform="translate(5291.6669,5291.6669)">
      <stop
         offset="1"
         stop-color="#5c6bc0"
         id="stop77" />
      <stop
         offset="1"
         stop-color="#1a237e"
         id="stop79" />
    </radialGradient>
    <radialGradient
       cx="29000"
       cy="22000"
       r="400"
       gradientUnits="userSpaceOnUse"
       id="color-17"
       gradientTransform="translate(5291.6669,5291.6669)">
      <stop
         offset="1"
         stop-color="#5c6bc0"
         id="stop82" />
      <stop
         offset="1"
         stop-color="#1a237e"
         id="stop84" />
    </radialGradient>
    <radialGradient
       cx="21000"
       cy="30000"
       r="400"
       gradientUnits="userSpaceOnUse"
       id="color-18"
       gradientTransform="translate(5291.6669,5291.6669)">
      <stop
         offset="1"
         stop-color="#5c6bc0"
         id="stop87" />
      <stop
         offset="1"
         stop-color="#1a237e"
         id="stop89" />
    </radialGradient>
    <radialGradient
       cx="35500"
       cy="25000"
       r="200"
       gradientUnits="userSpaceOnUse"
       id="color-19"
       gradientTransform="translate(5291.6669,5291.6669)">
      <stop
         offset="1"
         stop-color="#5c6bc0"
         id="stop92" />
      <stop
         offset="1"
         stop-color="#1a237e"
         id="stop94" />
    </radialGradient>
    <radialGradient
       cx="29000"
       cy="25000"
       r="200"
       gradientUnits="userSpaceOnUse"
       id="color-20"
       gradientTransform="translate(5291.6669,5291.6669)">
      <stop
         offset="1"
         stop-color="#5c6bc0"
         id="stop97" />
      <stop
         offset="1"
         stop-color="#1a237e"
         id="stop99" />
    </radialGradient>
    <radialGradient
       cx="28300"
       cy="37000"
       r="1010"
       gradientUnits="userSpaceOnUse"
       id="color-21"
       gradientTransform="translate(5291.6669,5291.6669)">
      <stop
         offset="1"
         stop-color="#5c6bc0"
         id="stop102" />
      <stop
         offset="1"
         stop-color="#1a237e"
         id="stop104" />
    </radialGradient>
    <radialGradient
       cx="35000"
       cy="37000"
       r="1010"
       gradientUnits="userSpaceOnUse"
       id="color-22"
       gradientTransform="translate(5291.6669,5291.6669)">
      <stop
         offset="1"
         stop-color="#5c6bc0"
         id="stop107" />
      <stop
         offset="1"
         stop-color="#1a237e"
         id="stop109" />
    </radialGradient>
    <radialGradient
       cx="35000"
       cy="35000"
       r="200"
       gradientUnits="userSpaceOnUse"
       id="color-23"
       gradientTransform="translate(5291.6669,5291.6669)">
      <stop
         offset="1"
         stop-color="#5c6bc0"
         id="stop112" />
      <stop
         offset="1"
         stop-color="#1a237e"
         id="stop114" />
    </radialGradient>
    <radialGradient
       cx="28300"
       cy="35000"
       r="200"
       gradientUnits="userSpaceOnUse"
       id="color-24"
       gradientTransform="translate(5291.6669,5291.6669)">
      <stop
         offset="1"
         stop-color="#5c6bc0"
         id="stop117" />
      <stop
         offset="1"
         stop-color="#1a237e"
         id="stop119" />
    </radialGradient>
    <radialGradient
       cx="34500"
       cy="26000"
       r="200"
       gradientUnits="userSpaceOnUse"
       id="color-25"
       gradientTransform="translate(5291.6669,5291.6669)">
      <stop
         offset="1"
         stop-color="#5c6bc0"
         id="stop122" />
      <stop
         offset="1"
         stop-color="#1a237e"
         id="stop124" />
    </radialGradient>
    <radialGradient
       cx="30200"
       cy="26000"
       r="200"
       gradientUnits="userSpaceOnUse"
       id="color-26"
       gradientTransform="translate(5291.6669,5291.6669)">
      <stop
         offset="1"
         stop-color="#5c6bc0"
         id="stop127" />
      <stop
         offset="1"
         stop-color="#1a237e"
         id="stop129" />
    </radialGradient>
    <radialGradient
       cx="33800"
       cy="34000"
       r="200"
       gradientUnits="userSpaceOnUse"
       id="color-27"
       gradientTransform="translate(5291.6669,5291.6669)">
      <stop
         offset="1"
         stop-color="#5c6bc0"
         id="stop132" />
      <stop
         offset="1"
         stop-color="#1a237e"
         id="stop134" />
    </radialGradient>
    <radialGradient
       cx="29500"
       cy="34000"
       r="200"
       gradientUnits="userSpaceOnUse"
       id="color-28"
       gradientTransform="translate(5291.6669,5291.6669)">
      <stop
         offset="1"
         stop-color="#5c6bc0"
         id="stop137" />
      <stop
         offset="1"
         stop-color="#1a237e"
         id="stop139" />
    </radialGradient>
  </defs>
  <path
     style="font-weight:normal;font-size:medium;font-family:sans-serif;text-anchor:start;mix-blend-mode:normal;fill:#1a237e;stroke:none;stroke-width:0;stroke-linecap:butt;stroke-linejoin:miter;stroke-miterlimit:10;stroke-dasharray:none;stroke-dashoffset:0"
     d="M 128.84961 106.92969 L 128.84961 114.48828 C 128.84961 114.7218 128.96253 114.92384 129.12891 115.0625 L 129.12305 115.06836 L 133.38672 118.62109 L 133.38672 118.64453 L 132.63086 118.64453 C 132.63086 118.64453 132.62891 118.64648 132.62891 118.64648 L 132.62891 119.7793 C 132.62891 119.7793 132.63086 119.78125 132.63086 119.78125 L 135.6543 119.78125 C 135.6543 119.78125 135.65625 119.7793 135.65625 119.7793 L 135.65625 118.64648 C 135.65625 118.64648 135.6543 118.64453 135.6543 118.64453 L 134.89844 118.64453 L 134.89844 118.26758 C 134.89844 118.03406 134.78552 117.83202 134.61914 117.69336 L 134.625 117.6875 L 130.36133 114.13477 L 130.36133 106.92969 L 128.84961 106.92969 z M 153.41797 106.92969 L 153.41797 114.17383 L 149.85938 117.73242 C 149.72258 117.86921 149.63867 118.05884 149.63867 118.26758 L 149.63867 118.64453 L 148.88281 118.64453 C 148.88281 118.64453 148.88086 118.64648 148.88086 118.64648 L 148.88086 119.7793 C 148.88086 119.7793 148.88281 119.78125 148.88281 119.78125 L 151.90625 119.78125 C 151.90625 119.78125 151.9082 119.7793 151.9082 119.7793 L 151.9082 118.64648 C 151.9082 118.64648 151.90625 118.64453 151.90625 118.64453 L 151.15039 118.64453 L 151.15039 118.58008 L 154.70703 115.02344 C 154.84382 114.88665 154.92969 114.69702 154.92969 114.48828 L 154.92969 106.92969 L 153.41797 106.92969 z M 132.63086 120.91211 C 132.63086 120.91211 132.62891 120.91406 132.62891 120.91406 L 132.62891 122.04688 C 132.62891 122.04688 132.63086 122.04883 132.63086 122.04883 L 133.38672 122.04883 L 133.38672 131.87305 C 133.38672 131.87305 133.38477 131.875 133.38477 131.875 L 133.38477 134.89844 C 133.38477 134.89844 133.38672 134.90039 133.38672 134.90039 L 134.51953 134.90039 C 134.51953 134.90039 134.52148 134.89844 134.52148 134.89844 L 134.52148 134.14258 L 146.99219 134.14258 L 146.99219 144.72266 L 146.23633 144.72266 C 146.23633 144.72266 146.23438 144.72461 146.23438 144.72461 L 146.23438 145.85742 C 146.23438 145.85742 146.23633 145.85938 146.23633 145.85938 L 149.25977 145.85938 C 149.25977 145.85938 149.26172 145.85742 149.26172 145.85742 L 149.26172 144.72461 C 149.26172 144.72461 149.25977 144.72266 149.25977 144.72266 L 148.50391 144.72266 L 148.50391 134.90039 C 148.50391 134.90039 148.50586 134.89844 148.50586 134.89844 L 148.50586 131.875 C 148.50586 131.875 148.50391 131.87305 148.50391 131.87305 L 147.36914 131.87305 C 147.36914 131.87305 147.36914 131.875 147.36914 131.875 L 147.36914 132.63086 L 134.89844 132.63086 L 134.89844 122.04883 L 135.6543 122.04883 C 135.6543 122.04883 135.65625 122.04688 135.65625 122.04688 L 135.65625 120.91406 C 135.65625 120.91406 135.6543 120.91211 135.6543 120.91211 L 132.63086 120.91211 z M 148.88281 120.91211 C 148.88281 120.91211 148.88086 120.91406 148.88086 120.91406 L 148.88086 122.04688 C 148.88086 122.04688 148.88281 122.04883 148.88281 122.04883 L 149.63867 122.04883 L 149.63867 131.87305 C 149.63867 131.87305 149.63672 131.875 149.63672 131.875 L 149.63672 134.89844 C 149.63672 134.89844 149.63867 134.90039 149.63867 134.90039 L 150.77148 134.90039 C 150.77148 134.90039 150.77344 134.89844 150.77344 134.89844 L 150.77344 134.33008 L 208.59766 134.33008 L 208.59766 144.72266 L 207.8418 144.72266 C 207.8418 144.72266 207.83984 144.72461 207.83984 144.72461 L 207.83984 145.85742 C 207.83984 145.85742 207.8418 145.85938 207.8418 145.85938 L 210.86523 145.85938 C 210.86523 145.85938 210.86719 145.85742 210.86719 145.85742 L 210.86719 144.72461 C 210.86719 144.72461 210.86523 144.72266 210.86523 144.72266 L 210.10938 144.72266 L 210.10938 134.90039 C 210.10938 134.90039 210.11133 134.89844 210.11133 134.89844 L 210.11133 131.875 C 210.11133 131.875 210.10938 131.87305 210.10938 131.87305 L 208.97656 131.87305 C 208.97656 131.87305 208.97461 131.875 208.97461 131.875 L 208.97461 132.44141 L 151.15039 132.44141 L 151.15039 122.04883 L 151.90625 122.04883 C 151.90625 122.04883 151.9082 122.04688 151.9082 122.04688 L 151.9082 120.91406 C 151.9082 120.91406 151.90625 120.91211 151.90625 120.91211 L 148.88281 120.91211 z M 131.11719 131.87305 C 131.11719 131.87305 131.11719 131.875 131.11719 131.875 L 131.11719 132.63086 L 103.15039 132.63086 L 103.15039 134.14258 L 130.74023 134.14258 L 130.74023 144.72266 L 129.98438 144.72266 C 129.98438 144.72266 129.98242 144.72461 129.98242 144.72461 L 129.98242 145.85742 C 129.98242 145.85742 129.98438 145.85938 129.98438 145.85938 L 133.00781 145.85938 C 133.00781 145.85938 133.00977 145.85742 133.00977 145.85742 L 133.00977 144.72461 C 133.00977 144.72461 133.00781 144.72266 133.00781 144.72266 L 132.25195 144.72266 L 132.25195 134.90039 C 132.25195 134.90039 132.25391 134.89844 132.25391 134.89844 L 132.25391 131.875 C 132.25391 131.875 132.25195 131.87305 132.25195 131.87305 L 131.11719 131.87305 z M 211.24414 131.87305 C 211.24414 131.87305 211.24219 131.875 211.24219 131.875 L 211.24219 134.89844 C 211.24219 134.89844 211.24414 134.90039 211.24414 134.90039 L 212.37891 134.90039 C 212.37891 134.90039 212.37891 134.89844 212.37891 134.89844 L 212.37891 134.33008 L 245.82617 134.33008 L 246.01562 134.33008 L 247.7168 134.33008 L 247.7168 138.10938 L 242.04688 138.10938 L 242.04688 140 L 242.04688 145.66992 L 243.9375 145.66992 L 247.7168 145.66992 L 247.7168 149.44922 L 242.04688 149.44922 L 242.04688 151.33789 L 242.04688 157.00781 L 243.9375 157.00781 L 247.7168 157.00781 L 247.7168 160.78711 L 242.04688 160.78711 L 242.04688 162.67773 L 242.04688 168.3457 L 243.9375 168.3457 L 247.7168 168.3457 L 247.7168 172.12695 L 242.04688 172.12695 L 242.04688 174.01562 L 242.04688 179.68555 L 243.9375 179.68555 L 245.82617 179.68555 L 245.82617 216.53516 L 245.82617 219.36914 L 240.1582 219.36914 L 240.1582 209.92188 L 240.1582 208.03125 L 232.59766 208.03125 L 230.70898 208.03125 L 230.70898 219.36914 L 225.03906 219.36914 L 225.03906 209.92188 L 225.03906 208.03125 L 217.48047 208.03125 L 215.58984 208.03125 L 215.58984 219.36914 L 209.92188 219.36914 L 209.92188 209.92188 L 209.92188 208.03125 L 202.36133 208.03125 L 200.47266 208.03125 L 200.47266 219.36914 L 194.80273 219.36914 L 194.80273 209.92188 L 194.80273 208.03125 L 187.24414 208.03125 L 185.35352 208.03125 L 185.35352 219.36914 L 179.68555 219.36914 L 179.68555 209.92188 L 179.68555 208.03125 L 172.12695 208.03125 L 170.23633 208.03125 L 170.23633 219.36914 L 164.56641 219.36914 L 164.56641 209.92188 L 164.56641 208.03125 L 157.00781 208.03125 L 155.11719 208.03125 L 155.11719 219.36914 L 149.44922 219.36914 L 149.44922 209.92188 L 149.44922 208.03125 L 141.89062 208.03125 L 140 208.03125 L 140 219.36914 L 134.33008 219.36914 L 134.33008 209.92188 L 134.33008 208.03125 L 126.77148 208.03125 L 124.88281 208.03125 L 124.88281 219.36914 L 119.21289 219.36914 L 119.21289 209.92188 L 119.21289 208.03125 L 111.6543 208.03125 L 109.76367 208.03125 L 109.76367 219.36914 L 104.09375 219.36914 L 104.09375 209.92188 L 104.09375 208.03125 L 96.535156 208.03125 L 94.646484 208.03125 L 94.646484 214.64648 L 94.646484 261.89062 C 94.646484 262.41247 95.068001 262.83398 95.589844 262.83398 L 133.38672 262.83398 L 133.38672 260.94531 L 96.535156 260.94531 L 96.535156 212.75586 L 96.535156 209.92188 L 102.20508 209.92188 L 102.20508 221.25977 L 104.09375 221.25977 L 111.6543 221.25977 L 111.6543 219.36914 L 111.6543 209.92188 L 117.32227 209.92188 L 117.32227 221.25977 L 119.21289 221.25977 L 126.77148 221.25977 L 126.77148 219.36914 L 126.77148 209.92188 L 132.44141 209.92188 L 132.44141 221.25977 L 134.33008 221.25977 L 141.89062 221.25977 L 141.89062 219.36914 L 141.89062 209.92188 L 147.55859 209.92188 L 147.55859 221.25977 L 149.44922 221.25977 L 157.00781 221.25977 L 157.00781 219.36914 L 157.00781 209.92188 L 162.67773 209.92188 L 162.67773 221.25977 L 164.56641 221.25977 L 172.12695 221.25977 L 172.12695 219.36914 L 172.12695 209.92188 L 177.79492 209.92188 L 177.79492 221.25977 L 179.68555 221.25977 L 187.24414 221.25977 L 187.24414 219.36914 L 187.24414 209.92188 L 192.91406 209.92188 L 192.91406 221.25977 L 194.80273 221.25977 L 202.36133 221.25977 L 202.36133 219.36914 L 202.36133 209.92188 L 208.03125 209.92188 L 208.03125 221.25977 L 209.92188 221.25977 L 217.48047 221.25977 L 217.48047 219.36914 L 217.48047 209.92188 L 223.15039 209.92188 L 223.15039 221.25977 L 225.03906 221.25977 L 232.59766 221.25977 L 232.59766 219.36914 L 232.59766 209.92188 L 238.26758 209.92188 L 238.26758 221.25977 L 240.1582 221.25977 L 247.7168 221.25977 L 247.7168 219.36914 L 247.7168 214.64648 L 247.7168 178.74023 L 247.7168 177.79492 L 245.82617 177.79492 L 243.9375 177.79492 L 243.9375 174.01562 L 247.7168 174.01562 L 249.60547 174.01562 L 249.60547 168.3457 L 249.60547 166.45703 L 243.9375 166.45703 L 243.9375 162.67773 L 247.7168 162.67773 L 249.60547 162.67773 L 249.60547 157.00781 L 249.60547 155.11719 L 243.9375 155.11719 L 243.9375 151.33789 L 247.7168 151.33789 L 249.60547 151.33789 L 249.60547 145.66992 L 249.60547 143.7793 L 243.9375 143.7793 L 243.9375 140 L 247.7168 140 L 249.60547 140 L 249.60547 134.33008 L 249.60547 132.44141 L 246.01562 132.44141 L 245.82617 132.44141 L 212.37891 132.44141 L 212.37891 131.875 C 212.37891 131.875 212.37891 131.87305 212.37891 131.87305 L 211.24414 131.87305 z M 129.98438 146.99023 C 129.98438 146.99023 129.98242 146.99219 129.98242 146.99219 L 129.98242 148.12695 C 129.98242 148.12695 129.98438 148.12695 129.98438 148.12695 L 130.74023 148.12695 L 130.74023 148.15039 L 126.47656 151.70312 L 126.48242 151.71094 C 126.31641 151.8496 126.20508 152.04999 126.20508 152.2832 L 126.20508 156.0625 L 127.7168 156.0625 L 127.7168 152.63672 L 131.98047 149.08398 L 131.97461 149.07812 C 132.14099 148.93947 132.25195 148.73742 132.25195 148.50391 L 132.25195 148.12695 L 133.00781 148.12695 C 133.00781 148.12695 133.00977 148.12695 133.00977 148.12695 L 133.00977 146.99219 C 133.00977 146.99219 133.00781 146.99023 133.00781 146.99023 L 129.98438 146.99023 z M 146.23633 146.99023 C 146.23633 146.99023 146.23438 146.99219 146.23438 146.99219 L 146.23438 148.12695 C 146.23438 148.12695 146.23633 148.12695 146.23633 148.12695 L 146.99219 148.12695 L 146.99219 148.50391 C 146.99219 148.73742 147.10315 148.93947 147.26953 149.07812 L 147.26367 149.08398 L 151.52734 152.63672 L 151.52734 156.0625 L 153.03906 156.0625 L 153.03906 152.2832 C 153.03906 152.04999 152.92773 151.8496 152.76172 151.71094 L 152.76758 151.70312 L 148.50391 148.15039 L 148.50391 148.12695 L 149.25977 148.12695 C 149.25977 148.12695 149.26172 148.12695 149.26172 148.12695 L 149.26172 146.99219 C 149.26172 146.99219 149.25977 146.99023 149.25977 146.99023 L 146.23633 146.99023 z M 207.8418 146.99023 C 207.8418 146.99023 207.83984 146.99219 207.83984 146.99219 L 207.83984 148.12695 C 207.83984 148.12695 207.8418 148.12695 207.8418 148.12695 L 208.59766 148.12695 L 208.59766 148.16992 L 204.6875 151.72461 L 204.69141 151.72852 C 204.53965 151.86677 204.44141 152.06174 204.44141 152.2832 L 204.44141 156.0625 L 205.95312 156.0625 L 205.95312 152.61914 L 209.86328 149.0625 L 209.85938 149.05859 C 210.01107 148.92034 210.10938 148.72532 210.10938 148.50391 L 210.10938 148.12695 L 210.86523 148.12695 C 210.86523 148.12695 210.86719 148.12695 210.86719 148.12695 L 210.86719 146.99219 C 210.86719 146.99219 210.86523 146.99023 210.86523 146.99023 L 207.8418 146.99023 z "
     transform="scale(264.58334)"
     id="polygon144" />
</svg>
