<?xml version="1.0" encoding="UTF-8" standalone="no"?>
<svg
   xmlns:dc="http://purl.org/dc/elements/1.1/"
   xmlns:cc="http://creativecommons.org/ns#"
   xmlns:rdf="http://www.w3.org/1999/02/22-rdf-syntax-ns#"
   xmlns:svg="http://www.w3.org/2000/svg"
   xmlns="http://www.w3.org/2000/svg"
   xmlns:sodipodi="http://sodipodi.sourceforge.net/DTD/sodipodi-0.dtd"
   xmlns:inkscape="http://www.inkscape.org/namespaces/inkscape"
   width="135mm"
   height="85mm"
   viewBox="0 0 135000 85000"
   version="1.1"
   id="svg178"
   sodipodi:docname="F_250.svg"
   inkscape:version="0.92.1 r15371">
  <metadata
     id="metadata182">
    <rdf:RDF>
      <cc:Work
         rdf:about="">
        <dc:format>image/svg+xml</dc:format>
        <dc:type
           rdf:resource="http://purl.org/dc/dcmitype/StillImage" />
        <dc:title></dc:title>
      </cc:Work>
    </rdf:RDF>
  </metadata>
  <sodipodi:namedview
     pagecolor="#ffffff"
     bordercolor="#666666"
     borderopacity="1"
     objecttolerance="10"
     gridtolerance="10"
     guidetolerance="10"
     inkscape:pageopacity="0"
     inkscape:pageshadow="2"
     inkscape:window-width="1536"
     inkscape:window-height="801"
     id="namedview180"
     showgrid="false"
     inkscape:zoom="3.1818932"
     inkscape:cx="287.16021"
     inkscape:cy="162.09349"
     inkscape:window-x="-8"
     inkscape:window-y="-8"
     inkscape:window-maximized="1"
     inkscape:current-layer="svg178" />
  <defs
     id="defs72">
    <radialGradient
       cx="26000"
       cy="30000"
       r="900"
       gradientUnits="userSpaceOnUse"
       id="color-1">
      <stop
         offset="1"
         stop-color="#5c6bc0"
         id="stop2" />
      <stop
         offset="1"
         stop-color="#1a237e"
         id="stop4" />
    </radialGradient>
    <radialGradient
       cx="38300"
       cy="50000"
       r="900"
       gradientUnits="userSpaceOnUse"
       id="color-2">
      <stop
         offset="1"
         stop-color="#5c6bc0"
         id="stop7" />
      <stop
         offset="1"
         stop-color="#1a237e"
         id="stop9" />
    </radialGradient>
    <radialGradient
       cx="53000"
       cy="36000"
       r="900"
       gradientUnits="userSpaceOnUse"
       id="color-3">
      <stop
         offset="1"
         stop-color="#5c6bc0"
         id="stop12" />
      <stop
         offset="1"
         stop-color="#1a237e"
         id="stop14" />
    </radialGradient>
    <radialGradient
       cx="38100"
       cy="35300"
       r="900"
       gradientUnits="userSpaceOnUse"
       id="color-4">
      <stop
         offset="1"
         stop-color="#5c6bc0"
         id="stop17" />
      <stop
         offset="1"
         stop-color="#1a237e"
         id="stop19" />
    </radialGradient>
    <radialGradient
       cx="31000"
       cy="35300"
       r="900"
       gradientUnits="userSpaceOnUse"
       id="color-5">
      <stop
         offset="1"
         stop-color="#5c6bc0"
         id="stop22" />
      <stop
         offset="1"
         stop-color="#1a237e"
         id="stop24" />
    </radialGradient>
    <radialGradient
       cx="39000"
       cy="24700"
       r="900"
       gradientUnits="userSpaceOnUse"
       id="color-6">
      <stop
         offset="1"
         stop-color="#5c6bc0"
         id="stop27" />
      <stop
         offset="1"
         stop-color="#1a237e"
         id="stop29" />
    </radialGradient>
    <radialGradient
       cx="32000"
       cy="24700"
       r="900"
       gradientUnits="userSpaceOnUse"
       id="color-7">
      <stop
         offset="1"
         stop-color="#5c6bc0"
         id="stop32" />
      <stop
         offset="1"
         stop-color="#1a237e"
         id="stop34" />
    </radialGradient>
    <radialGradient
       cx="38100"
       cy="35300"
       r="798"
       gradientUnits="userSpaceOnUse"
       id="color-8">
      <stop
         offset="1"
         stop-color="#5c6bc0"
         id="stop37" />
      <stop
         offset="1"
         stop-color="#1a237e"
         id="stop39" />
    </radialGradient>
    <radialGradient
       cx="31000"
       cy="35300"
       r="798"
       gradientUnits="userSpaceOnUse"
       id="color-9">
      <stop
         offset="1"
         stop-color="#5c6bc0"
         id="stop42" />
      <stop
         offset="1"
         stop-color="#1a237e"
         id="stop44" />
    </radialGradient>
    <radialGradient
       cx="39000"
       cy="24700"
       r="798"
       gradientUnits="userSpaceOnUse"
       id="color-10">
      <stop
         offset="1"
         stop-color="#5c6bc0"
         id="stop47" />
      <stop
         offset="1"
         stop-color="#1a237e"
         id="stop49" />
    </radialGradient>
    <radialGradient
       cx="32000"
       cy="24700"
       r="798"
       gradientUnits="userSpaceOnUse"
       id="color-11">
      <stop
         offset="1"
         stop-color="#5c6bc0"
         id="stop52" />
      <stop
         offset="1"
         stop-color="#1a237e"
         id="stop54" />
    </radialGradient>
    <radialGradient
       cx="53000"
       cy="36000"
       r="798"
       gradientUnits="userSpaceOnUse"
       id="color-12">
      <stop
         offset="1"
         stop-color="#5c6bc0"
         id="stop57" />
      <stop
         offset="1"
         stop-color="#1a237e"
         id="stop59" />
    </radialGradient>
    <radialGradient
       cx="38300"
       cy="50000"
       r="798"
       gradientUnits="userSpaceOnUse"
       id="color-13">
      <stop
         offset="1"
         stop-color="#5c6bc0"
         id="stop62" />
      <stop
         offset="1"
         stop-color="#1a237e"
         id="stop64" />
    </radialGradient>
    <radialGradient
       cx="26000"
       cy="30000"
       r="798"
       gradientUnits="userSpaceOnUse"
       id="color-14">
      <stop
         offset="1"
         stop-color="#5c6bc0"
         id="stop67" />
      <stop
         offset="1"
         stop-color="#1a237e"
         id="stop69" />
    </radialGradient>
  </defs>
  <path
     style="font-weight:normal;font-size:medium;font-family:sans-serif;text-anchor:start;mix-blend-mode:normal;fill:#1a237e;stroke:none;stroke-width:0.00377953;stroke-linecap:butt;stroke-linejoin:miter;stroke-miterlimit:10;stroke-dasharray:none;stroke-dashoffset:0"
     d="M 147.40234 94.865234 C 146.98487 94.865234 146.64648 95.203618 146.64648 95.621094 L 146.64648 96.755859 L 140.83789 96.755859 C 140.52706 96.638717 140.19361 96.566406 139.8418 96.566406 C 138.68043 96.566406 137.68606 97.267842 137.24805 98.267578 L 142.4375 98.267578 C 142.58993 98.615495 142.67773 98.998178 142.67773 99.402344 L 142.67773 98.267578 L 147.40234 98.267578 C 147.81982 98.267578 148.1582 97.929194 148.1582 97.511719 L 148.1582 95.621094 C 148.1582 95.203618 147.81982 94.865234 147.40234 94.865234 z M 142.67773 99.402344 C 142.67773 99.805602 142.59124 100.18786 142.43945 100.53516 L 142.67773 100.53516 L 142.67773 99.402344 z M 142.43945 100.53516 L 137.24609 100.53516 C 137.55837 101.24966 138.15884 101.79996 138.89844 102.0625 L 138.89844 110.55078 L 137.95312 110.55078 C 138.28643 110.55078 138.60139 110.61895 138.89844 110.72461 L 138.89844 113.38672 C 138.89844 113.59081 138.97592 113.76936 139.08594 113.92383 L 139.08594 115.98242 C 139.79999 115.67034 140.35054 115.06903 140.61328 114.33008 L 199.36914 114.33008 L 199.36914 124.70898 C 198.63116 124.9715 198.03301 125.52351 197.7207 126.23633 L 202.91016 126.23633 C 202.59777 125.52334 201.99799 124.97142 201.25977 124.70898 L 201.25977 116.2207 L 202.20508 116.2207 C 201.87197 116.2207 201.55667 116.15242 201.25977 116.04688 L 201.25977 113.38672 C 201.25977 113.18246 201.1805 113.0022 201.07031 112.84766 L 201.07031 110.79102 C 200.35738 111.10338 199.80738 111.70326 199.54492 112.44141 L 140.78711 112.44141 L 140.78711 102.0625 C 141.52614 101.79978 142.12735 101.24926 142.43945 100.53516 z M 201.07031 110.79102 C 201.41823 110.63858 201.80091 110.55078 202.20508 110.55078 L 201.07031 110.55078 L 201.07031 110.79102 z M 202.20508 110.55078 C 202.60834 110.55078 202.99059 110.63727 203.33789 110.78906 L 203.33789 110.55078 L 202.20508 110.55078 z M 203.33789 110.78906 L 203.33789 112.84766 C 203.22788 113.00212 203.15039 113.18263 203.15039 113.38672 C 203.15039 113.59081 203.22788 113.76936 203.33789 113.92383 L 203.33789 115.98242 C 204.05194 115.67034 204.60249 115.06903 204.86523 114.33008 L 215.43359 114.33008 C 215.56405 114.33008 215.68774 114.30367 215.80078 114.25586 C 216.13991 114.11242 216.37891 113.7781 216.37891 113.38672 L 216.37891 111.49609 L 216.37891 108.66211 L 219.21289 108.66211 L 219.21289 120 L 221.10156 120 L 225.82617 120 L 225.82617 118.10938 L 225.82617 108.66211 L 228.66211 108.66211 L 228.66211 120 L 230.55078 120 L 235.27539 120 L 235.27539 118.10938 L 235.27539 108.66211 L 238.10938 108.66211 L 238.10938 120 L 240 120 L 244.72461 120 L 244.72461 118.10938 L 244.72461 108.66211 L 247.55859 108.66211 L 247.55859 120 L 249.44922 120 L 254.17383 120 L 254.17383 118.10938 L 254.17383 108.66211 L 257.00781 108.66211 L 257.00781 120 L 258.89844 120 L 263.62109 120 L 263.62109 118.10938 L 263.62109 114.33008 L 271.18164 114.33008 L 271.18164 188.03125 L 262.67773 188.03125 C 262.15589 188.03125 261.73242 188.45472 261.73242 188.97656 C 261.73242 189.04393 261.75808 189.10264 261.77148 189.16602 L 261.73242 189.16602 L 261.73242 198.61328 L 258.89844 198.61328 L 258.89844 179.7168 L 258.89844 177.82617 L 254.17383 177.82617 L 252.2832 177.82617 L 252.2832 198.61328 L 249.44922 198.61328 L 249.44922 179.7168 L 249.44922 177.82617 L 244.72461 177.82617 L 242.83398 177.82617 L 242.83398 198.61328 L 240 198.61328 L 240 179.7168 L 240 177.82617 L 235.27539 177.82617 L 233.38672 177.82617 L 233.38672 198.61328 L 230.55078 198.61328 L 230.55078 179.7168 L 230.55078 177.82617 L 225.82617 177.82617 L 223.9375 177.82617 L 223.9375 198.61328 L 221.10156 198.61328 L 221.10156 179.7168 L 221.10156 177.82617 L 216.37891 177.82617 L 214.48828 177.82617 L 214.48828 198.61328 L 211.6543 198.61328 L 211.6543 179.7168 L 211.6543 177.82617 L 206.92969 177.82617 L 205.03906 177.82617 L 205.03906 198.61328 L 202.20508 198.61328 L 202.20508 179.7168 L 202.20508 177.82617 L 197.48047 177.82617 L 195.58984 177.82617 L 195.58984 198.61328 L 192.75586 198.61328 L 192.75586 179.7168 L 192.75586 177.82617 L 188.03125 177.82617 L 186.14258 177.82617 L 186.14258 198.61328 L 183.30664 198.61328 L 183.30664 179.7168 L 183.30664 177.82617 L 178.58203 177.82617 L 176.69336 177.82617 L 176.69336 198.61328 L 173.85742 198.61328 L 173.85742 179.7168 L 173.85742 177.82617 L 169.13477 177.82617 L 167.24414 177.82617 L 167.24414 198.61328 L 164.41016 198.61328 L 164.41016 179.7168 L 164.41016 177.82617 L 159.68555 177.82617 L 157.79492 177.82617 L 157.79492 188.03125 L 147.7793 188.03125 C 147.25745 188.03125 146.83398 188.45472 146.83398 188.97656 C 146.83398 189.49841 147.25745 189.92188 147.7793 189.92188 L 158.74023 189.92188 C 159.19471 189.92188 159.55607 189.59357 159.64648 189.16602 L 159.68555 189.16602 L 159.68555 179.7168 L 162.51953 179.7168 L 162.51953 200.50391 L 164.41016 200.50391 L 169.13477 200.50391 L 169.13477 198.61328 L 169.13477 179.7168 L 171.96875 179.7168 L 171.96875 200.50391 L 173.85742 200.50391 L 178.58203 200.50391 L 178.58203 198.61328 L 178.58203 179.7168 L 181.41797 179.7168 L 181.41797 200.50391 L 183.30664 200.50391 L 188.03125 200.50391 L 188.03125 198.61328 L 188.03125 179.7168 L 190.86523 179.7168 L 190.86523 200.50391 L 192.75586 200.50391 L 197.48047 200.50391 L 197.48047 198.61328 L 197.48047 179.7168 L 200.31445 179.7168 L 200.31445 200.50391 L 202.20508 200.50391 L 206.92969 200.50391 L 206.92969 198.61328 L 206.92969 179.7168 L 209.76367 179.7168 L 209.76367 200.50391 L 211.6543 200.50391 L 216.37891 200.50391 L 216.37891 198.61328 L 216.37891 179.7168 L 219.21289 179.7168 L 219.21289 200.50391 L 221.10156 200.50391 L 225.82617 200.50391 L 225.82617 198.61328 L 225.82617 179.7168 L 228.66211 179.7168 L 228.66211 200.50391 L 230.55078 200.50391 L 235.27539 200.50391 L 235.27539 198.61328 L 235.27539 179.7168 L 238.10938 179.7168 L 238.10938 200.50391 L 240 200.50391 L 244.72461 200.50391 L 244.72461 198.61328 L 244.72461 179.7168 L 247.55859 179.7168 L 247.55859 200.50391 L 249.44922 200.50391 L 254.17383 200.50391 L 254.17383 198.61328 L 254.17383 179.7168 L 257.00781 179.7168 L 257.00781 200.50391 L 258.89844 200.50391 L 263.62109 200.50391 L 263.62109 198.61328 L 263.62109 189.92188 L 272.12695 189.92188 C 272.25741 189.92188 272.3811 189.89547 272.49414 189.84766 C 272.83327 189.70422 273.07031 189.36794 273.07031 188.97656 L 273.07031 113.38672 C 273.07031 112.86488 272.6488 112.44141 272.12695 112.44141 L 262.67773 112.44141 C 262.15589 112.44141 261.73242 112.86488 261.73242 113.38672 L 261.73242 118.10938 L 258.89844 118.10938 L 258.89844 108.66211 L 258.89844 106.77148 L 254.17383 106.77148 L 252.2832 106.77148 L 252.2832 118.10938 L 249.44922 118.10938 L 249.44922 108.66211 L 249.44922 106.77148 L 244.72461 106.77148 L 242.83398 106.77148 L 242.83398 118.10938 L 240 118.10938 L 240 108.66211 L 240 106.77148 L 235.27539 106.77148 L 233.38672 106.77148 L 233.38672 118.10938 L 230.55078 118.10938 L 230.55078 108.66211 L 230.55078 106.77148 L 225.82617 106.77148 L 223.9375 106.77148 L 223.9375 118.10938 L 221.10156 118.10938 L 221.10156 108.66211 L 221.10156 106.77148 L 216.37891 106.77148 L 214.48828 106.77148 L 214.48828 112.44141 L 204.86523 112.44141 C 204.60249 111.70245 204.05194 111.10114 203.33789 110.78906 z M 203.33789 115.98242 C 202.99059 116.13421 202.60834 116.2207 202.20508 116.2207 L 203.33789 116.2207 L 203.33789 115.98242 z M 202.91016 126.23633 C 203.06259 126.58425 203.15039 126.96497 203.15039 127.36914 L 203.15039 126.23633 L 202.91016 126.23633 z M 203.15039 127.36914 C 203.15039 127.77331 203.06259 128.15599 202.91016 128.50391 L 203.15039 128.50391 L 203.15039 127.36914 z M 202.91016 128.50391 L 197.7207 128.50391 C 198.03301 129.21672 198.63116 129.76874 199.36914 130.03125 L 199.36914 133.03906 C 199.36914 133.56091 199.79261 133.98438 200.31445 133.98438 C 200.8363 133.98438 201.25977 133.56091 201.25977 133.03906 L 201.25977 130.03125 C 201.99799 129.76882 202.59777 129.21689 202.91016 128.50391 z M 197.7207 128.50391 C 197.56827 128.15599 197.48047 127.77331 197.48047 127.36914 L 197.48047 128.50391 L 197.7207 128.50391 z M 197.48047 127.36914 C 197.48047 126.96497 197.56827 126.58425 197.7207 126.23633 L 197.48047 126.23633 L 197.48047 127.36914 z M 139.08594 115.98242 C 138.73864 116.13421 138.35638 116.2207 137.95312 116.2207 L 139.08594 116.2207 L 139.08594 115.98242 z M 137.95312 116.2207 C 137.54896 116.2207 137.16628 116.1329 136.81836 115.98047 L 136.81836 110.79102 C 136.04523 111.12975 135.46149 111.8057 135.23242 112.63086 L 129.33398 112.63086 C 129.31141 112.54956 129.28923 112.46881 129.25977 112.39062 L 129.25977 102.12109 C 130.08567 101.89175 130.76124 101.30937 131.09961 100.53516 L 125.9082 100.53516 C 126.24641 101.309 126.92268 101.89151 127.74805 102.12109 L 127.74805 110.55078 L 126.61328 110.55078 C 127.01745 110.55078 127.40013 110.63858 127.74805 110.79102 L 127.74805 115.98047 C 128.52055 115.64201 129.10451 114.96682 129.33398 114.14258 L 135.23438 114.14258 C 135.25627 114.22117 135.2783 114.29931 135.30664 114.375 L 135.30664 124.65039 C 134.48211 124.87974 133.8073 125.46363 133.46875 126.23633 L 138.6582 126.23633 C 138.3195 125.46326 137.64343 124.8795 136.81836 124.65039 L 136.81836 116.2207 L 137.95312 116.2207 z M 138.6582 126.23633 C 138.81064 126.58425 138.89844 126.96497 138.89844 127.36914 L 138.89844 126.23633 L 138.6582 126.23633 z M 138.89844 127.36914 C 138.89844 127.77331 138.81064 128.15599 138.6582 128.50391 L 133.46875 128.50391 C 133.90677 129.50364 134.90113 130.20508 136.0625 130.20508 C 136.41431 130.20508 136.74776 130.13277 137.05859 130.01562 L 143.24414 130.01562 L 143.24414 130.77148 C 143.24414 131.18896 143.58252 131.52734 144 131.52734 C 144.41748 131.52734 144.75586 131.18896 144.75586 130.77148 L 144.75586 129.25977 C 144.75586 128.84229 144.41748 128.50391 144 128.50391 L 138.89844 128.50391 L 138.89844 127.36914 z M 133.46875 128.50391 C 133.31632 128.15599 133.22852 127.77331 133.22852 127.36914 L 133.22852 128.50391 L 133.46875 128.50391 z M 133.22852 127.36914 C 133.22852 126.96497 133.31632 126.58425 133.46875 126.23633 L 133.22852 126.23633 L 133.22852 127.36914 z M 127.74805 115.98047 C 127.40013 116.1329 127.01745 116.2207 126.61328 116.2207 L 127.74805 116.2207 L 127.74805 115.98047 z M 126.61328 116.2207 C 126.20912 116.2207 125.82839 116.1329 125.48047 115.98047 L 125.48047 110.79102 C 124.7074 111.12972 124.12364 111.80579 123.89453 112.63086 L 98.267578 112.63086 C 97.850103 112.63086 97.511719 112.96924 97.511719 113.38672 C 97.511719 113.80419 97.850103 114.14258 98.267578 114.14258 L 123.89453 114.14258 C 123.91699 114.22326 123.9395 114.30325 123.96875 114.38086 L 123.96875 124.65039 C 123.1437 124.8795 122.46957 125.46329 122.13086 126.23633 L 127.31836 126.23633 C 126.97981 125.46363 126.305 124.87974 125.48047 124.65039 L 125.48047 116.2207 L 126.61328 116.2207 z M 127.31836 126.23633 C 127.47079 126.58425 127.55859 126.96497 127.55859 127.36914 L 127.55859 126.23633 L 127.31836 126.23633 z M 127.55859 127.36914 C 127.55859 127.77331 127.47079 128.15599 127.31836 128.50391 L 127.55859 128.50391 L 127.55859 127.36914 z M 127.31836 128.50391 L 124.72461 128.50391 L 122.13086 128.50391 C 121.97841 128.15598 121.89062 127.77333 121.89062 127.36914 L 121.89062 128.50391 L 117.16602 128.50391 C 116.74854 128.50391 116.41016 128.84229 116.41016 129.25977 L 116.41016 131.15039 C 116.41016 131.56787 116.74854 131.90625 117.16602 131.90625 C 117.58349 131.90625 117.92188 131.56787 117.92188 131.15039 L 117.92188 130.01562 L 123.72852 130.01562 C 124.03935 130.13277 124.3728 130.20508 124.72461 130.20508 C 125.88598 130.20508 126.88034 129.50364 127.31836 128.50391 z M 121.89062 127.36914 C 121.89062 126.96495 121.97841 126.58426 122.13086 126.23633 L 121.89062 126.23633 L 121.89062 127.36914 z M 125.48047 110.79102 C 125.82839 110.63858 126.20912 110.55078 126.61328 110.55078 L 125.48047 110.55078 L 125.48047 110.79102 z M 125.9082 100.53516 C 125.75642 100.18786 125.66992 99.805602 125.66992 99.402344 L 125.66992 100.53516 L 125.9082 100.53516 z M 125.66992 99.402344 C 125.66992 98.998178 125.75772 98.615495 125.91016 98.267578 L 128.50391 98.267578 L 131.09766 98.267578 C 130.65964 97.267842 129.66527 96.566406 128.50391 96.566406 C 128.15196 96.566406 127.81874 96.638633 127.50781 96.755859 L 121.70117 96.755859 L 121.70117 96 C 121.70117 95.582525 121.36279 95.244141 120.94531 95.244141 C 120.52784 95.244141 120.18945 95.582525 120.18945 96 L 120.18945 97.511719 C 120.18945 97.929194 120.52784 98.267578 120.94531 98.267578 L 125.66992 98.267578 L 125.66992 99.402344 z M 131.09766 98.267578 C 131.25009 98.615495 131.33789 98.998178 131.33789 99.402344 L 131.33789 98.267578 L 131.09766 98.267578 z M 131.33789 99.402344 C 131.33789 99.805602 131.2514 100.18786 131.09961 100.53516 L 131.33789 100.53516 L 131.33789 99.402344 z M 136.81836 110.79102 C 137.16628 110.63858 137.54896 110.55078 137.95312 110.55078 L 136.81836 110.55078 L 136.81836 110.79102 z M 137.24609 100.53516 C 137.09431 100.18786 137.00781 99.805602 137.00781 99.402344 L 137.00781 100.53516 L 137.24609 100.53516 z M 137.00781 99.402344 C 137.00781 98.998178 137.09561 98.615495 137.24805 98.267578 L 137.00781 98.267578 L 137.00781 99.402344 z "
     transform="scale(264.58333)"
     id="path74" />
</svg>
