<?xml version="1.0" encoding="UTF-8" standalone="no"?>
<svg
   xmlns:dc="http://purl.org/dc/elements/1.1/"
   xmlns:cc="http://creativecommons.org/ns#"
   xmlns:rdf="http://www.w3.org/1999/02/22-rdf-syntax-ns#"
   xmlns:svg="http://www.w3.org/2000/svg"
   xmlns="http://www.w3.org/2000/svg"
   xmlns:sodipodi="http://sodipodi.sourceforge.net/DTD/sodipodi-0.dtd"
   xmlns:inkscape="http://www.inkscape.org/namespaces/inkscape"
   width="135mm"
   height="85mm"
   viewBox="0 0 135000 85000"
   version="1.1"
   id="svg238"
   sodipodi:docname="F_250_64.svg"
   inkscape:version="0.92.1 r15371">
  <metadata
     id="metadata242">
    <rdf:RDF>
      <cc:Work
         rdf:about="">
        <dc:format>image/svg+xml</dc:format>
        <dc:type
           rdf:resource="http://purl.org/dc/dcmitype/StillImage" />
        <dc:title></dc:title>
      </cc:Work>
    </rdf:RDF>
  </metadata>
  <sodipodi:namedview
     pagecolor="#ffffff"
     bordercolor="#666666"
     borderopacity="1"
     objecttolerance="10"
     gridtolerance="10"
     guidetolerance="10"
     inkscape:pageopacity="0"
     inkscape:pageshadow="2"
     inkscape:window-width="1536"
     inkscape:window-height="801"
     id="namedview240"
     showgrid="false"
     inkscape:zoom="2.2499383"
     inkscape:cx="255.11811"
     inkscape:cy="125.07339"
     inkscape:window-x="-8"
     inkscape:window-y="-8"
     inkscape:window-maximized="1"
     inkscape:current-layer="svg238" />
  <defs
     id="defs72">
    <radialGradient
       cx="61000"
       cy="36000"
       r="1250"
       gradientUnits="userSpaceOnUse"
       id="color-1">
      <stop
         offset="0.32"
         stop-color="#3f51b5"
         id="stop2" />
      <stop
         offset="0.32"
         stop-color="#1a237e"
         id="stop4" />
    </radialGradient>
    <radialGradient
       cx="53000"
       cy="36000"
       r="1250"
       gradientUnits="userSpaceOnUse"
       id="color-2">
      <stop
         offset="0.32"
         stop-color="#3f51b5"
         id="stop7" />
      <stop
         offset="0.32"
         stop-color="#1a237e"
         id="stop9" />
    </radialGradient>
    <radialGradient
       cx="42000"
       cy="36000"
       r="1250"
       gradientUnits="userSpaceOnUse"
       id="color-3">
      <stop
         offset="0.32"
         stop-color="#3f51b5"
         id="stop12" />
      <stop
         offset="0.32"
         stop-color="#1a237e"
         id="stop14" />
    </radialGradient>
    <radialGradient
       cx="53000"
       cy="24000"
       r="1250"
       gradientUnits="userSpaceOnUse"
       id="color-4">
      <stop
         offset="0.32"
         stop-color="#3f51b5"
         id="stop17" />
      <stop
         offset="0.32"
         stop-color="#1a237e"
         id="stop19" />
    </radialGradient>
    <radialGradient
       cx="42000"
       cy="24000"
       r="1250"
       gradientUnits="userSpaceOnUse"
       id="color-5">
      <stop
         offset="0.32"
         stop-color="#3f51b5"
         id="stop22" />
      <stop
         offset="0.32"
         stop-color="#1a237e"
         id="stop24" />
    </radialGradient>
    <radialGradient
       cx="35000"
       cy="30000"
       r="1250"
       gradientUnits="userSpaceOnUse"
       id="color-6">
      <stop
         offset="0.32"
         stop-color="#3f51b5"
         id="stop27" />
      <stop
         offset="0.32"
         stop-color="#1a237e"
         id="stop29" />
    </radialGradient>
    <radialGradient
       cx="50000"
       cy="50000"
       r="1250"
       gradientUnits="userSpaceOnUse"
       id="color-7">
      <stop
         offset="0.76"
         stop-color="#3f51b5"
         id="stop32" />
      <stop
         offset="0.76"
         stop-color="#1a237e"
         id="stop34" />
    </radialGradient>
    <radialGradient
       cx="61000"
       cy="36000"
       r="1010"
       gradientUnits="userSpaceOnUse"
       id="color-8">
      <stop
         offset="1"
         stop-color="#5c6bc0"
         id="stop37" />
      <stop
         offset="1"
         stop-color="#1a237e"
         id="stop39" />
    </radialGradient>
    <radialGradient
       cx="53000"
       cy="36000"
       r="1010"
       gradientUnits="userSpaceOnUse"
       id="color-9">
      <stop
         offset="1"
         stop-color="#5c6bc0"
         id="stop42" />
      <stop
         offset="1"
         stop-color="#1a237e"
         id="stop44" />
    </radialGradient>
    <radialGradient
       cx="42000"
       cy="36000"
       r="1010"
       gradientUnits="userSpaceOnUse"
       id="color-10">
      <stop
         offset="1"
         stop-color="#5c6bc0"
         id="stop47" />
      <stop
         offset="1"
         stop-color="#1a237e"
         id="stop49" />
    </radialGradient>
    <radialGradient
       cx="53000"
       cy="24000"
       r="1010"
       gradientUnits="userSpaceOnUse"
       id="color-11">
      <stop
         offset="1"
         stop-color="#5c6bc0"
         id="stop52" />
      <stop
         offset="1"
         stop-color="#1a237e"
         id="stop54" />
    </radialGradient>
    <radialGradient
       cx="42000"
       cy="24000"
       r="1010"
       gradientUnits="userSpaceOnUse"
       id="color-12">
      <stop
         offset="1"
         stop-color="#5c6bc0"
         id="stop57" />
      <stop
         offset="1"
         stop-color="#1a237e"
         id="stop59" />
    </radialGradient>
    <radialGradient
       cx="35000"
       cy="30000"
       r="1010"
       gradientUnits="userSpaceOnUse"
       id="color-13">
      <stop
         offset="1"
         stop-color="#5c6bc0"
         id="stop62" />
      <stop
         offset="1"
         stop-color="#1a237e"
         id="stop64" />
    </radialGradient>
    <radialGradient
       cx="50000"
       cy="50000"
       r="1010"
       gradientUnits="userSpaceOnUse"
       id="color-14">
      <stop
         offset="1"
         stop-color="#5c6bc0"
         id="stop67" />
      <stop
         offset="1"
         stop-color="#1a237e"
         id="stop69" />
    </radialGradient>
  </defs>
  <path
     style="font-weight:normal;font-size:medium;font-family:sans-serif;text-anchor:start;mix-blend-mode:normal;fill:#1a237e;stroke:none;stroke-width:0.00377953;stroke-linecap:butt;stroke-linejoin:miter;stroke-miterlimit:10;stroke-dasharray:none;stroke-dashoffset:0"
     d="M 200.47266 89.777344 C 200.23427 89.736767 199.98042 89.786574 199.76758 89.9375 L 189.375 97.308594 C 189.35387 97.323579 189.34374 97.346933 189.32422 97.363281 C 189.30133 97.382401 189.27293 97.392892 189.25195 97.414062 C 189.22848 97.437733 189.21619 97.470063 189.19531 97.496094 C 189.19328 97.498632 189.19146 97.501346 189.18945 97.503906 C 189.15226 97.551277 189.11887 97.597737 189.0918 97.650391 C 189.08047 97.672214 189.06042 97.690113 189.05078 97.712891 C 189.03698 97.745611 189.03744 97.783894 189.02734 97.818359 C 189.00958 97.87943 188.99742 97.938602 188.99219 98.001953 C 188.98995 98.028455 188.97656 98.051046 188.97656 98.078125 C 188.97656 98.079451 188.97656 98.080706 188.97656 98.082031 C 188.97657 98.084027 188.97655 98.085892 188.97656 98.087891 L 189.01367 102.42383 L 187.91797 102.42383 C 187.91797 102.42383 187.91602 102.42578 187.91602 102.42578 L 187.91602 103.55859 C 187.91602 103.55859 187.91797 103.56055 187.91797 103.56055 L 191.92383 103.56055 C 191.92383 103.56055 191.92578 103.55859 191.92578 103.55859 L 191.92578 102.42578 C 191.92578 102.42578 191.92383 102.42383 191.92383 102.42383 L 190.90234 102.42383 C 190.90234 102.42104 190.90432 102.4188 190.9043 102.41602 L 190.86914 98.564453 L 200.86133 91.478516 C 201.28701 91.176667 201.38779 90.587794 201.08594 90.162109 C 200.93501 89.949267 200.71104 89.817921 200.47266 89.777344 z M 158.80469 89.955078 C 158.51116 89.930265 158.21614 90.080347 158.07031 90.357422 C 157.87587 90.726852 158.01924 91.182515 158.38867 91.376953 L 172.3457 98.724609 L 172.3457 102.42383 L 171.09961 102.42383 C 171.09961 102.42383 171.09766 102.42578 171.09766 102.42578 L 171.09766 103.55859 C 171.09766 103.55859 171.09961 103.56055 171.09961 103.56055 L 175.10547 103.56055 C 175.10547 103.56055 175.10742 103.55859 175.10742 103.55859 L 175.10742 102.42578 C 175.10742 102.42578 175.10547 102.42383 175.10547 102.42383 L 173.85742 102.42383 L 173.85742 98.267578 C 173.85742 98.23301 173.84238 98.203259 173.83789 98.169922 C 173.83056 98.115183 173.82556 98.061507 173.80664 98.009766 C 173.78939 97.962585 173.76218 97.923105 173.73633 97.880859 C 173.71205 97.840897 173.69188 97.800836 173.66016 97.765625 C 173.6216 97.722708 173.57472 97.691388 173.52734 97.658203 C 173.50148 97.640124 173.48373 97.614691 173.45508 97.599609 L 159.0918 90.039062 C 158.99944 89.990453 158.90253 89.963349 158.80469 89.955078 z M 171.09961 104.69141 C 171.09961 104.69141 171.09766 104.69336 171.09766 104.69336 L 171.09766 105.82617 C 171.09766 105.82617 171.09961 105.82812 171.09961 105.82812 L 172.3457 105.82812 L 172.3457 111.87305 C 172.3457 111.87305 172.34375 111.87305 172.34375 111.87305 L 172.34375 114.89844 L 172.34375 115.38867 C 172.34375 115.38867 172.3457 115.39062 172.3457 115.39062 L 173.48047 115.39062 C 173.48047 115.39062 173.48242 115.38867 173.48242 115.38867 L 173.48242 114.89844 L 173.48242 114.14453 L 186.33008 114.14453 L 186.33008 120.94336 L 185.08398 120.94336 C 185.08398 120.94336 185.08203 120.94531 185.08203 120.94531 L 185.08203 122.07812 C 185.08203 122.07812 185.08398 122.08008 185.08398 122.08008 L 189.08984 122.08008 C 189.08984 122.08008 189.0918 122.07812 189.0918 122.07812 L 189.0918 120.94531 C 189.0918 120.94531 189.08984 120.94336 189.08984 120.94336 L 187.8418 120.94336 L 187.8418 114.52148 C 187.8418 114.52148 187.84375 114.51953 187.84375 114.51953 L 187.84375 114.14258 L 187.84375 112.63086 L 187.84375 111.87305 L 187.84375 111.38281 C 187.84375 111.38281 187.8418 111.38086 187.8418 111.38086 L 186.70898 111.38086 C 186.70898 111.38086 186.70703 111.38281 186.70703 111.38281 L 186.70703 112.28906 L 186.70703 112.62891 L 173.85742 112.62891 L 173.85742 105.82812 L 175.10547 105.82812 C 175.10547 105.82812 175.10742 105.82617 175.10742 105.82617 L 175.10742 104.69336 C 175.10742 104.69336 175.10547 104.69141 175.10547 104.69141 L 171.09961 104.69141 z M 187.91797 104.69141 C 187.91797 104.69141 187.91602 104.69336 187.91602 104.69336 L 187.91602 105.82617 C 187.91602 105.82617 187.91797 105.82812 187.91797 105.82812 L 188.97656 105.82812 L 188.97656 111.87305 C 188.97656 111.87305 188.97461 111.87305 188.97461 111.87305 L 188.97461 114.51953 L 188.97461 114.89844 L 188.97461 115.38867 C 188.97461 115.38867 188.97656 115.39062 188.97656 115.39062 L 190.10938 115.39062 C 190.10938 115.39062 190.11133 115.38867 190.11133 115.38867 L 190.11133 114.89844 L 190.11133 114.33203 L 217.32227 114.33203 L 217.32227 120.94336 L 216.30273 120.94336 C 216.30273 120.94336 216.30078 120.94531 216.30078 120.94531 L 216.30078 122.07812 C 216.30078 122.07812 216.30273 122.08008 216.30273 122.08008 L 220.30859 122.08008 C 220.30859 122.08008 220.31055 122.07812 220.31055 122.07812 L 220.31055 120.94531 C 220.31055 120.94531 220.30859 120.94336 220.30859 120.94336 L 219.21289 120.94336 L 219.21289 114.33203 C 219.21289 114.33203 219.21484 114.33008 219.21484 114.33008 L 219.21484 112.44141 L 219.21484 111.87305 L 219.21484 111.38281 C 219.21484 111.38281 219.21289 111.38086 219.21289 111.38086 L 218.07812 111.38086 C 218.07812 111.38086 218.07617 111.38281 218.07617 111.38281 L 218.07617 112.17578 L 218.07617 112.43945 L 190.86523 112.43945 L 190.86523 105.82812 L 191.92383 105.82812 C 191.92383 105.82812 191.92578 105.82617 191.92578 105.82617 L 191.92578 104.69336 C 191.92578 104.69336 191.92383 104.69141 191.92383 104.69141 L 187.91797 104.69141 z M 170.07812 111.38086 C 170.07812 111.38086 170.07617 111.38281 170.07617 111.38281 L 170.07617 111.41992 L 170.07617 111.5332 L 170.07617 111.87305 L 170.07617 112.63086 L 158.74023 112.63086 L 132.2832 112.63086 C 131.86573 112.63086 131.52734 112.96924 131.52734 113.38672 C 131.52734 113.80419 131.86573 114.14258 132.2832 114.14258 L 158.74023 114.14258 L 169.70117 114.14258 L 169.70117 120.94336 L 168.45312 120.94336 C 168.45312 120.94336 168.45117 120.94531 168.45117 120.94531 L 168.45117 122.07812 C 168.45117 122.07812 168.45312 122.08008 168.45312 122.08008 L 172.45898 122.08008 C 172.45898 122.08008 172.46094 122.07812 172.46094 122.07812 L 172.46094 120.94531 C 172.46094 120.94531 172.45898 120.94336 172.45898 120.94336 L 171.21289 120.94336 L 171.21289 114.90039 C 171.21289 114.90039 171.21484 114.89844 171.21484 114.89844 L 171.21484 111.87305 L 171.21484 111.5332 L 171.21484 111.41992 L 171.21484 111.38281 C 171.21484 111.38281 171.21289 111.38086 171.21289 111.38086 L 170.07812 111.38086 z M 220.3457 111.38086 C 220.3457 111.38086 220.34375 111.38281 220.34375 111.38281 L 220.34375 111.87305 L 220.34375 114.89844 L 220.34375 115.38867 C 220.34375 115.38867 220.3457 115.39062 220.3457 115.39062 L 221.48047 115.39062 C 221.48047 115.39062 221.48242 115.38867 221.48242 115.38867 L 221.48242 114.33008 L 238.10938 114.33008 L 302.36133 114.33008 L 305.19727 114.33008 L 305.19727 118.10938 L 297.63867 118.10938 L 297.63867 120 L 297.63867 125.66992 L 299.52734 125.66992 L 305.19727 125.66992 L 305.19727 129.44922 L 297.63867 129.44922 L 297.63867 131.33789 L 297.63867 137.00781 L 299.52734 137.00781 L 305.19727 137.00781 L 305.19727 140.78711 L 297.63867 140.78711 L 297.63867 142.67773 L 297.63867 148.3457 L 299.52734 148.3457 L 305.19727 148.3457 L 305.19727 152.12695 L 297.63867 152.12695 L 297.63867 154.01562 L 297.63867 159.68555 L 299.52734 159.68555 L 301.41797 159.68555 L 301.41797 192.75586 L 301.41797 193.70117 L 297.63867 193.70117 L 297.63867 182.36133 L 297.63867 180.47266 L 291.96875 180.47266 L 290.07812 180.47266 L 290.07812 193.70117 L 286.29883 193.70117 L 286.29883 182.36133 L 286.29883 180.47266 L 280.63086 180.47266 L 278.74023 180.47266 L 278.74023 193.70117 L 274.96094 193.70117 L 274.96094 182.36133 L 274.96094 180.47266 L 269.29102 180.47266 L 267.40234 180.47266 L 267.40234 193.70117 L 263.62109 193.70117 L 263.62109 182.36133 L 263.62109 180.47266 L 257.95312 180.47266 L 256.0625 180.47266 L 256.0625 193.70117 L 252.2832 193.70117 L 252.2832 182.36133 L 252.2832 180.47266 L 246.61328 180.47266 L 244.72461 180.47266 L 244.72461 193.70117 L 240.94531 193.70117 L 240.94531 182.36133 L 240.94531 180.47266 L 235.27539 180.47266 L 233.38672 180.47266 L 233.38672 193.70117 L 229.60547 193.70117 L 229.60547 182.36133 L 229.60547 180.47266 L 223.9375 180.47266 L 222.04688 180.47266 L 222.04688 193.70117 L 218.26758 193.70117 L 218.26758 182.36133 L 218.26758 180.47266 L 212.59766 180.47266 L 210.70898 180.47266 L 210.70898 188.03125 L 188.97656 188.03125 C 188.45472 188.03125 188.03125 188.45472 188.03125 188.97656 C 188.03125 189.49841 188.45472 189.92188 188.97656 189.92188 L 211.6543 189.92188 C 211.78476 189.92188 211.90844 189.89547 212.02148 189.84766 C 212.36062 189.70422 212.59766 189.36794 212.59766 188.97656 L 212.59766 185.19727 L 212.59766 182.36133 L 216.37891 182.36133 L 216.37891 195.58984 L 218.26758 195.58984 L 223.9375 195.58984 L 223.9375 193.70117 L 223.9375 182.36133 L 227.7168 182.36133 L 227.7168 195.58984 L 229.60547 195.58984 L 235.27539 195.58984 L 235.27539 193.70117 L 235.27539 182.36133 L 239.05469 182.36133 L 239.05469 195.58984 L 240.94531 195.58984 L 246.61328 195.58984 L 246.61328 193.70117 L 246.61328 182.36133 L 250.39453 182.36133 L 250.39453 195.58984 L 252.2832 195.58984 L 257.95312 195.58984 L 257.95312 193.70117 L 257.95312 182.36133 L 261.73242 182.36133 L 261.73242 195.58984 L 263.62109 195.58984 L 269.29102 195.58984 L 269.29102 193.70117 L 269.29102 182.36133 L 273.07031 182.36133 L 273.07031 195.58984 L 274.96094 195.58984 L 280.63086 195.58984 L 280.63086 193.70117 L 280.63086 182.36133 L 284.41016 182.36133 L 284.41016 195.58984 L 286.29883 195.58984 L 291.96875 195.58984 L 291.96875 193.70117 L 291.96875 182.36133 L 295.74805 182.36133 L 295.74805 195.58984 L 297.63867 195.58984 L 303.30664 195.58984 L 303.30664 193.70117 L 303.30664 188.03125 L 303.30664 158.74023 C 303.30664 158.21839 302.88317 157.79492 302.36133 157.79492 L 299.52734 157.79492 L 299.52734 154.01562 L 305.19727 154.01562 L 307.08594 154.01562 L 307.08594 148.3457 L 307.08594 146.45703 L 299.52734 146.45703 L 299.52734 142.67773 L 305.19727 142.67773 L 307.08594 142.67773 L 307.08594 137.00781 L 307.08594 135.11719 L 299.52734 135.11719 L 299.52734 131.33789 L 305.19727 131.33789 L 307.08594 131.33789 L 307.08594 125.66992 L 307.08594 123.7793 L 299.52734 123.7793 L 299.52734 120 L 305.19727 120 L 307.08594 120 L 307.08594 114.33008 L 307.08594 112.44141 L 302.36133 112.44141 L 238.10938 112.44141 L 221.48242 112.44141 L 221.48242 111.87305 L 221.48242 111.38281 C 221.48242 111.38281 221.48047 111.38086 221.48047 111.38086 L 220.3457 111.38086 z M 168.45312 123.21094 C 168.45312 123.21094 168.45117 123.21289 168.45117 123.21289 L 168.45117 124.3457 C 168.45117 124.3457 168.45312 124.34766 168.45312 124.34766 L 169.70117 124.34766 L 169.70117 128.0918 L 158.33008 135.42773 C 157.97927 135.65406 157.87914 136.12186 158.10547 136.47266 C 158.33179 136.82346 158.79959 136.92359 159.15039 136.69727 L 170.86719 129.13867 C 170.88982 129.12407 170.90135 129.1005 170.92188 129.08398 C 170.9615 129.0521 170.99683 129.01959 171.0293 128.98047 C 171.06207 128.94108 171.08951 128.90184 171.11328 128.85742 C 171.13497 128.81724 171.15181 128.77656 171.16602 128.73242 C 171.18199 128.6827 171.1918 128.63398 171.19727 128.58203 C 171.20015 128.55518 171.21289 128.53152 171.21289 128.50391 L 171.21289 124.34766 L 172.45898 124.34766 C 172.45898 124.34766 172.46094 124.3457 172.46094 124.3457 L 172.46094 123.21289 C 172.46094 123.21289 172.45898 123.21094 172.45898 123.21094 L 168.45312 123.21094 z M 185.08398 123.21094 C 185.08398 123.21094 185.08203 123.21289 185.08203 123.21289 L 185.08203 124.3457 C 185.08203 124.3457 185.08398 124.34766 185.08398 124.34766 L 186.33008 124.34766 L 186.33008 128.50391 C 186.33008 128.53777 186.3453 128.56693 186.34961 128.59961 C 186.35635 128.65139 186.3637 128.70076 186.38086 128.75 C 186.3971 128.79665 186.42069 128.83693 186.44531 128.87891 C 186.46921 128.92007 186.4917 128.95969 186.52344 128.99609 C 186.55802 129.03577 186.59854 129.06592 186.64062 129.09766 C 186.66617 129.11693 186.68242 129.14386 186.71094 129.16016 L 199.93945 136.71875 C 200.30192 136.92588 200.76358 136.79997 200.9707 136.4375 C 201.17783 136.07503 201.05192 135.61338 200.68945 135.40625 L 187.8418 128.06445 L 187.8418 124.34766 L 189.08984 124.34766 C 189.08984 124.34766 189.0918 124.3457 189.0918 124.3457 L 189.0918 123.21289 C 189.0918 123.21289 189.08984 123.21094 189.08984 123.21094 L 185.08398 123.21094 z M 216.30273 123.21094 C 216.30273 123.21094 216.30078 123.21289 216.30078 123.21289 L 216.30078 124.3457 C 216.30078 124.3457 216.30273 124.34766 216.30273 124.34766 L 217.32227 124.34766 L 217.32227 128.4668 C 217.32227 128.50428 217.3395 128.53592 217.34375 128.57227 C 217.3511 128.63614 217.36081 128.69676 217.38086 128.75781 C 217.3997 128.81499 217.42424 128.8662 217.45312 128.91797 C 217.4827 128.97162 217.51455 129.02078 217.55469 129.06836 C 217.59681 129.11826 217.64383 129.15896 217.69531 129.19922 C 217.72296 129.22092 217.74089 129.25061 217.77148 129.26953 L 230.05469 136.86719 C 230.49851 137.14168 231.08098 137.00437 231.35547 136.56055 C 231.62996 136.11672 231.49265 135.53425 231.04883 135.25977 L 219.21289 127.93945 L 219.21289 124.34766 L 220.30859 124.34766 C 220.30859 124.34766 220.31055 124.3457 220.31055 124.3457 L 220.31055 123.21289 C 220.31055 123.21289 220.30859 123.21094 220.30859 123.21094 L 216.30273 123.21094 z "
     transform="scale(264.58333)"
     id="path74" />
</svg>
